<svg width="25" height="25" viewBox="0 0 25 25" fill="none" xmlns="http://www.w3.org/2000/svg">
<g clip-path="url(#clip0_429_790)">
<path d="M20.7623 20.0207C22.9186 20.0207 24.667 18.2723 24.667 16.116C24.667 14.5363 23.7248 13.1723 22.3748 12.5582C22.5717 12.1879 22.6842 11.766 22.6842 11.316C22.6842 9.86289 21.5076 8.68633 20.0545 8.68633C19.5295 8.68633 19.0467 8.84102 18.6342 9.10352C18.0342 8.02539 16.8857 7.29883 15.5686 7.29883C13.8764 7.29883 12.4654 8.49414 12.1326 10.0879C11.6779 9.95195 11.1951 9.88164 10.6982 9.88164C7.90449 9.88164 5.63574 12.1504 5.63574 14.9535C5.63574 17.752 7.90449 20.0207 10.7029 20.0207H20.7623Z" fill="url(#paint0_linear_429_790)"/>
<path d="M20.7623 20.0207C22.9186 20.0207 24.667 18.2723 24.667 16.116C24.667 14.5363 23.7248 13.1723 22.3748 12.5582C22.5717 12.1879 22.6842 11.766 22.6842 11.316C22.6842 9.86289 21.5076 8.68633 20.0545 8.68633C19.5295 8.68633 19.0467 8.84102 18.6342 9.10352C18.0342 8.02539 16.8857 7.29883 15.5686 7.29883C13.8764 7.29883 12.4654 8.49414 12.1326 10.0879C11.6779 9.95195 11.1951 9.88164 10.6982 9.88164C7.90449 9.88164 5.63574 12.1504 5.63574 14.9535C5.63574 17.752 7.90449 20.0207 10.7029 20.0207H20.7623Z" fill="url(#paint1_linear_429_790)"/>
<path d="M24.667 16.116C24.667 18.2723 22.9186 20.0207 20.7623 20.0207H10.7029C7.90449 20.0207 5.63574 17.752 5.63574 14.9535C5.63574 14.7566 5.64512 14.5645 5.66855 14.377H24.2592C24.5217 14.8973 24.667 15.4926 24.667 16.116Z" fill="url(#paint2_linear_429_790)"/>
<path d="M20.7621 20.0203C22.9186 20.0203 24.6668 18.2721 24.6668 16.1156C24.6668 13.9591 22.9186 12.2109 20.7621 12.2109C18.6056 12.2109 16.8574 13.9591 16.8574 16.1156C16.8574 18.2721 18.6056 20.0203 20.7621 20.0203Z" fill="url(#paint3_linear_429_790)"/>
<path d="M22.684 11.3152C22.684 11.7652 22.5715 12.1871 22.3699 12.5574C21.8777 12.3324 21.334 12.2105 20.7574 12.2105C19.773 12.2105 18.8777 12.5715 18.1887 13.1715C17.7152 12.6934 17.4199 12.0371 17.4199 11.3152C17.4199 9.86211 18.5965 8.68555 20.0496 8.68555C21.5074 8.68555 22.684 9.8668 22.684 11.3152Z" fill="url(#paint4_linear_429_790)"/>
<path d="M17.425 11.316C17.425 12.0332 17.7109 12.6801 18.175 13.1535C17.5328 13.866 16.6047 14.3113 15.5687 14.3113C13.6328 14.3113 12.0625 12.741 12.0625 10.8051C12.0625 8.86914 13.6328 7.29883 15.5687 7.29883C16.8859 7.29883 18.0344 8.02539 18.6344 9.10352C17.9078 9.57227 17.425 10.3879 17.425 11.316Z" fill="url(#paint5_linear_429_790)"/>
<path d="M8.66693 1.5C8.53699 1.5 8.43164 1.60532 8.43164 1.73529V2.80196C8.43164 2.93194 8.53699 3.03725 8.66693 3.03725C8.79688 3.03725 8.90223 2.93194 8.90223 2.80196V1.73529C8.90223 1.60532 8.79688 1.5 8.66693 1.5Z" fill="url(#paint6_linear_429_790)"/>
<path d="M16.4318 9.26562H15.3652C15.2352 9.26562 15.1299 9.37097 15.1299 9.50092C15.1299 9.63086 15.2352 9.73621 15.3652 9.73621H16.4318C16.5618 9.73621 16.6671 9.63086 16.6671 9.50092C16.6671 9.37097 16.5618 9.26562 16.4318 9.26562Z" fill="url(#paint7_linear_429_790)"/>
<path d="M2.20425 9.50092C2.20425 9.37097 2.09893 9.26562 1.96895 9.26562H0.902286C0.77231 9.26562 0.666992 9.37097 0.666992 9.50092C0.666992 9.63086 0.77231 9.73621 0.902286 9.73621H1.96895C2.09893 9.73621 2.20425 9.63086 2.20425 9.50092Z" fill="url(#paint8_linear_429_790)"/>
<path d="M13.9911 3.84237L13.2369 4.59663C13.145 4.68852 13.145 4.83751 13.2369 4.92937C13.3288 5.02126 13.4777 5.02126 13.5696 4.92937L14.3239 4.17511C14.4158 4.08322 14.4158 3.93423 14.3239 3.84234C14.232 3.75045 14.083 3.75048 13.9911 3.84237Z" fill="url(#paint9_linear_429_790)"/>
<path d="M3.34309 3.84236C3.2512 3.75046 3.10221 3.75046 3.01032 3.84236C2.91843 3.93425 2.91843 4.0832 3.01032 4.17512L3.76458 4.92938C3.85647 5.02127 4.00546 5.02127 4.09732 4.92938C4.18921 4.83749 4.18921 4.68854 4.09732 4.59665L3.34309 3.84236Z" fill="url(#paint10_linear_429_790)"/>
<path d="M11.737 2.11184C11.617 2.06195 11.4793 2.1188 11.4294 2.2388L11.02 3.22377C10.9702 3.34377 11.027 3.48147 11.147 3.53135C11.267 3.58123 11.4047 3.52438 11.4546 3.40438L11.864 2.41941C11.9138 2.29941 11.857 2.16172 11.737 2.11184Z" fill="url(#paint11_linear_429_790)"/>
<path d="M15.9278 12.2634L14.9428 11.854C14.8228 11.8041 14.6852 11.861 14.6353 11.981C14.5854 12.101 14.6422 12.2387 14.7622 12.2886L15.7472 12.6979C15.8672 12.7478 16.0049 12.691 16.0548 12.571C16.1047 12.451 16.0479 12.3133 15.9278 12.2634Z" fill="url(#paint12_linear_429_790)"/>
<path d="M2.57235 6.71262L1.58738 6.30324C1.46738 6.25336 1.32969 6.31021 1.2798 6.43021C1.22992 6.55021 1.28677 6.6879 1.40677 6.73778L2.39174 7.14716C2.51174 7.19705 2.64944 7.14017 2.69932 7.0202C2.7492 6.9002 2.69235 6.7625 2.57235 6.71262Z" fill="url(#paint13_linear_429_790)"/>
<path d="M14.9482 7.16065L15.9341 6.75362C16.0543 6.70402 16.1114 6.56645 16.0619 6.44636C16.0123 6.32623 15.8747 6.26907 15.7546 6.31864L14.7686 6.72567C14.6485 6.77527 14.5913 6.91283 14.6409 7.03293C14.6905 7.15305 14.828 7.21025 14.9482 7.16065Z" fill="url(#paint14_linear_429_790)"/>
<path d="M2.3864 11.8382L1.40046 12.2452C1.28033 12.2948 1.22317 12.4324 1.27274 12.5525C1.32234 12.6726 1.45988 12.7298 1.58 12.6802L2.56598 12.2732C2.6861 12.2236 2.74327 12.086 2.6937 11.9659C2.6441 11.8458 2.50656 11.7886 2.3864 11.8382Z" fill="url(#paint15_linear_429_790)"/>
<path d="M5.92159 2.23151C5.87199 2.11139 5.73442 2.05423 5.61432 2.10379C5.4942 2.15336 5.43704 2.29093 5.48661 2.41106L5.8936 3.39703C5.9432 3.51716 6.08077 3.57432 6.20087 3.52475C6.32099 3.47515 6.37815 3.33761 6.32858 3.21749L5.92159 2.23151Z" fill="url(#paint16_linear_429_790)"/>
<path d="M8.6669 15.1483C11.7859 15.1483 14.3143 12.6198 14.3143 9.50089C14.3143 6.38193 11.7859 3.85352 8.6669 3.85352C5.54795 3.85352 3.01953 6.38193 3.01953 9.50089C3.01953 12.6198 5.54795 15.1483 8.6669 15.1483Z" fill="url(#paint17_linear_429_790)"/>
<path d="M8.70055 7.02451C9.61817 7.02451 10.362 6.50835 10.362 5.87163C10.362 5.23491 9.61817 4.71875 8.70055 4.71875C7.78294 4.71875 7.03906 5.23491 7.03906 5.87163C7.03906 6.50835 7.78294 7.02451 8.70055 7.02451Z" fill="url(#paint18_linear_429_790)"/>
<path d="M5.62284 8.22786C6.2996 8.22786 6.84822 7.84719 6.84822 7.3776C6.84822 6.90802 6.2996 6.52734 5.62284 6.52734C4.94608 6.52734 4.39746 6.90802 4.39746 7.3776C4.39746 7.84719 4.94608 8.22786 5.62284 8.22786Z" fill="url(#paint19_linear_429_790)"/>
<path d="M9.36405 14.8177C10.0408 14.8177 10.5894 14.437 10.5894 13.9674C10.5894 13.4979 10.0408 13.1172 9.36405 13.1172C8.68729 13.1172 8.13867 13.4979 8.13867 13.9674C8.13867 14.437 8.68729 14.8177 9.36405 14.8177Z" fill="url(#paint20_linear_429_790)"/>
<path d="M8.13877 9.0708C8.64419 9.0708 9.05391 8.7865 9.05391 8.43579C9.05391 8.08509 8.64419 7.80078 8.13877 7.80078C7.63335 7.80078 7.22363 8.08509 7.22363 8.43579C7.22363 8.7865 7.63335 9.0708 8.13877 9.0708Z" fill="url(#paint21_linear_429_790)"/>
<path d="M11.3097 13.2114C11.8151 13.2114 12.2248 12.9271 12.2248 12.5764C12.2248 12.2257 11.8151 11.9414 11.3097 11.9414C10.8043 11.9414 10.3945 12.2257 10.3945 12.5764C10.3945 12.9271 10.8043 13.2114 11.3097 13.2114Z" fill="url(#paint22_linear_429_790)"/>
<path d="M3.05859 10.1602C3.2009 11.3787 3.73931 12.5598 4.67415 13.4946C6.87958 15.7 10.4553 15.7 12.6608 13.4946C13.5956 12.5598 14.134 11.3787 14.2763 10.1602H3.05859Z" fill="url(#paint23_linear_429_790)"/>
<path d="M15.4141 16.0637V20.0199H20.7672C21.2172 20.0199 21.6484 19.9449 22.0516 19.8043L16.8578 14.6152L15.4141 16.0637Z" fill="url(#paint24_linear_429_790)"/>
<path d="M17.2232 17.1141C17.3826 16.8141 17.4764 16.4719 17.4764 16.1109C17.4764 14.9391 16.5248 13.9875 15.3529 13.9875C14.9311 13.9875 14.5373 14.1094 14.2045 14.325C13.7217 13.4578 12.7936 12.8672 11.7295 12.8672C10.3654 12.8672 9.22168 13.8328 8.95449 15.1219C8.58887 15.0141 8.1998 14.9578 7.79668 14.9578C6.07637 14.9578 4.60449 16.0219 3.99512 17.5219C3.83574 17.4937 3.67168 17.4797 3.50293 17.4797C1.9373 17.475 0.666992 18.7453 0.666992 20.3109C0.666992 21.8766 1.9373 23.1469 3.50293 23.1469H15.9248C17.6686 23.1469 19.0795 21.7359 19.0795 19.9922C19.0748 18.7125 18.3154 17.6109 17.2232 17.1141Z" fill="url(#paint25_linear_429_790)"/>
<path d="M17.2232 17.1141C17.3826 16.8141 17.4764 16.4719 17.4764 16.1109C17.4764 14.9391 16.5248 13.9875 15.3529 13.9875C14.9311 13.9875 14.5373 14.1094 14.2045 14.325C13.7217 13.4578 12.7936 12.8672 11.7295 12.8672C10.3654 12.8672 9.22168 13.8328 8.95449 15.1219C8.58887 15.0141 8.1998 14.9578 7.79668 14.9578C6.07637 14.9578 4.60449 16.0219 3.99512 17.5219C3.83574 17.4937 3.67168 17.4797 3.50293 17.4797C1.9373 17.475 0.666992 18.7453 0.666992 20.3109C0.666992 21.8766 1.9373 23.1469 3.50293 23.1469H15.9248C17.6686 23.1469 19.0795 21.7359 19.0795 19.9922C19.0748 18.7125 18.3154 17.6109 17.2232 17.1141Z" fill="url(#paint26_linear_429_790)"/>
<path d="M19.0748 19.9883C19.0748 21.732 17.6639 23.143 15.9201 23.143H3.49824C1.9373 23.143 0.666992 21.8727 0.666992 20.3117C0.666992 19.7633 0.82168 19.2477 1.09355 18.8164H18.8451C18.9951 19.1773 19.0748 19.5758 19.0748 19.9883Z" fill="url(#paint27_linear_429_790)"/>
<path d="M15.9203 23.1414C17.6626 23.1414 19.075 21.729 19.075 19.9867C19.075 18.2444 17.6626 16.832 15.9203 16.832C14.178 16.832 12.7656 18.2444 12.7656 19.9867C12.7656 21.729 14.178 23.1414 15.9203 23.1414Z" fill="url(#paint28_linear_429_790)"/>
<path d="M17.4762 16.1117C17.4762 16.4727 17.3871 16.8148 17.223 17.1148C16.8246 16.9367 16.384 16.8336 15.9199 16.8336C15.1277 16.8336 14.4012 17.1289 13.8434 17.6117C13.459 17.2273 13.2246 16.6977 13.2246 16.1117C13.2246 14.9398 14.1762 13.9883 15.348 13.9883C16.5246 13.9883 17.4762 14.9398 17.4762 16.1117Z" fill="url(#paint29_linear_429_790)"/>
<path d="M13.2246 16.1109C13.2246 16.6875 13.4543 17.2125 13.8293 17.5969C13.309 18.1734 12.559 18.5344 11.7246 18.5344C10.159 18.5344 8.88867 17.2641 8.88867 15.6984C8.88867 14.1328 10.159 12.8672 11.7246 12.8672C12.7887 12.8672 13.7168 13.4531 14.1996 14.325C13.6137 14.7 13.2246 15.3609 13.2246 16.1109Z" fill="url(#paint30_linear_429_790)"/>
<path d="M11.8889 19.05C11.8889 21.3094 10.0561 23.1469 7.79199 23.1469C6.91074 23.1469 6.09043 22.8656 5.4248 22.3922C5.98262 21.8766 6.33418 21.1359 6.33418 20.3109C6.33418 18.9141 5.32637 17.7562 3.99512 17.5219C4.5998 16.0125 6.07168 14.9531 7.79199 14.9531C10.0561 14.9531 11.8889 16.7859 11.8889 19.05Z" fill="url(#paint31_linear_429_790)"/>
<path d="M11.8889 19.05C11.8889 21.3094 10.0561 23.1469 7.79199 23.1469C6.91074 23.1469 6.09043 22.8656 5.4248 22.3922C5.98262 21.8766 6.33418 21.1359 6.33418 20.3109C6.33418 18.9141 5.32637 17.7562 3.99512 17.5219C4.5998 16.0125 6.07168 14.9531 7.79199 14.9531C10.0561 14.9531 11.8889 16.7859 11.8889 19.05Z" fill="url(#paint32_linear_429_790)"/>
</g>
<defs>
<linearGradient id="paint0_linear_429_790" x1="17.7224" y1="7.97223" x2="14.1135" y2="18.4481" gradientUnits="userSpaceOnUse">
<stop stop-color="#F5FBFF"/>
<stop offset="0.2414" stop-color="#F0F8FE"/>
<stop offset="0.4916" stop-color="#E4F2FE"/>
<stop offset="0.7457" stop-color="#CFE8FE"/>
<stop offset="1" stop-color="#B3DAFE"/>
</linearGradient>
<linearGradient id="paint1_linear_429_790" x1="20.9396" y1="12.9776" x2="11.5163" y2="15.3168" gradientUnits="userSpaceOnUse">
<stop stop-color="#FEF48B" stop-opacity="0"/>
<stop offset="0.1205" stop-color="#FEF48B" stop-opacity="0.016"/>
<stop offset="0.2454" stop-color="#FEF48E" stop-opacity="0.065"/>
<stop offset="0.3724" stop-color="#FEF493" stop-opacity="0.147"/>
<stop offset="0.5008" stop-color="#FEF49A" stop-opacity="0.261"/>
<stop offset="0.6304" stop-color="#FEF4A3" stop-opacity="0.408"/>
<stop offset="0.761" stop-color="#FEF4AD" stop-opacity="0.588"/>
<stop offset="0.8898" stop-color="#FEF4BA" stop-opacity="0.797"/>
<stop offset="1" stop-color="#FFF5C6"/>
</linearGradient>
<linearGradient id="paint2_linear_429_790" x1="15.1511" y1="17.5241" x2="15.1511" y2="20.3183" gradientUnits="userSpaceOnUse">
<stop stop-color="#8AC9FE" stop-opacity="0"/>
<stop offset="0.1291" stop-color="#89C8FD" stop-opacity="0.019"/>
<stop offset="0.2629" stop-color="#88C6FB" stop-opacity="0.075"/>
<stop offset="0.3989" stop-color="#87C4F8" stop-opacity="0.168"/>
<stop offset="0.5365" stop-color="#85C0F4" stop-opacity="0.298"/>
<stop offset="0.6753" stop-color="#83BBEF" stop-opacity="0.466"/>
<stop offset="0.8151" stop-color="#7FB5E9" stop-opacity="0.672"/>
<stop offset="0.9532" stop-color="#7CAEE1" stop-opacity="0.911"/>
<stop offset="1" stop-color="#7BACDF"/>
</linearGradient>
<linearGradient id="paint3_linear_429_790" x1="21.6893" y1="16.116" x2="25.1791" y2="16.116" gradientUnits="userSpaceOnUse">
<stop stop-color="#8AC9FE" stop-opacity="0"/>
<stop offset="0.1291" stop-color="#89C8FD" stop-opacity="0.019"/>
<stop offset="0.2629" stop-color="#88C6FB" stop-opacity="0.075"/>
<stop offset="0.3989" stop-color="#87C4F8" stop-opacity="0.168"/>
<stop offset="0.5365" stop-color="#85C0F4" stop-opacity="0.298"/>
<stop offset="0.6753" stop-color="#83BBEF" stop-opacity="0.466"/>
<stop offset="0.8151" stop-color="#7FB5E9" stop-opacity="0.672"/>
<stop offset="0.9532" stop-color="#7CAEE1" stop-opacity="0.911"/>
<stop offset="1" stop-color="#7BACDF"/>
</linearGradient>
<linearGradient id="paint4_linear_429_790" x1="20.3284" y1="10.9505" x2="23.1688" y2="10.997" gradientUnits="userSpaceOnUse">
<stop stop-color="#8AC9FE" stop-opacity="0"/>
<stop offset="0.1291" stop-color="#89C8FD" stop-opacity="0.019"/>
<stop offset="0.2629" stop-color="#88C6FB" stop-opacity="0.075"/>
<stop offset="0.3989" stop-color="#87C4F8" stop-opacity="0.168"/>
<stop offset="0.5365" stop-color="#85C0F4" stop-opacity="0.298"/>
<stop offset="0.6753" stop-color="#83BBEF" stop-opacity="0.466"/>
<stop offset="0.8151" stop-color="#7FB5E9" stop-opacity="0.672"/>
<stop offset="0.9532" stop-color="#7CAEE1" stop-opacity="0.911"/>
<stop offset="1" stop-color="#7BACDF"/>
</linearGradient>
<linearGradient id="paint5_linear_429_790" x1="17.0562" y1="9.53406" x2="19.012" y2="7.85777" gradientUnits="userSpaceOnUse">
<stop stop-color="#8AC9FE" stop-opacity="0"/>
<stop offset="0.1291" stop-color="#89C8FD" stop-opacity="0.019"/>
<stop offset="0.2629" stop-color="#88C6FB" stop-opacity="0.075"/>
<stop offset="0.3989" stop-color="#87C4F8" stop-opacity="0.168"/>
<stop offset="0.5365" stop-color="#85C0F4" stop-opacity="0.298"/>
<stop offset="0.6753" stop-color="#83BBEF" stop-opacity="0.466"/>
<stop offset="0.8151" stop-color="#7FB5E9" stop-opacity="0.672"/>
<stop offset="0.9532" stop-color="#7CAEE1" stop-opacity="0.911"/>
<stop offset="1" stop-color="#7BACDF"/>
</linearGradient>
<linearGradient id="paint6_linear_429_790" x1="8.32595" y1="0.998227" x2="10.7258" y2="9.93896" gradientUnits="userSpaceOnUse">
<stop stop-color="#FEE45A"/>
<stop offset="1" stop-color="#FEA613"/>
</linearGradient>
<linearGradient id="paint7_linear_429_790" x1="13.2609" y1="-0.325465" x2="15.6608" y2="8.61527" gradientUnits="userSpaceOnUse">
<stop stop-color="#FEE45A"/>
<stop offset="1" stop-color="#FEA613"/>
</linearGradient>
<linearGradient id="paint8_linear_429_790" x1="-0.22998" y1="3.29574" x2="2.16989" y2="12.2365" gradientUnits="userSpaceOnUse">
<stop stop-color="#FEE45A"/>
<stop offset="1" stop-color="#FEA613"/>
</linearGradient>
<linearGradient id="paint9_linear_429_790" x1="12.5654" y1="-0.140499" x2="14.9653" y2="8.80024" gradientUnits="userSpaceOnUse">
<stop stop-color="#FEE45A"/>
<stop offset="1" stop-color="#FEA613"/>
</linearGradient>
<linearGradient id="paint10_linear_429_790" x1="3.0262" y1="2.42005" x2="5.42607" y2="11.3608" gradientUnits="userSpaceOnUse">
<stop stop-color="#FEE45A"/>
<stop offset="1" stop-color="#FEA613"/>
</linearGradient>
<linearGradient id="paint11_linear_429_790" x1="10.7758" y1="0.339788" x2="13.1757" y2="9.28052" gradientUnits="userSpaceOnUse">
<stop stop-color="#FEE45A"/>
<stop offset="1" stop-color="#FEA613"/>
</linearGradient>
<linearGradient id="paint12_linear_429_790" x1="12.0498" y1="-0.000531358" x2="14.4496" y2="8.9402" gradientUnits="userSpaceOnUse">
<stop stop-color="#FEE45A"/>
<stop offset="1" stop-color="#FEA613"/>
</linearGradient>
<linearGradient id="paint13_linear_429_790" x1="0.98164" y1="2.97016" x2="3.38151" y2="11.9109" gradientUnits="userSpaceOnUse">
<stop stop-color="#FEE45A"/>
<stop offset="1" stop-color="#FEA613"/>
</linearGradient>
<linearGradient id="paint14_linear_429_790" x1="13.4414" y1="-0.375821" x2="15.8413" y2="8.56491" gradientUnits="userSpaceOnUse">
<stop stop-color="#FEE45A"/>
<stop offset="1" stop-color="#FEA613"/>
</linearGradient>
<linearGradient id="paint15_linear_429_790" x1="-0.410052" y1="3.34313" x2="1.98985" y2="12.2838" gradientUnits="userSpaceOnUse">
<stop stop-color="#FEE45A"/>
<stop offset="1" stop-color="#FEA613"/>
</linearGradient>
<linearGradient id="paint16_linear_429_790" x1="5.61505" y1="1.72438" x2="8.01492" y2="10.6651" gradientUnits="userSpaceOnUse">
<stop stop-color="#FEE45A"/>
<stop offset="1" stop-color="#FEA613"/>
</linearGradient>
<linearGradient id="paint17_linear_429_790" x1="5.89567" y1="6.72966" x2="10.6448" y2="11.4788" gradientUnits="userSpaceOnUse">
<stop stop-color="#F9F5F3"/>
<stop offset="1" stop-color="#EFE2DD"/>
</linearGradient>
<linearGradient id="paint18_linear_429_790" x1="9.85001" y1="7.02109" x2="7.58884" y2="4.75991" gradientUnits="userSpaceOnUse">
<stop stop-color="#F9F5F3"/>
<stop offset="1" stop-color="#EFE2DD"/>
</linearGradient>
<linearGradient id="paint19_linear_429_790" x1="6.47059" y1="8.22535" x2="4.80295" y2="6.55771" gradientUnits="userSpaceOnUse">
<stop stop-color="#F9F5F3"/>
<stop offset="1" stop-color="#EFE2DD"/>
</linearGradient>
<linearGradient id="paint20_linear_429_790" x1="10.0874" y1="14.6908" x2="6.95552" y2="11.5589" gradientUnits="userSpaceOnUse">
<stop stop-color="#9E9797" stop-opacity="0"/>
<stop offset="0.3107" stop-color="#979090" stop-opacity="0.311"/>
<stop offset="0.7858" stop-color="#817A7A" stop-opacity="0.786"/>
<stop offset="1" stop-color="#766E6E"/>
</linearGradient>
<linearGradient id="paint21_linear_429_790" x1="8.7719" y1="9.06892" x2="7.52647" y2="7.82349" gradientUnits="userSpaceOnUse">
<stop stop-color="#F9F5F3"/>
<stop offset="1" stop-color="#EFE2DD"/>
</linearGradient>
<linearGradient id="paint22_linear_429_790" x1="11.7761" y1="13.0428" x2="9.09615" y2="10.3629" gradientUnits="userSpaceOnUse">
<stop stop-color="#9E9797" stop-opacity="0"/>
<stop offset="0.3107" stop-color="#979090" stop-opacity="0.311"/>
<stop offset="0.7858" stop-color="#817A7A" stop-opacity="0.786"/>
<stop offset="1" stop-color="#766E6E"/>
</linearGradient>
<linearGradient id="paint23_linear_429_790" x1="8.66744" y1="10.6621" x2="8.66744" y2="15.4312" gradientUnits="userSpaceOnUse">
<stop stop-color="#9E9797" stop-opacity="0"/>
<stop offset="0.3107" stop-color="#979090" stop-opacity="0.311"/>
<stop offset="0.7858" stop-color="#817A7A" stop-opacity="0.786"/>
<stop offset="1" stop-color="#766E6E"/>
</linearGradient>
<linearGradient id="paint24_linear_429_790" x1="20.2125" y1="16.7766" x2="17.517" y2="18.3138" gradientUnits="userSpaceOnUse">
<stop stop-color="#8AC9FE" stop-opacity="0"/>
<stop offset="0.1291" stop-color="#89C8FD" stop-opacity="0.019"/>
<stop offset="0.2629" stop-color="#88C6FB" stop-opacity="0.075"/>
<stop offset="0.3989" stop-color="#87C4F8" stop-opacity="0.168"/>
<stop offset="0.5365" stop-color="#85C0F4" stop-opacity="0.298"/>
<stop offset="0.6753" stop-color="#83BBEF" stop-opacity="0.466"/>
<stop offset="0.8151" stop-color="#7FB5E9" stop-opacity="0.672"/>
<stop offset="0.9532" stop-color="#7CAEE1" stop-opacity="0.911"/>
<stop offset="1" stop-color="#7BACDF"/>
</linearGradient>
<linearGradient id="paint25_linear_429_790" x1="8.31615" y1="14.397" x2="10.9494" y2="24.1026" gradientUnits="userSpaceOnUse">
<stop stop-color="#F5FBFF"/>
<stop offset="0.2414" stop-color="#F0F8FE"/>
<stop offset="0.4916" stop-color="#E4F2FE"/>
<stop offset="0.7457" stop-color="#CFE8FE"/>
<stop offset="1" stop-color="#B3DAFE"/>
</linearGradient>
<linearGradient id="paint26_linear_429_790" x1="9.43173" y1="18.0173" x2="8.16193" y2="11.9022" gradientUnits="userSpaceOnUse">
<stop stop-color="#FEF48B" stop-opacity="0"/>
<stop offset="0.1205" stop-color="#FEF48B" stop-opacity="0.016"/>
<stop offset="0.2454" stop-color="#FEF48E" stop-opacity="0.065"/>
<stop offset="0.3724" stop-color="#FEF493" stop-opacity="0.147"/>
<stop offset="0.5008" stop-color="#FEF49A" stop-opacity="0.261"/>
<stop offset="0.6304" stop-color="#FEF4A3" stop-opacity="0.408"/>
<stop offset="0.761" stop-color="#FEF4AD" stop-opacity="0.588"/>
<stop offset="0.8898" stop-color="#FEF4BA" stop-opacity="0.797"/>
<stop offset="1" stop-color="#FFF5C6"/>
</linearGradient>
<linearGradient id="paint27_linear_429_790" x1="9.87095" y1="21.3702" x2="9.87095" y2="23.3267" gradientUnits="userSpaceOnUse">
<stop stop-color="#8AC9FE" stop-opacity="0"/>
<stop offset="0.1291" stop-color="#89C8FD" stop-opacity="0.019"/>
<stop offset="0.2629" stop-color="#88C6FB" stop-opacity="0.075"/>
<stop offset="0.3989" stop-color="#87C4F8" stop-opacity="0.168"/>
<stop offset="0.5365" stop-color="#85C0F4" stop-opacity="0.298"/>
<stop offset="0.6753" stop-color="#83BBEF" stop-opacity="0.466"/>
<stop offset="0.8151" stop-color="#7FB5E9" stop-opacity="0.672"/>
<stop offset="0.9532" stop-color="#7CAEE1" stop-opacity="0.911"/>
<stop offset="1" stop-color="#7BACDF"/>
</linearGradient>
<linearGradient id="paint28_linear_429_790" x1="16.6696" y1="19.9881" x2="19.489" y2="19.9881" gradientUnits="userSpaceOnUse">
<stop stop-color="#8AC9FE" stop-opacity="0"/>
<stop offset="0.1291" stop-color="#89C8FD" stop-opacity="0.019"/>
<stop offset="0.2629" stop-color="#88C6FB" stop-opacity="0.075"/>
<stop offset="0.3989" stop-color="#87C4F8" stop-opacity="0.168"/>
<stop offset="0.5365" stop-color="#85C0F4" stop-opacity="0.298"/>
<stop offset="0.6753" stop-color="#83BBEF" stop-opacity="0.466"/>
<stop offset="0.8151" stop-color="#7FB5E9" stop-opacity="0.672"/>
<stop offset="0.9532" stop-color="#7CAEE1" stop-opacity="0.911"/>
<stop offset="1" stop-color="#7BACDF"/>
</linearGradient>
<linearGradient id="paint29_linear_429_790" x1="15.5698" y1="15.8168" x2="17.8645" y2="15.8544" gradientUnits="userSpaceOnUse">
<stop stop-color="#8AC9FE" stop-opacity="0"/>
<stop offset="0.1291" stop-color="#89C8FD" stop-opacity="0.019"/>
<stop offset="0.2629" stop-color="#88C6FB" stop-opacity="0.075"/>
<stop offset="0.3989" stop-color="#87C4F8" stop-opacity="0.168"/>
<stop offset="0.5365" stop-color="#85C0F4" stop-opacity="0.298"/>
<stop offset="0.6753" stop-color="#83BBEF" stop-opacity="0.466"/>
<stop offset="0.8151" stop-color="#7FB5E9" stop-opacity="0.672"/>
<stop offset="0.9532" stop-color="#7CAEE1" stop-opacity="0.911"/>
<stop offset="1" stop-color="#7BACDF"/>
</linearGradient>
<linearGradient id="paint30_linear_429_790" x1="12.9259" y1="14.6711" x2="14.5059" y2="13.3169" gradientUnits="userSpaceOnUse">
<stop stop-color="#8AC9FE" stop-opacity="0"/>
<stop offset="0.1291" stop-color="#89C8FD" stop-opacity="0.019"/>
<stop offset="0.2629" stop-color="#88C6FB" stop-opacity="0.075"/>
<stop offset="0.3989" stop-color="#87C4F8" stop-opacity="0.168"/>
<stop offset="0.5365" stop-color="#85C0F4" stop-opacity="0.298"/>
<stop offset="0.6753" stop-color="#83BBEF" stop-opacity="0.466"/>
<stop offset="0.8151" stop-color="#7FB5E9" stop-opacity="0.672"/>
<stop offset="0.9532" stop-color="#7CAEE1" stop-opacity="0.911"/>
<stop offset="1" stop-color="#7BACDF"/>
</linearGradient>
<linearGradient id="paint31_linear_429_790" x1="5.56988" y1="17.7988" x2="3.42563" y2="16.595" gradientUnits="userSpaceOnUse">
<stop stop-color="#8AC9FE" stop-opacity="0"/>
<stop offset="0.1291" stop-color="#89C8FD" stop-opacity="0.019"/>
<stop offset="0.2629" stop-color="#88C6FB" stop-opacity="0.075"/>
<stop offset="0.3989" stop-color="#87C4F8" stop-opacity="0.168"/>
<stop offset="0.5365" stop-color="#85C0F4" stop-opacity="0.298"/>
<stop offset="0.6753" stop-color="#83BBEF" stop-opacity="0.466"/>
<stop offset="0.8151" stop-color="#7FB5E9" stop-opacity="0.672"/>
<stop offset="0.9532" stop-color="#7CAEE1" stop-opacity="0.911"/>
<stop offset="1" stop-color="#7BACDF"/>
</linearGradient>
<linearGradient id="paint32_linear_429_790" x1="9.04393" y1="18.1131" x2="11.1004" y2="16.5749" gradientUnits="userSpaceOnUse">
<stop stop-color="white" stop-opacity="0"/>
<stop offset="0.1205" stop-color="white" stop-opacity="0.016"/>
<stop offset="0.2454" stop-color="white" stop-opacity="0.065"/>
<stop offset="0.3724" stop-color="white" stop-opacity="0.147"/>
<stop offset="0.5008" stop-color="white" stop-opacity="0.261"/>
<stop offset="0.6304" stop-color="white" stop-opacity="0.408"/>
<stop offset="0.761" stop-color="white" stop-opacity="0.588"/>
<stop offset="0.8898" stop-color="white" stop-opacity="0.797"/>
<stop offset="1" stop-color="white"/>
</linearGradient>
<clipPath id="clip0_429_790">
<rect width="24" height="24" fill="white" transform="translate(0.666992 0.5)"/>
</clipPath>
</defs>
</svg>
