<svg width="20" height="21" viewBox="0 0 20 21" fill="none" xmlns="http://www.w3.org/2000/svg">
<path d="M7.40129 7.2207H3.27044C3.10624 7.2207 2.97314 7.3538 2.97314 7.518C2.97314 7.68219 3.10624 7.81529 3.27044 7.81529H7.40129C7.56549 7.81529 7.69859 7.68219 7.69859 7.518C7.69859 7.3538 7.56549 7.2207 7.40129 7.2207Z" fill="url(#paint0_linear_229_5017)"/>
<path d="M7.40129 7.2207H3.27044C3.10624 7.2207 2.97314 7.3538 2.97314 7.518C2.97314 7.68219 3.10624 7.81529 3.27044 7.81529H7.40129C7.56549 7.81529 7.69859 7.68219 7.69859 7.518C7.69859 7.3538 7.56549 7.2207 7.40129 7.2207Z" fill="url(#paint1_linear_229_5017)"/>
<path d="M2.36944 10.2392C2.35936 10.7258 2.60693 11.1255 2.91355 11.1255C2.95873 11.1255 2.99536 11.0679 2.99536 10.9967V9.72457C2.99536 9.65339 2.95873 9.5957 2.91355 9.5957H2.79822C2.56932 9.5957 2.37689 9.87872 2.36944 10.2392Z" fill="url(#paint2_linear_229_5017)"/>
<path d="M18.5391 9.04873L16.0381 8.48297C15.7911 8.44654 15.5623 8.33152 15.3858 8.15497L14.3261 7.09533C13.6448 6.41399 12.7207 6.03125 11.7572 6.03125H8.50126C8.15683 6.03125 7.82652 6.16807 7.58299 6.4116L5.92738 8.06721C5.69707 8.29752 5.38468 8.42689 5.05899 8.42689C5.05899 8.42689 3.53464 8.43262 3.50676 8.43262H1.9472C1.783 8.43262 1.6499 8.56572 1.6499 8.72991C1.6499 8.89411 1.783 9.0272 1.9472 9.0272H2.84802C2.79245 9.15234 2.76131 9.29073 2.76131 9.43646V10.8567C2.76131 11.8585 3.57339 12.6706 4.57515 12.6706H18.6335C19.2005 12.6706 19.6602 12.2109 19.6602 11.6439V10.3473C19.6603 9.69634 19.1831 9.14368 18.5391 9.04873Z" fill="url(#paint3_linear_229_5017)"/>
<path d="M10.4868 6.03125H11.7572C12.7207 6.03125 13.6448 6.41399 14.3261 7.09533L15.3857 8.15497C15.5623 8.33156 15.791 8.44654 16.0381 8.48297L18.5391 9.04873C19.1831 9.14368 19.6602 9.69634 19.6602 10.3473V11.6439C19.6602 12.2109 19.2006 12.6706 18.6335 12.6706H10.4868V6.03125Z" fill="url(#paint4_linear_229_5017)"/>
<path d="M13.9103 7.51098L14.97 8.57067C15.0939 8.69451 15.2365 8.79855 15.3911 8.88004H11.4935C11.2625 8.88004 11.0752 8.69274 11.0752 8.46172V7.03745C11.0752 6.80643 11.2625 6.61914 11.4935 6.61914H11.7574C12.5707 6.61922 13.3353 6.93592 13.9103 7.51098Z" fill="url(#paint5_linear_229_5017)"/>
<path d="M13.9103 7.51098L14.97 8.57067C15.0939 8.69451 15.2365 8.79855 15.3911 8.88004H11.4935C11.2625 8.88004 11.0752 8.69274 11.0752 8.46172V7.03745C11.0752 6.80643 11.2625 6.61914 11.4935 6.61914H11.7574C12.5707 6.61922 13.3353 6.93592 13.9103 7.51098Z" fill="url(#paint6_linear_229_5017)"/>
<path d="M13.9103 7.51098L14.97 8.57067C15.0939 8.69451 15.2365 8.79855 15.3911 8.88004H11.4935C11.2625 8.88004 11.0752 8.69274 11.0752 8.46172V7.03745C11.0752 6.80643 11.2625 6.61914 11.4935 6.61914H11.7574C12.5707 6.61922 13.3353 6.93592 13.9103 7.51098Z" fill="url(#paint7_linear_229_5017)"/>
<path d="M2.76172 9.43641V10.8564C2.76172 11.8584 3.57387 12.6705 4.57544 12.6705H18.6338C19.2009 12.6705 19.6605 12.2105 19.6605 11.6435V10.347C19.6605 9.98582 19.5138 9.65523 19.2731 9.41602H2.76211C2.76172 9.42268 2.76172 9.42974 2.76172 9.43641Z" fill="url(#paint8_linear_229_5017)"/>
<path d="M8.87012 11.2539V12.6699H10.2861L8.87012 11.2539Z" fill="url(#paint9_linear_229_5017)"/>
<path d="M19.6607 10.3465C19.6607 9.69552 19.1835 9.14289 18.5395 9.04795L16.0385 8.48218C15.8201 8.44999 15.6161 8.35615 15.4498 8.21289H15.1016V9.58544L18.1859 12.6698H18.6339C19.2009 12.6698 19.6606 12.2101 19.6606 11.6431V10.3465H19.6607Z" fill="url(#paint10_linear_229_5017)"/>
<path d="M18.5392 9.04918L16.5 8.58789V12.6711H18.6337C19.2007 12.6711 19.6604 12.2114 19.6604 11.6444V10.3478C19.6604 9.69679 19.1832 9.14412 18.5392 9.04918Z" fill="url(#paint11_linear_229_5017)"/>
<path d="M17.4814 12.6697H18.6336C18.7149 12.6697 18.7938 12.66 18.8697 12.6421L17.4814 11.2539V12.6697Z" fill="url(#paint12_linear_229_5017)"/>
<path d="M15.2873 9.65042C15.0518 9.65042 14.8608 9.45948 14.8608 9.22395V8.36788C14.8608 8.13235 15.0518 7.94141 15.2873 7.94141C15.5881 7.94141 15.8318 8.18521 15.8318 8.48591V9.10595C15.8318 9.40662 15.5881 9.65042 15.2873 9.65042Z" fill="url(#paint13_linear_229_5017)"/>
<path d="M19.5527 11.2724H19.3216C19.2098 11.2724 19.1191 11.1818 19.1191 11.07V10.2005C19.1191 10.0887 19.2098 9.99805 19.3216 9.99805H19.5527C19.7131 9.99805 19.8431 10.1281 19.8431 10.2885V10.9819C19.8431 11.1424 19.7131 11.2724 19.5527 11.2724Z" fill="url(#paint14_linear_229_5017)"/>
<path d="M19.5054 12.8357H19.1116C18.9211 12.8357 18.7666 12.6812 18.7666 12.4907V11.0091C18.7666 10.8185 18.9211 10.6641 19.1116 10.6641H19.5054C19.7788 10.6641 20.0004 10.8857 20.0004 11.1591V12.3407C20.0004 12.6141 19.7788 12.8357 19.5054 12.8357Z" fill="url(#paint15_linear_229_5017)"/>
<path d="M4.25158 10.6641H2.86425C2.60252 10.6641 2.3888 10.8673 2.37096 11.1245H1.09759C0.933391 11.1245 0.800293 11.2576 0.800293 11.4218C0.800293 11.586 0.933391 11.7191 1.09759 11.7191H2.36923V12.3407C2.36923 12.6141 2.59088 12.8357 2.86425 12.8357H4.25158C4.44213 12.8357 4.5966 12.6812 4.5966 12.4907V11.0091C4.5966 10.8186 4.44213 10.6641 4.25158 10.6641Z" fill="url(#paint16_linear_229_5017)"/>
<path d="M2.36914 11.7207V12.3423C2.36914 12.6157 2.59079 12.8373 2.86416 12.8373H4.25149C4.44204 12.8373 4.59651 12.6829 4.59651 12.4923V11.7207H2.36914Z" fill="url(#paint17_linear_229_5017)"/>
<path d="M2.65711 11.125H1.09759C0.933391 11.125 0.800293 11.2581 0.800293 11.4223C0.800293 11.5865 0.933391 11.7196 1.09759 11.7196H2.65711C2.82131 11.7196 2.95441 11.5865 2.95441 11.4223C2.95441 11.2581 2.82131 11.125 2.65711 11.125Z" fill="url(#paint18_linear_229_5017)"/>
<path d="M2.76221 9.40284C2.78005 8.86092 3.22468 8.427 3.77095 8.427H5.05899C5.31244 8.427 5.55761 8.34833 5.76251 8.20508L4.84781 9.11978C4.66656 9.30104 4.42075 9.40284 4.16444 9.40284H2.76221Z" fill="url(#paint19_linear_229_5017)"/>
<path d="M11.3919 10.36H12.5588C12.7337 10.36 12.8755 10.2182 12.8755 10.0432V9.69174C12.8755 9.5168 12.7337 9.375 12.5588 9.375H11.3919C11.217 9.375 11.0752 9.5168 11.0752 9.69174V10.0432C11.0752 10.2182 11.217 10.36 11.3919 10.36Z" fill="url(#paint20_linear_229_5017)"/>
<path d="M11.3169 9.86742C11.3169 9.69146 11.4595 9.54883 11.6355 9.54883H12.3152C12.4911 9.54883 12.6338 9.69146 12.6338 9.86742C12.6338 10.0434 12.4911 10.186 12.3152 10.186H11.6355C11.4595 10.186 11.3169 10.0434 11.3169 9.86742Z" fill="url(#paint21_linear_229_5017)"/>
<path d="M6.49581 8.88C6.29064 8.88 6.19232 8.63247 6.33797 8.48796C6.3397 8.48623 6.34146 8.48451 6.34319 8.48278L7.99879 6.82722C8.13295 6.69306 8.31134 6.61914 8.5011 6.61914H9.52942C9.73322 6.61914 9.8984 6.78436 9.8984 6.98812V8.51098C9.8984 8.71478 9.73318 8.87996 9.52942 8.87996L6.49581 8.88Z" fill="url(#paint22_linear_229_5017)"/>
<path d="M6.49581 8.88C6.29064 8.88 6.19232 8.63247 6.33797 8.48796C6.3397 8.48623 6.34146 8.48451 6.34319 8.48278L7.99879 6.82722C8.13295 6.69306 8.31134 6.61914 8.5011 6.61914H9.52942C9.73322 6.61914 9.8984 6.78436 9.8984 6.98812V8.51098C9.8984 8.71478 9.73318 8.87996 9.52942 8.87996L6.49581 8.88Z" fill="url(#paint23_linear_229_5017)"/>
<path d="M6.49581 8.88C6.29064 8.88 6.19232 8.63247 6.33797 8.48796C6.3397 8.48623 6.34146 8.48451 6.34319 8.48278L7.99879 6.82722C8.13295 6.69306 8.31134 6.61914 8.5011 6.61914H9.52942C9.73322 6.61914 9.8984 6.78436 9.8984 6.98812V8.51098C9.8984 8.71478 9.73318 8.87996 9.52942 8.87996L6.49581 8.88Z" fill="url(#paint24_linear_229_5017)"/>
<path d="M15.9425 10.6172C14.7405 10.6172 13.766 11.5916 13.766 12.7937C13.766 13.1495 13.852 13.4851 14.0034 13.7818H12.8879C12.7254 13.7818 12.5938 13.9135 12.5938 14.0759C12.5938 14.2383 12.7254 14.37 12.8879 14.37H14.4426C14.8331 14.7416 15.3609 14.9701 15.9424 14.9701C17.1445 14.9701 18.1189 13.9957 18.1189 12.7937C18.119 11.5916 17.1445 10.6172 15.9425 10.6172Z" fill="url(#paint25_linear_229_5017)"/>
<path d="M13.7661 12.794C13.7661 13.9961 14.7405 14.9705 15.9426 14.9705C17.1446 14.9705 18.119 13.9961 18.119 12.794C18.119 12.5337 18.0732 12.2841 17.9894 12.0527H13.8958C13.812 12.2841 13.7661 12.5337 13.7661 12.794Z" fill="url(#paint26_linear_229_5017)"/>
<path d="M14.4037 14.3327C15.2536 15.1827 16.6317 15.1827 17.4817 14.3327C18.3316 13.4828 18.3316 12.1047 17.4817 11.2547C17.2976 11.0707 17.0887 10.9266 16.8658 10.8223L13.9712 13.7168C14.0755 13.9397 14.2196 14.1486 14.4037 14.3327Z" fill="url(#paint27_linear_229_5017)"/>
<path d="M14.4429 14.3691C15.2824 15.1685 16.6027 15.1685 17.4423 14.3691H14.4429Z" fill="url(#paint28_linear_229_5017)"/>
<path d="M15.9428 14.1962C16.7176 14.1962 17.3456 13.5681 17.3456 12.7934C17.3456 12.0187 16.7176 11.3906 15.9428 11.3906C15.1681 11.3906 14.54 12.0187 14.54 12.7934C14.54 13.5681 15.1681 14.1962 15.9428 14.1962Z" fill="url(#paint29_linear_229_5017)"/>
<path d="M15.9424 13.8292C16.5139 13.8292 16.9771 13.3659 16.9771 12.7945C16.9771 12.223 16.5139 11.7598 15.9424 11.7598C15.371 11.7598 14.9077 12.223 14.9077 12.7945C14.9077 13.3659 15.371 13.8292 15.9424 13.8292Z" fill="url(#paint30_linear_229_5017)"/>
<path d="M14.9077 12.7938C14.9077 13.3653 15.371 13.8285 15.9424 13.8285C16.5139 13.8285 16.9771 13.3653 16.9771 12.7938C16.9771 12.6701 16.9553 12.5514 16.9155 12.4414H14.9694C14.9295 12.5514 14.9077 12.6701 14.9077 12.7938Z" fill="url(#paint31_linear_229_5017)"/>
<path d="M15.211 13.5263C15.6151 13.9304 16.2702 13.9304 16.6743 13.5263C17.0783 13.1222 17.0783 12.4671 16.6743 12.063C16.5867 11.9755 16.4874 11.907 16.3815 11.8574L15.0054 13.2335C15.055 13.3395 15.1234 13.4388 15.211 13.5263Z" fill="url(#paint32_linear_229_5017)"/>
<path d="M7.33138 10.6172C6.12934 10.6172 5.15491 11.5916 5.15491 12.7937C5.15491 12.8358 5.1564 12.8775 5.15876 12.919H4.23064C4.06821 12.919 3.93652 13.0507 3.93652 13.2131C3.93652 13.3756 4.06821 13.5073 4.23064 13.5073H5.27519C5.57064 14.3587 6.37934 14.9701 7.33134 14.9701C8.53338 14.9701 9.50781 13.9957 9.50781 12.7937C9.50785 11.5916 8.53342 10.6172 7.33138 10.6172Z" fill="url(#paint33_linear_229_5017)"/>
<path d="M5.15527 12.794C5.15527 13.9961 6.1297 14.9705 7.33174 14.9705C8.53378 14.9705 9.50821 13.9961 9.50821 12.794C9.50821 12.5337 9.46236 12.2841 9.37852 12.0527H5.28496C5.20112 12.2841 5.15527 12.5337 5.15527 12.794Z" fill="url(#paint34_linear_229_5017)"/>
<path d="M5.79233 14.3327C6.64229 15.1827 8.02037 15.1827 8.87033 14.3327C9.72029 13.4828 9.72029 12.1047 8.87033 11.2547C8.68625 11.0707 8.47735 10.9266 8.25445 10.8223L5.35986 13.7168C5.46422 13.9397 5.60825 14.1486 5.79233 14.3327Z" fill="url(#paint35_linear_229_5017)"/>
<path d="M7.33149 14.1962C8.10623 14.1962 8.73427 13.5681 8.73427 12.7934C8.73427 12.0187 8.10623 11.3906 7.33149 11.3906C6.55676 11.3906 5.92871 12.0187 5.92871 12.7934C5.92871 13.5681 6.55676 14.1962 7.33149 14.1962Z" fill="url(#paint36_linear_229_5017)"/>
<path d="M5.27539 13.5078C5.57088 14.3592 6.37954 14.9707 7.33154 14.9707C8.28354 14.9707 9.09221 14.3592 9.3877 13.5078H5.27539Z" fill="url(#paint37_linear_229_5017)"/>
<path d="M7.33158 13.8292C7.90303 13.8292 8.36628 13.3659 8.36628 12.7945C8.36628 12.223 7.90303 11.7598 7.33158 11.7598C6.76013 11.7598 6.29688 12.223 6.29688 12.7945C6.29688 13.3659 6.76013 13.8292 7.33158 13.8292Z" fill="url(#paint38_linear_229_5017)"/>
<path d="M6.29688 12.7938C6.29688 13.3653 6.76013 13.8285 7.33158 13.8285C7.90303 13.8285 8.36628 13.3653 8.36628 12.7938C8.36628 12.6701 8.34448 12.5514 8.30464 12.4414H6.35852C6.31868 12.5514 6.29688 12.6701 6.29688 12.7938Z" fill="url(#paint39_linear_229_5017)"/>
<path d="M6.60014 13.5263C7.00422 13.9304 7.65935 13.9304 8.06343 13.5263C8.46751 13.1222 8.46751 12.4671 8.06343 12.063C7.9759 11.9755 7.87661 11.907 7.77065 11.8574L6.39453 13.2335C6.44414 13.3395 6.51261 13.4388 6.60014 13.5263Z" fill="url(#paint40_linear_229_5017)"/>
<path d="M10.4972 14.3695H11.6616C11.824 14.3695 11.9557 14.2378 11.9557 14.0754C11.9557 13.9129 11.824 13.7812 11.6616 13.7812H10.4972C10.3348 13.7812 10.2031 13.9129 10.2031 14.0754C10.2031 14.2378 10.3348 14.3695 10.4972 14.3695Z" fill="url(#paint41_linear_229_5017)"/>
<path d="M3.00433 12.9199H1.84002C1.67758 12.9199 1.5459 13.0516 1.5459 13.214C1.5459 13.3765 1.67758 13.5082 1.84002 13.5082H3.00433C3.16676 13.5082 3.29844 13.3765 3.29844 13.214C3.29844 13.0516 3.16676 12.9199 3.00433 12.9199Z" fill="url(#paint42_linear_229_5017)"/>
<path d="M6.53448 12.9199H4.23064C4.06821 12.9199 3.93652 13.0516 3.93652 13.214C3.93652 13.3765 4.06821 13.5082 4.23064 13.5082H6.53448C6.69691 13.5082 6.8286 13.3765 6.8286 13.214C6.8286 13.0516 6.69691 12.9199 6.53448 12.9199Z" fill="url(#paint43_linear_229_5017)"/>
<path d="M15.1917 13.7812H12.8879C12.7254 13.7812 12.5938 13.9129 12.5938 14.0754C12.5938 14.2378 12.7254 14.3695 12.8879 14.3695H15.1917C15.3541 14.3695 15.4858 14.2378 15.4858 14.0754C15.4858 13.9129 15.3542 13.7812 15.1917 13.7812Z" fill="url(#paint44_linear_229_5017)"/>
<path d="M1.16399 6.62584H2.35325C2.51744 6.62584 2.65054 6.49274 2.65054 6.32854C2.65054 6.16435 2.51744 6.03125 2.35325 6.03125H1.16399C0.999797 6.03125 0.866699 6.16435 0.866699 6.32854C0.866699 6.49274 0.999797 6.62584 1.16399 6.62584Z" fill="url(#paint45_linear_229_5017)"/>
<path d="M1.48655 7.2207H0.297294C0.133098 7.2207 0 7.3538 0 7.518C0 7.68219 0.133098 7.81529 0.297294 7.81529H1.48655C1.65074 7.81529 1.78384 7.68219 1.78384 7.518C1.78384 7.3538 1.65074 7.2207 1.48655 7.2207Z" fill="url(#paint46_linear_229_5017)"/>
<path d="M4.13714 6.62584H5.32639C5.49059 6.62584 5.62368 6.49274 5.62368 6.32854C5.62368 6.16435 5.49059 6.03125 5.32639 6.03125H4.13714C3.97294 6.03125 3.83984 6.16435 3.83984 6.32854C3.83984 6.49274 3.97294 6.62584 4.13714 6.62584Z" fill="url(#paint47_linear_229_5017)"/>
<path d="M6.13478 8.43359H4.78287C4.62498 8.44069 4.49902 8.57057 4.49902 8.73022C4.49902 8.89442 4.63212 9.02751 4.79632 9.02751H5.20722V9.02818H6.13475C6.29894 9.02818 6.43204 8.89508 6.43204 8.73089C6.43204 8.56669 6.29898 8.43359 6.13478 8.43359Z" fill="url(#paint48_linear_229_5017)"/>
<path d="M3.50627 8.43359H1.94671C1.78251 8.43359 1.64941 8.56669 1.64941 8.73089C1.64941 8.89508 1.78251 9.02818 1.94671 9.02818H3.50623C3.67043 9.02818 3.80353 8.89508 3.80353 8.73089C3.80353 8.56669 3.67047 8.43359 3.50627 8.43359Z" fill="url(#paint49_linear_229_5017)"/>
<defs>
<linearGradient id="paint0_linear_229_5017" x1="4.16248" y1="5.25502" x2="6.08404" y2="8.9609" gradientUnits="userSpaceOnUse">
<stop stop-color="#DEECF1"/>
<stop offset="1" stop-color="#D9B1EE"/>
</linearGradient>
<linearGradient id="paint1_linear_229_5017" x1="5.2982" y1="7.49666" x2="6.38318" y2="8.11105" gradientUnits="userSpaceOnUse">
<stop stop-color="#8379C1" stop-opacity="0"/>
<stop offset="1" stop-color="#814AA0"/>
</linearGradient>
<linearGradient id="paint2_linear_229_5017" x1="2.45928" y1="10.1277" x2="2.87759" y2="10.363" gradientUnits="userSpaceOnUse">
<stop stop-color="#DEECF1"/>
<stop offset="1" stop-color="#8EBAC5"/>
</linearGradient>
<linearGradient id="paint3_linear_229_5017" x1="9.97185" y1="7.51831" x2="11.5797" y2="12.0673" gradientUnits="userSpaceOnUse">
<stop stop-color="#FFA1AE"/>
<stop offset="1" stop-color="#FF4565"/>
</linearGradient>
<linearGradient id="paint4_linear_229_5017" x1="12.3487" y1="7.44262" x2="16.3095" y2="13.0505" gradientUnits="userSpaceOnUse">
<stop stop-color="#FFA1AE"/>
<stop offset="1" stop-color="#FF4565"/>
</linearGradient>
<linearGradient id="paint5_linear_229_5017" x1="11.4769" y1="7.0013" x2="13.6688" y2="9.19321" gradientUnits="userSpaceOnUse">
<stop stop-color="#A6E7F0"/>
<stop offset="0.1713" stop-color="#90E2ED"/>
<stop offset="0.5295" stop-color="#56D7E7"/>
<stop offset="1" stop-color="#02C7DD"/>
</linearGradient>
<linearGradient id="paint6_linear_229_5017" x1="12.0164" y1="7.74965" x2="10.8922" y2="7.74965" gradientUnits="userSpaceOnUse">
<stop stop-color="#0199B1" stop-opacity="0"/>
<stop offset="1" stop-color="#0199B1"/>
</linearGradient>
<linearGradient id="paint7_linear_229_5017" x1="13.2332" y1="7.49447" x2="13.2332" y2="6.57859" gradientUnits="userSpaceOnUse">
<stop stop-color="#0199B1" stop-opacity="0"/>
<stop offset="1" stop-color="#0199B1"/>
</linearGradient>
<linearGradient id="paint8_linear_229_5017" x1="11.2111" y1="10.867" x2="11.2111" y2="13.0631" gradientUnits="userSpaceOnUse">
<stop stop-color="#FD4755" stop-opacity="0"/>
<stop offset="0.2586" stop-color="#F74453" stop-opacity="0.259"/>
<stop offset="0.6211" stop-color="#E53B4C" stop-opacity="0.621"/>
<stop offset="1" stop-color="#CA2E43"/>
</linearGradient>
<linearGradient id="paint9_linear_229_5017" x1="11.2612" y1="13.168" x2="9.78404" y2="12.4229" gradientUnits="userSpaceOnUse">
<stop stop-color="#FD4755" stop-opacity="0"/>
<stop offset="0.2586" stop-color="#F74453" stop-opacity="0.259"/>
<stop offset="0.6211" stop-color="#E53B4C" stop-opacity="0.621"/>
<stop offset="1" stop-color="#CA2E43"/>
</linearGradient>
<linearGradient id="paint10_linear_229_5017" x1="16.8954" y1="10.1468" x2="15.0391" y2="9.28407" gradientUnits="userSpaceOnUse">
<stop stop-color="#FD4755" stop-opacity="0"/>
<stop offset="0.2586" stop-color="#F74453" stop-opacity="0.259"/>
<stop offset="0.6211" stop-color="#E53B4C" stop-opacity="0.621"/>
<stop offset="1" stop-color="#CA2E43"/>
</linearGradient>
<linearGradient id="paint11_linear_229_5017" x1="18.0948" y1="10.6295" x2="19.3076" y2="10.6295" gradientUnits="userSpaceOnUse">
<stop stop-color="#FD4755" stop-opacity="0"/>
<stop offset="0.2586" stop-color="#F74453" stop-opacity="0.259"/>
<stop offset="0.6211" stop-color="#E53B4C" stop-opacity="0.621"/>
<stop offset="1" stop-color="#CA2E43"/>
</linearGradient>
<linearGradient id="paint12_linear_229_5017" x1="19.82" y1="13.1415" x2="18.3719" y2="12.411" gradientUnits="userSpaceOnUse">
<stop stop-color="#FD4755" stop-opacity="0"/>
<stop offset="0.2586" stop-color="#F74453" stop-opacity="0.259"/>
<stop offset="0.6211" stop-color="#E53B4C" stop-opacity="0.621"/>
<stop offset="1" stop-color="#CA2E43"/>
</linearGradient>
<linearGradient id="paint13_linear_229_5017" x1="15.6725" y1="8.39988" x2="15.3506" y2="8.75497" gradientUnits="userSpaceOnUse">
<stop stop-color="#5A5A5A"/>
<stop offset="1" stop-color="#444444"/>
</linearGradient>
<linearGradient id="paint14_linear_229_5017" x1="19.1" y1="10.2799" x2="19.5513" y2="10.7312" gradientUnits="userSpaceOnUse">
<stop stop-color="#FFF5C6"/>
<stop offset="1" stop-color="#FEE45A"/>
</linearGradient>
<linearGradient id="paint15_linear_229_5017" x1="19.8366" y1="11.2041" x2="19.393" y2="11.6933" gradientUnits="userSpaceOnUse">
<stop stop-color="#5A5A5A"/>
<stop offset="1" stop-color="#444444"/>
</linearGradient>
<linearGradient id="paint16_linear_229_5017" x1="2.23288" y1="10.6928" x2="2.98648" y2="11.524" gradientUnits="userSpaceOnUse">
<stop stop-color="#5A5A5A"/>
<stop offset="1" stop-color="#444444"/>
</linearGradient>
<linearGradient id="paint17_linear_229_5017" x1="3.64502" y1="12.3128" x2="2.72996" y2="11.2409" gradientUnits="userSpaceOnUse">
<stop stop-color="#433F43" stop-opacity="0"/>
<stop offset="0.3174" stop-color="#3B373B" stop-opacity="0.317"/>
<stop offset="0.8224" stop-color="#242324" stop-opacity="0.822"/>
<stop offset="1" stop-color="#1A1A1A"/>
</linearGradient>
<linearGradient id="paint18_linear_229_5017" x1="1.97406" y1="11.4223" x2="0.735313" y2="11.4223" gradientUnits="userSpaceOnUse">
<stop stop-color="#DEECF1" stop-opacity="0"/>
<stop offset="1" stop-color="#D9B1EE"/>
</linearGradient>
<linearGradient id="paint19_linear_229_5017" x1="3.64601" y1="8.40774" x2="5.47605" y2="9.58421" gradientUnits="userSpaceOnUse">
<stop stop-color="#FD4755" stop-opacity="0"/>
<stop offset="0.2586" stop-color="#F74453" stop-opacity="0.259"/>
<stop offset="0.6211" stop-color="#E53B4C" stop-opacity="0.621"/>
<stop offset="1" stop-color="#CA2E43"/>
</linearGradient>
<linearGradient id="paint20_linear_229_5017" x1="12.5188" y1="10.4109" x2="11.5227" y2="9.4148" gradientUnits="userSpaceOnUse">
<stop stop-color="#FFA1AE"/>
<stop offset="1" stop-color="#FF4565"/>
</linearGradient>
<linearGradient id="paint21_linear_229_5017" x1="1.11609" y1="-0.964712" x2="14.1899" y2="12.0764" gradientUnits="userSpaceOnUse">
<stop stop-color="#5A5A5A"/>
<stop offset="1" stop-color="#444444"/>
</linearGradient>
<linearGradient id="paint22_linear_229_5017" x1="7.7084" y1="7.41647" x2="9.68016" y2="9.38823" gradientUnits="userSpaceOnUse">
<stop stop-color="#A6E7F0"/>
<stop offset="0.1713" stop-color="#90E2ED"/>
<stop offset="0.5295" stop-color="#56D7E7"/>
<stop offset="1" stop-color="#02C7DD"/>
</linearGradient>
<linearGradient id="paint23_linear_229_5017" x1="8.10534" y1="7.79996" x2="7.42558" y2="7.31632" gradientUnits="userSpaceOnUse">
<stop stop-color="#0199B1" stop-opacity="0"/>
<stop offset="1" stop-color="#0199B1"/>
</linearGradient>
<linearGradient id="paint24_linear_229_5017" x1="8.0835" y1="7.23294" x2="8.0835" y2="6.47075" gradientUnits="userSpaceOnUse">
<stop stop-color="#0199B1" stop-opacity="0"/>
<stop offset="1" stop-color="#0199B1"/>
</linearGradient>
<linearGradient id="paint25_linear_229_5017" x1="14.6828" y1="12.3714" x2="16.6614" y2="14.35" gradientUnits="userSpaceOnUse">
<stop stop-color="#5A5A5A"/>
<stop offset="1" stop-color="#444444"/>
</linearGradient>
<linearGradient id="paint26_linear_229_5017" x1="15.9426" y1="12.8216" x2="15.9426" y2="15.3819" gradientUnits="userSpaceOnUse">
<stop stop-color="#433F43" stop-opacity="0"/>
<stop offset="0.3174" stop-color="#3B373B" stop-opacity="0.317"/>
<stop offset="0.8224" stop-color="#242324" stop-opacity="0.822"/>
<stop offset="1" stop-color="#1A1A1A"/>
</linearGradient>
<linearGradient id="paint27_linear_229_5017" x1="15.9649" y1="12.8115" x2="17.8702" y2="14.7169" gradientUnits="userSpaceOnUse">
<stop stop-color="#433F43" stop-opacity="0"/>
<stop offset="0.3174" stop-color="#3B373B" stop-opacity="0.317"/>
<stop offset="0.8224" stop-color="#242324" stop-opacity="0.822"/>
<stop offset="1" stop-color="#1A1A1A"/>
</linearGradient>
<linearGradient id="paint28_linear_229_5017" x1="16.2994" y1="14.8152" x2="15.5673" y2="13.9001" gradientUnits="userSpaceOnUse">
<stop stop-color="#433F43" stop-opacity="0"/>
<stop offset="0.3174" stop-color="#3B373B" stop-opacity="0.317"/>
<stop offset="0.8224" stop-color="#242324" stop-opacity="0.822"/>
<stop offset="1" stop-color="#1A1A1A"/>
</linearGradient>
<linearGradient id="paint29_linear_229_5017" x1="16.4657" y1="13.3163" x2="14.8305" y2="11.6811" gradientUnits="userSpaceOnUse">
<stop stop-color="#433F43" stop-opacity="0"/>
<stop offset="0.3174" stop-color="#3B373B" stop-opacity="0.317"/>
<stop offset="0.8224" stop-color="#242324" stop-opacity="0.822"/>
<stop offset="1" stop-color="#1A1A1A"/>
</linearGradient>
<linearGradient id="paint30_linear_229_5017" x1="15.5426" y1="12.3947" x2="16.4832" y2="13.3353" gradientUnits="userSpaceOnUse">
<stop stop-color="#DEECF1"/>
<stop offset="1" stop-color="#8EBAC5"/>
</linearGradient>
<linearGradient id="paint31_linear_229_5017" x1="15.9424" y1="12.8069" x2="15.9424" y2="14.0241" gradientUnits="userSpaceOnUse">
<stop stop-color="#678D98" stop-opacity="0"/>
<stop offset="0.2265" stop-color="#638892" stop-opacity="0.227"/>
<stop offset="0.5216" stop-color="#597B82" stop-opacity="0.522"/>
<stop offset="0.8533" stop-color="#476567" stop-opacity="0.853"/>
<stop offset="1" stop-color="#3E5959"/>
</linearGradient>
<linearGradient id="paint32_linear_229_5017" x1="15.9546" y1="12.8022" x2="16.8605" y2="13.7081" gradientUnits="userSpaceOnUse">
<stop stop-color="#678D98" stop-opacity="0"/>
<stop offset="0.2265" stop-color="#638892" stop-opacity="0.227"/>
<stop offset="0.5216" stop-color="#597B82" stop-opacity="0.522"/>
<stop offset="0.8533" stop-color="#476567" stop-opacity="0.853"/>
<stop offset="1" stop-color="#3E5959"/>
</linearGradient>
<linearGradient id="paint33_linear_229_5017" x1="6.26848" y1="12.1598" x2="8.25318" y2="14.1446" gradientUnits="userSpaceOnUse">
<stop stop-color="#5A5A5A"/>
<stop offset="1" stop-color="#444444"/>
</linearGradient>
<linearGradient id="paint34_linear_229_5017" x1="7.33174" y1="12.8216" x2="7.33174" y2="15.3819" gradientUnits="userSpaceOnUse">
<stop stop-color="#433F43" stop-opacity="0"/>
<stop offset="0.3174" stop-color="#3B373B" stop-opacity="0.317"/>
<stop offset="0.8224" stop-color="#242324" stop-opacity="0.822"/>
<stop offset="1" stop-color="#1A1A1A"/>
</linearGradient>
<linearGradient id="paint35_linear_229_5017" x1="7.35172" y1="12.8115" x2="9.2571" y2="14.7169" gradientUnits="userSpaceOnUse">
<stop stop-color="#433F43" stop-opacity="0"/>
<stop offset="0.3174" stop-color="#3B373B" stop-opacity="0.317"/>
<stop offset="0.8224" stop-color="#242324" stop-opacity="0.822"/>
<stop offset="1" stop-color="#1A1A1A"/>
</linearGradient>
<linearGradient id="paint36_linear_229_5017" x1="7.85439" y1="13.3163" x2="6.21914" y2="11.6811" gradientUnits="userSpaceOnUse">
<stop stop-color="#433F43" stop-opacity="0"/>
<stop offset="0.3174" stop-color="#3B373B" stop-opacity="0.317"/>
<stop offset="0.8224" stop-color="#242324" stop-opacity="0.822"/>
<stop offset="1" stop-color="#1A1A1A"/>
</linearGradient>
<linearGradient id="paint37_linear_229_5017" x1="7.04401" y1="13.4785" x2="5.94598" y2="12.5766" gradientUnits="userSpaceOnUse">
<stop stop-color="#433F43" stop-opacity="0"/>
<stop offset="0.3174" stop-color="#3B373B" stop-opacity="0.317"/>
<stop offset="0.8224" stop-color="#242324" stop-opacity="0.822"/>
<stop offset="1" stop-color="#1A1A1A"/>
</linearGradient>
<linearGradient id="paint38_linear_229_5017" x1="6.93178" y1="12.3947" x2="7.8724" y2="13.3353" gradientUnits="userSpaceOnUse">
<stop stop-color="#DEECF1"/>
<stop offset="1" stop-color="#8EBAC5"/>
</linearGradient>
<linearGradient id="paint39_linear_229_5017" x1="7.33158" y1="12.8069" x2="7.33158" y2="14.0241" gradientUnits="userSpaceOnUse">
<stop stop-color="#678D98" stop-opacity="0"/>
<stop offset="0.2265" stop-color="#638892" stop-opacity="0.227"/>
<stop offset="0.5216" stop-color="#597B82" stop-opacity="0.522"/>
<stop offset="0.8533" stop-color="#476567" stop-opacity="0.853"/>
<stop offset="1" stop-color="#3E5959"/>
</linearGradient>
<linearGradient id="paint40_linear_229_5017" x1="7.34195" y1="12.8022" x2="8.24777" y2="13.7081" gradientUnits="userSpaceOnUse">
<stop stop-color="#678D98" stop-opacity="0"/>
<stop offset="0.2265" stop-color="#638892" stop-opacity="0.227"/>
<stop offset="0.5216" stop-color="#597B82" stop-opacity="0.522"/>
<stop offset="0.8533" stop-color="#476567" stop-opacity="0.853"/>
<stop offset="1" stop-color="#3E5959"/>
</linearGradient>
<linearGradient id="paint41_linear_229_5017" x1="10.4916" y1="13.1937" x2="11.7857" y2="15.1349" gradientUnits="userSpaceOnUse">
<stop stop-color="#DEECF1"/>
<stop offset="1" stop-color="#D9B1EE"/>
</linearGradient>
<linearGradient id="paint42_linear_229_5017" x1="1.77986" y1="12.1213" x2="3.28966" y2="14.6899" gradientUnits="userSpaceOnUse">
<stop stop-color="#DEECF1"/>
<stop offset="1" stop-color="#D9B1EE"/>
</linearGradient>
<linearGradient id="paint43_linear_229_5017" x1="5.27115" y1="13.214" x2="3.70982" y2="13.214" gradientUnits="userSpaceOnUse">
<stop stop-color="#DEECF1" stop-opacity="0"/>
<stop offset="1" stop-color="#D9B1EE"/>
</linearGradient>
<linearGradient id="paint44_linear_229_5017" x1="14.1101" y1="14.0754" x2="12.3061" y2="14.0754" gradientUnits="userSpaceOnUse">
<stop stop-color="#DEECF1" stop-opacity="0"/>
<stop offset="1" stop-color="#D9B1EE"/>
</linearGradient>
<linearGradient id="paint45_linear_229_5017" x1="1.82925" y1="6.46466" x2="3.75081" y2="10.1705" gradientUnits="userSpaceOnUse">
<stop stop-color="#DEECF1"/>
<stop offset="1" stop-color="#D9B1EE"/>
</linearGradient>
<linearGradient id="paint46_linear_229_5017" x1="0.660195" y1="7.07102" x2="2.58176" y2="10.7769" gradientUnits="userSpaceOnUse">
<stop stop-color="#DEECF1"/>
<stop offset="1" stop-color="#D9B1EE"/>
</linearGradient>
<linearGradient id="paint47_linear_229_5017" x1="4.17239" y1="5.24972" x2="6.09395" y2="8.9556" gradientUnits="userSpaceOnUse">
<stop stop-color="#DEECF1"/>
<stop offset="1" stop-color="#D9B1EE"/>
</linearGradient>
<linearGradient id="paint48_linear_229_5017" x1="6.1698" y1="8.73089" x2="4.75804" y2="8.73089" gradientUnits="userSpaceOnUse">
<stop stop-color="#DEECF1" stop-opacity="0"/>
<stop offset="1" stop-color="#D9B1EE"/>
</linearGradient>
<linearGradient id="paint49_linear_229_5017" x1="2.87549" y1="8.73089" x2="1.82679" y2="8.73089" gradientUnits="userSpaceOnUse">
<stop stop-color="#DEECF1" stop-opacity="0"/>
<stop offset="1" stop-color="#D9B1EE"/>
</linearGradient>
</defs>
</svg>
