<svg width="20" height="21" viewBox="0 0 20 21" fill="none" xmlns="http://www.w3.org/2000/svg">
<path d="M2.00013 0.5C1.65299 0.5 1.37158 0.781412 1.37158 1.12855V3.81024C1.37158 4.15737 1.65299 4.43878 2.00013 4.43878C2.34727 4.43878 2.62868 4.15737 2.62868 3.81024V1.12855C2.62868 0.781412 2.34727 0.5 2.00013 0.5Z" fill="url(#paint0_linear_229_5419)"/>
<path d="M6.00013 0.5C5.65299 0.5 5.37158 0.781412 5.37158 1.12855V3.81024C5.37158 4.15737 5.65299 4.43878 6.00013 4.43878C6.34727 4.43878 6.62868 4.15737 6.62868 3.81024V1.12855C6.62868 0.781412 6.34727 0.5 6.00013 0.5Z" fill="url(#paint1_linear_229_5419)"/>
<path d="M10.0001 0.5C9.65299 0.5 9.37158 0.781412 9.37158 1.12855V3.81024C9.37158 4.15737 9.65299 4.43878 10.0001 4.43878C10.3473 4.43878 10.6287 4.15737 10.6287 3.81024V1.12855C10.6287 0.781412 10.3473 0.5 10.0001 0.5Z" fill="url(#paint2_linear_229_5419)"/>
<path d="M14.0001 0.5C13.653 0.5 13.3716 0.781412 13.3716 1.12855V3.81024C13.3716 4.15737 13.653 4.43878 14.0001 4.43878C14.3473 4.43878 14.6287 4.15737 14.6287 3.81024V1.12855C14.6287 0.781412 14.3473 0.5 14.0001 0.5Z" fill="url(#paint3_linear_229_5419)"/>
<path d="M18.0001 0.5C17.653 0.5 17.3716 0.781412 17.3716 1.12855V3.81024C17.3716 4.15737 17.653 4.43878 18.0001 4.43878C18.3473 4.43878 18.6287 4.15737 18.6287 3.81024V1.12855C18.6287 0.781412 18.3473 0.5 18.0001 0.5Z" fill="url(#paint4_linear_229_5419)"/>
<path d="M18.5864 20.4995H1.41361C0.632902 20.4995 0 19.8666 0 19.0859V4.50931C0 3.7286 0.632902 3.0957 1.41361 3.0957H18.5864C19.3671 3.0957 20 3.7286 20 4.50931V19.0859C20 19.8666 19.3671 20.4995 18.5864 20.4995Z" fill="url(#paint5_linear_229_5419)"/>
<path d="M0 15.7676V19.086C0 19.8667 0.632902 20.4996 1.41361 20.4996H18.5864C19.3671 20.4996 20 19.8667 20 19.086V15.7676H0Z" fill="url(#paint6_linear_229_5419)"/>
<path d="M18.5864 3.0957H1.41361C0.632902 3.0957 0 3.7286 0 4.50931V7.63676H20V4.50931C20 3.7286 19.3671 3.0957 18.5864 3.0957Z" fill="url(#paint7_linear_229_5419)"/>
<path d="M4.74567 13.7738C5.79068 13.7738 6.63783 12.9705 6.63783 11.9797C6.63783 10.9888 5.79068 10.1855 4.74567 10.1855C3.70066 10.1855 2.85352 10.9888 2.85352 11.9797C2.85352 12.9705 3.70066 13.7738 4.74567 13.7738Z" fill="url(#paint8_linear_229_5419)"/>
<path d="M7.3502 10.6621C7.3502 11.3347 7.07608 11.9778 6.59098 12.4437L1.74902 17.0947L5.15451 20.5001H17.1882L7.3502 10.6621Z" fill="url(#paint9_linear_229_5419)"/>
<path d="M7.83671 16.6578L5.86051 14.6818L6.88016 13.6623C7.40506 13.1372 7.696 12.465 7.75271 11.7773C7.75279 11.7763 7.75287 11.7754 7.75294 11.7744C7.76047 11.6809 6.25086 9.94934 4.74537 9.94922C3.23577 9.9491 1.73024 11.6806 1.73781 11.7744L1.73804 11.7773C1.79475 12.465 2.08569 13.1372 2.61059 13.6623L3.63024 14.6818L1.65404 16.6578C1.51718 16.7949 1.56639 17.0303 1.74883 17.0955C1.88349 17.1436 2.00992 17.2217 2.11769 17.3295C2.21906 17.4308 2.29408 17.5485 2.34255 17.674C2.41188 17.8526 2.64498 17.8975 2.78039 17.762L4.74541 15.7969L6.71043 17.762C6.84581 17.8975 7.0789 17.8526 7.14828 17.674C7.19675 17.5484 7.27177 17.4308 7.37314 17.3295C7.4809 17.2217 7.60734 17.1436 7.742 17.0955C7.92436 17.0303 7.97357 16.7948 7.83671 16.6578ZM4.74537 13.5666L3.72592 12.547C3.45349 12.2747 3.30345 11.9127 3.30345 11.5275C3.30345 11.3859 3.32377 11.2474 3.3631 11.1155C3.43024 10.8882 3.55373 10.6802 3.72592 10.508C3.99816 10.2356 4.36024 10.0856 4.74537 10.0856C5.13051 10.0856 5.49259 10.2356 5.76487 10.508C5.93702 10.6802 6.06051 10.8882 6.12769 11.1155C6.16702 11.2474 6.18734 11.3859 6.18734 11.5275C6.18734 11.9127 6.0373 12.2747 5.76487 12.547L4.74537 13.5666Z" fill="url(#paint10_linear_229_5419)"/>
<path d="M2.34252 17.6738C2.2939 17.5483 2.21895 17.4306 2.1177 17.3293C2.00982 17.2215 1.88342 17.1435 1.74876 17.0953C1.56644 17.0302 1.51715 16.7947 1.65405 16.6577L3.63009 14.6816L4.74531 15.7969L2.78033 17.7618C2.64484 17.8974 2.41174 17.8524 2.34252 17.6738Z" fill="url(#paint11_linear_229_5419)"/>
<path d="M1.78906 17.1116C1.90863 17.1603 2.02075 17.2331 2.11769 17.33C2.21906 17.4314 2.29408 17.549 2.34255 17.6745C2.41189 17.8531 2.64498 17.8981 2.7804 17.7625L4.74542 15.7975L3.92428 14.9766L1.78906 17.1116Z" fill="url(#paint12_linear_229_5419)"/>
<path d="M5.86033 14.6816L4.74512 13.5664L5.75488 12.5566L6.8701 13.6719L5.86033 14.6816V14.6816Z" fill="url(#paint13_linear_229_5419)"/>
<path d="M6.05871 12.8411L6.04883 12.8508L5.03906 13.8605L5.8602 14.6817L6.87985 13.6622C7.40475 13.1371 7.69569 12.4649 7.7524 11.7771C7.75247 11.7762 7.75255 11.7752 7.75263 11.7743C7.76769 11.587 7.73534 11.3984 7.65969 11.2263C7.50549 10.8757 7.2822 10.5474 6.98981 10.2615C6.9584 10.2308 6.92636 10.2011 6.89393 10.1719C7.06177 11.1118 6.78345 12.1163 6.05871 12.8411Z" fill="url(#paint14_linear_229_5419)"/>
<path d="M5.87549 14.6973L6.15968 14.9815L6.15972 14.9815L5.87549 14.6973Z" fill="url(#paint15_linear_229_5419)"/>
<path d="M7.74222 17.0939C7.92457 17.0287 7.97383 16.7932 7.83692 16.6563L7.12986 15.9492L6.01465 17.0644L6.71065 17.7604C6.84614 17.8959 7.07924 17.851 7.14845 17.6723C7.19708 17.5468 7.27202 17.4292 7.37328 17.3279C7.48112 17.22 7.60751 17.142 7.74222 17.0939Z" fill="url(#paint16_linear_229_5419)"/>
<path d="M4.74539 9.94922C3.23578 9.9491 1.73025 11.6806 1.73782 11.7744L1.73806 11.7773C1.79159 12.4262 2.05366 13.0611 2.52398 13.5719H6.9668C7.43712 13.0612 7.69923 12.4262 7.75272 11.7773C7.7528 11.7763 7.75288 11.7754 7.75296 11.7744C7.76049 11.6809 6.25092 9.94934 4.74539 9.94922ZM5.76484 12.547L4.74535 13.5666L3.7259 12.547C3.45347 12.2747 3.30343 11.9127 3.30343 11.5275C3.30343 11.3859 3.32374 11.2474 3.36308 11.1155C3.43021 10.8882 3.5537 10.6802 3.7259 10.508C3.99814 10.2356 4.36021 10.0856 4.74535 10.0856C5.13049 10.0856 5.49257 10.2356 5.76484 10.508C5.937 10.6802 6.06049 10.8882 6.12767 11.1155C6.167 11.2474 6.18731 11.3859 6.18731 11.5275C6.18731 11.9127 6.03727 12.2747 5.76484 12.547Z" fill="url(#paint17_linear_229_5419)"/>
<path d="M6.98991 10.2608C5.75219 9.05107 3.73811 9.05107 2.50038 10.2608C2.39368 10.3652 2.26328 10.5144 2.14069 10.662C1.88046 10.975 1.73768 11.3692 1.73779 11.7763V11.7765C1.77383 12.2125 1.90375 12.6423 2.12807 13.0322C1.74258 12.358 2.08085 11.4953 2.82132 11.258C2.99368 11.2028 3.17462 11.1548 3.36289 11.1148C3.79156 11.0233 4.25775 10.9732 4.74517 10.9732C5.23258 10.9732 5.69877 11.0233 6.12744 11.1148C6.31571 11.1548 6.49666 11.2028 6.66901 11.258C7.40948 11.4953 7.74775 12.358 7.36226 13.0322C7.58658 12.6423 7.7165 12.2125 7.75254 11.7765C7.75254 11.7765 7.75254 11.7764 7.75254 11.7763C7.75266 11.3692 7.60987 10.9751 7.34964 10.662C7.22705 10.5144 7.09662 10.3652 6.98991 10.2608Z" fill="url(#paint18_linear_229_5419)"/>
<path d="M9.44402 10.8324H10.7774C10.9398 10.8324 11.0715 10.7007 11.0715 10.5383C11.0715 10.3758 10.9398 10.2441 10.7774 10.2441H9.44402C9.28159 10.2441 9.1499 10.3758 9.1499 10.5383C9.1499 10.7007 9.28159 10.8324 9.44402 10.8324Z" fill="#7BACDF"/>
<path d="M9.44402 12.8714H10.7774C10.9398 12.8714 11.0715 12.7398 11.0715 12.5773C11.0715 12.4149 10.9398 12.2832 10.7774 12.2832H9.44402C9.28159 12.2832 9.1499 12.4149 9.1499 12.5773C9.1499 12.7398 9.28159 12.8714 9.44402 12.8714Z" fill="#7BACDF"/>
<path d="M9.44402 14.9105H10.7774C10.9398 14.9105 11.0715 14.7788 11.0715 14.6164C11.0715 14.454 10.9398 14.3223 10.7774 14.3223H9.44402C9.28159 14.3223 9.1499 14.454 9.1499 14.6164C9.1499 14.7788 9.28159 14.9105 9.44402 14.9105Z" fill="#7BACDF"/>
<path d="M9.44402 16.9496H10.7774C10.9398 16.9496 11.0715 16.8179 11.0715 16.6554C11.0715 16.493 10.9398 16.3613 10.7774 16.3613H9.44402C9.28159 16.3613 9.1499 16.493 9.1499 16.6554C9.1499 16.8179 9.28159 16.9496 9.44402 16.9496Z" fill="#7BACDF"/>
<path d="M11.8952 10.8324H13.2285C13.391 10.8324 13.5226 10.7007 13.5226 10.5383C13.5226 10.3758 13.391 10.2441 13.2285 10.2441H11.8952C11.7328 10.2441 11.6011 10.3758 11.6011 10.5383C11.6011 10.7007 11.7328 10.8324 11.8952 10.8324Z" fill="#7BACDF"/>
<path d="M11.8952 12.8714H13.2285C13.391 12.8714 13.5226 12.7398 13.5226 12.5773C13.5226 12.4149 13.391 12.2832 13.2285 12.2832H11.8952C11.7328 12.2832 11.6011 12.4149 11.6011 12.5773C11.6011 12.7398 11.7328 12.8714 11.8952 12.8714Z" fill="#7BACDF"/>
<path d="M11.8952 14.9105H13.2285C13.391 14.9105 13.5226 14.7788 13.5226 14.6164C13.5226 14.454 13.391 14.3223 13.2285 14.3223H11.8952C11.7328 14.3223 11.6011 14.454 11.6011 14.6164C11.6011 14.7788 11.7328 14.9105 11.8952 14.9105Z" fill="#7BACDF"/>
<path d="M11.8952 16.9496H13.2285C13.391 16.9496 13.5226 16.8179 13.5226 16.6554C13.5226 16.493 13.391 16.3613 13.2285 16.3613H11.8952C11.7328 16.3613 11.6011 16.493 11.6011 16.6554C11.6011 16.8179 11.7328 16.9496 11.8952 16.9496Z" fill="#7BACDF"/>
<path d="M14.3459 10.8324H15.6792C15.8416 10.8324 15.9733 10.7007 15.9733 10.5383C15.9733 10.3758 15.8416 10.2441 15.6792 10.2441H14.3459C14.1834 10.2441 14.0518 10.3758 14.0518 10.5383C14.0518 10.7007 14.1834 10.8324 14.3459 10.8324Z" fill="#7BACDF"/>
<path d="M14.3459 12.8714H15.6792C15.8416 12.8714 15.9733 12.7398 15.9733 12.5773C15.9733 12.4149 15.8416 12.2832 15.6792 12.2832H14.3459C14.1834 12.2832 14.0518 12.4149 14.0518 12.5773C14.0518 12.7398 14.1834 12.8714 14.3459 12.8714Z" fill="#7BACDF"/>
<path d="M14.3459 14.9105H15.6792C15.8416 14.9105 15.9733 14.7788 15.9733 14.6164C15.9733 14.454 15.8416 14.3223 15.6792 14.3223H14.3459C14.1834 14.3223 14.0518 14.454 14.0518 14.6164C14.0518 14.7788 14.1834 14.9105 14.3459 14.9105Z" fill="#7BACDF"/>
<path d="M14.3459 16.9496H15.6792C15.8416 16.9496 15.9733 16.8179 15.9733 16.6554C15.9733 16.493 15.8416 16.3613 15.6792 16.3613H14.3459C14.1834 16.3613 14.0518 16.493 14.0518 16.6554C14.0518 16.8179 14.1834 16.9496 14.3459 16.9496Z" fill="#7BACDF"/>
<path d="M16.797 10.8324H18.1304C18.2928 10.8324 18.4245 10.7007 18.4245 10.5383C18.4245 10.3758 18.2928 10.2441 18.1304 10.2441H16.797C16.6346 10.2441 16.5029 10.3758 16.5029 10.5383C16.5029 10.7007 16.6346 10.8324 16.797 10.8324Z" fill="#7BACDF"/>
<path d="M16.797 12.8714H18.1304C18.2928 12.8714 18.4245 12.7398 18.4245 12.5773C18.4245 12.4149 18.2928 12.2832 18.1304 12.2832H16.797C16.6346 12.2832 16.5029 12.4149 16.5029 12.5773C16.5029 12.7398 16.6346 12.8714 16.797 12.8714Z" fill="#7BACDF"/>
<path d="M16.797 14.9105H18.1304C18.2928 14.9105 18.4245 14.7788 18.4245 14.6164C18.4245 14.454 18.2928 14.3223 18.1304 14.3223H16.797C16.6346 14.3223 16.5029 14.454 16.5029 14.6164C16.5029 14.7788 16.6346 14.9105 16.797 14.9105Z" fill="#7BACDF"/>
<path d="M16.797 16.9496H18.1304C18.2928 16.9496 18.4245 16.8179 18.4245 16.6554C18.4245 16.493 18.2928 16.3613 18.1304 16.3613H16.797C16.6346 16.3613 16.5029 16.493 16.5029 16.6554C16.5029 16.8179 16.6346 16.9496 16.797 16.9496Z" fill="#7BACDF"/>
<path d="M0 4.57812H20V7.63695H0V4.57812Z" fill="url(#paint19_linear_229_5419)"/>
<defs>
<linearGradient id="paint0_linear_229_5419" x1="1.43856" y1="2.46937" x2="3.20594" y2="2.46937" gradientUnits="userSpaceOnUse">
<stop stop-color="#FEE45A"/>
<stop offset="1" stop-color="#FEA613"/>
</linearGradient>
<linearGradient id="paint1_linear_229_5419" x1="5.43856" y1="2.46937" x2="7.20594" y2="2.46937" gradientUnits="userSpaceOnUse">
<stop stop-color="#FEE45A"/>
<stop offset="1" stop-color="#FEA613"/>
</linearGradient>
<linearGradient id="paint2_linear_229_5419" x1="9.43856" y1="2.46937" x2="11.2059" y2="2.46937" gradientUnits="userSpaceOnUse">
<stop stop-color="#FEE45A"/>
<stop offset="1" stop-color="#FEA613"/>
</linearGradient>
<linearGradient id="paint3_linear_229_5419" x1="13.4386" y1="2.46937" x2="15.2059" y2="2.46937" gradientUnits="userSpaceOnUse">
<stop stop-color="#FEE45A"/>
<stop offset="1" stop-color="#FEA613"/>
</linearGradient>
<linearGradient id="paint4_linear_229_5419" x1="17.4386" y1="2.46937" x2="19.2059" y2="2.46937" gradientUnits="userSpaceOnUse">
<stop stop-color="#FEE45A"/>
<stop offset="1" stop-color="#FEA613"/>
</linearGradient>
<linearGradient id="paint5_linear_229_5419" x1="5.31173" y1="7.10935" x2="17.7747" y2="19.5723" gradientUnits="userSpaceOnUse">
<stop stop-color="#EAF6FF"/>
<stop offset="1" stop-color="#B3DAFE"/>
</linearGradient>
<linearGradient id="paint6_linear_229_5419" x1="10" y1="18.2513" x2="10" y2="20.8923" gradientUnits="userSpaceOnUse">
<stop stop-color="#D8ECFE" stop-opacity="0"/>
<stop offset="1" stop-color="#678D98"/>
</linearGradient>
<linearGradient id="paint7_linear_229_5419" x1="8.32039" y1="4.10068" x2="16.4561" y2="12.2364" gradientUnits="userSpaceOnUse">
<stop stop-color="#FD4755"/>
<stop offset="1" stop-color="#A72B2B"/>
</linearGradient>
<linearGradient id="paint8_linear_229_5419" x1="5.78206" y1="12.883" x2="2.93238" y2="10.3993" gradientUnits="userSpaceOnUse">
<stop stop-color="#D8ECFE" stop-opacity="0"/>
<stop offset="1" stop-color="#678D98"/>
</linearGradient>
<linearGradient id="paint9_linear_229_5419" x1="10.3039" y1="18.2674" x2="1.97342" y2="12.744" gradientUnits="userSpaceOnUse">
<stop stop-color="#D8ECFE" stop-opacity="0"/>
<stop offset="1" stop-color="#678D98"/>
</linearGradient>
<linearGradient id="paint10_linear_229_5419" x1="1.94636" y1="11.6114" x2="7.52686" y2="17.1919" gradientUnits="userSpaceOnUse">
<stop stop-color="#FEAEE1"/>
<stop offset="1" stop-color="#FE5694"/>
</linearGradient>
<linearGradient id="paint11_linear_229_5419" x1="3.67495" y1="15.752" x2="4.54444" y2="14.8825" gradientUnits="userSpaceOnUse">
<stop stop-color="#FD3581" stop-opacity="0"/>
<stop offset="1" stop-color="#D2024E"/>
</linearGradient>
<linearGradient id="paint12_linear_229_5419" x1="3.14965" y1="16.3575" x2="4.01322" y2="17.221" gradientUnits="userSpaceOnUse">
<stop stop-color="#FD3581" stop-opacity="0"/>
<stop offset="1" stop-color="#D2024E"/>
</linearGradient>
<linearGradient id="paint13_linear_229_5419" x1="5.80323" y1="13.6235" x2="5.04025" y2="14.3864" gradientUnits="userSpaceOnUse">
<stop stop-color="#FD3581" stop-opacity="0"/>
<stop offset="1" stop-color="#D2024E"/>
</linearGradient>
<linearGradient id="paint14_linear_229_5419" x1="6.55906" y1="12.6055" x2="7.62651" y2="13.673" gradientUnits="userSpaceOnUse">
<stop stop-color="#FD3581" stop-opacity="0"/>
<stop offset="1" stop-color="#D2024E"/>
</linearGradient>
<linearGradient id="paint15_linear_229_5419" x1="6.10015" y1="14.9219" x2="6.20333" y2="15.0251" gradientUnits="userSpaceOnUse">
<stop stop-color="#972437" stop-opacity="0"/>
<stop offset="1" stop-color="#42210B"/>
</linearGradient>
<linearGradient id="paint16_linear_229_5419" x1="6.93206" y1="16.8666" x2="7.61512" y2="17.5497" gradientUnits="userSpaceOnUse">
<stop stop-color="#FD3581" stop-opacity="0"/>
<stop offset="1" stop-color="#D2024E"/>
</linearGradient>
<linearGradient id="paint17_linear_229_5419" x1="4.74539" y1="12.7058" x2="4.74539" y2="10.8634" gradientUnits="userSpaceOnUse">
<stop stop-color="#FD3581" stop-opacity="0"/>
<stop offset="1" stop-color="#D2024E"/>
</linearGradient>
<linearGradient id="paint18_linear_229_5419" x1="3.88587" y1="9.47539" x2="4.92873" y2="12.2747" gradientUnits="userSpaceOnUse">
<stop stop-color="#FEAEE1"/>
<stop offset="1" stop-color="#FE5694"/>
</linearGradient>
<linearGradient id="paint19_linear_229_5419" x1="10" y1="5.78075" x2="10" y2="8.47467" gradientUnits="userSpaceOnUse">
<stop stop-color="#A72B2B" stop-opacity="0"/>
<stop offset="1" stop-color="#42210B"/>
</linearGradient>
</defs>
</svg>
