<svg width="19" height="19" viewBox="0 0 19 19" fill="none" xmlns="http://www.w3.org/2000/svg">
<g clip-path="url(#clip0_229_4904)">
<path d="M11.8613 13.8035C11.6914 13.3192 11.7487 12.7872 12.0136 12.3476C12.9186 10.8461 12.7234 8.86712 11.428 7.57169C10.1325 6.27623 8.15355 6.08108 6.65207 6.98604C6.21246 7.251 5.68043 7.30834 5.19611 7.13834C3.81053 6.65209 2.20555 6.97036 1.10716 8.09311C-0.39693 9.63055 -0.363996 12.1263 1.17828 13.6254C1.7225 14.1544 2.38273 14.4933 3.0756 14.6421C3.71638 14.7798 4.21988 15.2833 4.35754 15.9241C4.50637 16.6169 4.84524 17.2772 5.37423 17.8214C6.87333 19.3637 9.36907 19.3966 10.9065 17.8925C12.0293 16.7941 12.3475 15.1891 11.8613 13.8035Z" fill="url(#paint0_radial_229_4904)"/>
<path d="M11.8612 13.8039C11.6912 13.3196 11.7485 12.7876 12.0135 12.348C12.9185 10.8465 12.7233 8.8675 11.4279 7.57207C11.3063 7.45047 11.1786 7.33856 11.0459 7.23633C11.335 8.1544 11.2259 9.17068 10.7176 10.0141C10.4868 10.3969 10.437 10.8601 10.5849 11.2818C11.0083 12.4883 10.7312 13.8858 9.7536 14.8423C8.41488 16.1519 6.24176 16.1232 4.93643 14.7803C4.47584 14.3064 4.18079 13.7316 4.05118 13.1283C3.93133 12.5703 3.49291 12.1319 2.93494 12.012C2.33164 11.8824 1.75676 11.5874 1.28288 11.1268C0.755197 10.6139 0.430558 9.96696 0.31015 9.28937C-0.300979 10.7317 -0.00759703 12.4733 1.17815 13.6258C1.72237 14.1548 2.3826 14.4937 3.07547 14.6425C3.71625 14.7802 4.21975 15.2837 4.35741 15.9245C4.50624 16.6173 4.84511 17.2776 5.3741 17.8218C6.8732 19.3641 9.36894 19.397 10.9064 17.8929C12.0292 16.7945 12.3474 15.1895 11.8612 13.8039Z" fill="url(#paint1_linear_229_4904)"/>
<path d="M5.36642 4.91899C6.39074 4.91899 7.22112 3.81784 7.22112 2.45949C7.22112 1.10115 6.39074 0 5.36642 0C4.3421 0 3.51172 1.10115 3.51172 2.45949C3.51172 3.81784 4.3421 4.91899 5.36642 4.91899Z" fill="url(#paint2_radial_229_4904)"/>
<path d="M5.84517 0.0839844C6.08278 0.497402 6.22412 1.01335 6.22412 1.57329C6.22412 2.93164 5.39375 4.03278 4.36942 4.03278C4.20383 4.03278 4.04341 4.00361 3.89062 3.94959C4.22946 4.53908 4.76429 4.91982 5.36637 4.91982C6.39069 4.91982 7.22106 3.81868 7.22106 2.46033C7.22106 1.32156 6.63735 0.363992 5.84517 0.0839844Z" fill="url(#paint3_linear_229_4904)"/>
<path d="M13.142 3.82725C12.4628 5.00361 11.1931 5.54206 10.306 5.02988C9.4189 4.5177 9.25032 3.14888 9.92951 1.97252C10.6087 0.796155 11.8784 0.25771 12.7655 0.769891C13.6526 1.28207 13.8212 2.65089 13.142 3.82725Z" fill="url(#paint4_radial_229_4904)"/>
<path d="M13.1387 1.08203C13.1378 1.55886 13.0022 2.07636 12.7223 2.56127C12.0431 3.73764 10.7734 4.27608 9.88626 3.7639C9.74283 3.68108 9.61851 3.57561 9.51319 3.45245C9.51188 4.13239 9.78467 4.72951 10.3061 5.03057C11.1932 5.54275 12.4629 5.0043 13.1421 3.82794C13.7114 2.84177 13.6847 1.72062 13.1387 1.08203Z" fill="url(#paint5_linear_229_4904)"/>
<path d="M17.0274 9.07068C15.8511 9.74983 14.4823 9.58129 13.9701 8.69422C13.4579 7.80714 13.9964 6.53742 15.1727 5.85822C16.3491 5.17903 17.7179 5.34761 18.2301 6.23469C18.7423 7.1218 18.2038 8.39148 17.0274 9.07068Z" fill="url(#paint6_radial_229_4904)"/>
<path d="M18.3973 6.69141C18.1581 7.10389 17.7819 7.48427 17.297 7.76424C16.1206 8.44339 14.7518 8.27485 14.2396 7.38778C14.1568 7.24434 14.1019 7.09085 14.0723 6.93151C13.7312 7.51969 13.6689 8.17322 13.9699 8.69464C14.4821 9.58172 15.8509 9.7503 17.0273 9.0711C18.0134 8.50177 18.5509 7.51746 18.3973 6.69141Z" fill="url(#paint7_linear_229_4904)"/>
<path d="M16.5405 15.4887C17.8989 15.4887 19 14.6583 19 13.634C19 12.6097 17.8989 11.7793 16.5405 11.7793C15.1822 11.7793 14.0811 12.6097 14.0811 13.634C14.0811 14.6583 15.1822 15.4887 16.5405 15.4887Z" fill="url(#paint8_radial_229_4904)"/>
<path d="M18.9169 14.1127C18.5035 14.3504 17.9875 14.4917 17.4276 14.4917C16.0692 14.4917 14.9681 13.6613 14.9681 12.637C14.9681 12.4714 14.9973 12.311 15.0513 12.1582C14.4618 12.497 14.0811 13.0319 14.0811 13.6339C14.0811 14.6583 15.1822 15.4886 16.5405 15.4886C17.6793 15.4886 18.6369 14.9049 18.9169 14.1127Z" fill="url(#paint9_linear_229_4904)"/>
</g>
<defs>
<radialGradient id="paint0_radial_229_4904" cx="0" cy="0" r="1" gradientUnits="userSpaceOnUse" gradientTransform="translate(8.27998 9.4853) rotate(45) scale(8.85017)">
<stop stop-color="#8A7889"/>
<stop offset="0.3639" stop-color="#877586"/>
<stop offset="0.6755" stop-color="#7F6A7E"/>
<stop offset="0.967" stop-color="#705970"/>
<stop offset="1" stop-color="#6E566E"/>
</radialGradient>
<linearGradient id="paint1_linear_229_4904" x1="6.27032" y1="11.0859" x2="5.94967" y2="22.9493" gradientUnits="userSpaceOnUse">
<stop stop-color="#6E566E" stop-opacity="0"/>
<stop offset="0.2944" stop-color="#674D66" stop-opacity="0.294"/>
<stop offset="1" stop-color="#593B56"/>
</linearGradient>
<radialGradient id="paint2_radial_229_4904" cx="0" cy="0" r="1" gradientUnits="userSpaceOnUse" gradientTransform="translate(3.83427 0.524139) scale(4.86553)">
<stop stop-color="#8A7889"/>
<stop offset="0.3639" stop-color="#877586"/>
<stop offset="0.6755" stop-color="#7F6A7E"/>
<stop offset="0.967" stop-color="#705970"/>
<stop offset="1" stop-color="#6E566E"/>
</radialGradient>
<linearGradient id="paint3_linear_229_4904" x1="4.57578" y1="2.15111" x2="11.0673" y2="4.69126" gradientUnits="userSpaceOnUse">
<stop stop-color="#6E566E" stop-opacity="0"/>
<stop offset="0.2944" stop-color="#674D66" stop-opacity="0.294"/>
<stop offset="1" stop-color="#593B56"/>
</linearGradient>
<radialGradient id="paint4_radial_229_4904" cx="0" cy="0" r="1" gradientUnits="userSpaceOnUse" gradientTransform="translate(11.1762 0.457809) rotate(30.0007) scale(4.86542)">
<stop stop-color="#8A7889"/>
<stop offset="0.3639" stop-color="#877586"/>
<stop offset="0.6755" stop-color="#7F6A7E"/>
<stop offset="0.967" stop-color="#705970"/>
<stop offset="1" stop-color="#6E566E"/>
</radialGradient>
<linearGradient id="paint5_linear_229_4904" x1="11.0054" y1="2.23751" x2="15.3569" y2="7.68303" gradientUnits="userSpaceOnUse">
<stop stop-color="#6E566E" stop-opacity="0"/>
<stop offset="0.2944" stop-color="#674D66" stop-opacity="0.294"/>
<stop offset="1" stop-color="#593B56"/>
</linearGradient>
<radialGradient id="paint6_radial_229_4904" cx="0" cy="0" r="1" gradientUnits="userSpaceOnUse" gradientTransform="translate(17.0099 5.16912) rotate(59.9993) scale(4.86542)">
<stop stop-color="#8A7889"/>
<stop offset="0.3639" stop-color="#877586"/>
<stop offset="0.6755" stop-color="#7F6A7E"/>
<stop offset="0.967" stop-color="#705970"/>
<stop offset="1" stop-color="#6E566E"/>
</radialGradient>
<linearGradient id="paint7_linear_229_4904" x1="15.9722" y1="6.62485" x2="17.0182" y2="13.5166" gradientUnits="userSpaceOnUse">
<stop stop-color="#6E566E" stop-opacity="0"/>
<stop offset="0.2944" stop-color="#674D66" stop-opacity="0.294"/>
<stop offset="1" stop-color="#593B56"/>
</linearGradient>
<radialGradient id="paint8_radial_229_4904" cx="0" cy="0" r="1" gradientUnits="userSpaceOnUse" gradientTransform="translate(18.4759 12.1018) rotate(90) scale(4.86553 4.86553)">
<stop stop-color="#8A7889"/>
<stop offset="0.3639" stop-color="#877586"/>
<stop offset="0.6755" stop-color="#7F6A7E"/>
<stop offset="0.967" stop-color="#705970"/>
<stop offset="1" stop-color="#6E566E"/>
</radialGradient>
<linearGradient id="paint9_linear_229_4904" x1="16.8498" y1="12.8434" x2="14.3096" y2="19.3348" gradientUnits="userSpaceOnUse">
<stop stop-color="#6E566E" stop-opacity="0"/>
<stop offset="0.2944" stop-color="#674D66" stop-opacity="0.294"/>
<stop offset="1" stop-color="#593B56"/>
</linearGradient>
<clipPath id="clip0_229_4904">
<rect width="19" height="19" fill="white"/>
</clipPath>
</defs>
</svg>
