<svg width="24" height="24" viewBox="0 0 24 24" fill="none" xmlns="http://www.w3.org/2000/svg">
<g clip-path="url(#clip0_424_1743)">
<path d="M10.3982 16.2429C10.2827 16.2429 10.1695 16.2535 10.0594 16.2726C10.0594 16.2697 10.0596 16.2667 10.0596 16.2638C10.0596 15.4395 9.39148 14.7711 8.56696 14.7711C8.30493 14.7711 8.05865 14.8389 7.8446 14.9575C7.25098 14.1788 6.31403 13.6758 5.25934 13.6758C3.88037 13.6758 2.703 14.5351 2.23114 15.7471C2.22528 15.7471 2.2196 15.7467 2.21375 15.7467C0.99115 15.7467 0 16.7379 0 17.9604C0 19.183 0.99115 20.1742 2.21375 20.1742H10.3982C11.4838 20.1742 12.3638 19.2942 12.3638 18.2086C12.3638 17.1229 11.4838 16.2429 10.3982 16.2429Z" fill="url(#paint0_linear_424_1743)"/>
<path d="M8.50842 16.925C8.50842 18.7196 7.05365 20.1742 5.25922 20.1742C3.4646 20.1742 2.01001 18.7196 2.01001 16.925C2.01001 15.1306 3.4646 13.6758 5.25922 13.6758C7.05365 13.6758 8.50842 15.1306 8.50842 16.925Z" fill="url(#paint1_linear_424_1743)"/>
<path d="M4.42749 17.9598C4.42749 19.1824 3.43634 20.1736 2.21375 20.1736C0.99115 20.1736 0 19.1824 0 17.9598C0 16.7372 0.99115 15.7461 2.21375 15.7461C3.43634 15.7461 4.42749 16.7372 4.42749 17.9598Z" fill="url(#paint2_linear_424_1743)"/>
<path d="M12.3639 18.2088C12.3639 19.2944 11.4839 20.1744 10.3983 20.1744C9.31262 20.1744 8.43262 19.2944 8.43262 18.2088C8.43262 17.1232 9.31262 16.2432 10.3983 16.2432C11.4839 16.2432 12.3639 17.1232 12.3639 18.2088Z" fill="url(#paint3_linear_424_1743)"/>
<path d="M24 12C24 18.6275 18.6275 24 12 24C5.3725 24 0 18.6275 0 12C0 5.3725 5.3725 0 12 0C18.6275 0 24 5.3725 24 12Z" fill="url(#paint4_radial_424_1743)"/>
<path d="M21.3605 12.0002C21.3605 17.17 17.1697 21.3607 11.9999 21.3607C6.83014 21.3607 2.6394 17.17 2.6394 12.0002C2.6394 6.83038 6.83014 2.63965 11.9999 2.63965C17.1697 2.63965 21.3605 6.83038 21.3605 12.0002Z" fill="url(#paint5_radial_424_1743)"/>
<path d="M8.84183 5.75248C9.47282 6.38346 9.17106 7.70786 8.16819 8.71091C7.16514 9.71378 5.84074 10.0155 5.20975 9.38456C4.57896 8.75376 4.88053 7.42918 5.88358 6.42631C6.88645 5.42326 8.21104 5.12168 8.84183 5.75248Z" fill="url(#paint6_linear_424_1743)"/>
<path d="M6.54756 10.9741C6.94325 11.3696 6.84657 12.1079 6.33167 12.6228C5.81697 13.1377 5.07868 13.2341 4.68299 12.8385C4.2873 12.4428 4.38398 11.7047 4.89887 11.1898C5.41377 10.6749 6.15187 10.5784 6.54756 10.9741Z" fill="url(#paint7_linear_424_1743)"/>
<path d="M9.43775 9.26184C9.76496 9.58905 9.68495 10.1993 9.25941 10.6249C8.83369 11.0506 8.2234 11.1304 7.89637 10.8032C7.56935 10.4762 7.64918 9.8659 8.07472 9.44037C8.50044 9.01465 9.11073 8.93481 9.43775 9.26184Z" fill="url(#paint8_linear_424_1743)"/>
<path d="M21.7253 18.2496C21.5917 18.2496 21.4609 18.2619 21.3335 18.2841C21.3335 18.2808 21.3339 18.2773 21.3339 18.274C21.3339 17.32 20.5606 16.5468 19.6066 16.5468C19.3032 16.5468 19.0185 16.6251 18.7708 16.7625C18.0839 15.8614 16.9998 15.2793 15.7794 15.2793C14.184 15.2793 12.8215 16.2737 12.2756 17.676C12.2689 17.676 12.2623 17.6754 12.2555 17.6754C10.8408 17.6754 9.69385 18.8224 9.69385 20.2371C9.69385 21.6517 10.8406 22.7985 12.2555 22.7985H21.7253C22.9816 22.7985 23.9999 21.7803 23.9999 20.5242C23.9999 19.2681 22.9816 18.2496 21.7253 18.2496Z" fill="url(#paint9_linear_424_1743)"/>
<path d="M19.5392 19.039C19.5392 21.1154 17.8559 22.7985 15.7795 22.7985C13.7031 22.7985 12.0198 21.1154 12.0198 19.039C12.0198 16.9626 13.7031 15.2793 15.7795 15.2793C17.8559 15.2793 19.5392 16.9626 19.5392 19.039Z" fill="url(#paint10_linear_424_1743)"/>
<path d="M14.817 20.2374C14.817 21.6521 13.6702 22.7989 12.2555 22.7989C10.8408 22.7989 9.69385 21.6521 9.69385 20.2374C9.69385 18.8228 10.8408 17.6758 12.2555 17.6758C13.6702 17.6758 14.817 18.8228 14.817 20.2374Z" fill="url(#paint11_linear_424_1743)"/>
<path d="M24.0001 20.5245C24.0001 21.7806 22.9818 22.7989 21.7255 22.7989C20.4694 22.7989 19.4512 21.7806 19.4512 20.5245C19.4512 19.2684 20.4694 18.25 21.7255 18.25C22.9818 18.25 24.0001 19.2684 24.0001 20.5245Z" fill="url(#paint12_linear_424_1743)"/>
<path d="M21.7253 18.2496C21.5917 18.2496 21.4609 18.2619 21.3335 18.2841C21.3335 18.2808 21.3339 18.2773 21.3339 18.274C21.3339 17.32 20.5606 16.5468 19.6066 16.5468C19.3032 16.5468 19.0185 16.6251 18.7708 16.7625C18.0839 15.8614 16.9998 15.2793 15.7794 15.2793C14.184 15.2793 12.8215 16.2737 12.2756 17.676C12.2689 17.676 12.2623 17.6754 12.2555 17.6754C10.8408 17.6754 9.69385 18.8224 9.69385 20.2371C9.69385 21.6517 10.8406 22.7985 12.2555 22.7985H21.7253C22.9816 22.7985 23.9999 21.7803 23.9999 20.5242C23.9999 19.2681 22.9816 18.2496 21.7253 18.2496Z" fill="url(#paint13_linear_424_1743)"/>
</g>
<defs>
<linearGradient id="paint0_linear_424_1743" x1="6.18191" y1="14.44" x2="6.18191" y2="23.8443" gradientUnits="userSpaceOnUse">
<stop stop-color="#C2BDB3"/>
<stop offset="0.2228" stop-color="#B9B4AC"/>
<stop offset="0.5818" stop-color="#A29D97"/>
<stop offset="1" stop-color="#7F7979"/>
</linearGradient>
<linearGradient id="paint1_linear_424_1743" x1="5.19925" y1="17.5087" x2="6.0623" y2="9.10185" gradientUnits="userSpaceOnUse">
<stop stop-color="#3D3B3C" stop-opacity="0"/>
<stop offset="0.6185" stop-color="#383637" stop-opacity="0.619608"/>
<stop offset="1" stop-color="#323031"/>
</linearGradient>
<linearGradient id="paint2_linear_424_1743" x1="2.60313" y1="18.7771" x2="-0.374725" y2="12.5265" gradientUnits="userSpaceOnUse">
<stop stop-color="#3D3B3C" stop-opacity="0"/>
<stop offset="0.6185" stop-color="#383637" stop-opacity="0.619608"/>
<stop offset="1" stop-color="#323031"/>
</linearGradient>
<linearGradient id="paint3_linear_424_1743" x1="10.3782" y1="18.4419" x2="10.8724" y2="12.6762" gradientUnits="userSpaceOnUse">
<stop stop-color="#3D3B3C" stop-opacity="0"/>
<stop offset="0.6185" stop-color="#383637" stop-opacity="0.619608"/>
<stop offset="1" stop-color="#323031"/>
</linearGradient>
<radialGradient id="paint4_radial_424_1743" cx="0" cy="0" r="1" gradientUnits="userSpaceOnUse" gradientTransform="translate(12.0268 12) scale(11.3308)">
<stop stop-color="#F4EE6F"/>
<stop offset="0.1296" stop-color="#F5EF76" stop-opacity="0.870588"/>
<stop offset="0.3178" stop-color="#F6F189" stop-opacity="0.682353"/>
<stop offset="0.5417" stop-color="#F8F5A9" stop-opacity="0.458824"/>
<stop offset="0.7909" stop-color="#FCFAD5" stop-opacity="0.207843"/>
<stop offset="1" stop-color="white" stop-opacity="0"/>
</radialGradient>
<radialGradient id="paint5_radial_424_1743" cx="0" cy="0" r="1" gradientUnits="userSpaceOnUse" gradientTransform="translate(9.64957 8.00355) scale(15.1234)">
<stop stop-color="#FEFFB3"/>
<stop offset="0.3038" stop-color="#FEFCB0"/>
<stop offset="0.5384" stop-color="#FEF4A6"/>
<stop offset="0.7498" stop-color="#FEE696"/>
<stop offset="0.9465" stop-color="#FFD37F"/>
<stop offset="1" stop-color="#FFCC77"/>
</radialGradient>
<linearGradient id="paint6_linear_424_1743" x1="9.28504" y1="9.82775" x2="4.51475" y2="5.05746" gradientUnits="userSpaceOnUse">
<stop stop-color="#FEFFB3"/>
<stop offset="0.2511" stop-color="#FEFBAF"/>
<stop offset="0.5163" stop-color="#FEF1A2"/>
<stop offset="0.7871" stop-color="#FFDF8D"/>
<stop offset="1" stop-color="#FFCC77"/>
</linearGradient>
<linearGradient id="paint7_linear_424_1743" x1="6.80632" y1="13.0973" x2="4.23216" y2="10.5231" gradientUnits="userSpaceOnUse">
<stop stop-color="#FEFFB3"/>
<stop offset="0.237" stop-color="#FEFBAE"/>
<stop offset="0.5259" stop-color="#FEEE9F"/>
<stop offset="0.8405" stop-color="#FFD986"/>
<stop offset="1" stop-color="#FFCC77"/>
</linearGradient>
<linearGradient id="paint8_linear_424_1743" x1="9.42439" y1="10.7899" x2="7.42931" y2="8.79482" gradientUnits="userSpaceOnUse">
<stop stop-color="#FEFFB3"/>
<stop offset="0.2336" stop-color="#FEF9AC"/>
<stop offset="0.5713" stop-color="#FEE999"/>
<stop offset="0.9707" stop-color="#FFCE7A"/>
<stop offset="1" stop-color="#FFCC77"/>
</linearGradient>
<linearGradient id="paint9_linear_424_1743" x1="16.8469" y1="16.1636" x2="16.8469" y2="27.0452" gradientUnits="userSpaceOnUse">
<stop stop-color="#C2BDB3"/>
<stop offset="0.2228" stop-color="#B9B4AC"/>
<stop offset="0.5818" stop-color="#A29D97"/>
<stop offset="1" stop-color="#7F7979"/>
</linearGradient>
<linearGradient id="paint10_linear_424_1743" x1="15.7101" y1="19.7144" x2="16.7088" y2="9.98694" gradientUnits="userSpaceOnUse">
<stop stop-color="#3D3B3C" stop-opacity="0"/>
<stop offset="0.6185" stop-color="#383637" stop-opacity="0.619608"/>
<stop offset="1" stop-color="#323031"/>
</linearGradient>
<linearGradient id="paint11_linear_424_1743" x1="12.7059" y1="21.183" x2="9.26032" y2="13.9506" gradientUnits="userSpaceOnUse">
<stop stop-color="#3D3B3C" stop-opacity="0"/>
<stop offset="0.6185" stop-color="#383637" stop-opacity="0.619608"/>
<stop offset="1" stop-color="#323031"/>
</linearGradient>
<linearGradient id="paint12_linear_424_1743" x1="21.7025" y1="20.7943" x2="22.2743" y2="14.1229" gradientUnits="userSpaceOnUse">
<stop stop-color="#3D3B3C" stop-opacity="0"/>
<stop offset="0.6185" stop-color="#383637" stop-opacity="0.619608"/>
<stop offset="1" stop-color="#323031"/>
</linearGradient>
<linearGradient id="paint13_linear_424_1743" x1="13.7818" y1="7.84578" x2="17.3469" y2="22.4454" gradientUnits="userSpaceOnUse">
<stop stop-color="#F4EE6F"/>
<stop offset="0.2148" stop-color="#EFE976" stop-opacity="0.784314"/>
<stop offset="0.5265" stop-color="#E1DB89" stop-opacity="0.47451"/>
<stop offset="0.8957" stop-color="#CAC4A9" stop-opacity="0.105882"/>
<stop offset="1" stop-color="#C2BDB3" stop-opacity="0"/>
</linearGradient>
<clipPath id="clip0_424_1743">
<rect width="24" height="24" fill="white"/>
</clipPath>
</defs>
</svg>
