<svg width="20" height="21" viewBox="0 0 20 21" fill="none" xmlns="http://www.w3.org/2000/svg">
<g clip-path="url(#clip0_229_5213)">
<path d="M10.2871 6.73971V2.52904C10.2871 1.46022 11.1536 0.59375 12.2224 0.59375H14.397C16.8997 0.59375 18.9287 2.62265 18.9287 5.12548L17.7455 4.20289C16.928 3.56555 15.9212 3.2194 14.8847 3.2194H13.5659C13.0761 3.2194 12.6791 3.61646 12.6791 4.10626V5.97591C12.6791 6.84736 11.9726 7.55379 11.1012 7.55379C10.6516 7.55383 10.2871 7.18932 10.2871 6.73971Z" fill="url(#paint0_linear_229_5213)"/>
<path d="M10.2871 6.73971V2.52904C10.2871 1.46022 11.1536 0.59375 12.2224 0.59375H14.397C16.8997 0.59375 18.9287 2.62265 18.9287 5.12548L17.7455 4.20289C16.928 3.56555 15.9212 3.2194 14.8847 3.2194H13.5659C13.0761 3.2194 12.6791 3.61646 12.6791 4.10626V5.97591C12.6791 6.84736 11.9726 7.55379 11.1012 7.55379C10.6516 7.55383 10.2871 7.18932 10.2871 6.73971Z" fill="url(#paint1_linear_229_5213)"/>
<path d="M7.62815 5.70064C7.63564 5.31488 7.8258 4.97393 8.1156 4.7606C8.40513 4.54746 8.5076 4.16193 8.38341 3.82452C8.32815 3.67444 8.29054 3.50782 8.29054 3.33237C8.29054 2.67205 8.82623 2.13672 9.48654 2.13672H12.9231C12.9213 2.13672 12.9196 2.13684 12.9179 2.13684H16.3145C17.03 2.13684 17.6902 2.37284 18.2218 2.77123H19.6383C19.838 2.77123 19.9999 2.93307 19.9999 3.13276V9.69711C19.9999 9.89511 19.8407 10.0592 19.6427 10.0586C19.2068 10.0575 18.7854 10.2301 18.4858 10.5468C17.8116 11.2596 16.8569 11.7044 15.7982 11.7044H10.8559V11.7041H10.0437C9.3729 11.7041 8.81129 11.1551 8.82431 10.4844C8.82745 10.3222 8.86674 10.1678 8.9238 10.0273C9.06439 9.68135 8.96952 9.28354 8.67399 9.05531C8.38439 8.83162 8.19756 8.48272 8.20517 8.0926C8.20835 7.92852 8.2509 7.77256 8.31274 7.63107C8.46497 7.28268 8.36494 6.8828 8.0705 6.64225C7.79603 6.41805 7.62082 6.07868 7.62815 5.70064Z" fill="url(#paint2_linear_229_5213)"/>
<path d="M20 9.69666C20 9.89466 19.8408 10.0587 19.6429 10.0582C19.2069 10.057 18.7855 10.2296 18.486 10.5463C17.8117 11.2591 16.8571 11.7039 15.7984 11.7039H10.856V11.7036H10.0439C9.37303 11.7036 8.81142 11.1547 8.82444 10.4839C8.82758 10.3218 8.86687 10.1673 8.92393 10.0269C9.06452 9.6809 8.96966 9.2831 8.67413 9.05486C8.38452 8.83117 8.19769 8.48227 8.2053 8.09215C8.2084 7.93188 8.24922 7.77949 8.30871 7.64062H20V9.69666Z" fill="url(#paint3_linear_229_5213)"/>
<path d="M9.14404 10.8398H3.68537C2.96992 10.8398 2.30965 11.0758 1.77808 11.4742H0.361529C0.161843 11.4742 0 11.6361 0 11.8358V18.4001C0 18.5998 0.161843 18.7616 0.361529 18.7616C0.795922 18.7616 1.21557 18.9342 1.51408 19.2498C2.18831 19.9626 3.14298 20.4074 4.20169 20.4074H9.14408L9.14404 10.8398Z" fill="url(#paint4_linear_229_5213)"/>
<path d="M9.14409 20.4074H4.20174C2.1586 20.4074 0.502441 18.7512 0.502441 16.7081V14.0224C0.502441 12.2648 1.92738 10.8398 3.68527 10.8398H9.14409V20.4074Z" fill="url(#paint5_linear_229_5213)"/>
<path d="M10.5751 18.015H8.31807C7.65756 18.015 7.12207 17.4796 7.12207 16.819C7.12207 16.1585 7.65752 15.623 8.31807 15.623H10.5987C11.2511 15.623 11.7818 16.1456 11.7944 16.7953C11.8075 17.466 11.2459 18.015 10.5751 18.015Z" fill="url(#paint6_linear_229_5213)"/>
<path d="M10.5132 13.2315H9.14384V12.907C9.14384 11.7654 8.21827 10.8398 7.07666 10.8398H10.5132C11.1735 10.8398 11.7092 11.3752 11.7092 12.0355C11.7092 12.6961 11.1735 13.2315 10.5132 13.2315Z" fill="url(#paint7_linear_229_5213)"/>
<path d="M11.152 15.6225H8.31807C7.65756 15.6225 7.12207 15.087 7.12207 14.4265C7.12207 13.766 7.65752 13.2305 8.31807 13.2305H11.1756C11.828 13.2305 12.3588 13.753 12.3714 14.4027C12.3845 15.0735 11.8229 15.6225 11.152 15.6225Z" fill="url(#paint8_linear_229_5213)"/>
<path d="M9.95587 20.4076H8.31807C7.65756 20.4076 7.12207 19.8722 7.12207 19.2116C7.12207 18.5511 7.65752 18.0156 8.31807 18.0156H9.97952C10.6319 18.0156 11.1627 18.5382 11.1753 19.1879C11.1883 19.8586 10.6267 20.4076 9.95587 20.4076Z" fill="url(#paint9_linear_229_5213)"/>
<path d="M9.14405 15.4428V11.2322C9.14405 10.1633 8.27758 9.29688 7.20876 9.29688H5.03417C2.53138 9.29688 0.502441 11.3258 0.502441 13.8286L1.68566 12.906C2.50307 12.2687 3.50993 11.9225 4.54644 11.9225H5.86519C6.35499 11.9225 6.75205 12.3196 6.75205 12.8094V14.679C6.75205 15.5505 7.45852 16.2569 8.32993 16.2569C8.77958 16.257 9.14405 15.8924 9.14405 15.4428Z" fill="url(#paint10_linear_229_5213)"/>
<path d="M6.75209 12.8087V12.5707C6.75209 11.3796 5.78656 10.4141 4.5955 10.4141H3.53754C2.22938 10.4141 1.07072 11.268 0.693853 12.5207C0.569343 12.9346 0.502441 13.3734 0.502441 13.8279L1.68566 12.9053C2.50307 12.268 3.50993 11.9218 4.54644 11.9218H5.86519C6.35503 11.9218 6.75209 12.3189 6.75209 12.8087Z" fill="url(#paint11_linear_229_5213)"/>
<path d="M6.54338 15.2476C6.54338 13.9863 6.09997 12.8289 5.36091 11.9219H4.54644C3.50989 11.9219 2.50307 12.268 1.68566 12.9054L0.509265 13.8226C0.505186 13.8885 0.502441 13.9549 0.502441 14.0218V16.7073C0.502441 18.5277 1.8173 20.0409 3.54911 20.3491C5.81766 19.7611 6.54338 17.7001 6.54338 15.2476Z" fill="url(#paint12_linear_229_5213)"/>
<path d="M5.15637 6.47274C4.87692 6.75215 4.4239 6.75215 4.14445 6.47274L3.09237 5.42066C2.81296 5.14125 2.81296 4.68819 3.09237 4.40878C3.37178 4.12937 3.82484 4.12937 4.10425 4.40878L5.15633 5.46086C5.43582 5.74027 5.43582 6.19333 5.15637 6.47274Z" fill="url(#paint13_linear_229_5213)"/>
<path d="M4.19726 8.12178C4.19726 8.51696 3.87691 8.83731 3.48173 8.83731H1.99385C1.59867 8.83731 1.27832 8.51696 1.27832 8.12178C1.27832 7.7266 1.59867 7.40625 1.99385 7.40625H3.48173C3.87695 7.40625 4.1973 7.7266 4.19726 8.12178Z" fill="url(#paint14_linear_229_5213)"/>
<path d="M6.80489 5.51464C6.40971 5.51464 6.08936 5.19429 6.08936 4.79912V3.31123C6.08936 2.91606 6.40971 2.5957 6.80489 2.5957C7.20006 2.5957 7.52041 2.91606 7.52041 3.31123V4.79912C7.52041 5.19429 7.20006 5.51464 6.80489 5.51464Z" fill="url(#paint15_linear_229_5213)"/>
<path d="M14.8434 14.526C15.1228 14.2466 15.5758 14.2466 15.8553 14.526L16.9074 15.578C17.1868 15.8575 17.1868 16.3105 16.9074 16.5899C16.628 16.8693 16.1749 16.8693 15.8955 16.5899L14.8434 15.5378C14.5639 15.2584 14.5639 14.8054 14.8434 14.526Z" fill="url(#paint16_linear_229_5213)"/>
<path d="M15.8027 12.8776C15.8027 12.4825 16.1231 12.1621 16.5183 12.1621H18.0061C18.4013 12.1621 18.7217 12.4825 18.7217 12.8776C18.7217 13.2728 18.4013 13.5932 18.0061 13.5932H16.5183C16.123 13.5932 15.8027 13.2728 15.8027 12.8776Z" fill="url(#paint17_linear_229_5213)"/>
<path d="M13.195 15.4844C13.5902 15.4844 13.9106 15.8047 13.9106 16.1999V17.6878C13.9106 18.083 13.5902 18.4033 13.195 18.4033C12.7998 18.4033 12.4795 18.083 12.4795 17.6878V16.1999C12.4795 15.8047 12.7998 15.4844 13.195 15.4844Z" fill="url(#paint18_linear_229_5213)"/>
</g>
<defs>
<linearGradient id="paint0_linear_229_5213" x1="11.6074" y1="2.21704" x2="20.3525" y2="10.7661" gradientUnits="userSpaceOnUse">
<stop stop-color="#F1B0A2"/>
<stop offset="1" stop-color="#CA6E59"/>
</linearGradient>
<linearGradient id="paint1_linear_229_5213" x1="15.1103" y1="2.71104" x2="13.3064" y2="5.76987" gradientUnits="userSpaceOnUse">
<stop stop-color="#CA6E59" stop-opacity="0"/>
<stop offset="1" stop-color="#883F2E"/>
</linearGradient>
<linearGradient id="paint2_linear_229_5213" x1="11.2946" y1="1.04295" x2="17.0985" y2="11.9841" gradientUnits="userSpaceOnUse">
<stop stop-color="#F1B0A2"/>
<stop offset="1" stop-color="#CA6E59"/>
</linearGradient>
<linearGradient id="paint3_linear_229_5213" x1="14.1025" y1="9.35035" x2="14.1025" y2="11.8954" gradientUnits="userSpaceOnUse">
<stop stop-color="#CA6E59" stop-opacity="0"/>
<stop offset="1" stop-color="#883F2E"/>
</linearGradient>
<linearGradient id="paint4_linear_229_5213" x1="9.278" y1="11.4908" x2="1.25278" y2="19.2571" gradientUnits="userSpaceOnUse">
<stop stop-color="#FFDFCF"/>
<stop offset="1" stop-color="#FFA78F"/>
</linearGradient>
<linearGradient id="paint5_linear_229_5213" x1="5.58256" y1="15.6236" x2="8.9795" y2="15.6236" gradientUnits="userSpaceOnUse">
<stop stop-color="#FFB09E" stop-opacity="0"/>
<stop offset="1" stop-color="#EC806B"/>
</linearGradient>
<linearGradient id="paint6_linear_229_5213" x1="9.45838" y1="15.6279" x2="9.45838" y2="18.2538" gradientUnits="userSpaceOnUse">
<stop stop-color="#FFDFCF"/>
<stop offset="1" stop-color="#FFA78F"/>
</linearGradient>
<linearGradient id="paint7_linear_229_5213" x1="9.39294" y1="10.3602" x2="9.39294" y2="13.8821" gradientUnits="userSpaceOnUse">
<stop stop-color="#FFDFCF"/>
<stop offset="1" stop-color="#FFA78F"/>
</linearGradient>
<linearGradient id="paint8_linear_229_5213" x1="9.74689" y1="13.2353" x2="9.74689" y2="15.8613" gradientUnits="userSpaceOnUse">
<stop stop-color="#FFDFCF"/>
<stop offset="1" stop-color="#FFA78F"/>
</linearGradient>
<linearGradient id="paint9_linear_229_5213" x1="9.14878" y1="18.0205" x2="9.14878" y2="20.6464" gradientUnits="userSpaceOnUse">
<stop stop-color="#FFDFCF"/>
<stop offset="1" stop-color="#FFA78F"/>
</linearGradient>
<linearGradient id="paint10_linear_229_5213" x1="8.29072" y1="10.4923" x2="-0.525715" y2="19.0243" gradientUnits="userSpaceOnUse">
<stop stop-color="#FFDFCF"/>
<stop offset="1" stop-color="#FFA78F"/>
</linearGradient>
<linearGradient id="paint11_linear_229_5213" x1="4.63444" y1="12.121" x2="12.8027" y2="12.121" gradientUnits="userSpaceOnUse">
<stop stop-color="#F89580" stop-opacity="0"/>
<stop offset="0.9972" stop-color="#C5715A"/>
</linearGradient>
<linearGradient id="paint12_linear_229_5213" x1="3.1355" y1="16.4136" x2="10.525" y2="11.2743" gradientUnits="userSpaceOnUse">
<stop stop-color="#F89580" stop-opacity="0"/>
<stop offset="0.9972" stop-color="#C5715A"/>
</linearGradient>
<linearGradient id="paint13_linear_229_5213" x1="3.63992" y1="5.90962" x2="5.04499" y2="4.50455" gradientUnits="userSpaceOnUse">
<stop stop-color="#CCFC5C"/>
<stop offset="0.1591" stop-color="#C6F95A"/>
<stop offset="0.3653" stop-color="#B6F053"/>
<stop offset="0.5975" stop-color="#9BE248"/>
<stop offset="0.8469" stop-color="#76CF38"/>
<stop offset="1" stop-color="#5CC12D"/>
</linearGradient>
<linearGradient id="paint14_linear_229_5213" x1="2.74252" y1="8.75754" x2="2.74252" y2="6.77017" gradientUnits="userSpaceOnUse">
<stop stop-color="#CCFC5C"/>
<stop offset="0.1591" stop-color="#C6F95A"/>
<stop offset="0.3653" stop-color="#B6F053"/>
<stop offset="0.5975" stop-color="#9BE248"/>
<stop offset="0.8469" stop-color="#76CF38"/>
<stop offset="1" stop-color="#5CC12D"/>
</linearGradient>
<linearGradient id="paint15_linear_229_5213" x1="6.16936" y1="4.05994" x2="8.15673" y2="4.05994" gradientUnits="userSpaceOnUse">
<stop stop-color="#CCFC5C"/>
<stop offset="0.1591" stop-color="#C6F95A"/>
<stop offset="0.3653" stop-color="#B6F053"/>
<stop offset="0.5975" stop-color="#9BE248"/>
<stop offset="0.8469" stop-color="#76CF38"/>
<stop offset="1" stop-color="#5CC12D"/>
</linearGradient>
<linearGradient id="paint16_linear_229_5213" x1="16.3608" y1="15.0903" x2="14.9557" y2="16.4954" gradientUnits="userSpaceOnUse">
<stop stop-color="#CCFC5C"/>
<stop offset="0.1591" stop-color="#C6F95A"/>
<stop offset="0.3653" stop-color="#B6F053"/>
<stop offset="0.5975" stop-color="#9BE248"/>
<stop offset="0.8469" stop-color="#76CF38"/>
<stop offset="1" stop-color="#5CC12D"/>
</linearGradient>
<linearGradient id="paint17_linear_229_5213" x1="17.2574" y1="12.2416" x2="17.2574" y2="14.229" gradientUnits="userSpaceOnUse">
<stop stop-color="#CCFC5C"/>
<stop offset="0.1591" stop-color="#C6F95A"/>
<stop offset="0.3653" stop-color="#B6F053"/>
<stop offset="0.5975" stop-color="#9BE248"/>
<stop offset="0.8469" stop-color="#76CF38"/>
<stop offset="1" stop-color="#5CC12D"/>
</linearGradient>
<linearGradient id="paint18_linear_229_5213" x1="13.8304" y1="16.9387" x2="11.8431" y2="16.9387" gradientUnits="userSpaceOnUse">
<stop stop-color="#CCFC5C"/>
<stop offset="0.1591" stop-color="#C6F95A"/>
<stop offset="0.3653" stop-color="#B6F053"/>
<stop offset="0.5975" stop-color="#9BE248"/>
<stop offset="0.8469" stop-color="#76CF38"/>
<stop offset="1" stop-color="#5CC12D"/>
</linearGradient>
<clipPath id="clip0_229_5213">
<rect width="20" height="20" fill="white" transform="translate(0 0.5)"/>
</clipPath>
</defs>
</svg>
