<svg width="20" height="21" viewBox="0 0 20 21" fill="none" xmlns="http://www.w3.org/2000/svg">
<path d="M6.35025 18.9303C5.53181 18.9303 4.84459 18.691 4.42283 18.2492C3.84467 17.6436 3.86775 16.7853 4.4831 16.0092C5.11775 15.2087 5.20088 14.2583 4.72998 13.1844C4.37115 12.3661 3.81467 11.7858 3.80908 11.7801L4.04947 11.5475C4.07393 11.5728 4.65353 12.1774 5.03627 13.0501C5.55341 14.2295 5.45279 15.3246 4.74521 16.217C4.23381 16.8621 4.20377 17.5354 4.66478 18.0183C5.37861 18.7661 7.50915 19.1094 10.4528 16.9901C12.0548 15.8368 13.5363 15.4516 14.4971 15.3316C14.7395 15.3013 14.9802 15.2842 15.2153 15.2798C15.4334 14.9156 15.7741 14.5413 16.2635 14.1879C17.045 13.6235 17.51 12.7797 17.6084 11.7478C17.7504 10.2572 17.1023 8.50812 15.9571 7.29172L16.2006 7.0625C17.4089 8.34586 18.0921 10.1974 17.9413 11.7795C17.8335 12.9101 17.321 13.8367 16.4593 14.4591C16.1356 14.6928 15.841 14.9801 15.6215 15.2851C16.2899 15.3154 16.8915 15.4532 17.3321 15.6867C17.7585 15.9126 17.9886 16.2066 17.98 16.5145C17.9742 16.7244 17.8531 17.0271 17.3093 17.2778C16.1161 17.8276 15.3567 17.4473 15.0688 16.9546C14.8711 16.616 14.8359 16.1408 15.0436 15.6238C13.7965 15.6842 12.2313 16.1218 10.6481 17.2616C9.32626 18.2133 8.00212 18.7817 6.81888 18.9054C6.65872 18.922 6.50216 18.9303 6.35025 18.9303ZM15.4173 15.6167C15.2091 16.024 15.1555 16.4399 15.3576 16.7858C15.6437 17.2755 16.3548 17.3494 17.1693 16.974C17.4719 16.8344 17.6412 16.6679 17.6457 16.5051C17.6504 16.3362 17.4746 16.1406 17.1755 15.9821C16.7863 15.776 16.1735 15.6255 15.4173 15.6167Z" fill="url(#paint0_linear_229_5197)"/>
<path d="M16.1778 15.6781L16.2265 15.3448C16.0333 15.3146 15.8307 15.2946 15.6217 15.2852L15.4175 15.6168C15.691 15.62 15.9456 15.6419 16.1778 15.6781Z" fill="url(#paint1_linear_229_5197)"/>
<path d="M14.2158 15.3718L14.2311 15.7123C14.5136 15.6646 14.7853 15.6357 15.0432 15.6232L15.215 15.2793C14.9799 15.2837 14.7392 15.3008 14.4968 15.3311C14.4075 15.3422 14.3137 15.3557 14.2158 15.3718Z" fill="url(#paint2_linear_229_5197)"/>
<path d="M19.8171 5.76985C20.8607 8.55629 17.3237 12.4568 11.9168 14.4819C6.51002 16.507 1.28092 15.8898 0.237253 13.1034C-0.806417 10.317 2.73069 6.41649 8.13747 4.39138C13.5443 2.36627 18.7734 2.98345 19.8171 5.76985Z" fill="url(#paint3_linear_229_5197)"/>
<path d="M19.7497 5.58921C20.7559 8.27572 17.1885 12.0952 11.7817 14.1203C6.37485 16.1454 1.17607 15.6092 0.16986 12.9227C-0.836349 10.2362 2.73103 6.41674 8.13781 4.39163C13.5446 2.36652 18.7434 2.90269 19.7497 5.58921Z" fill="url(#paint4_linear_229_5197)"/>
<path d="M18.8174 5.93825C19.7277 8.36879 16.5002 11.8245 11.6085 13.6566C6.71675 15.4888 2.01325 15.0037 1.1029 12.5731C0.192546 10.1425 3.42008 6.68692 8.31179 4.85474C13.2035 3.02255 17.907 3.50771 18.8174 5.93825Z" fill="url(#paint5_linear_229_5197)"/>
<path d="M17.7078 5.90309C18.4248 7.81723 15.5025 10.6812 11.1807 12.2998C6.85899 13.9185 2.77435 13.6791 2.05739 11.7649C1.34044 9.8507 4.26278 6.98684 8.58449 5.36813C12.9062 3.74943 16.9909 3.989 17.7078 5.90309Z" fill="url(#paint6_linear_229_5197)"/>
<path d="M11.917 14.4811C15.3669 13.189 18.0552 11.1333 19.2784 9.09073L15.3463 5.08984C15.0106 8.19593 5.45562 11.7747 3.16211 9.65339C3.22867 10.1296 3.34766 10.6059 3.52328 11.0749C3.61019 11.3069 3.74824 11.5019 3.92898 11.6632L7.79944 15.5337C9.11276 15.3563 10.5088 15.0085 11.917 14.4811Z" fill="url(#paint7_linear_229_5197)"/>
<path d="M16.0079 6.39985C17.2992 9.84739 4.81462 14.5234 3.52342 11.0759C2.23221 7.62841 3.98017 3.78685 7.42767 2.4956C10.8752 1.20436 14.7167 2.95232 16.0079 6.39985Z" fill="url(#paint8_linear_229_5197)"/>
<path d="M3.16211 9.65339C3.22867 10.1296 3.34766 10.6059 3.52332 11.0749C4.81457 14.5224 17.2991 9.8464 16.0078 6.39886C15.8321 5.92984 15.609 5.49254 15.3463 5.08984C15.0107 8.19593 5.45562 11.7747 3.16211 9.65339Z" fill="url(#paint9_linear_229_5197)"/>
<defs>
<linearGradient id="paint0_linear_229_5197" x1="11.9372" y1="17.3013" x2="10.9337" y2="13.8316" gradientUnits="userSpaceOnUse">
<stop stop-color="#456A97"/>
<stop offset="1" stop-color="#1A338C"/>
</linearGradient>
<linearGradient id="paint1_linear_229_5197" x1="16.052" y1="15.504" x2="15.2371" y2="15.4134" gradientUnits="userSpaceOnUse">
<stop stop-color="#456A97" stop-opacity="0"/>
<stop offset="1" stop-color="#1A338C"/>
</linearGradient>
<linearGradient id="paint2_linear_229_5197" x1="14.5188" y1="15.5107" x2="15.1945" y2="15.4202" gradientUnits="userSpaceOnUse">
<stop stop-color="#456A97" stop-opacity="0"/>
<stop offset="1" stop-color="#1A338C"/>
</linearGradient>
<linearGradient id="paint3_linear_229_5197" x1="9.68966" y1="8.76996" x2="11.5292" y2="12.4071" gradientUnits="userSpaceOnUse">
<stop stop-color="#FFB500"/>
<stop offset="1" stop-color="#FF7000"/>
</linearGradient>
<linearGradient id="paint4_linear_229_5197" x1="6.7183" y1="6.01497" x2="16.2902" y2="15.5869" gradientUnits="userSpaceOnUse">
<stop stop-color="#FFCF42"/>
<stop offset="1" stop-color="#FF7000"/>
</linearGradient>
<linearGradient id="paint5_linear_229_5197" x1="5.14657" y1="4.44259" x2="13.8064" y2="13.1024" gradientUnits="userSpaceOnUse">
<stop stop-color="#FFCF42"/>
<stop offset="1" stop-color="#FF7000"/>
</linearGradient>
<linearGradient id="paint6_linear_229_5197" x1="4.69371" y1="4.09287" x2="11.3418" y2="11.3198" gradientUnits="userSpaceOnUse">
<stop stop-color="#FFCF42"/>
<stop offset="1" stop-color="#FF7000"/>
</linearGradient>
<linearGradient id="paint7_linear_229_5197" x1="16.0806" y1="14.822" x2="4.98086" y2="3.72189" gradientUnits="userSpaceOnUse">
<stop stop-color="#FFB500" stop-opacity="0"/>
<stop offset="1" stop-color="#FF7000"/>
</linearGradient>
<linearGradient id="paint8_linear_229_5197" x1="4.75507" y1="3.39713" x2="11.8498" y2="10.4914" gradientUnits="userSpaceOnUse">
<stop stop-color="#FFCF42"/>
<stop offset="1" stop-color="#FFB500"/>
</linearGradient>
<linearGradient id="paint9_linear_229_5197" x1="9.93706" y1="9.2234" x2="10.9366" y2="12.0469" gradientUnits="userSpaceOnUse">
<stop stop-color="#FF4C4A"/>
<stop offset="1" stop-color="#FF001C"/>
</linearGradient>
</defs>
</svg>
