<svg width="22" height="24" viewBox="0 0 22 24" fill="none" xmlns="http://www.w3.org/2000/svg">
<path d="M14.1989 15.8746L5.71191 10.9746V16.7875L14.1989 21.6875V15.8746Z" fill="url(#paint0_linear_320_2079)"/>
<path d="M5.02051 11.373L14.2419 16.695L5.02051 11.373Z" fill="#FF4757"/>
<path d="M18.096 6.30859L14.1992 15.8737V21.6865L20.7799 17.8872V12.0743L18.096 6.30859Z" fill="url(#paint1_linear_320_2079)"/>
<path d="M14.2367 21.0773L12.9561 20.3379L13.0014 20.9953L14.1992 21.6868L14.2367 21.0773Z" fill="url(#paint2_linear_320_2079)"/>
<path d="M13.4922 20.9928V15.6465L14.2915 16.0366L14.1985 21.4096L13.4922 20.9928Z" fill="url(#paint3_linear_320_2079)"/>
<path d="M14.9211 15.9233V20.6385L20.2376 17.5751V12.8998L20.7799 12.5879V17.887L14.1992 21.6864V16.2288L14.9211 15.9233Z" fill="url(#paint4_linear_320_2079)"/>
<path d="M20.7799 11.9648L14.1992 15.7642V16.386L20.7799 12.5899V11.9648Z" fill="url(#paint5_linear_320_2079)"/>
<path d="M14.7344 16.4107L14.1806 17.1388H13.0026L12.4404 13.4141L14.7344 16.4107Z" fill="url(#paint6_linear_320_2079)"/>
<path d="M20.78 12.8803H20.1809L17.0674 8.90781L18.0961 6.84766L20.78 12.0744V12.8803Z" fill="url(#paint7_linear_320_2079)"/>
<path d="M8.87438 0.125L18.0959 5.44691L14.2419 16.6957L5.02051 11.3738L8.87438 0.125Z" fill="url(#paint8_linear_320_2079)"/>
<path d="M21.5122 12.4972L20.7795 12.0742L17.8643 7.26017L18.2218 6.21875L21.5122 12.4972Z" fill="#462934"/>
<path d="M18.2223 6.81255L21.5126 12.4985L21.95 12.246L18.0961 5.44727L14.2422 16.6961L14.932 16.2978L18.2223 6.81255Z" fill="url(#paint9_linear_320_2079)"/>
<path d="M10.1922 0.882812L11.4856 1.63159L7.63127 12.8803L6.33789 12.1336L10.1922 0.882812Z" fill="url(#paint10_linear_320_2079)"/>
<path d="M12.8026 2.39062L14.1199 3.15328L10.2656 14.402L8.94824 13.6414L12.8026 2.39062Z" fill="url(#paint11_linear_320_2079)"/>
<path d="M15.4374 3.91211L16.7787 4.68859L12.9243 15.9372L11.583 15.1629L15.4374 3.91211Z" fill="url(#paint12_linear_320_2079)"/>
<path d="M18.6721 5.56246L8.99108 0.0269945C8.89687 -0.0256461 8.76833 -0.00248986 8.63737 0.106963C8.4088 0.297932 8.25941 0.679026 8.30366 0.958213C8.32208 1.07451 8.37121 1.15471 8.4388 1.19498L18.1186 6.72989L18.6721 5.56246Z" fill="url(#paint13_linear_320_2079)"/>
<path d="M18.808 5.79996C18.7638 5.52078 18.5426 5.44925 18.3141 5.64017C18.0856 5.83114 17.9362 6.21223 17.9804 6.49142C18.0247 6.7706 18.2458 6.84214 18.4743 6.65121C18.7029 6.46025 18.8523 6.07915 18.808 5.79996Z" fill="#966D7D"/>
<path d="M8.08572 4.27148H4.08203V9.67997H4.08241C4.08339 9.72333 4.10495 9.76631 4.14794 9.79111L5.90364 10.8048C6.01736 10.8705 6.15756 10.8705 6.27128 10.8048L8.01981 9.79528C8.06411 9.76969 8.08595 9.72473 8.08558 9.67997H8.08572V4.27148Z" fill="url(#paint14_linear_320_2079)"/>
<path d="M4.08203 4.27148V6.84919H5.794C6.06217 6.84919 6.32116 6.75136 6.52239 6.57408L8.08572 5.19656V4.27148H4.08203Z" fill="url(#paint15_linear_320_2079)"/>
<path d="M8.56302 3.36719H3.60547V4.82411H3.60594C3.60716 4.87783 3.63387 4.93103 3.68708 4.96173L5.86109 6.21691C6.00195 6.29823 6.17548 6.29823 6.31634 6.21691L8.48145 4.96689C8.53634 4.9352 8.56334 4.87956 8.56287 4.82411H8.56306L8.56302 3.36719Z" fill="url(#paint16_linear_320_2079)"/>
<path d="M5.85662 1.97468L3.68729 3.22273C3.5783 3.28545 3.57816 3.44262 3.68705 3.50548L5.86107 4.76065C6.00193 4.84198 6.17546 4.84198 6.31632 4.76065L8.48143 3.51064C8.59023 3.44782 8.59023 3.29079 8.48143 3.22798L6.31121 1.97501C6.17059 1.89387 5.99738 1.89373 5.85662 1.97468Z" fill="#966D7D"/>
<path d="M5.92928 2.42012L4.45501 3.26827C4.38095 3.31088 4.38086 3.41771 4.45487 3.46046L5.93233 4.31344C6.02805 4.36871 6.14598 4.36871 6.2417 4.31344L7.71306 3.46393C7.78698 3.42127 7.78698 3.31454 7.71306 3.27183L6.23823 2.42035C6.14265 2.36518 6.02495 2.36508 5.92928 2.42012Z" fill="url(#paint17_linear_320_2079)"/>
<path d="M5.92948 3.07246L4.85352 3.69149L5.93253 4.31446C6.02825 4.36972 6.14619 4.36972 6.24191 4.31446L7.31558 3.69458L6.23844 3.07269C6.14286 3.01752 6.02511 3.01743 5.92948 3.07246Z" fill="#5D3645"/>
<path d="M7.49023 18.8547L13.0015 15.9375V20.9962L7.80073 24.0008L7.49023 18.8547Z" fill="url(#paint18_linear_320_2079)"/>
<path d="M3.90365 10.7461L1.21973 14.3886V20.2014L7.80041 24.0008V18.1879L3.90365 10.7461Z" fill="url(#paint19_linear_320_2079)"/>
<path d="M3.6543 16.018L4.15262 16.3057V11.6618L3.6543 11.373V16.018Z" fill="url(#paint20_linear_320_2079)"/>
<path d="M2.53809 20.3989L3.03641 20.6867V16.0427L2.53809 15.7539V20.3989Z" fill="url(#paint21_linear_320_2079)"/>
<path d="M10.804 21.7837L10.3057 22.0714V17.4275L10.804 17.1387V21.7837Z" fill="url(#paint22_linear_320_2079)"/>
<path d="M18.4036 18.7043L17.9053 18.992V14.2243L18.4036 13.9355V18.7043Z" fill="url(#paint23_linear_320_2079)"/>
<path d="M5.21387 21.9145L5.7122 22.2022V17.5583L5.21387 17.2695V21.9145Z" fill="url(#paint24_linear_320_2079)"/>
<path d="M7.07859 18.2365V22.9517L1.76212 19.8916V15.2162L1.21973 14.9043V20.2035L7.80041 23.9996V18.542L7.07859 18.2365Z" fill="url(#paint25_linear_320_2079)"/>
<path d="M8.50703 18.2378V22.953L12.4591 20.6842V16.0089L13.0015 15.9375V20.9962L7.78516 24.0008V18.5433L8.50703 18.2378Z" fill="url(#paint26_linear_320_2079)"/>
<path d="M1.21973 14.4023L7.80041 18.2017V18.8235L1.21973 15.0274V14.4023Z" fill="url(#paint27_linear_320_2079)"/>
<path d="M7.80041 19.6989H5.7119L3.05685 13.5772L1.21973 15.0964V14.3878L3.99177 10.582L13.003 15.98L7.80041 19.6989Z" fill="url(#paint28_linear_320_2079)"/>
<path d="M11.686 5.39062L3.68555 10.0767L7.75796 19.0086L13.0034 15.9801L11.686 5.39062Z" fill="url(#paint29_linear_320_2079)"/>
<path d="M0.487305 14.8115L1.21991 14.3885L4.13521 11.6977L3.77765 10.6562L0.487305 14.8115Z" fill="#462934"/>
<path d="M3.77749 11.248L0.487148 14.8108L0.0498047 14.5583L3.90368 9.88281L7.7576 19.0084L7.06783 18.6101L3.77749 11.248Z" fill="url(#paint30_linear_320_2079)"/>
<path d="M7.83146 7.61328L6.53809 8.36206L10.3924 17.4875L11.6858 16.7408L7.83146 7.61328Z" fill="url(#paint31_linear_320_2079)"/>
<path d="M9.14746 6.85433L13.0015 15.979L13.0028 15.9782L12.3316 10.5832L10.4416 6.10742L9.14746 6.85433Z" fill="url(#paint32_linear_320_2079)"/>
<path d="M5.22065 9.12109L3.90332 9.8837L7.75766 19.0092L9.07499 18.2486L5.22065 9.12109Z" fill="url(#paint33_linear_320_2079)"/>
<path d="M3.32812 9.99892L11.4853 5.34733C11.5795 5.29464 11.708 5.31784 11.839 5.4273C12.0675 5.61827 12.2169 5.99936 12.1727 6.27855C12.1543 6.39484 12.1051 6.47505 12.0375 6.51536L3.88162 11.1664L3.32812 9.99892Z" fill="url(#paint34_linear_320_2079)"/>
<path d="M3.19136 10.2375C3.23561 9.95828 3.45676 9.88675 3.68528 10.0777C3.91384 10.2686 4.06323 10.6497 4.01898 10.9289C3.97473 11.2081 3.75357 11.2796 3.52506 11.0887C3.29654 10.8977 3.14711 10.5166 3.19136 10.2375Z" fill="#966D7D"/>
<path d="M9.93596 21.1438L8.91113 21.7355V19.9906C8.91113 19.6443 9.09554 19.3243 9.39512 19.1507C9.63526 19.0115 9.93596 19.1848 9.93596 19.4623V21.1438Z" fill="#462934"/>
<path d="M12.1977 19.8274L11.1729 20.4191V18.6742C11.1729 18.3279 11.3573 18.0079 11.6568 17.8343C11.897 17.6951 12.1977 17.8683 12.1977 18.1459V19.8274Z" fill="#462934"/>
<path d="M19.8364 16.6614L18.8115 17.2531V15.5081C18.8115 15.1619 18.9959 14.8419 19.2955 14.6682C19.5356 14.5291 19.8364 14.7023 19.8364 14.9799V16.6614Z" fill="#462934"/>
<path d="M3.38184 19.7897L4.78209 20.5982V19.2693C4.78209 18.7963 4.53013 18.359 4.12082 18.1218C3.7927 17.9316 3.38184 18.1684 3.38184 18.5476V19.7897Z" fill="#462934"/>
<path d="M15.8681 20.7207L16.8918 20.1304L17.1906 19.6694L17.0112 16.0352L15.5693 16.9828L15.8681 20.7207Z" fill="url(#paint35_linear_320_2079)"/>
<path d="M15.2705 18.6724V18.2283L17.4892 16.9473V17.3802L15.2705 18.6724Z" fill="url(#paint36_linear_320_2079)"/>
<path d="M15.2705 20.0083V19.5642L17.4892 18.2832V18.7162L15.2705 20.0083Z" fill="url(#paint37_linear_320_2079)"/>
<path d="M15.868 20.7225L15.2705 21.0675V16.9283L15.868 16.582V20.7225Z" fill="url(#paint38_linear_320_2079)"/>
<path d="M17.4891 19.7869L16.8916 20.1319V15.9928L17.4891 15.6465V19.7869Z" fill="url(#paint39_linear_320_2079)"/>
<path d="M15.2705 17.3159V16.6248L17.4892 15.3438V16.0237L15.2705 17.3159Z" fill="url(#paint40_linear_320_2079)"/>
<path d="M18.6078 12.1419L17.583 12.7336V10.9886C17.583 10.6423 17.7674 10.3223 18.067 10.1487C18.3071 10.0095 18.6078 10.1828 18.6078 10.4604V12.1419Z" fill="#462934"/>
<defs>
<linearGradient id="paint0_linear_320_2079" x1="9.95541" y1="18.4072" x2="9.95541" y2="25.1793" gradientUnits="userSpaceOnUse">
<stop stop-color="#DEA861"/>
<stop offset="1" stop-color="#EBCBA0"/>
</linearGradient>
<linearGradient id="paint1_linear_320_2079" x1="17.4896" y1="44.9459" x2="17.4896" y2="16.6127" gradientUnits="userSpaceOnUse">
<stop stop-color="#EBCBA0"/>
<stop offset="1" stop-color="#FCF3B3"/>
</linearGradient>
<linearGradient id="paint2_linear_320_2079" x1="13.9026" y1="19.8013" x2="19.0079" y2="0.772033" gradientUnits="userSpaceOnUse">
<stop stop-color="#5D3645"/>
<stop offset="1" stop-color="#966D7D"/>
</linearGradient>
<linearGradient id="paint3_linear_320_2079" x1="13.5304" y1="19.7017" x2="18.6359" y2="0.6725" gradientUnits="userSpaceOnUse">
<stop stop-color="#5D3645"/>
<stop offset="1" stop-color="#966D7D"/>
</linearGradient>
<linearGradient id="paint4_linear_320_2079" x1="17.4896" y1="27.1343" x2="17.4896" y2="11.9287" gradientUnits="userSpaceOnUse">
<stop stop-color="#5D3645"/>
<stop offset="1" stop-color="#966D7D"/>
</linearGradient>
<linearGradient id="paint5_linear_320_2079" x1="17.4896" y1="27.7627" x2="17.4896" y2="13.2175" gradientUnits="userSpaceOnUse">
<stop stop-color="#5D3645"/>
<stop offset="1" stop-color="#966D7D"/>
</linearGradient>
<linearGradient id="paint6_linear_320_2079" x1="15.0702" y1="12.821" x2="11.1971" y2="18.2838" gradientUnits="userSpaceOnUse">
<stop stop-color="#5D3645"/>
<stop offset="1" stop-color="#5D3645" stop-opacity="0"/>
</linearGradient>
<linearGradient id="paint7_linear_320_2079" x1="21.0088" y1="5.39209" x2="18.0734" y2="13.1376" gradientUnits="userSpaceOnUse">
<stop stop-color="#5D3645"/>
<stop offset="1" stop-color="#5D3645" stop-opacity="0"/>
</linearGradient>
<linearGradient id="paint8_linear_320_2079" x1="9.0166" y1="14.9789" x2="14.9946" y2="-0.47064" gradientUnits="userSpaceOnUse">
<stop stop-color="#00395E"/>
<stop offset="1" stop-color="#0072BC"/>
</linearGradient>
<linearGradient id="paint9_linear_320_2079" x1="18.0961" y1="6.15016" x2="18.0961" y2="16.6728" gradientUnits="userSpaceOnUse">
<stop stop-color="#5D3645"/>
<stop offset="1" stop-color="#966D7D"/>
</linearGradient>
<linearGradient id="paint10_linear_320_2079" x1="5.49597" y1="13.7944" x2="11.9938" y2="0.644126" gradientUnits="userSpaceOnUse">
<stop stop-color="#00395E"/>
<stop offset="1" stop-color="#0072BC"/>
</linearGradient>
<linearGradient id="paint11_linear_320_2079" x1="8.20504" y1="15.1337" x2="14.7028" y2="1.98347" gradientUnits="userSpaceOnUse">
<stop stop-color="#00395E"/>
<stop offset="1" stop-color="#0072BC"/>
</linearGradient>
<linearGradient id="paint12_linear_320_2079" x1="10.9393" y1="16.485" x2="17.437" y2="3.3347" gradientUnits="userSpaceOnUse">
<stop stop-color="#00395E"/>
<stop offset="1" stop-color="#0072BC"/>
</linearGradient>
<linearGradient id="paint13_linear_320_2079" x1="13.4001" y1="3.33051" x2="13.6237" y2="2.94314" gradientUnits="userSpaceOnUse">
<stop stop-color="#5D3645"/>
<stop offset="1" stop-color="#966D7D"/>
</linearGradient>
<linearGradient id="paint14_linear_320_2079" x1="5.82681" y1="7.56277" x2="6.52014" y2="7.56277" gradientUnits="userSpaceOnUse">
<stop stop-color="#DEA861"/>
<stop offset="1" stop-color="#EBCBA0"/>
</linearGradient>
<linearGradient id="paint15_linear_320_2079" x1="6.15587" y1="3.9255" x2="5.8098" y2="7.81289" gradientUnits="userSpaceOnUse">
<stop stop-color="#5D3645"/>
<stop offset="1" stop-color="#5D3645" stop-opacity="0"/>
</linearGradient>
<linearGradient id="paint16_linear_320_2079" x1="5.75295" y1="4.82256" x2="6.56956" y2="4.82256" gradientUnits="userSpaceOnUse">
<stop stop-color="#5D3645"/>
<stop offset="1" stop-color="#966D7D"/>
</linearGradient>
<linearGradient id="paint17_linear_320_2079" x1="6.46173" y1="3.3669" x2="5.68637" y2="3.3669" gradientUnits="userSpaceOnUse">
<stop stop-color="#5D3645"/>
<stop offset="1" stop-color="#966D7D"/>
</linearGradient>
<linearGradient id="paint18_linear_320_2079" x1="10.2459" y1="18.382" x2="10.2459" y2="23.4792" gradientUnits="userSpaceOnUse">
<stop stop-color="#EBCBA0"/>
<stop offset="1" stop-color="#FCF3B3"/>
</linearGradient>
<linearGradient id="paint19_linear_320_2079" x1="4.51012" y1="20.4942" x2="4.51012" y2="-3.92691" gradientUnits="userSpaceOnUse">
<stop stop-color="#DEA861"/>
<stop offset="1" stop-color="#EBCBA0"/>
</linearGradient>
<linearGradient id="paint20_linear_320_2079" x1="1.4748" y1="22.2196" x2="9.394" y2="-5.1059" gradientUnits="userSpaceOnUse">
<stop stop-color="#5D3645"/>
<stop offset="1" stop-color="#966D7D"/>
</linearGradient>
<linearGradient id="paint21_linear_320_2079" x1="1.61619" y1="22.2611" x2="9.53539" y2="-5.06445" gradientUnits="userSpaceOnUse">
<stop stop-color="#5D3645"/>
<stop offset="1" stop-color="#966D7D"/>
</linearGradient>
<linearGradient id="paint22_linear_320_2079" x1="10.5549" y1="29.0782" x2="10.5549" y2="16.4524" gradientUnits="userSpaceOnUse">
<stop stop-color="#5D3645"/>
<stop offset="1" stop-color="#966D7D"/>
</linearGradient>
<linearGradient id="paint23_linear_320_2079" x1="18.1544" y1="27.1349" x2="18.1544" y2="11.9293" gradientUnits="userSpaceOnUse">
<stop stop-color="#5D3645"/>
<stop offset="1" stop-color="#966D7D"/>
</linearGradient>
<linearGradient id="paint24_linear_320_2079" x1="4.48988" y1="23.0938" x2="12.4091" y2="-4.23166" gradientUnits="userSpaceOnUse">
<stop stop-color="#5D3645"/>
<stop offset="1" stop-color="#966D7D"/>
</linearGradient>
<linearGradient id="paint25_linear_320_2079" x1="3.53507" y1="22.8164" x2="11.4542" y2="-4.50907" gradientUnits="userSpaceOnUse">
<stop stop-color="#5D3645"/>
<stop offset="1" stop-color="#966D7D"/>
</linearGradient>
<linearGradient id="paint26_linear_320_2079" x1="10.3933" y1="28.932" x2="10.3933" y2="16.6719" gradientUnits="userSpaceOnUse">
<stop stop-color="#5D3645"/>
<stop offset="1" stop-color="#966D7D"/>
</linearGradient>
<linearGradient id="paint27_linear_320_2079" x1="2.77574" y1="22.5974" x2="10.6949" y2="-4.72805" gradientUnits="userSpaceOnUse">
<stop stop-color="#5D3645"/>
<stop offset="1" stop-color="#966D7D"/>
</linearGradient>
<linearGradient id="paint28_linear_320_2079" x1="11.8052" y1="8.56345" x2="1.45527" y2="23.1615" gradientUnits="userSpaceOnUse">
<stop stop-color="#5D3645"/>
<stop offset="1" stop-color="#5D3645" stop-opacity="0"/>
</linearGradient>
<linearGradient id="paint29_linear_320_2079" x1="12.2287" y1="19.4744" x2="7.23886" y2="6.57867" gradientUnits="userSpaceOnUse">
<stop stop-color="#00395E"/>
<stop offset="1" stop-color="#0072BC"/>
</linearGradient>
<linearGradient id="paint30_linear_320_2079" x1="4.91745" y1="10.6197" x2="2.61429" y2="24.6229" gradientUnits="userSpaceOnUse">
<stop stop-color="#5D3645"/>
<stop offset="1" stop-color="#966D7D"/>
</linearGradient>
<linearGradient id="paint31_linear_320_2079" x1="13.9471" y1="20.9251" x2="7.6434" y2="10.0069" gradientUnits="userSpaceOnUse">
<stop stop-color="#00395E"/>
<stop offset="1" stop-color="#0072BC"/>
</linearGradient>
<linearGradient id="paint32_linear_320_2079" x1="7.82348" y1="17.0483" x2="12.484" y2="8.97603" gradientUnits="userSpaceOnUse">
<stop stop-color="#00395E"/>
<stop offset="1" stop-color="#0072BC"/>
</linearGradient>
<linearGradient id="paint33_linear_320_2079" x1="11.1274" y1="22.0988" x2="4.82605" y2="11.1845" gradientUnits="userSpaceOnUse">
<stop stop-color="#00395E"/>
<stop offset="1" stop-color="#0072BC"/>
</linearGradient>
<linearGradient id="paint34_linear_320_2079" x1="7.8383" y1="8.209" x2="7.61405" y2="7.82064" gradientUnits="userSpaceOnUse">
<stop stop-color="#5D3645"/>
<stop offset="1" stop-color="#966D7D"/>
</linearGradient>
<linearGradient id="paint35_linear_320_2079" x1="16.38" y1="17.5589" x2="16.38" y2="19.2455" gradientUnits="userSpaceOnUse">
<stop stop-color="#8B451C"/>
<stop offset="0.3606" stop-color="#984C1F"/>
<stop offset="1" stop-color="#BA5C25"/>
</linearGradient>
<linearGradient id="paint36_linear_320_2079" x1="16.3799" y1="17.9292" x2="16.3799" y2="25.0414" gradientUnits="userSpaceOnUse">
<stop stop-color="#5D3645"/>
<stop offset="1" stop-color="#966D7D"/>
</linearGradient>
<linearGradient id="paint37_linear_320_2079" x1="16.3799" y1="19.2652" x2="16.3799" y2="26.3773" gradientUnits="userSpaceOnUse">
<stop stop-color="#5D3645"/>
<stop offset="1" stop-color="#966D7D"/>
</linearGradient>
<linearGradient id="paint38_linear_320_2079" x1="15.5693" y1="16.4451" x2="15.5693" y2="26.1398" gradientUnits="userSpaceOnUse">
<stop stop-color="#5D3645"/>
<stop offset="1" stop-color="#966D7D"/>
</linearGradient>
<linearGradient id="paint39_linear_320_2079" x1="17.1904" y1="16.6248" x2="17.1904" y2="26.3195" gradientUnits="userSpaceOnUse">
<stop stop-color="#5D3645"/>
<stop offset="1" stop-color="#966D7D"/>
</linearGradient>
<linearGradient id="paint40_linear_320_2079" x1="16.3799" y1="16.4663" x2="16.3799" y2="24.5966" gradientUnits="userSpaceOnUse">
<stop stop-color="#5D3645"/>
<stop offset="1" stop-color="#966D7D"/>
</linearGradient>
</defs>
</svg>
