<svg width="20" height="21" viewBox="0 0 20 21" fill="none" xmlns="http://www.w3.org/2000/svg">
<g clip-path="url(#clip0_229_5087)">
<path d="M0.220581 15.7779C0.0259927 15.9197 -0.0491052 16.1505 0.0326593 16.3591C0.194267 16.7714 0.605717 17.0887 1.12462 17.1673C3.73889 17.5631 6.76888 17.7895 9.99997 17.7895C13.2311 17.7895 16.2611 17.5631 18.8753 17.1673C19.3942 17.0887 19.8057 16.7714 19.9673 16.3591C20.0491 16.1506 19.974 15.9197 19.7794 15.7779C17.0733 13.8054 13.6477 12.7254 10.1105 12.7364C10.0741 12.7365 10.0372 12.7366 9.99997 12.7366C9.96272 12.7366 9.92589 12.7365 9.88946 12.7364C6.35222 12.7254 2.92669 13.8054 0.220581 15.7779Z" fill="url(#paint0_linear_229_5087)"/>
<path d="M19.9675 16.3572C19.8059 16.7697 19.3942 17.087 18.8753 17.1654C16.2612 17.5611 13.231 17.7878 10.0001 17.7878C9.43574 17.7878 8.87771 17.7807 8.32712 17.767L5.30477 14.7446C5.15771 14.6658 5.05811 14.5109 5.05811 14.3325V14.1144C5.05811 13.8313 5.1436 13.5682 5.29065 13.3497C6.76595 12.9403 8.31653 12.7297 9.88947 12.7345C9.92594 12.7348 9.9628 12.7348 10.0001 12.7348C10.0373 12.7348 10.0742 12.7348 10.1106 12.7345H10.164C13.6824 12.7345 17.0871 13.8133 19.7796 15.776C19.9742 15.918 20.0491 16.1486 19.9675 16.3572Z" fill="url(#paint1_linear_229_5087)"/>
<path d="M7.80075 14.8015H5.52503C5.26687 14.8015 5.05762 14.5923 5.05762 14.3341V14.1157C5.05762 13.3582 5.67169 12.7441 6.42918 12.7441C7.18667 12.7441 7.80075 13.3582 7.80075 14.1157V14.8015Z" fill="url(#paint2_linear_229_5087)"/>
<path d="M2.88753 12.7399L2.17149 13.0932L1.21757 11.1599C1.12 10.9622 1.20122 10.7229 1.39894 10.6253C1.59667 10.5277 1.83604 10.6089 1.93361 10.8067L2.88753 12.7399Z" fill="url(#paint3_linear_229_5087)"/>
<path d="M17.8284 5.36686L17.1124 5.72015L16.1585 3.7869C16.0609 3.58918 16.1421 3.34981 16.3399 3.25224C16.5376 3.15467 16.777 3.23588 16.8745 3.43361L17.8284 5.36686Z" fill="url(#paint4_linear_229_5087)"/>
<path d="M19.6064 5.66278L1.32448 14.6834C0.974987 14.8558 0.551929 14.7123 0.379458 14.3628L0.0729885 13.7417C-0.0994425 13.3922 0.0440866 12.9692 0.393537 12.7967L18.6755 3.77611C19.025 3.60368 19.448 3.74721 19.6205 4.09666L19.927 4.7178C20.0994 5.06725 19.9559 5.49035 19.6064 5.66278Z" fill="url(#paint5_linear_229_5087)"/>
<path d="M12.2492 7.95166L11.8304 7.53287C11.7459 7.44468 11.6549 7.36252 11.5584 7.28711L7.5292 9.27514L7.13916 11.8136L13.1469 8.8493L12.2492 7.95166Z" fill="url(#paint6_linear_229_5087)"/>
<path d="M12.8424 14.8007H7.15728C6.85716 14.8007 6.62764 14.5332 6.67328 14.2366L7.49348 8.90242C7.68371 7.66525 8.74818 6.75195 9.9999 6.75195C11.2516 6.75195 12.3161 7.66525 12.5063 8.90242L13.3265 14.2366C13.3721 14.5332 13.1426 14.8007 12.8424 14.8007Z" fill="url(#paint7_linear_229_5087)"/>
<path d="M9.99966 11.2103C11.0506 11.2103 11.9026 10.3583 11.9026 9.30727C11.9026 8.25629 11.0506 7.4043 9.99966 7.4043C8.94867 7.4043 8.09668 8.25629 8.09668 9.30727C8.09668 10.3583 8.94867 11.2103 9.99966 11.2103Z" fill="url(#paint8_linear_229_5087)"/>
<path d="M13.3262 14.2369L12.7314 10.3684L10.8916 8.52854C10.6745 8.28007 10.3555 8.16211 9.99963 8.16211C9.34551 8.16211 8.85449 8.65313 8.85449 9.30724C8.85449 9.66313 8.97245 9.98211 9.22092 10.1992L13.3314 14.3097C13.3312 14.2857 13.33 14.2615 13.3262 14.2369Z" fill="url(#paint9_linear_229_5087)"/>
<path d="M9.99978 10.4917C10.6539 10.4917 11.1841 9.9615 11.1841 9.3074C11.1841 8.6533 10.6539 8.12305 9.99978 8.12305C9.34568 8.12305 8.81543 8.6533 8.81543 9.3074C8.81543 9.9615 9.34568 10.4917 9.99978 10.4917Z" fill="url(#paint10_linear_229_5087)"/>
<path d="M12.5264 14.8001H16.6585C17.1272 14.8001 17.5072 14.4201 17.5072 13.9514V13.5549C17.5072 12.1795 16.3922 11.0645 15.0168 11.0645C13.6414 11.0645 12.5264 12.1795 12.5264 13.5549V14.8001Z" fill="url(#paint11_linear_229_5087)"/>
<path d="M11.3789 14.7996H13.6546C13.9128 14.7996 14.122 14.5903 14.122 14.3321V14.1138C14.122 13.3563 13.508 12.7422 12.7505 12.7422C11.993 12.7422 11.3789 13.3563 11.3789 14.1138V14.7996Z" fill="url(#paint12_linear_229_5087)"/>
</g>
<defs>
<linearGradient id="paint0_linear_229_5087" x1="9.62613" y1="13.4643" x2="10.3833" y2="18.9807" gradientUnits="userSpaceOnUse">
<stop stop-color="#A57C52"/>
<stop offset="0.1339" stop-color="#A26C4A"/>
<stop offset="0.5155" stop-color="#994336"/>
<stop offset="0.8174" stop-color="#942A2A"/>
<stop offset="1" stop-color="#922125"/>
</linearGradient>
<linearGradient id="paint1_linear_229_5087" x1="12.5291" y1="17.0442" x2="12.5291" y2="12.809" gradientUnits="userSpaceOnUse">
<stop stop-color="#42210B" stop-opacity="0"/>
<stop offset="1" stop-color="#42210B"/>
</linearGradient>
<linearGradient id="paint2_linear_229_5087" x1="5.91075" y1="13.5192" x2="7.93" y2="15.5385" gradientUnits="userSpaceOnUse">
<stop stop-color="#BADA00"/>
<stop offset="0.2187" stop-color="#B6D600"/>
<stop offset="0.4501" stop-color="#ACC900"/>
<stop offset="0.6873" stop-color="#9AB400"/>
<stop offset="0.9271" stop-color="#829700"/>
<stop offset="1" stop-color="#798C00"/>
</linearGradient>
<linearGradient id="paint3_linear_229_5087" x1="1.75718" y1="11.8731" x2="2.30629" y2="11.6019" gradientUnits="userSpaceOnUse">
<stop stop-color="#FF7044"/>
<stop offset="1" stop-color="#F82814"/>
</linearGradient>
<linearGradient id="paint4_linear_229_5087" x1="16.7018" y1="4.49143" x2="17.2509" y2="4.22024" gradientUnits="userSpaceOnUse">
<stop stop-color="#FF7044"/>
<stop offset="1" stop-color="#F82814"/>
</linearGradient>
<linearGradient id="paint5_linear_229_5087" x1="9.63892" y1="8.46975" x2="10.6864" y2="10.5907" gradientUnits="userSpaceOnUse">
<stop stop-color="#FFD945"/>
<stop offset="0.3043" stop-color="#FFCD3E"/>
<stop offset="0.8558" stop-color="#FFAD2B"/>
<stop offset="1" stop-color="#FFA325"/>
</linearGradient>
<linearGradient id="paint6_linear_229_5087" x1="12.8203" y1="10.7178" x2="11.3166" y2="10.2121" gradientUnits="userSpaceOnUse">
<stop stop-color="#E87264" stop-opacity="0"/>
<stop offset="0.6519" stop-color="#F67150" stop-opacity="0.652"/>
<stop offset="1" stop-color="#FF7044"/>
</linearGradient>
<linearGradient id="paint7_linear_229_5087" x1="8.42293" y1="10.7763" x2="12.7188" y2="10.7763" gradientUnits="userSpaceOnUse">
<stop stop-color="#FF7044"/>
<stop offset="1" stop-color="#F82814"/>
</linearGradient>
<linearGradient id="paint8_linear_229_5087" x1="11.9625" y1="11.2701" x2="7.61052" y2="6.91814" gradientUnits="userSpaceOnUse">
<stop stop-color="#FF7044"/>
<stop offset="1" stop-color="#F82814"/>
</linearGradient>
<linearGradient id="paint9_linear_229_5087" x1="12.5312" y1="11.8388" x2="9.04343" y2="8.35105" gradientUnits="userSpaceOnUse">
<stop stop-color="#F82814" stop-opacity="0"/>
<stop offset="0.6245" stop-color="#D22725" stop-opacity="0.625"/>
<stop offset="1" stop-color="#C0272D"/>
</linearGradient>
<linearGradient id="paint10_linear_229_5087" x1="9.39519" y1="8.70281" x2="10.7052" y2="10.0128" gradientUnits="userSpaceOnUse">
<stop stop-color="#FFD945"/>
<stop offset="0.3043" stop-color="#FFCD3E"/>
<stop offset="0.8558" stop-color="#FFAD2B"/>
<stop offset="1" stop-color="#FFA325"/>
</linearGradient>
<linearGradient id="paint11_linear_229_5087" x1="14.1941" y1="12.123" x2="15.8998" y2="15.8135" gradientUnits="userSpaceOnUse">
<stop stop-color="#BADA00"/>
<stop offset="0.2187" stop-color="#B6D600"/>
<stop offset="0.4501" stop-color="#ACC900"/>
<stop offset="0.6873" stop-color="#9AB400"/>
<stop offset="0.9271" stop-color="#829700"/>
<stop offset="1" stop-color="#798C00"/>
</linearGradient>
<linearGradient id="paint12_linear_229_5087" x1="12.4002" y1="13.5503" x2="13.2065" y2="15.287" gradientUnits="userSpaceOnUse">
<stop stop-color="#BADA00"/>
<stop offset="0.2187" stop-color="#B6D600"/>
<stop offset="0.4501" stop-color="#ACC900"/>
<stop offset="0.6873" stop-color="#9AB400"/>
<stop offset="0.9271" stop-color="#829700"/>
<stop offset="1" stop-color="#798C00"/>
</linearGradient>
<clipPath id="clip0_229_5087">
<rect width="20" height="20" fill="white" transform="translate(0 0.5)"/>
</clipPath>
</defs>
</svg>
