<svg width="25" height="21" viewBox="0 0 25 21" fill="none" xmlns="http://www.w3.org/2000/svg">
<path d="M20.4283 17.0207C22.5846 17.0207 24.333 15.2723 24.333 13.116C24.333 11.5363 23.3908 10.1723 22.0408 9.5582C22.2377 9.18789 22.3502 8.76602 22.3502 8.31602C22.3502 6.86289 21.1736 5.68633 19.7205 5.68633C19.1955 5.68633 18.7127 5.84102 18.3002 6.10352C17.7002 5.02539 16.5518 4.29883 15.2346 4.29883C13.5424 4.29883 12.1314 5.49414 11.7986 7.08789C11.3439 6.95195 10.8611 6.88164 10.3643 6.88164C7.57051 6.88164 5.30176 9.15039 5.30176 11.9535C5.30176 14.752 7.57051 17.0207 10.3689 17.0207H20.4283Z" fill="url(#paint0_linear_429_743)"/>
<path d="M20.4283 17.0207C22.5846 17.0207 24.333 15.2723 24.333 13.116C24.333 11.5363 23.3908 10.1723 22.0408 9.5582C22.2377 9.18789 22.3502 8.76602 22.3502 8.31602C22.3502 6.86289 21.1736 5.68633 19.7205 5.68633C19.1955 5.68633 18.7127 5.84102 18.3002 6.10352C17.7002 5.02539 16.5518 4.29883 15.2346 4.29883C13.5424 4.29883 12.1314 5.49414 11.7986 7.08789C11.3439 6.95195 10.8611 6.88164 10.3643 6.88164C7.57051 6.88164 5.30176 9.15039 5.30176 11.9535C5.30176 14.752 7.57051 17.0207 10.3689 17.0207H20.4283Z" fill="url(#paint1_linear_429_743)"/>
<path d="M24.333 13.116C24.333 15.2723 22.5846 17.0207 20.4283 17.0207H10.3689C7.57051 17.0207 5.30176 14.752 5.30176 11.9535C5.30176 11.7566 5.31113 11.5645 5.33457 11.377H23.9252C24.1877 11.8973 24.333 12.4926 24.333 13.116Z" fill="url(#paint2_linear_429_743)"/>
<path d="M20.4281 17.0203C22.5846 17.0203 24.3328 15.2721 24.3328 13.1156C24.3328 10.9591 22.5846 9.21094 20.4281 9.21094C18.2716 9.21094 16.5234 10.9591 16.5234 13.1156C16.5234 15.2721 18.2716 17.0203 20.4281 17.0203Z" fill="url(#paint3_linear_429_743)"/>
<path d="M22.35 8.31523C22.35 8.76523 22.2375 9.18711 22.0359 9.55742C21.5438 9.33242 21 9.21055 20.4234 9.21055C19.4391 9.21055 18.5437 9.57148 17.8547 10.1715C17.3812 9.69336 17.0859 9.03711 17.0859 8.31523C17.0859 6.86211 18.2625 5.68555 19.7156 5.68555C21.1734 5.68555 22.35 6.8668 22.35 8.31523Z" fill="url(#paint4_linear_429_743)"/>
<path d="M17.091 8.31602C17.091 9.0332 17.377 9.68008 17.841 10.1535C17.1988 10.866 16.2707 11.3113 15.2348 11.3113C13.2988 11.3113 11.7285 9.74102 11.7285 7.80508C11.7285 5.86914 13.2988 4.29883 15.2348 4.29883C16.552 4.29883 17.7004 5.02539 18.3004 6.10352C17.5738 6.57227 17.091 7.38789 17.091 8.31602Z" fill="url(#paint5_linear_429_743)"/>
<path d="M1.6834 8.76992C1.6834 8.39961 1.3834 8.09961 1.01309 8.09961C0.642773 8.09961 0.342773 8.39961 0.342773 8.76992C0.342773 9.14023 0.642773 9.44023 1.01309 9.44023C1.3834 9.44023 1.6834 9.14023 1.6834 8.76992Z" fill="url(#paint6_linear_429_743)"/>
<path d="M15.4926 8.09961C15.1223 8.09961 14.8223 8.39961 14.8223 8.76992C14.8223 9.14023 15.1223 9.44023 15.4926 9.44023C15.8629 9.44023 16.1629 9.14023 16.1629 8.76992C16.1676 8.39961 15.8629 8.09961 15.4926 8.09961Z" fill="url(#paint7_linear_429_743)"/>
<path d="M8.25039 15.3418C7.88008 15.3418 7.58008 15.6418 7.58008 16.0121C7.58008 16.3824 7.88008 16.6824 8.25039 16.6824C8.6207 16.6824 8.9207 16.3824 8.9207 16.0121C8.92539 15.6418 8.62539 15.3418 8.25039 15.3418Z" fill="url(#paint8_linear_429_743)"/>
<path d="M8.25039 0.857422C7.88008 0.857422 7.58008 1.15742 7.58008 1.52773C7.58008 1.89805 7.88008 2.19805 8.25039 2.19805C8.6207 2.19805 8.9207 1.89805 8.9207 1.52773C8.92539 1.15742 8.62539 0.857422 8.25039 0.857422Z" fill="url(#paint9_linear_429_743)"/>
<path d="M1.64626 11.8108C1.32751 11.9983 1.21501 12.4061 1.40251 12.7295C1.59001 13.0483 1.99782 13.1608 2.32126 12.9733C2.64001 12.7858 2.75251 12.378 2.56501 12.0545C2.37751 11.7311 1.96501 11.6233 1.64626 11.8108Z" fill="url(#paint10_linear_429_743)"/>
<path d="M14.8604 5.72809C15.1791 5.54059 15.2916 5.13278 15.1041 4.80934C14.9166 4.49059 14.5088 4.37809 14.1854 4.56559C13.8619 4.75309 13.7541 5.16091 13.9416 5.48434C14.1291 5.80778 14.5416 5.91559 14.8604 5.72809Z" fill="url(#paint11_linear_429_743)"/>
<path d="M11.8744 15.7117C12.2446 15.7117 12.5447 15.4116 12.5447 15.0414C12.5447 14.6712 12.2446 14.3711 11.8744 14.3711C11.5042 14.3711 11.2041 14.6712 11.2041 15.0414C11.2041 15.4116 11.5042 15.7117 11.8744 15.7117Z" fill="url(#paint12_linear_429_743)"/>
<path d="M4.2947 1.91703C3.97595 2.10453 3.86345 2.51234 4.05095 2.83578C4.23845 3.15921 4.64626 3.26703 4.9697 3.07953C5.28845 2.89203 5.40094 2.48421 5.21344 2.16078C5.02595 1.84203 4.61813 1.73421 4.2947 1.91703Z" fill="url(#paint13_linear_429_743)"/>
<path d="M14.8603 11.8117C14.5416 11.6242 14.1291 11.7367 13.9416 12.0554C13.7541 12.3742 13.8666 12.7867 14.1853 12.9742C14.5041 13.1617 14.9166 13.0492 15.1041 12.7304C15.2916 12.407 15.1791 11.9945 14.8603 11.8117Z" fill="url(#paint14_linear_429_743)"/>
<path d="M2.31637 4.5695C1.99762 4.382 1.58512 4.4945 1.39762 4.81325C1.21012 5.132 1.32262 5.5445 1.64137 5.732C1.96012 5.9195 2.37262 5.807 2.56012 5.48825C2.74762 5.1695 2.63512 4.75231 2.31637 4.5695Z" fill="url(#paint15_linear_429_743)"/>
<path d="M4.9697 14.4601C4.65095 14.2726 4.23845 14.3851 4.05095 14.7039C3.86345 15.0226 3.97595 15.4351 4.2947 15.6226C4.61345 15.8101 5.02595 15.6976 5.21345 15.3789C5.39626 15.0554 5.28845 14.6476 4.9697 14.4601Z" fill="url(#paint16_linear_429_743)"/>
<path d="M12.2119 1.91716C11.8931 1.72966 11.4806 1.84216 11.2931 2.16091C11.1056 2.47966 11.2181 2.89216 11.5369 3.07966C11.8556 3.26716 12.2681 3.15466 12.4556 2.83591C12.6384 2.51247 12.5306 2.10466 12.2119 1.91716Z" fill="url(#paint17_linear_429_743)"/>
<path d="M8.25059 14.591C11.4659 14.591 14.0725 11.9845 14.0725 8.76914C14.0725 5.55381 11.4659 2.94727 8.25059 2.94727C5.03525 2.94727 2.42871 5.55381 2.42871 8.76914C2.42871 11.9845 5.03525 14.591 8.25059 14.591Z" fill="url(#paint18_linear_429_743)"/>
<path d="M2.43359 8.76992C2.43359 11.9855 5.03984 14.5918 8.25547 14.5918C11.4711 14.5918 14.0773 11.9855 14.0773 8.76992C14.0773 8.33867 14.0305 7.9168 13.9414 7.51367H2.56953C2.48047 7.9168 2.43359 8.33867 2.43359 8.76992Z" fill="url(#paint19_linear_429_743)"/>
<path d="M8.25098 2.94727C7.78223 2.94727 7.32754 3.00352 6.8916 3.10664V14.4223C7.32754 14.5254 7.78223 14.5816 8.25098 14.5816C11.4666 14.5816 14.0729 11.9754 14.0729 8.75977C14.0729 5.55352 11.4666 2.94727 8.25098 2.94727Z" fill="url(#paint20_linear_429_743)"/>
<path d="M15.0801 13.0637V17.0199H20.4332C20.8832 17.0199 21.3145 16.9449 21.7176 16.8043L16.5238 11.6152L15.0801 13.0637Z" fill="url(#paint21_linear_429_743)"/>
<path d="M16.8893 14.1141C17.0486 13.8141 17.1424 13.4719 17.1424 13.1109C17.1424 11.9391 16.1908 10.9875 15.0189 10.9875C14.5971 10.9875 14.2033 11.1094 13.8705 11.325C13.3877 10.4578 12.4596 9.86719 11.3955 9.86719C10.0314 9.86719 8.88769 10.8328 8.62051 12.1219C8.25488 12.0141 7.86582 11.9578 7.4627 11.9578C5.74238 11.9578 4.27051 13.0219 3.66113 14.5219C3.50176 14.4937 3.3377 14.4797 3.16895 14.4797C1.60332 14.475 0.333008 15.7453 0.333008 17.3109C0.333008 18.8766 1.60332 20.1469 3.16895 20.1469H15.5908C17.3346 20.1469 18.7455 18.7359 18.7455 16.9922C18.7408 15.7125 17.9814 14.6109 16.8893 14.1141Z" fill="url(#paint22_linear_429_743)"/>
<path d="M16.8893 14.1141C17.0486 13.8141 17.1424 13.4719 17.1424 13.1109C17.1424 11.9391 16.1908 10.9875 15.0189 10.9875C14.5971 10.9875 14.2033 11.1094 13.8705 11.325C13.3877 10.4578 12.4596 9.86719 11.3955 9.86719C10.0314 9.86719 8.88769 10.8328 8.62051 12.1219C8.25488 12.0141 7.86582 11.9578 7.4627 11.9578C5.74238 11.9578 4.27051 13.0219 3.66113 14.5219C3.50176 14.4937 3.3377 14.4797 3.16895 14.4797C1.60332 14.475 0.333008 15.7453 0.333008 17.3109C0.333008 18.8766 1.60332 20.1469 3.16895 20.1469H15.5908C17.3346 20.1469 18.7455 18.7359 18.7455 16.9922C18.7408 15.7125 17.9814 14.6109 16.8893 14.1141Z" fill="url(#paint23_linear_429_743)"/>
<path d="M18.7408 16.9883C18.7408 18.732 17.3299 20.143 15.5861 20.143H3.16426C1.60332 20.143 0.333008 18.8727 0.333008 17.3117C0.333008 16.7633 0.487695 16.2477 0.75957 15.8164H18.5111C18.6611 16.1773 18.7408 16.5758 18.7408 16.9883Z" fill="url(#paint24_linear_429_743)"/>
<path d="M15.5863 20.1414C17.3286 20.1414 18.741 18.729 18.741 16.9867C18.741 15.2444 17.3286 13.832 15.5863 13.832C13.844 13.832 12.4316 15.2444 12.4316 16.9867C12.4316 18.729 13.844 20.1414 15.5863 20.1414Z" fill="url(#paint25_linear_429_743)"/>
<path d="M17.1422 13.1117C17.1422 13.4727 17.0531 13.8148 16.8891 14.1148C16.4906 13.9367 16.05 13.8336 15.5859 13.8336C14.7938 13.8336 14.0672 14.1289 13.5094 14.6117C13.125 14.2273 12.8906 13.6977 12.8906 13.1117C12.8906 11.9398 13.8422 10.9883 15.0141 10.9883C16.1906 10.9883 17.1422 11.9398 17.1422 13.1117Z" fill="url(#paint26_linear_429_743)"/>
<path d="M12.8906 13.1109C12.8906 13.6875 13.1203 14.2125 13.4953 14.5969C12.975 15.1734 12.225 15.5344 11.3906 15.5344C9.825 15.5344 8.55469 14.2641 8.55469 12.6984C8.55469 11.1328 9.825 9.86719 11.3906 9.86719C12.4547 9.86719 13.3828 10.4531 13.8656 11.325C13.2797 11.7 12.8906 12.3609 12.8906 13.1109Z" fill="url(#paint27_linear_429_743)"/>
<path d="M11.5549 16.05C11.5549 18.3094 9.72207 20.1469 7.45801 20.1469C6.57676 20.1469 5.75645 19.8656 5.09082 19.3922C5.64863 18.8766 6.0002 18.1359 6.0002 17.3109C6.0002 15.9141 4.99238 14.7562 3.66113 14.5219C4.26582 13.0125 5.7377 11.9531 7.45801 11.9531C9.72207 11.9531 11.5549 13.7859 11.5549 16.05Z" fill="url(#paint28_linear_429_743)"/>
<path d="M11.5549 16.05C11.5549 18.3094 9.72207 20.1469 7.45801 20.1469C6.57676 20.1469 5.75645 19.8656 5.09082 19.3922C5.64863 18.8766 6.0002 18.1359 6.0002 17.3109C6.0002 15.9141 4.99238 14.7562 3.66113 14.5219C4.26582 13.0125 5.7377 11.9531 7.45801 11.9531C9.72207 11.9531 11.5549 13.7859 11.5549 16.05Z" fill="url(#paint29_linear_429_743)"/>
<defs>
<linearGradient id="paint0_linear_429_743" x1="17.3884" y1="4.97223" x2="13.7795" y2="15.4481" gradientUnits="userSpaceOnUse">
<stop stop-color="#F5FBFF"/>
<stop offset="0.2414" stop-color="#F0F8FE"/>
<stop offset="0.4916" stop-color="#E4F2FE"/>
<stop offset="0.7457" stop-color="#CFE8FE"/>
<stop offset="1" stop-color="#B3DAFE"/>
</linearGradient>
<linearGradient id="paint1_linear_429_743" x1="20.6056" y1="9.97764" x2="11.1823" y2="12.3168" gradientUnits="userSpaceOnUse">
<stop stop-color="#FEF48B" stop-opacity="0"/>
<stop offset="0.1205" stop-color="#FEF48B" stop-opacity="0.016"/>
<stop offset="0.2454" stop-color="#FEF48E" stop-opacity="0.065"/>
<stop offset="0.3724" stop-color="#FEF493" stop-opacity="0.147"/>
<stop offset="0.5008" stop-color="#FEF49A" stop-opacity="0.261"/>
<stop offset="0.6304" stop-color="#FEF4A3" stop-opacity="0.408"/>
<stop offset="0.761" stop-color="#FEF4AD" stop-opacity="0.588"/>
<stop offset="0.8898" stop-color="#FEF4BA" stop-opacity="0.797"/>
<stop offset="1" stop-color="#FFF5C6"/>
</linearGradient>
<linearGradient id="paint2_linear_429_743" x1="14.8171" y1="14.5241" x2="14.8171" y2="17.3183" gradientUnits="userSpaceOnUse">
<stop stop-color="#8AC9FE" stop-opacity="0"/>
<stop offset="0.1291" stop-color="#89C8FD" stop-opacity="0.019"/>
<stop offset="0.2629" stop-color="#88C6FB" stop-opacity="0.075"/>
<stop offset="0.3989" stop-color="#87C4F8" stop-opacity="0.168"/>
<stop offset="0.5365" stop-color="#85C0F4" stop-opacity="0.298"/>
<stop offset="0.6753" stop-color="#83BBEF" stop-opacity="0.466"/>
<stop offset="0.8151" stop-color="#7FB5E9" stop-opacity="0.672"/>
<stop offset="0.9532" stop-color="#7CAEE1" stop-opacity="0.911"/>
<stop offset="1" stop-color="#7BACDF"/>
</linearGradient>
<linearGradient id="paint3_linear_429_743" x1="21.3553" y1="13.116" x2="24.8452" y2="13.116" gradientUnits="userSpaceOnUse">
<stop stop-color="#8AC9FE" stop-opacity="0"/>
<stop offset="0.1291" stop-color="#89C8FD" stop-opacity="0.019"/>
<stop offset="0.2629" stop-color="#88C6FB" stop-opacity="0.075"/>
<stop offset="0.3989" stop-color="#87C4F8" stop-opacity="0.168"/>
<stop offset="0.5365" stop-color="#85C0F4" stop-opacity="0.298"/>
<stop offset="0.6753" stop-color="#83BBEF" stop-opacity="0.466"/>
<stop offset="0.8151" stop-color="#7FB5E9" stop-opacity="0.672"/>
<stop offset="0.9532" stop-color="#7CAEE1" stop-opacity="0.911"/>
<stop offset="1" stop-color="#7BACDF"/>
</linearGradient>
<linearGradient id="paint4_linear_429_743" x1="19.9944" y1="7.9505" x2="22.8348" y2="7.99705" gradientUnits="userSpaceOnUse">
<stop stop-color="#8AC9FE" stop-opacity="0"/>
<stop offset="0.1291" stop-color="#89C8FD" stop-opacity="0.019"/>
<stop offset="0.2629" stop-color="#88C6FB" stop-opacity="0.075"/>
<stop offset="0.3989" stop-color="#87C4F8" stop-opacity="0.168"/>
<stop offset="0.5365" stop-color="#85C0F4" stop-opacity="0.298"/>
<stop offset="0.6753" stop-color="#83BBEF" stop-opacity="0.466"/>
<stop offset="0.8151" stop-color="#7FB5E9" stop-opacity="0.672"/>
<stop offset="0.9532" stop-color="#7CAEE1" stop-opacity="0.911"/>
<stop offset="1" stop-color="#7BACDF"/>
</linearGradient>
<linearGradient id="paint5_linear_429_743" x1="16.7222" y1="6.53406" x2="18.678" y2="4.85777" gradientUnits="userSpaceOnUse">
<stop stop-color="#8AC9FE" stop-opacity="0"/>
<stop offset="0.1291" stop-color="#89C8FD" stop-opacity="0.019"/>
<stop offset="0.2629" stop-color="#88C6FB" stop-opacity="0.075"/>
<stop offset="0.3989" stop-color="#87C4F8" stop-opacity="0.168"/>
<stop offset="0.5365" stop-color="#85C0F4" stop-opacity="0.298"/>
<stop offset="0.6753" stop-color="#83BBEF" stop-opacity="0.466"/>
<stop offset="0.8151" stop-color="#7FB5E9" stop-opacity="0.672"/>
<stop offset="0.9532" stop-color="#7CAEE1" stop-opacity="0.911"/>
<stop offset="1" stop-color="#7BACDF"/>
</linearGradient>
<linearGradient id="paint6_linear_429_743" x1="0.607477" y1="8.3668" x2="1.44091" y2="9.20023" gradientUnits="userSpaceOnUse">
<stop stop-color="#FEF48B"/>
<stop offset="0.1646" stop-color="#FDF286"/>
<stop offset="0.3352" stop-color="#FDEE7A"/>
<stop offset="0.5086" stop-color="#FCE765"/>
<stop offset="0.6839" stop-color="#FCDE48"/>
<stop offset="0.8589" stop-color="#FBD123"/>
<stop offset="1" stop-color="#FAC600"/>
</linearGradient>
<linearGradient id="paint7_linear_429_743" x1="15.0914" y1="8.3668" x2="15.9249" y2="9.20023" gradientUnits="userSpaceOnUse">
<stop stop-color="#FEF48B"/>
<stop offset="0.1646" stop-color="#FDF286"/>
<stop offset="0.3352" stop-color="#FDEE7A"/>
<stop offset="0.5086" stop-color="#FCE765"/>
<stop offset="0.6839" stop-color="#FCDE48"/>
<stop offset="0.8589" stop-color="#FBD123"/>
<stop offset="1" stop-color="#FAC600"/>
</linearGradient>
<linearGradient id="paint8_linear_429_743" x1="7.84933" y1="15.6088" x2="8.68281" y2="16.4423" gradientUnits="userSpaceOnUse">
<stop stop-color="#FEF48B"/>
<stop offset="0.1646" stop-color="#FDF286"/>
<stop offset="0.3352" stop-color="#FDEE7A"/>
<stop offset="0.5086" stop-color="#FCE765"/>
<stop offset="0.6839" stop-color="#FCDE48"/>
<stop offset="0.8589" stop-color="#FBD123"/>
<stop offset="1" stop-color="#FAC600"/>
</linearGradient>
<linearGradient id="paint9_linear_429_743" x1="7.84933" y1="1.1247" x2="8.68281" y2="1.95819" gradientUnits="userSpaceOnUse">
<stop stop-color="#FEF48B"/>
<stop offset="0.1646" stop-color="#FDF286"/>
<stop offset="0.3352" stop-color="#FDEE7A"/>
<stop offset="0.5086" stop-color="#FCE765"/>
<stop offset="0.6839" stop-color="#FCDE48"/>
<stop offset="0.8589" stop-color="#FBD123"/>
<stop offset="1" stop-color="#FAC600"/>
</linearGradient>
<linearGradient id="paint10_linear_429_743" x1="1.57796" y1="11.9864" x2="2.41163" y2="12.82" gradientUnits="userSpaceOnUse">
<stop stop-color="#FEF48B"/>
<stop offset="0.1646" stop-color="#FDF286"/>
<stop offset="0.3352" stop-color="#FDEE7A"/>
<stop offset="0.5086" stop-color="#FCE765"/>
<stop offset="0.6839" stop-color="#FCDE48"/>
<stop offset="0.8589" stop-color="#FBD123"/>
<stop offset="1" stop-color="#FAC600"/>
</linearGradient>
<linearGradient id="paint11_linear_429_743" x1="14.1217" y1="4.74602" x2="14.9553" y2="5.57969" gradientUnits="userSpaceOnUse">
<stop stop-color="#FEF48B"/>
<stop offset="0.1646" stop-color="#FDF286"/>
<stop offset="0.3352" stop-color="#FDEE7A"/>
<stop offset="0.5086" stop-color="#FCE765"/>
<stop offset="0.6839" stop-color="#FCDE48"/>
<stop offset="0.8589" stop-color="#FBD123"/>
<stop offset="1" stop-color="#FAC600"/>
</linearGradient>
<linearGradient id="paint12_linear_429_743" x1="11.4709" y1="14.6381" x2="12.3045" y2="15.4718" gradientUnits="userSpaceOnUse">
<stop stop-color="#FEF48B"/>
<stop offset="0.1646" stop-color="#FDF286"/>
<stop offset="0.3352" stop-color="#FDEE7A"/>
<stop offset="0.5086" stop-color="#FCE765"/>
<stop offset="0.6839" stop-color="#FCDE48"/>
<stop offset="0.8589" stop-color="#FBD123"/>
<stop offset="1" stop-color="#FAC600"/>
</linearGradient>
<linearGradient id="paint13_linear_429_743" x1="4.22874" y1="2.0951" x2="5.06241" y2="2.92878" gradientUnits="userSpaceOnUse">
<stop stop-color="#FEF48B"/>
<stop offset="0.1646" stop-color="#FDF286"/>
<stop offset="0.3352" stop-color="#FDEE7A"/>
<stop offset="0.5086" stop-color="#FCE765"/>
<stop offset="0.6839" stop-color="#FCDE48"/>
<stop offset="0.8589" stop-color="#FBD123"/>
<stop offset="1" stop-color="#FAC600"/>
</linearGradient>
<linearGradient id="paint14_linear_429_743" x1="14.1216" y1="11.9873" x2="14.9553" y2="12.821" gradientUnits="userSpaceOnUse">
<stop stop-color="#FEF48B"/>
<stop offset="0.1646" stop-color="#FDF286"/>
<stop offset="0.3352" stop-color="#FDEE7A"/>
<stop offset="0.5086" stop-color="#FCE765"/>
<stop offset="0.6839" stop-color="#FCDE48"/>
<stop offset="0.8589" stop-color="#FBD123"/>
<stop offset="1" stop-color="#FAC600"/>
</linearGradient>
<linearGradient id="paint15_linear_429_743" x1="1.57777" y1="4.74523" x2="2.41144" y2="5.57891" gradientUnits="userSpaceOnUse">
<stop stop-color="#FEF48B"/>
<stop offset="0.1646" stop-color="#FDF286"/>
<stop offset="0.3352" stop-color="#FDEE7A"/>
<stop offset="0.5086" stop-color="#FCE765"/>
<stop offset="0.6839" stop-color="#FCDE48"/>
<stop offset="0.8589" stop-color="#FBD123"/>
<stop offset="1" stop-color="#FAC600"/>
</linearGradient>
<linearGradient id="paint16_linear_429_743" x1="4.22874" y1="14.6381" x2="5.06241" y2="15.4717" gradientUnits="userSpaceOnUse">
<stop stop-color="#FEF48B"/>
<stop offset="0.1646" stop-color="#FDF286"/>
<stop offset="0.3352" stop-color="#FDEE7A"/>
<stop offset="0.5086" stop-color="#FCE765"/>
<stop offset="0.6839" stop-color="#FCDE48"/>
<stop offset="0.8589" stop-color="#FBD123"/>
<stop offset="1" stop-color="#FAC600"/>
</linearGradient>
<linearGradient id="paint17_linear_429_743" x1="11.4708" y1="2.09523" x2="12.3045" y2="2.92891" gradientUnits="userSpaceOnUse">
<stop stop-color="#FEF48B"/>
<stop offset="0.1646" stop-color="#FDF286"/>
<stop offset="0.3352" stop-color="#FDEE7A"/>
<stop offset="0.5086" stop-color="#FCE765"/>
<stop offset="0.6839" stop-color="#FCDE48"/>
<stop offset="0.8589" stop-color="#FBD123"/>
<stop offset="1" stop-color="#FAC600"/>
</linearGradient>
<linearGradient id="paint18_linear_429_743" x1="4.75521" y1="5.27166" x2="11.9853" y2="12.5017" gradientUnits="userSpaceOnUse">
<stop stop-color="#FEF48B"/>
<stop offset="0.1646" stop-color="#FDF286"/>
<stop offset="0.3352" stop-color="#FDEE7A"/>
<stop offset="0.5086" stop-color="#FCE765"/>
<stop offset="0.6839" stop-color="#FCDE48"/>
<stop offset="0.8589" stop-color="#FBD123"/>
<stop offset="1" stop-color="#FAC600"/>
</linearGradient>
<linearGradient id="paint19_linear_429_743" x1="8.25294" y1="8.97992" x2="8.25294" y2="14.6832" gradientUnits="userSpaceOnUse">
<stop stop-color="#FE9738" stop-opacity="0"/>
<stop offset="0.1207" stop-color="#FE9738" stop-opacity="0.016"/>
<stop offset="0.2459" stop-color="#FE9738" stop-opacity="0.065"/>
<stop offset="0.3731" stop-color="#FE9738" stop-opacity="0.147"/>
<stop offset="0.5018" stop-color="#FE9738" stop-opacity="0.262"/>
<stop offset="0.6317" stop-color="#FE9738" stop-opacity="0.41"/>
<stop offset="0.7625" stop-color="#FE9738" stop-opacity="0.59"/>
<stop offset="0.8916" stop-color="#FE9738" stop-opacity="0.8"/>
<stop offset="1" stop-color="#FE9738"/>
</linearGradient>
<linearGradient id="paint20_linear_429_743" x1="7.88605" y1="8.63452" x2="14.1568" y2="10.7248" gradientUnits="userSpaceOnUse">
<stop stop-color="#FE9738" stop-opacity="0"/>
<stop offset="0.1207" stop-color="#FE9738" stop-opacity="0.016"/>
<stop offset="0.2459" stop-color="#FE9738" stop-opacity="0.065"/>
<stop offset="0.3731" stop-color="#FE9738" stop-opacity="0.147"/>
<stop offset="0.5018" stop-color="#FE9738" stop-opacity="0.262"/>
<stop offset="0.6317" stop-color="#FE9738" stop-opacity="0.41"/>
<stop offset="0.7625" stop-color="#FE9738" stop-opacity="0.59"/>
<stop offset="0.8916" stop-color="#FE9738" stop-opacity="0.8"/>
<stop offset="1" stop-color="#FE9738"/>
</linearGradient>
<linearGradient id="paint21_linear_429_743" x1="19.8785" y1="13.7766" x2="17.183" y2="15.3138" gradientUnits="userSpaceOnUse">
<stop stop-color="#8AC9FE" stop-opacity="0"/>
<stop offset="0.1291" stop-color="#89C8FD" stop-opacity="0.019"/>
<stop offset="0.2629" stop-color="#88C6FB" stop-opacity="0.075"/>
<stop offset="0.3989" stop-color="#87C4F8" stop-opacity="0.168"/>
<stop offset="0.5365" stop-color="#85C0F4" stop-opacity="0.298"/>
<stop offset="0.6753" stop-color="#83BBEF" stop-opacity="0.466"/>
<stop offset="0.8151" stop-color="#7FB5E9" stop-opacity="0.672"/>
<stop offset="0.9532" stop-color="#7CAEE1" stop-opacity="0.911"/>
<stop offset="1" stop-color="#7BACDF"/>
</linearGradient>
<linearGradient id="paint22_linear_429_743" x1="7.98216" y1="11.397" x2="10.6155" y2="21.1026" gradientUnits="userSpaceOnUse">
<stop stop-color="#F5FBFF"/>
<stop offset="0.2414" stop-color="#F0F8FE"/>
<stop offset="0.4916" stop-color="#E4F2FE"/>
<stop offset="0.7457" stop-color="#CFE8FE"/>
<stop offset="1" stop-color="#B3DAFE"/>
</linearGradient>
<linearGradient id="paint23_linear_429_743" x1="9.09774" y1="15.0173" x2="7.82794" y2="8.90222" gradientUnits="userSpaceOnUse">
<stop stop-color="#FEF48B" stop-opacity="0"/>
<stop offset="0.1205" stop-color="#FEF48B" stop-opacity="0.016"/>
<stop offset="0.2454" stop-color="#FEF48E" stop-opacity="0.065"/>
<stop offset="0.3724" stop-color="#FEF493" stop-opacity="0.147"/>
<stop offset="0.5008" stop-color="#FEF49A" stop-opacity="0.261"/>
<stop offset="0.6304" stop-color="#FEF4A3" stop-opacity="0.408"/>
<stop offset="0.761" stop-color="#FEF4AD" stop-opacity="0.588"/>
<stop offset="0.8898" stop-color="#FEF4BA" stop-opacity="0.797"/>
<stop offset="1" stop-color="#FFF5C6"/>
</linearGradient>
<linearGradient id="paint24_linear_429_743" x1="9.53696" y1="18.3702" x2="9.53696" y2="20.3267" gradientUnits="userSpaceOnUse">
<stop stop-color="#8AC9FE" stop-opacity="0"/>
<stop offset="0.1291" stop-color="#89C8FD" stop-opacity="0.019"/>
<stop offset="0.2629" stop-color="#88C6FB" stop-opacity="0.075"/>
<stop offset="0.3989" stop-color="#87C4F8" stop-opacity="0.168"/>
<stop offset="0.5365" stop-color="#85C0F4" stop-opacity="0.298"/>
<stop offset="0.6753" stop-color="#83BBEF" stop-opacity="0.466"/>
<stop offset="0.8151" stop-color="#7FB5E9" stop-opacity="0.672"/>
<stop offset="0.9532" stop-color="#7CAEE1" stop-opacity="0.911"/>
<stop offset="1" stop-color="#7BACDF"/>
</linearGradient>
<linearGradient id="paint25_linear_429_743" x1="16.3356" y1="16.9881" x2="19.155" y2="16.9881" gradientUnits="userSpaceOnUse">
<stop stop-color="#8AC9FE" stop-opacity="0"/>
<stop offset="0.1291" stop-color="#89C8FD" stop-opacity="0.019"/>
<stop offset="0.2629" stop-color="#88C6FB" stop-opacity="0.075"/>
<stop offset="0.3989" stop-color="#87C4F8" stop-opacity="0.168"/>
<stop offset="0.5365" stop-color="#85C0F4" stop-opacity="0.298"/>
<stop offset="0.6753" stop-color="#83BBEF" stop-opacity="0.466"/>
<stop offset="0.8151" stop-color="#7FB5E9" stop-opacity="0.672"/>
<stop offset="0.9532" stop-color="#7CAEE1" stop-opacity="0.911"/>
<stop offset="1" stop-color="#7BACDF"/>
</linearGradient>
<linearGradient id="paint26_linear_429_743" x1="15.2358" y1="12.8168" x2="17.5305" y2="12.8544" gradientUnits="userSpaceOnUse">
<stop stop-color="#8AC9FE" stop-opacity="0"/>
<stop offset="0.1291" stop-color="#89C8FD" stop-opacity="0.019"/>
<stop offset="0.2629" stop-color="#88C6FB" stop-opacity="0.075"/>
<stop offset="0.3989" stop-color="#87C4F8" stop-opacity="0.168"/>
<stop offset="0.5365" stop-color="#85C0F4" stop-opacity="0.298"/>
<stop offset="0.6753" stop-color="#83BBEF" stop-opacity="0.466"/>
<stop offset="0.8151" stop-color="#7FB5E9" stop-opacity="0.672"/>
<stop offset="0.9532" stop-color="#7CAEE1" stop-opacity="0.911"/>
<stop offset="1" stop-color="#7BACDF"/>
</linearGradient>
<linearGradient id="paint27_linear_429_743" x1="12.5919" y1="11.6711" x2="14.1719" y2="10.3169" gradientUnits="userSpaceOnUse">
<stop stop-color="#8AC9FE" stop-opacity="0"/>
<stop offset="0.1291" stop-color="#89C8FD" stop-opacity="0.019"/>
<stop offset="0.2629" stop-color="#88C6FB" stop-opacity="0.075"/>
<stop offset="0.3989" stop-color="#87C4F8" stop-opacity="0.168"/>
<stop offset="0.5365" stop-color="#85C0F4" stop-opacity="0.298"/>
<stop offset="0.6753" stop-color="#83BBEF" stop-opacity="0.466"/>
<stop offset="0.8151" stop-color="#7FB5E9" stop-opacity="0.672"/>
<stop offset="0.9532" stop-color="#7CAEE1" stop-opacity="0.911"/>
<stop offset="1" stop-color="#7BACDF"/>
</linearGradient>
<linearGradient id="paint28_linear_429_743" x1="5.2359" y1="14.7988" x2="3.09165" y2="13.595" gradientUnits="userSpaceOnUse">
<stop stop-color="#8AC9FE" stop-opacity="0"/>
<stop offset="0.1291" stop-color="#89C8FD" stop-opacity="0.019"/>
<stop offset="0.2629" stop-color="#88C6FB" stop-opacity="0.075"/>
<stop offset="0.3989" stop-color="#87C4F8" stop-opacity="0.168"/>
<stop offset="0.5365" stop-color="#85C0F4" stop-opacity="0.298"/>
<stop offset="0.6753" stop-color="#83BBEF" stop-opacity="0.466"/>
<stop offset="0.8151" stop-color="#7FB5E9" stop-opacity="0.672"/>
<stop offset="0.9532" stop-color="#7CAEE1" stop-opacity="0.911"/>
<stop offset="1" stop-color="#7BACDF"/>
</linearGradient>
<linearGradient id="paint29_linear_429_743" x1="8.70995" y1="15.1131" x2="10.7664" y2="13.5749" gradientUnits="userSpaceOnUse">
<stop stop-color="white" stop-opacity="0"/>
<stop offset="0.1205" stop-color="white" stop-opacity="0.016"/>
<stop offset="0.2454" stop-color="white" stop-opacity="0.065"/>
<stop offset="0.3724" stop-color="white" stop-opacity="0.147"/>
<stop offset="0.5008" stop-color="white" stop-opacity="0.261"/>
<stop offset="0.6304" stop-color="white" stop-opacity="0.408"/>
<stop offset="0.761" stop-color="white" stop-opacity="0.588"/>
<stop offset="0.8898" stop-color="white" stop-opacity="0.797"/>
<stop offset="1" stop-color="white"/>
</linearGradient>
</defs>
</svg>
