<svg width="20" height="21" viewBox="0 0 20 21" fill="none" xmlns="http://www.w3.org/2000/svg">
<g clip-path="url(#clip0_229_5114)">
<path d="M19.5763 12.0518C19.1767 11.8274 18.671 11.9692 18.4465 12.369L18.2767 12.6713L18.4774 13.8305C18.6362 14.7475 18.3288 15.6825 17.6827 16.3286C17.6574 16.3539 17.6313 16.3786 17.605 16.4031C17.798 16.2657 17.9802 16.1118 18.1499 15.9421C18.4417 15.6503 18.697 15.3125 18.9086 14.9358L19.8936 13.1816C20.118 12.782 19.976 12.2761 19.5763 12.0518Z" fill="url(#paint0_linear_229_5114)"/>
<path d="M19.5763 12.0518C19.1767 11.8274 18.671 11.9692 18.4465 12.369L18.2767 12.6713L18.4774 13.8305C18.6362 14.7475 18.3288 15.6825 17.6827 16.3286C17.6574 16.3539 17.6313 16.3786 17.605 16.4031C17.798 16.2657 17.9802 16.1118 18.1499 15.9421C18.4417 15.6503 18.697 15.3125 18.9086 14.9358L19.8936 13.1816C20.118 12.782 19.976 12.2761 19.5763 12.0518Z" fill="url(#paint1_linear_229_5114)"/>
<path d="M17.9981 16.5476C17.8828 16.6607 17.757 16.7645 17.6215 16.8576C17.2437 17.1171 16.7271 17.0212 16.4676 16.6434C16.2082 16.2656 16.3041 15.7489 16.6819 15.4896C17.0577 15.2314 17.2529 14.7742 17.1797 14.3244L16.876 12.4594C16.8024 12.0071 17.1094 11.5807 17.5617 11.507C18.014 11.4333 18.4404 11.7403 18.514 12.1927L18.8178 14.0576C18.9674 14.9762 18.6506 15.908 17.9981 16.5476Z" fill="url(#paint2_linear_229_5114)"/>
<path d="M17.0156 12.5195V13.317L17.1796 14.3239C17.2262 14.6102 17.1638 14.8991 17.0156 15.1381V16.9916C17.2199 17.0255 17.4371 16.9838 17.6213 16.8572C17.7569 16.7641 17.8826 16.6603 17.998 16.5472C18.6505 15.9076 18.9672 14.9758 18.8176 14.0572L18.5672 12.5195H17.0156Z" fill="url(#paint3_linear_229_5114)"/>
<path d="M17.1235 17.8362C17.1076 17.8486 17.0918 17.8607 17.0756 17.8727L15.8359 18.7978C15.4686 19.0719 14.9487 18.9963 14.6746 18.629C14.4041 18.2665 14.4742 17.7554 14.829 17.4786C14.8337 17.4749 14.8385 17.4712 14.8434 17.4676L16.0831 16.5426C16.4475 16.2706 16.6257 15.8053 16.5349 15.3586L16.1583 13.5071C16.067 13.058 16.3569 12.6199 16.8061 12.5285C17.2551 12.4372 17.6933 12.7272 17.7846 13.1763L18.1612 15.0279C18.3755 16.0814 17.9687 17.1769 17.1235 17.8362Z" fill="url(#paint4_linear_229_5114)"/>
<path d="M16.4346 13.6856V14.8642L16.5349 15.3573C16.5879 15.6182 16.5486 15.8851 16.4346 16.1165V18.3496L17.0756 17.8713C17.0917 17.8593 17.1076 17.8471 17.1234 17.8348C17.9687 17.1754 18.3754 16.08 18.1612 15.0264L17.8885 13.6855L16.4346 13.6856Z" fill="url(#paint5_linear_229_5114)"/>
<path d="M16.5362 18.6022C16.373 18.7655 14.656 20.1111 14.656 20.1111C14.533 20.2112 14.4261 20.3261 14.3367 20.4521C14.3366 20.4522 14.3365 20.4524 14.3364 20.4525C14.3155 20.4813 14.2826 20.4989 14.2471 20.4989H10.1983C10.0546 20.4989 9.91679 20.4418 9.81519 20.3402C9.68351 20.2082 9.6021 20.0346 9.58456 19.8489L9.52749 19.2344C9.48031 18.7313 9.5937 18.2229 9.86656 17.7982C9.87909 17.7784 9.90991 17.7328 9.91222 17.7297C10.1447 17.3918 11.0245 16.5215 11.3723 16.1813C11.4739 16.0824 11.5683 15.9751 11.6501 15.8586C12.1349 15.1729 12.4705 14.3947 12.6372 13.5758C12.7213 13.1629 13.065 12.8638 13.4702 12.8265C13.5285 12.8208 13.5882 12.8208 13.6491 12.8265C14.1754 12.8779 14.5574 13.3536 14.4908 13.8783C14.4208 14.4274 14.3203 14.972 14.1902 15.5101L14.3352 15.5203C14.7759 15.5523 15.1994 15.5044 15.6016 15.3792L15.5251 14.5933C15.481 14.1371 15.8147 13.7314 16.2706 13.6869C16.7269 13.6428 17.1329 13.9765 17.177 14.4328L17.3601 16.313C17.4434 17.1684 17.1294 18.009 16.5362 18.6022Z" fill="url(#paint6_linear_229_5114)"/>
<path d="M14.4911 13.8782C14.4212 14.4275 14.3205 14.972 14.1907 15.5102L14.3354 15.5204C14.7761 15.5522 15.1999 15.5045 15.602 15.3793L15.7084 16.4741C15.7176 16.5677 15.7152 16.6608 15.7024 16.7518C14.2135 16.1118 12.5403 16.149 10.3837 18.7517C10.109 19.0832 9.80913 19.381 9.57311 19.7208L9.52799 19.2345C9.48081 18.7314 9.59397 18.2229 9.86702 17.7981C9.87956 17.7783 9.9103 17.7329 9.91241 17.7298C10.145 17.3918 11.0247 16.5215 11.3726 16.1815C11.4743 16.0824 11.5687 15.9749 11.6506 15.8586C12.1354 15.173 12.4707 14.3948 12.6374 13.5757C12.7216 13.1629 13.0654 12.864 13.4706 12.8264C13.5288 12.821 13.5885 12.8207 13.6492 12.8267C14.1755 12.8778 14.5578 13.3535 14.4911 13.8782Z" fill="url(#paint7_linear_229_5114)"/>
<path d="M16.5363 18.6027C16.3732 18.7658 16.1891 18.9101 15.9863 19.031L14.3221 20.0228C13.9285 20.2574 13.4191 20.1284 13.1845 19.7347C12.9499 19.341 13.0789 18.8317 13.4725 18.5971L15.1366 17.6053C15.5282 17.372 15.7526 16.9281 15.7084 16.4745L15.5254 14.5939C15.481 14.1377 15.8148 13.7319 16.2709 13.6876C16.727 13.6431 17.1328 13.9769 17.1772 14.4331L17.3603 16.3137C17.4435 17.1687 17.1296 18.0094 16.5363 18.6027Z" fill="url(#paint8_linear_229_5114)"/>
<path d="M13.4705 12.8265C13.0652 12.8641 12.7214 13.1631 12.6371 13.5759C12.4706 14.3949 12.1351 15.1729 11.6504 15.8584C11.5684 15.9749 11.4741 16.0822 11.3723 16.1816C11.2261 16.3244 10.9859 16.561 10.7393 16.8124L13.0821 19.1552C13.1248 18.9299 13.26 18.7232 13.4724 18.5966L15.1366 17.6048C15.5281 17.3714 15.7525 16.9276 15.7084 16.474L15.6018 15.3792C15.1997 15.5043 14.7757 15.5521 14.3352 15.5205L14.1903 15.5101C14.3202 14.9721 14.4209 14.4272 14.4908 13.8781C14.5577 13.3534 14.1752 12.8777 13.6489 12.8267C13.5884 12.8207 13.5287 12.8209 13.4705 12.8265Z" fill="url(#paint9_linear_229_5114)"/>
<path d="M14.4909 13.8782C14.4211 14.4275 14.3204 14.972 14.1905 15.5102L13.2736 18.7617V18.7622C13.1745 18.8744 13.1096 19.0113 13.0822 19.1555L10.7393 16.8126C10.986 16.5612 11.2264 16.3244 11.3725 16.1815C11.4742 16.0824 11.5686 15.9749 11.6505 15.8586C12.1353 15.173 12.4706 14.3948 12.6373 13.5757C12.7215 13.1629 13.0653 12.864 13.4705 12.8264C13.5287 12.821 13.5884 12.8207 13.6491 12.8267C14.1754 12.8778 14.5577 13.3535 14.4909 13.8782Z" fill="url(#paint10_linear_229_5114)"/>
<path d="M14.4909 13.8782C14.4211 14.4275 14.3204 14.972 14.1905 15.5102L13.2736 18.7617V18.7622C13.1745 18.8744 13.1096 19.0113 13.0822 19.1555L10.7393 16.8126C10.986 16.5612 11.2264 16.3244 11.3725 16.1815C11.4742 16.0824 11.5686 15.9749 11.6505 15.8586C12.1353 15.173 12.4706 14.3948 12.6373 13.5757C12.7215 13.1629 13.0653 12.864 13.4705 12.8264C13.5287 12.821 13.5884 12.8207 13.6491 12.8267C14.1754 12.8778 14.5577 13.3535 14.4909 13.8782Z" fill="url(#paint11_linear_229_5114)"/>
<path d="M11.9819 15.334C11.8806 15.514 11.77 15.6892 11.6501 15.8587C11.5683 15.9752 11.4739 16.0825 11.3723 16.1814C11.0245 16.5216 10.1447 17.3919 9.91222 17.7298C9.90991 17.7329 9.87909 17.7785 9.86656 17.7983C9.5937 18.223 9.48031 18.7314 9.52749 19.2345L9.58456 19.849C9.60206 20.0347 9.68351 20.2082 9.81519 20.3403C9.91679 20.4419 10.0546 20.499 10.1983 20.499H14.2471C14.2826 20.499 14.3155 20.4814 14.3364 20.4526C14.3365 20.4525 14.3366 20.4523 14.3368 20.4521C14.4262 20.3262 14.5331 20.2112 14.656 20.1112C14.656 20.1112 14.6889 20.0854 14.7458 20.0407C14.779 19.8251 14.7962 19.6043 14.7962 19.3794C14.7962 17.5244 13.6251 15.943 11.9819 15.334Z" fill="url(#paint12_linear_229_5114)"/>
<path d="M0.423674 12.0518C0.823283 11.8274 1.32906 11.9692 1.55352 12.369L1.72328 12.6713L1.52258 13.8305C1.36379 14.7475 1.67117 15.6825 2.31731 16.3286C2.34266 16.3539 2.36867 16.3786 2.39504 16.4031C2.20203 16.2657 2.01981 16.1118 1.85008 15.9421C1.55828 15.6503 1.30297 15.3125 1.09145 14.9358L0.106408 13.1816C-0.117967 12.782 0.0240647 12.2761 0.423674 12.0518Z" fill="url(#paint13_linear_229_5114)"/>
<path d="M0.423674 12.0518C0.823283 11.8274 1.32906 11.9692 1.55352 12.369L1.72328 12.6713L1.52258 13.8305C1.36379 14.7475 1.67117 15.6825 2.31731 16.3286C2.34266 16.3539 2.36867 16.3786 2.39504 16.4031C2.20203 16.2657 2.01981 16.1118 1.85008 15.9421C1.55828 15.6503 1.30297 15.3125 1.09145 14.9358L0.106408 13.1816C-0.117967 12.782 0.0240647 12.2761 0.423674 12.0518Z" fill="url(#paint14_linear_229_5114)"/>
<path d="M2.00171 16.5476C2.11706 16.6607 2.24281 16.7645 2.37835 16.8576C2.75617 17.1171 3.27273 17.0212 3.53218 16.6434C3.79163 16.2656 3.6957 15.7489 3.31796 15.4896C2.9421 15.2314 2.74687 14.7742 2.82011 14.3244L3.12382 12.4594C3.19745 12.0071 2.89046 11.5807 2.43816 11.507C1.98585 11.4333 1.55941 11.7403 1.48578 12.1927L1.18206 14.0576C1.03245 14.9762 1.34917 15.908 2.00171 16.5476Z" fill="url(#paint15_linear_229_5114)"/>
<path d="M2.98406 12.5195V13.317L2.82007 14.3239C2.77347 14.6102 2.83593 14.8991 2.98406 15.1381V16.9916C2.77976 17.0255 2.56257 16.9838 2.37835 16.8572C2.24277 16.7641 2.11706 16.6603 2.00171 16.5472C1.34917 15.9076 1.03245 14.9758 1.18206 14.0572L1.43245 12.5195H2.98406Z" fill="url(#paint16_linear_229_5114)"/>
<path d="M2.87642 17.8362C2.89224 17.8486 2.9081 17.8607 2.92423 17.8727L4.16399 18.7978C4.5313 19.0719 5.05122 18.9963 5.32532 18.629C5.59579 18.2665 5.52571 17.7554 5.17091 17.4786C5.16614 17.4749 5.16138 17.4712 5.15649 17.4676L3.91677 16.5426C3.55235 16.2706 3.37415 15.8053 3.46497 15.3586L3.84157 13.5071C3.9329 13.058 3.64298 12.6199 3.1938 12.5285C2.74474 12.4372 2.30661 12.7272 2.21524 13.1763L1.83864 15.0279C1.62438 16.0814 2.03114 17.1769 2.87642 17.8362Z" fill="url(#paint17_linear_229_5114)"/>
<path d="M3.56527 13.6856V14.8642L3.46495 15.3573C3.41191 15.6182 3.45124 15.8851 3.56527 16.1165V18.3496L2.92425 17.8713C2.90812 17.8593 2.89226 17.8471 2.87644 17.8348C2.03116 17.1754 1.62441 16.08 1.83862 15.0264L2.11136 13.6855L3.56527 13.6856Z" fill="url(#paint18_linear_229_5114)"/>
<path d="M3.46411 18.6022C3.62735 18.7655 5.34434 20.1111 5.34434 20.1111C5.46727 20.2112 5.57418 20.3261 5.6636 20.4521C5.66371 20.4522 5.66383 20.4524 5.66391 20.4525C5.68477 20.4813 5.71766 20.4989 5.75321 20.4989H9.80203C9.94571 20.4989 10.0835 20.4418 10.1851 20.3402C10.3168 20.2082 10.3982 20.0346 10.4157 19.8489L10.4728 19.2344C10.52 18.7313 10.4066 18.2229 10.1338 17.7982C10.1212 17.7784 10.0904 17.7328 10.0881 17.7297C9.85559 17.3918 8.97578 16.5215 8.62797 16.1813C8.52637 16.0824 8.432 15.9751 8.3502 15.8586C7.86539 15.1729 7.52977 14.3947 7.36309 13.5758C7.27899 13.1629 6.93536 12.8638 6.53008 12.8265C6.47184 12.8208 6.41211 12.8208 6.35121 12.8265C5.82493 12.8779 5.44289 13.3536 5.50946 13.8783C5.57946 14.4274 5.67993 14.972 5.81008 15.5101L5.66508 15.5203C5.22442 15.5523 4.8009 15.5044 4.39868 15.3792L4.47516 14.5933C4.5193 14.1371 4.18559 13.7314 3.72969 13.6869C3.2734 13.6428 2.86739 13.9765 2.82325 14.4328L2.6402 16.313C2.55688 17.1684 2.87082 18.009 3.46411 18.6022Z" fill="url(#paint19_linear_229_5114)"/>
<path d="M5.509 13.8782C5.57888 14.4275 5.67955 14.972 5.80943 15.5102L5.6647 15.5204C5.22396 15.5522 4.80021 15.5045 4.39806 15.3793L4.29165 16.4741C4.28251 16.5677 4.28486 16.6608 4.29767 16.7518C5.78658 16.1118 7.45974 16.149 9.61642 18.7517C9.89103 19.0832 10.191 19.381 10.427 19.7208L10.4721 19.2345C10.5193 18.7314 10.4061 18.2229 10.1331 17.7981C10.1205 17.7783 10.0898 17.7329 10.0877 17.7298C9.85505 17.3918 8.9754 16.5215 8.62751 16.1815C8.5258 16.0824 8.43142 15.9749 8.34951 15.8586C7.8647 15.173 7.52931 14.3948 7.36267 13.5757C7.27845 13.1629 6.9347 12.864 6.52947 12.8264C6.4713 12.821 6.41158 12.8207 6.35083 12.8267C5.82455 12.8778 5.44224 13.3535 5.509 13.8782Z" fill="url(#paint20_linear_229_5114)"/>
<path d="M3.46417 18.6027C3.62722 18.7658 3.81136 18.9101 4.01417 19.031L5.67831 20.0228C6.07198 20.2574 6.58136 20.1284 6.81597 19.7347C7.05058 19.341 6.92155 18.8317 6.52796 18.5971L4.86382 17.6053C4.47226 17.372 4.24784 16.9281 4.29202 16.4745L4.47507 14.5939C4.51948 14.1377 4.18562 13.7319 3.72956 13.6876C3.27343 13.6431 2.86765 13.9769 2.82323 14.4331L2.64019 16.3137C2.55691 17.1687 2.87085 18.0094 3.46417 18.6027Z" fill="url(#paint21_linear_229_5114)"/>
<path d="M6.52945 12.8265C6.93484 12.8641 7.27859 13.1631 7.36285 13.5759C7.52941 14.3949 7.86492 15.1729 8.34965 15.8584C8.43156 15.9749 8.52594 16.0822 8.62766 16.1816C8.77391 16.3244 9.01414 16.561 9.26074 16.8124L6.91793 19.1552C6.87523 18.9299 6.74004 18.7232 6.52758 18.5966L4.86344 17.6048C4.47188 17.3714 4.24746 16.9276 4.29164 16.474L4.3982 15.3792C4.80027 15.5043 5.22434 15.5521 5.66477 15.5205L5.80973 15.5101C5.6798 14.9721 5.57906 14.4272 5.50918 13.8781C5.44227 13.3534 5.8248 12.8777 6.35109 12.8267C6.41156 12.8207 6.47133 12.8209 6.52945 12.8265Z" fill="url(#paint22_linear_229_5114)"/>
<path d="M5.50953 13.8782C5.57941 14.4275 5.68007 14.972 5.80996 15.5102L6.72687 18.7617V18.7622C6.82597 18.8744 6.89089 19.0113 6.91828 19.1555L9.26121 16.8126C9.01449 16.5612 8.77406 16.3244 8.628 16.1815C8.52628 16.0824 8.43191 15.9749 8.35 15.8586C7.86519 15.173 7.5298 14.3948 7.36316 13.5757C7.27894 13.1629 6.93519 12.864 6.52996 12.8264C6.47179 12.821 6.41207 12.8207 6.35132 12.8267C5.82507 12.8778 5.44277 13.3535 5.50953 13.8782Z" fill="url(#paint23_linear_229_5114)"/>
<path d="M5.50953 13.8782C5.57941 14.4275 5.68007 14.972 5.80996 15.5102L6.72687 18.7617V18.7622C6.82597 18.8744 6.89089 19.0113 6.91828 19.1555L9.26121 16.8126C9.01449 16.5612 8.77406 16.3244 8.628 16.1815C8.52628 16.0824 8.43191 15.9749 8.35 15.8586C7.86519 15.173 7.5298 14.3948 7.36316 13.5757C7.27894 13.1629 6.93519 12.864 6.52996 12.8264C6.47179 12.821 6.41207 12.8207 6.35132 12.8267C5.82507 12.8778 5.44277 13.3535 5.50953 13.8782Z" fill="url(#paint24_linear_229_5114)"/>
<path d="M3.63623 18.42V18.7521C4.11225 19.1466 5.34416 20.1121 5.34416 20.1121C5.46709 20.2121 5.574 20.3271 5.66342 20.453C5.66354 20.4532 5.66365 20.4534 5.66373 20.4535C5.68459 20.4823 5.71748 20.4999 5.75303 20.4999H9.80186C9.87041 20.4999 9.93752 20.4865 10.0001 20.4619C10.0627 20.4865 10.1298 20.4999 10.1983 20.4999H14.2472C14.2827 20.4999 14.3156 20.4823 14.3365 20.4535C14.3366 20.4534 14.3367 20.4532 14.3368 20.453C14.4262 20.3271 14.5332 20.2121 14.6561 20.1121C14.6561 20.1121 16.3731 18.7665 16.5363 18.6032C16.5951 18.5445 16.6509 18.4833 16.704 18.4199H3.63623V18.42Z" fill="url(#paint25_linear_229_5114)"/>
<path d="M9.99996 4.78312C11.1827 4.78312 12.1415 3.82431 12.1415 2.64156C12.1415 1.45881 11.1827 0.5 9.99996 0.5C8.81721 0.5 7.8584 1.45881 7.8584 2.64156C7.8584 3.82431 8.81721 4.78312 9.99996 4.78312Z" fill="url(#paint26_linear_229_5114)"/>
<path d="M7.8584 2.64152C7.8584 3.8243 8.81723 4.78309 9.99996 4.78309C11.1827 4.78309 12.1415 3.82426 12.1415 2.64152C12.1415 2.38535 12.0964 2.1398 12.0139 1.91211H7.98598C7.90352 2.1398 7.8584 2.38539 7.8584 2.64152Z" fill="url(#paint27_linear_229_5114)"/>
<path d="M8.48564 4.15535C9.32197 4.99168 10.6779 4.99168 11.5143 4.15535C12.3506 3.31902 12.3506 1.96305 11.5143 1.12672C11.3331 0.945586 11.1276 0.803867 10.9083 0.701172L8.06006 3.54938C8.16279 3.76867 8.30451 3.97422 8.48564 4.15535Z" fill="url(#paint28_linear_229_5114)"/>
<path d="M12.8047 8.2227H7.19484C7.02035 8.2227 6.87891 8.08125 6.87891 7.90676V7.57551C6.87891 6.25449 7.9498 5.18359 9.27082 5.18359H10.7287C12.0497 5.18359 13.1206 6.25449 13.1206 7.57551V7.90676C13.1207 8.08125 12.9792 8.2227 12.8047 8.2227Z" fill="url(#paint29_linear_229_5114)"/>
<path d="M6.87891 7.57637V7.90762C6.87891 8.08211 7.02035 8.22355 7.19484 8.22355H12.8047C12.9792 8.22355 13.1207 8.08211 13.1207 7.90762V7.57637C13.1207 6.94496 12.8759 6.37082 12.4763 5.94336H7.52332C7.12367 6.37082 6.87891 6.94496 6.87891 7.57637Z" fill="url(#paint30_linear_229_5114)"/>
<path d="M10.7287 5.18359H9.74512V8.2227H12.8047C12.9792 8.2227 13.1206 8.08125 13.1206 7.90676V7.57551C13.1206 6.25449 12.0497 5.18359 10.7287 5.18359Z" fill="url(#paint31_linear_229_5114)"/>
<path d="M12.4599 10.7011C13.6427 10.7011 14.6015 9.74228 14.6015 8.55953C14.6015 7.37678 13.6427 6.41797 12.4599 6.41797C11.2772 6.41797 10.3184 7.37678 10.3184 8.55953C10.3184 9.74228 11.2772 10.7011 12.4599 10.7011Z" fill="url(#paint32_linear_229_5114)"/>
<path d="M10.3184 8.55949C10.3184 9.74227 11.2772 10.7011 12.4599 10.7011C13.6427 10.7011 14.6015 9.74223 14.6015 8.55949C14.6015 8.30332 14.5564 8.05777 14.4739 7.83008H10.446C10.3635 8.05777 10.3184 8.30336 10.3184 8.55949Z" fill="url(#paint33_linear_229_5114)"/>
<path d="M10.9456 10.0733C11.7819 10.9096 13.1379 10.9096 13.9742 10.0733C14.8106 9.23699 14.8106 7.88102 13.9742 7.04469C13.7931 6.86355 13.5876 6.72184 13.3682 6.61914L10.52 9.46734C10.6227 9.68664 10.7645 9.89219 10.9456 10.0733Z" fill="url(#paint34_linear_229_5114)"/>
<path d="M15.2647 14.1407H9.6548C9.48031 14.1407 9.33887 13.9992 9.33887 13.8247V13.4935C9.33887 12.1725 10.4098 11.1016 11.7308 11.1016H13.1887C14.5097 11.1016 15.5806 12.1725 15.5806 13.4935V13.8247C15.5806 13.9992 15.4391 14.1407 15.2647 14.1407Z" fill="url(#paint35_linear_229_5114)"/>
<path d="M9.33887 13.4943V13.8256C9.33887 14.0001 9.48031 14.1415 9.6548 14.1415H15.2647C15.4392 14.1415 15.5806 14.0001 15.5806 13.8256V13.4943C15.5806 12.8629 15.3359 12.2888 14.9362 11.8613H9.98328C9.58363 12.2888 9.33887 12.8629 9.33887 13.4943Z" fill="url(#paint36_linear_229_5114)"/>
<path d="M13.1887 11.1016H12.2051V14.1407H15.2646C15.4391 14.1407 15.5806 13.9992 15.5806 13.8247V13.4935C15.5806 12.1725 14.5097 11.1016 13.1887 11.1016Z" fill="url(#paint37_linear_229_5114)"/>
<path d="M7.54049 10.7011C8.72324 10.7011 9.68205 9.74228 9.68205 8.55953C9.68205 7.37678 8.72324 6.41797 7.54049 6.41797C6.35774 6.41797 5.39893 7.37678 5.39893 8.55953C5.39893 9.74228 6.35774 10.7011 7.54049 10.7011Z" fill="url(#paint38_linear_229_5114)"/>
<path d="M5.39893 8.55949C5.39893 9.74227 6.35775 10.7011 7.54049 10.7011C8.72326 10.7011 9.68205 9.74223 9.68205 8.55949C9.68205 8.30332 9.63693 8.05777 9.55443 7.83008H5.52654C5.44408 8.05777 5.39893 8.30336 5.39893 8.55949Z" fill="url(#paint39_linear_229_5114)"/>
<path d="M6.02617 10.0733C6.8625 10.9096 8.21848 10.9096 9.05481 10.0733C9.89113 9.23699 9.89113 7.88102 9.05481 7.04469C8.87367 6.86355 8.66813 6.72184 8.44879 6.61914L5.60059 9.46734C5.70332 9.68664 5.84504 9.89219 6.02617 10.0733Z" fill="url(#paint40_linear_229_5114)"/>
<path d="M10.3453 14.1407H4.73537C4.56088 14.1407 4.41943 13.9992 4.41943 13.8247V13.4935C4.41943 12.1725 5.49033 11.1016 6.81135 11.1016H8.26924C9.59025 11.1016 10.6612 12.1725 10.6612 13.4935V13.8247C10.6612 13.9992 10.5197 14.1407 10.3453 14.1407Z" fill="url(#paint41_linear_229_5114)"/>
<path d="M4.41943 13.4943V13.8256C4.41943 14.0001 4.56088 14.1415 4.73537 14.1415H10.3453C10.5197 14.1415 10.6612 14.0001 10.6612 13.8256V13.4943C10.6612 12.8629 10.4164 12.2888 10.0168 11.8613H5.06385C4.6642 12.2888 4.41943 12.8629 4.41943 13.4943Z" fill="url(#paint42_linear_229_5114)"/>
<path d="M8.26924 11.1016H7.28564V14.1407H10.3452C10.5197 14.1407 10.6612 13.9992 10.6612 13.8247V13.4935C10.6612 12.1725 9.59025 11.1016 8.26924 11.1016Z" fill="url(#paint43_linear_229_5114)"/>
</g>
<defs>
<linearGradient id="paint0_linear_229_5114" x1="17.9457" y1="13.892" x2="19.1911" y2="14.5425" gradientUnits="userSpaceOnUse">
<stop stop-color="#FFDFCF"/>
<stop offset="1" stop-color="#FFA78F"/>
</linearGradient>
<linearGradient id="paint1_linear_229_5114" x1="19.7682" y1="13.662" x2="18.6405" y2="14.0586" gradientUnits="userSpaceOnUse">
<stop stop-color="#F89580" stop-opacity="0"/>
<stop offset="0.2859" stop-color="#EE8E79" stop-opacity="0.287"/>
<stop offset="0.7624" stop-color="#D57B65" stop-opacity="0.765"/>
<stop offset="0.9972" stop-color="#C5715A"/>
</linearGradient>
<linearGradient id="paint2_linear_229_5114" x1="17.1925" y1="14.2438" x2="18.6981" y2="14.281" gradientUnits="userSpaceOnUse">
<stop stop-color="#FFDFCF"/>
<stop offset="1" stop-color="#FFA78F"/>
</linearGradient>
<linearGradient id="paint3_linear_229_5114" x1="17.6451" y1="14.6731" x2="18.8719" y2="15.3794" gradientUnits="userSpaceOnUse">
<stop stop-color="#F89580" stop-opacity="0"/>
<stop offset="0.2859" stop-color="#EE8E79" stop-opacity="0.287"/>
<stop offset="0.7624" stop-color="#D57B65" stop-opacity="0.765"/>
<stop offset="0.9972" stop-color="#C5715A"/>
</linearGradient>
<linearGradient id="paint4_linear_229_5114" x1="16.2079" y1="15.7366" x2="18.0852" y2="15.7365" gradientUnits="userSpaceOnUse">
<stop stop-color="#FFDFCF"/>
<stop offset="1" stop-color="#FFA78F"/>
</linearGradient>
<linearGradient id="paint5_linear_229_5114" x1="16.9545" y1="15.8648" x2="18.1379" y2="16.7508" gradientUnits="userSpaceOnUse">
<stop stop-color="#F89580" stop-opacity="0"/>
<stop offset="0.2859" stop-color="#EE8E79" stop-opacity="0.287"/>
<stop offset="0.7624" stop-color="#D57B65" stop-opacity="0.765"/>
<stop offset="0.9972" stop-color="#C5715A"/>
</linearGradient>
<linearGradient id="paint6_linear_229_5114" x1="12.5501" y1="15.8358" x2="15.3116" y2="20.1675" gradientUnits="userSpaceOnUse">
<stop stop-color="#FFDFCF"/>
<stop offset="1" stop-color="#FFA78F"/>
</linearGradient>
<linearGradient id="paint7_linear_229_5114" x1="12.1196" y1="16.6116" x2="13.2163" y2="18.8236" gradientUnits="userSpaceOnUse">
<stop stop-color="#F89580" stop-opacity="0"/>
<stop offset="0.2859" stop-color="#EE8E79" stop-opacity="0.287"/>
<stop offset="0.7624" stop-color="#D57B65" stop-opacity="0.765"/>
<stop offset="0.9972" stop-color="#C5715A"/>
</linearGradient>
<linearGradient id="paint8_linear_229_5114" x1="15.9932" y1="16.904" x2="17.5421" y2="16.8916" gradientUnits="userSpaceOnUse">
<stop stop-color="#F89580" stop-opacity="0"/>
<stop offset="0.2859" stop-color="#EE8E79" stop-opacity="0.287"/>
<stop offset="0.7624" stop-color="#D57B65" stop-opacity="0.765"/>
<stop offset="0.9972" stop-color="#C5715A"/>
</linearGradient>
<linearGradient id="paint9_linear_229_5114" x1="13.5689" y1="15.9275" x2="16.32" y2="15.3699" gradientUnits="userSpaceOnUse">
<stop stop-color="#F89580" stop-opacity="0"/>
<stop offset="0.2859" stop-color="#EE8E79" stop-opacity="0.287"/>
<stop offset="0.7624" stop-color="#D57B65" stop-opacity="0.765"/>
<stop offset="0.9972" stop-color="#C5715A"/>
</linearGradient>
<linearGradient id="paint10_linear_229_5114" x1="13.8889" y1="15.8268" x2="15.4874" y2="15.4179" gradientUnits="userSpaceOnUse">
<stop stop-color="#F89580" stop-opacity="0"/>
<stop offset="0.2859" stop-color="#EE8E79" stop-opacity="0.287"/>
<stop offset="0.7624" stop-color="#D57B65" stop-opacity="0.765"/>
<stop offset="0.9972" stop-color="#C5715A"/>
</linearGradient>
<linearGradient id="paint11_linear_229_5114" x1="12.6189" y1="15.0545" x2="12.6189" y2="14.0795" gradientUnits="userSpaceOnUse">
<stop stop-color="#F89580" stop-opacity="0"/>
<stop offset="0.2859" stop-color="#EE8E79" stop-opacity="0.287"/>
<stop offset="0.7624" stop-color="#D57B65" stop-opacity="0.765"/>
<stop offset="0.9972" stop-color="#C5715A"/>
</linearGradient>
<linearGradient id="paint12_linear_229_5114" x1="12.2349" y1="18.2822" x2="9.72558" y2="19.313" gradientUnits="userSpaceOnUse">
<stop stop-color="#F89580" stop-opacity="0"/>
<stop offset="0.2859" stop-color="#EE8E79" stop-opacity="0.287"/>
<stop offset="0.7624" stop-color="#D57B65" stop-opacity="0.765"/>
<stop offset="0.9972" stop-color="#C5715A"/>
</linearGradient>
<linearGradient id="paint13_linear_229_5114" x1="2.0536" y1="13.892" x2="0.808199" y2="14.5425" gradientUnits="userSpaceOnUse">
<stop stop-color="#FFDFCF"/>
<stop offset="1" stop-color="#FFA78F"/>
</linearGradient>
<linearGradient id="paint14_linear_229_5114" x1="0.23111" y1="13.662" x2="1.35878" y2="14.0586" gradientUnits="userSpaceOnUse">
<stop stop-color="#F89580" stop-opacity="0"/>
<stop offset="0.2859" stop-color="#EE8E79" stop-opacity="0.287"/>
<stop offset="0.7624" stop-color="#D57B65" stop-opacity="0.765"/>
<stop offset="0.9972" stop-color="#C5715A"/>
</linearGradient>
<linearGradient id="paint15_linear_229_5114" x1="2.80662" y1="14.2438" x2="1.30102" y2="14.281" gradientUnits="userSpaceOnUse">
<stop stop-color="#FFDFCF"/>
<stop offset="1" stop-color="#FFA78F"/>
</linearGradient>
<linearGradient id="paint16_linear_229_5114" x1="2.35388" y1="14.6731" x2="1.12707" y2="15.3794" gradientUnits="userSpaceOnUse">
<stop stop-color="#F89580" stop-opacity="0"/>
<stop offset="0.2859" stop-color="#EE8E79" stop-opacity="0.287"/>
<stop offset="0.7624" stop-color="#D57B65" stop-opacity="0.765"/>
<stop offset="0.9972" stop-color="#C5715A"/>
</linearGradient>
<linearGradient id="paint17_linear_229_5114" x1="3.7913" y1="15.7366" x2="1.91392" y2="15.7365" gradientUnits="userSpaceOnUse">
<stop stop-color="#FFDFCF"/>
<stop offset="1" stop-color="#FFA78F"/>
</linearGradient>
<linearGradient id="paint18_linear_229_5114" x1="3.04468" y1="15.8648" x2="1.86126" y2="16.7508" gradientUnits="userSpaceOnUse">
<stop stop-color="#F89580" stop-opacity="0"/>
<stop offset="0.2859" stop-color="#EE8E79" stop-opacity="0.287"/>
<stop offset="0.7624" stop-color="#D57B65" stop-opacity="0.765"/>
<stop offset="0.9972" stop-color="#C5715A"/>
</linearGradient>
<linearGradient id="paint19_linear_229_5114" x1="7.45016" y1="15.8358" x2="4.68871" y2="20.1675" gradientUnits="userSpaceOnUse">
<stop stop-color="#FFDFCF"/>
<stop offset="1" stop-color="#FFA78F"/>
</linearGradient>
<linearGradient id="paint20_linear_229_5114" x1="7.87978" y1="16.6116" x2="6.7831" y2="18.8236" gradientUnits="userSpaceOnUse">
<stop stop-color="#F89580" stop-opacity="0"/>
<stop offset="0.2859" stop-color="#EE8E79" stop-opacity="0.287"/>
<stop offset="0.7624" stop-color="#D57B65" stop-opacity="0.765"/>
<stop offset="0.9972" stop-color="#C5715A"/>
</linearGradient>
<linearGradient id="paint21_linear_229_5114" x1="4.0066" y1="16.904" x2="2.45758" y2="16.8916" gradientUnits="userSpaceOnUse">
<stop stop-color="#F89580" stop-opacity="0"/>
<stop offset="0.2859" stop-color="#EE8E79" stop-opacity="0.287"/>
<stop offset="0.7624" stop-color="#D57B65" stop-opacity="0.765"/>
<stop offset="0.9972" stop-color="#C5715A"/>
</linearGradient>
<linearGradient id="paint22_linear_229_5114" x1="6.43036" y1="15.9275" x2="3.67936" y2="15.3699" gradientUnits="userSpaceOnUse">
<stop stop-color="#F89580" stop-opacity="0"/>
<stop offset="0.2859" stop-color="#EE8E79" stop-opacity="0.287"/>
<stop offset="0.7624" stop-color="#D57B65" stop-opacity="0.765"/>
<stop offset="0.9972" stop-color="#C5715A"/>
</linearGradient>
<linearGradient id="paint23_linear_229_5114" x1="6.1109" y1="15.8268" x2="4.51233" y2="15.4179" gradientUnits="userSpaceOnUse">
<stop stop-color="#F89580" stop-opacity="0"/>
<stop offset="0.2859" stop-color="#EE8E79" stop-opacity="0.287"/>
<stop offset="0.7624" stop-color="#D57B65" stop-opacity="0.765"/>
<stop offset="0.9972" stop-color="#C5715A"/>
</linearGradient>
<linearGradient id="paint24_linear_229_5114" x1="7.3816" y1="14.9571" x2="7.3816" y2="14.0798" gradientUnits="userSpaceOnUse">
<stop stop-color="#F89580" stop-opacity="0"/>
<stop offset="0.2859" stop-color="#EE8E79" stop-opacity="0.287"/>
<stop offset="0.7624" stop-color="#D57B65" stop-opacity="0.765"/>
<stop offset="0.9972" stop-color="#C5715A"/>
</linearGradient>
<linearGradient id="paint25_linear_229_5114" x1="10.1701" y1="19.3694" x2="10.1701" y2="20.4413" gradientUnits="userSpaceOnUse">
<stop stop-color="#F89580" stop-opacity="0"/>
<stop offset="0.2859" stop-color="#EE8E79" stop-opacity="0.287"/>
<stop offset="0.7624" stop-color="#D57B65" stop-opacity="0.765"/>
<stop offset="0.9972" stop-color="#C5715A"/>
</linearGradient>
<linearGradient id="paint26_linear_229_5114" x1="9.29711" y1="1.93871" x2="10.8896" y2="3.53125" gradientUnits="userSpaceOnUse">
<stop stop-color="#FFDFCF"/>
<stop offset="1" stop-color="#FFA78F"/>
</linearGradient>
<linearGradient id="paint27_linear_229_5114" x1="9.99996" y1="2.77129" x2="9.99996" y2="4.77668" gradientUnits="userSpaceOnUse">
<stop stop-color="#F89580" stop-opacity="0"/>
<stop offset="0.2622" stop-color="#F3917C" stop-opacity="0.263"/>
<stop offset="0.5812" stop-color="#E48671" stop-opacity="0.583"/>
<stop offset="0.9283" stop-color="#CB755E" stop-opacity="0.931"/>
<stop offset="0.9972" stop-color="#C5715A"/>
</linearGradient>
<linearGradient id="paint28_linear_229_5114" x1="10.1869" y1="2.82797" x2="11.5348" y2="4.17582" gradientUnits="userSpaceOnUse">
<stop stop-color="#F89580" stop-opacity="0"/>
<stop offset="0.2622" stop-color="#F3917C" stop-opacity="0.263"/>
<stop offset="0.5812" stop-color="#E48671" stop-opacity="0.583"/>
<stop offset="0.9283" stop-color="#CB755E" stop-opacity="0.931"/>
<stop offset="0.9972" stop-color="#C5715A"/>
</linearGradient>
<linearGradient id="paint29_linear_229_5114" x1="9.39613" y1="5.66461" x2="10.3353" y2="8.64539" gradientUnits="userSpaceOnUse">
<stop stop-color="#FFF5C6"/>
<stop offset="1" stop-color="#FAC600"/>
</linearGradient>
<linearGradient id="paint30_linear_229_5114" x1="9.99977" y1="6.9259" x2="9.99977" y2="8.15363" gradientUnits="userSpaceOnUse">
<stop stop-color="#FEA613" stop-opacity="0"/>
<stop offset="0.1766" stop-color="#FDA116" stop-opacity="0.177"/>
<stop offset="0.3939" stop-color="#FA921D" stop-opacity="0.394"/>
<stop offset="0.6325" stop-color="#F4792A" stop-opacity="0.633"/>
<stop offset="0.8846" stop-color="#ED573B" stop-opacity="0.885"/>
<stop offset="1" stop-color="#E94444"/>
</linearGradient>
<linearGradient id="paint31_linear_229_5114" x1="10.691" y1="6.75121" x2="13.0321" y2="6.56066" gradientUnits="userSpaceOnUse">
<stop stop-color="#FEA613" stop-opacity="0"/>
<stop offset="0.1766" stop-color="#FDA116" stop-opacity="0.177"/>
<stop offset="0.3939" stop-color="#FA921D" stop-opacity="0.394"/>
<stop offset="0.6325" stop-color="#F4792A" stop-opacity="0.633"/>
<stop offset="0.8846" stop-color="#ED573B" stop-opacity="0.885"/>
<stop offset="1" stop-color="#E94444"/>
</linearGradient>
<linearGradient id="paint32_linear_229_5114" x1="11.7571" y1="7.85668" x2="13.3496" y2="9.44922" gradientUnits="userSpaceOnUse">
<stop stop-color="#FFDFCF"/>
<stop offset="1" stop-color="#FFA78F"/>
</linearGradient>
<linearGradient id="paint33_linear_229_5114" x1="12.4599" y1="8.68926" x2="12.4599" y2="10.6946" gradientUnits="userSpaceOnUse">
<stop stop-color="#F89580" stop-opacity="0"/>
<stop offset="0.2622" stop-color="#F3917C" stop-opacity="0.263"/>
<stop offset="0.5812" stop-color="#E48671" stop-opacity="0.583"/>
<stop offset="0.9283" stop-color="#CB755E" stop-opacity="0.931"/>
<stop offset="0.9972" stop-color="#C5715A"/>
</linearGradient>
<linearGradient id="paint34_linear_229_5114" x1="12.6469" y1="8.74594" x2="13.9947" y2="10.0938" gradientUnits="userSpaceOnUse">
<stop stop-color="#F89580" stop-opacity="0"/>
<stop offset="0.2622" stop-color="#F3917C" stop-opacity="0.263"/>
<stop offset="0.5812" stop-color="#E48671" stop-opacity="0.583"/>
<stop offset="0.9283" stop-color="#CB755E" stop-opacity="0.931"/>
<stop offset="0.9972" stop-color="#C5715A"/>
</linearGradient>
<linearGradient id="paint35_linear_229_5114" x1="11.8561" y1="11.5826" x2="12.7952" y2="14.5634" gradientUnits="userSpaceOnUse">
<stop stop-color="#EAF9FA"/>
<stop offset="1" stop-color="#C8EFFE"/>
</linearGradient>
<linearGradient id="paint36_linear_229_5114" x1="12.4597" y1="12.8439" x2="12.4597" y2="14.0716" gradientUnits="userSpaceOnUse">
<stop stop-color="#B3DAFE" stop-opacity="0"/>
<stop offset="0.2076" stop-color="#AFD8FE" stop-opacity="0.208"/>
<stop offset="0.4339" stop-color="#A2D3FE" stop-opacity="0.434"/>
<stop offset="0.6688" stop-color="#8CCAFE" stop-opacity="0.669"/>
<stop offset="0.9085" stop-color="#6EBDFE" stop-opacity="0.909"/>
<stop offset="1" stop-color="#60B7FF"/>
</linearGradient>
<linearGradient id="paint37_linear_229_5114" x1="13.151" y1="12.6692" x2="15.4921" y2="12.4786" gradientUnits="userSpaceOnUse">
<stop stop-color="#B3DAFE" stop-opacity="0"/>
<stop offset="0.2076" stop-color="#AFD8FE" stop-opacity="0.208"/>
<stop offset="0.4339" stop-color="#A2D3FE" stop-opacity="0.434"/>
<stop offset="0.6688" stop-color="#8CCAFE" stop-opacity="0.669"/>
<stop offset="0.9085" stop-color="#6EBDFE" stop-opacity="0.909"/>
<stop offset="1" stop-color="#60B7FF"/>
</linearGradient>
<linearGradient id="paint38_linear_229_5114" x1="6.83764" y1="7.85668" x2="8.43014" y2="9.44922" gradientUnits="userSpaceOnUse">
<stop stop-color="#FFDFCF"/>
<stop offset="1" stop-color="#FFA78F"/>
</linearGradient>
<linearGradient id="paint39_linear_229_5114" x1="7.54053" y1="8.68926" x2="7.54053" y2="10.6946" gradientUnits="userSpaceOnUse">
<stop stop-color="#F89580" stop-opacity="0"/>
<stop offset="0.2622" stop-color="#F3917C" stop-opacity="0.263"/>
<stop offset="0.5812" stop-color="#E48671" stop-opacity="0.583"/>
<stop offset="0.9283" stop-color="#CB755E" stop-opacity="0.931"/>
<stop offset="0.9972" stop-color="#C5715A"/>
</linearGradient>
<linearGradient id="paint40_linear_229_5114" x1="7.72746" y1="8.74594" x2="9.07531" y2="10.0938" gradientUnits="userSpaceOnUse">
<stop stop-color="#F89580" stop-opacity="0"/>
<stop offset="0.2622" stop-color="#F3917C" stop-opacity="0.263"/>
<stop offset="0.5812" stop-color="#E48671" stop-opacity="0.583"/>
<stop offset="0.9283" stop-color="#CB755E" stop-opacity="0.931"/>
<stop offset="0.9972" stop-color="#C5715A"/>
</linearGradient>
<linearGradient id="paint41_linear_229_5114" x1="6.93666" y1="11.5826" x2="7.8758" y2="14.5634" gradientUnits="userSpaceOnUse">
<stop stop-color="#BBF49B"/>
<stop offset="1" stop-color="#0BB494"/>
</linearGradient>
<linearGradient id="paint42_linear_229_5114" x1="7.54029" y1="12.8439" x2="7.54029" y2="14.0716" gradientUnits="userSpaceOnUse">
<stop stop-color="#00A887" stop-opacity="0"/>
<stop offset="0.3106" stop-color="#00A387" stop-opacity="0.311"/>
<stop offset="0.6639" stop-color="#009589" stop-opacity="0.664"/>
<stop offset="1" stop-color="#00818B"/>
</linearGradient>
<linearGradient id="paint43_linear_229_5114" x1="8.23154" y1="12.6692" x2="10.5726" y2="12.4786" gradientUnits="userSpaceOnUse">
<stop stop-color="#00A887" stop-opacity="0"/>
<stop offset="0.3106" stop-color="#00A387" stop-opacity="0.311"/>
<stop offset="0.6639" stop-color="#009589" stop-opacity="0.664"/>
<stop offset="1" stop-color="#00818B"/>
</linearGradient>
<clipPath id="clip0_229_5114">
<rect width="20" height="20" fill="white" transform="translate(0 0.5)"/>
</clipPath>
</defs>
</svg>
