<svg width="24" height="25" viewBox="0 0 24 25" fill="none" xmlns="http://www.w3.org/2000/svg">
<path d="M12.6734 3.71619L13.7451 2.73807C14.2834 2.24682 15.1496 2.47892 15.3701 3.17346L15.8092 4.55642C15.9655 5.04842 16.471 5.34028 16.9752 5.2296L18.3924 4.91844C19.1041 4.76216 19.7382 5.39623 19.5819 6.108L19.2708 7.52522C19.16 8.02946 19.4519 8.53492 19.944 8.69115L21.3269 9.1303C22.0215 9.35087 22.2536 10.217 21.7623 10.7552L20.7842 11.827C20.4362 12.2083 20.4362 12.792 20.7842 13.1733L21.7623 14.2451C22.2536 14.7833 22.0215 15.6495 21.3269 15.87L19.944 16.3092C19.452 16.4654 19.1601 16.9709 19.2708 17.4751L19.5819 18.8923C19.7382 19.6041 19.1041 20.2382 18.3924 20.0819L16.9752 19.7707C16.4709 19.66 15.9655 19.9519 15.8092 20.4439L15.3701 21.8269C15.1495 22.5214 14.2834 22.7535 13.7451 22.2623L12.6734 21.2841C12.292 20.9361 11.7084 20.9361 11.3271 21.2841L10.2553 22.2623C9.71703 22.7535 8.85087 22.5214 8.63035 21.8269L8.1912 20.4439C8.03496 19.9519 7.52946 19.66 7.02527 19.7707L5.60804 20.0819C4.89628 20.2382 4.26221 19.6041 4.41849 18.8923L4.72964 17.4751C4.84037 16.9709 4.54852 16.4654 4.05647 16.3092L2.6735 15.87C1.97896 15.6495 1.74687 14.7833 2.23812 14.2451L3.21623 13.1733C3.56423 12.792 3.56423 12.2083 3.21623 11.827L2.23807 10.7553C1.74682 10.217 1.97892 9.35087 2.67346 9.13035L4.05642 8.6912C4.54842 8.53496 4.84028 8.02946 4.7296 7.52527L4.41844 6.10804C4.26216 5.39628 4.89623 4.76221 5.608 4.91849L7.02522 5.22964C7.52946 5.34037 8.03492 5.04852 8.19115 4.55647L8.6303 3.1735C8.85087 2.47896 9.71699 2.24687 10.2552 2.73812L11.327 3.71623C11.7083 4.06419 12.292 4.06419 12.6734 3.71619Z" fill="url(#paint0_linear_429_710)"/>
<path d="M9.31207 20.0885C9.02398 19.1813 8.19113 18.5716 7.2396 18.5716C7.08308 18.5716 6.92591 18.5887 6.7725 18.6224L6.66972 18.645C6.18266 18.7519 5.74878 18.318 5.85574 17.8309L5.87833 17.7281C6.12101 16.6228 5.49066 15.531 4.41207 15.1885L4.31184 15.1567C3.83654 15.0058 3.67777 14.4131 4.01391 14.0448L4.08487 13.967C4.8477 13.1311 4.8477 11.8705 4.08487 11.0346L4.01391 10.9569C3.67777 10.5885 3.83659 9.99589 4.31184 9.84497L4.41221 9.81311C5.49071 9.47076 6.12111 8.37895 5.87843 7.27358L5.85584 7.17076C5.74887 6.6837 6.18275 6.24982 6.66981 6.35673L6.77259 6.37932C6.926 6.41302 7.08318 6.4301 7.2397 6.4301C8.19123 6.4301 9.02407 5.82045 9.31217 4.91311L9.34403 4.81283C9.49494 4.33758 10.0876 4.17876 10.4559 4.5149L10.5337 4.58586C10.9354 4.9524 11.4561 5.15433 11.9999 5.15433C12.5438 5.15433 13.0645 4.9524 13.4662 4.58577L13.5439 4.51485C13.9122 4.17876 14.5049 4.33753 14.6558 4.81278L14.6876 4.91316C14.9756 5.82045 15.8085 6.4301 16.7601 6.4301C16.9166 6.4301 17.0738 6.41302 17.2272 6.37932L17.33 6.35673C17.8171 6.24982 18.2509 6.68365 18.144 7.17071L18.1214 7.27353C17.8787 8.3789 18.509 9.47066 19.5876 9.81311L19.6879 9.84492C20.1631 9.99584 20.322 10.5885 19.9858 10.9568L19.9148 11.0346C19.1519 11.8704 19.1519 13.1312 19.9149 13.967L19.9858 14.0447C20.3219 14.4131 20.1631 15.0057 19.6879 15.1566L19.5875 15.1885C18.509 15.5309 17.8787 16.6227 18.1213 17.728L18.1439 17.8309C18.2509 18.3179 17.817 18.7518 17.33 18.6448L17.2271 18.6222C17.0737 18.5885 16.9165 18.5715 16.76 18.5715C15.8084 18.5715 14.9756 19.1811 14.6876 20.0885L14.6557 20.1887C14.5048 20.664 13.9122 20.8228 13.5438 20.4867L13.466 20.4157C13.0644 20.0491 12.5437 19.8472 11.9999 19.8472C11.4561 19.8472 10.9353 20.0491 10.5336 20.4157L10.4559 20.4866C10.0876 20.8228 9.4949 20.6639 9.34398 20.1887L9.31207 20.0885Z" fill="url(#paint1_linear_429_710)"/>
<path d="M20.8948 11.7064L16.8447 7.65625L7.15527 17.3457L11.2054 21.3958L11.3268 21.285C11.7081 20.937 12.2918 20.937 12.6731 21.285L13.7449 22.2631C14.2831 22.7543 15.1493 22.5222 15.3698 21.8277L15.809 20.4447C15.9652 19.9527 16.4707 19.6609 16.9749 19.7715L18.3921 20.0827C19.1039 20.239 19.738 19.6049 19.5817 18.8931L19.2705 17.4759C19.1598 16.9717 19.4516 16.4662 19.9437 16.31L21.3267 15.8708C22.0212 15.6503 22.2533 14.7842 21.762 14.2459L20.7839 13.1741C20.4359 12.7928 20.4359 12.2091 20.7839 11.8278L20.8948 11.7064Z" fill="url(#paint2_linear_429_710)"/>
<path d="M12.0004 0.5C11.8055 0.5 11.6475 0.658024 11.6475 0.852941V2.29812C11.6475 2.49304 11.8055 2.65106 12.0004 2.65106C12.1953 2.65106 12.3533 2.49304 12.3533 2.29812V0.852941C12.3533 0.658024 12.1953 0.5 12.0004 0.5Z" fill="url(#paint3_linear_429_710)"/>
<path d="M23.6468 12.1484H22.2016C22.0067 12.1484 21.8486 12.3065 21.8486 12.5014C21.8486 12.6963 22.0067 12.8543 22.2016 12.8543H23.6468C23.8417 12.8543 23.9997 12.6963 23.9997 12.5014C23.9997 12.3065 23.8417 12.1484 23.6468 12.1484Z" fill="url(#paint4_linear_429_710)"/>
<path d="M2.15106 12.5014C2.15106 12.3065 1.99304 12.1484 1.79812 12.1484H0.352941C0.158024 12.1484 0 12.3065 0 12.5014C0 12.6963 0.158024 12.8543 0.352941 12.8543H1.79812C1.99304 12.8543 2.15106 12.6963 2.15106 12.5014Z" fill="url(#paint5_linear_429_710)"/>
<path d="M20.9806 7.64782L22.2276 6.91728C22.3958 6.81873 22.4522 6.60255 22.3537 6.43436C22.2552 6.26617 22.039 6.2097 21.8708 6.30824L20.6238 7.03878C20.4556 7.13732 20.3992 7.35351 20.4977 7.5217C20.5962 7.68989 20.8124 7.74636 20.9806 7.64782Z" fill="url(#paint6_linear_429_710)"/>
<path d="M6.53878 3.87601C6.63732 4.0442 6.85351 4.10067 7.0217 4.00213C7.18989 3.90359 7.24636 3.6874 7.14782 3.51921L6.41728 2.27225C6.31873 2.10406 6.10255 2.04759 5.93436 2.14613C5.76617 2.24467 5.7097 2.46086 5.80824 2.62905L6.53878 3.87601Z" fill="url(#paint7_linear_429_710)"/>
<path d="M3.37599 7.03878L2.12903 6.30824C1.96084 6.2097 1.7446 6.26617 1.64611 6.43436C1.54762 6.60255 1.60404 6.81878 1.77223 6.91728L3.01919 7.64782C3.18738 7.74636 3.40362 7.68989 3.50211 7.5217C3.6006 7.35351 3.54418 7.13732 3.37599 7.03878Z" fill="url(#paint8_linear_429_710)"/>
<path d="M18.0656 2.14613C17.8975 2.04759 17.6812 2.10406 17.5827 2.27225L16.8522 3.51921C16.7536 3.6874 16.8101 3.90359 16.9783 4.00213C17.1465 4.10067 17.3627 4.0442 17.4612 3.87601L18.1918 2.62905C18.2903 2.46086 18.2338 2.24462 18.0656 2.14613Z" fill="url(#paint9_linear_429_710)"/>
<path d="M12.0004 22.3477C11.8055 22.3477 11.6475 22.5057 11.6475 22.7006V24.1458C11.6475 24.3407 11.8055 24.4987 12.0004 24.4987C12.1953 24.4987 12.3533 24.3407 12.3533 24.1458V22.7006C12.3533 22.5057 12.1953 22.3477 12.0004 22.3477Z" fill="url(#paint10_linear_429_710)"/>
<path d="M3.01921 17.3532L1.77225 18.0837C1.60406 18.1822 1.54759 18.3984 1.64613 18.5666C1.74467 18.7348 1.96086 18.7913 2.12905 18.6927L3.37601 17.9622C3.5442 17.8637 3.60067 17.6475 3.50213 17.4793C3.40359 17.3111 3.1874 17.2546 3.01921 17.3532Z" fill="url(#paint11_linear_429_710)"/>
<path d="M17.4612 21.1238C17.3627 20.9556 17.1465 20.8992 16.9783 20.9977C16.8101 21.0962 16.7536 21.3124 16.8522 21.4806L17.5827 22.7276C17.6813 22.8958 17.8975 22.9522 18.0656 22.8537C18.2338 22.7552 18.2903 22.539 18.1918 22.3708L17.4612 21.1238Z" fill="url(#paint12_linear_429_710)"/>
<path d="M22.2276 18.0837L20.9806 17.3532C20.8124 17.2546 20.5962 17.3111 20.4977 17.4793C20.3992 17.6475 20.4556 17.8637 20.6238 17.9622L21.8708 18.6927C22.039 18.7913 22.2552 18.7348 22.3537 18.5666C22.4522 18.3984 22.3958 18.1822 22.2276 18.0837Z" fill="url(#paint13_linear_429_710)"/>
<path d="M7.0217 20.9977C6.85351 20.8992 6.63728 20.9556 6.53878 21.1238L5.80824 22.3707C5.7097 22.5389 5.76617 22.7552 5.93436 22.8536C6.10255 22.9521 6.31878 22.8957 6.41728 22.7275L7.14782 21.4806C7.24636 21.3124 7.18989 21.0962 7.0217 20.9977Z" fill="url(#paint14_linear_429_710)"/>
<path d="M11.9999 19.3514C15.7839 19.3514 18.8514 16.2839 18.8514 12.4999C18.8514 8.71595 15.7839 5.64844 11.9999 5.64844C8.21595 5.64844 5.14844 8.71595 5.14844 12.4999C5.14844 16.2839 8.21595 19.3514 11.9999 19.3514Z" fill="url(#paint15_linear_429_710)"/>
<path d="M7.15492 17.3441C9.83059 20.0198 14.1687 20.0198 16.8443 17.3441C18.398 15.7904 19.0493 13.6762 18.7985 11.6523H5.20071C4.94998 13.6762 5.60123 15.7904 7.15492 17.3441Z" fill="url(#paint16_linear_429_710)"/>
<defs>
<linearGradient id="paint0_linear_429_710" x1="5.96489" y1="6.46494" x2="16.6065" y2="17.1065" gradientUnits="userSpaceOnUse">
<stop stop-color="#FEC165"/>
<stop offset="1" stop-color="#F46700"/>
</linearGradient>
<linearGradient id="paint1_linear_429_710" x1="-0.000163076" y1="0.500828" x2="17.6695" y2="18.1705" gradientUnits="userSpaceOnUse">
<stop stop-color="#FEA613" stop-opacity="0"/>
<stop offset="0.26" stop-color="#F9911E" stop-opacity="0.26"/>
<stop offset="0.7954" stop-color="#EE5A39" stop-opacity="0.795"/>
<stop offset="1" stop-color="#E94444"/>
</linearGradient>
<linearGradient id="paint2_linear_429_710" x1="18.0235" y1="18.5245" x2="12.5645" y2="13.0655" gradientUnits="userSpaceOnUse">
<stop stop-color="#E94444" stop-opacity="0"/>
<stop offset="1" stop-color="#E94444"/>
</linearGradient>
<linearGradient id="paint3_linear_429_710" x1="7.34821" y1="-3.07671" x2="30.5671" y2="20.1423" gradientUnits="userSpaceOnUse">
<stop stop-color="#FEE97D"/>
<stop offset="1" stop-color="#FAC600"/>
</linearGradient>
<linearGradient id="paint4_linear_429_710" x1="7.34751" y1="-3.07533" x2="30.5664" y2="20.1436" gradientUnits="userSpaceOnUse">
<stop stop-color="#FEE97D"/>
<stop offset="1" stop-color="#FAC600"/>
</linearGradient>
<linearGradient id="paint5_linear_429_710" x1="-3.57671" y1="7.84919" x2="19.6423" y2="31.0681" gradientUnits="userSpaceOnUse">
<stop stop-color="#FEE97D"/>
<stop offset="1" stop-color="#FAC600"/>
</linearGradient>
<linearGradient id="paint6_linear_429_710" x1="9.35934" y1="-5.08833" x2="32.5783" y2="18.1306" gradientUnits="userSpaceOnUse">
<stop stop-color="#FEE97D"/>
<stop offset="1" stop-color="#FAC600"/>
</linearGradient>
<linearGradient id="paint7_linear_429_710" x1="3.8377" y1="0.433754" x2="27.0566" y2="23.6527" gradientUnits="userSpaceOnUse">
<stop stop-color="#FEE97D"/>
<stop offset="1" stop-color="#FAC600"/>
</linearGradient>
<linearGradient id="paint8_linear_429_710" x1="-0.0662675" y1="4.3377" x2="23.1527" y2="27.5566" gradientUnits="userSpaceOnUse">
<stop stop-color="#FEE97D"/>
<stop offset="1" stop-color="#FAC600"/>
</linearGradient>
<linearGradient id="paint9_linear_429_710" x1="9.35944" y1="-5.08846" x2="32.5784" y2="18.1305" gradientUnits="userSpaceOnUse">
<stop stop-color="#FEE97D"/>
<stop offset="1" stop-color="#FAC600"/>
</linearGradient>
<linearGradient id="paint10_linear_429_710" x1="-3.5763" y1="7.84653" x2="19.6427" y2="31.0654" gradientUnits="userSpaceOnUse">
<stop stop-color="#FEE97D"/>
<stop offset="1" stop-color="#FAC600"/>
</linearGradient>
<linearGradient id="paint11_linear_429_710" x1="-5.58841" y1="9.86041" x2="17.6305" y2="33.0793" gradientUnits="userSpaceOnUse">
<stop stop-color="#FEE97D"/>
<stop offset="1" stop-color="#FAC600"/>
</linearGradient>
<linearGradient id="paint12_linear_429_710" x1="-0.0665803" y1="4.33717" x2="23.1524" y2="27.5561" gradientUnits="userSpaceOnUse">
<stop stop-color="#FEE97D"/>
<stop offset="1" stop-color="#FAC600"/>
</linearGradient>
<linearGradient id="paint13_linear_429_710" x1="3.83717" y1="0.434431" x2="27.0561" y2="23.6534" gradientUnits="userSpaceOnUse">
<stop stop-color="#FEE97D"/>
<stop offset="1" stop-color="#FAC600"/>
</linearGradient>
<linearGradient id="paint14_linear_429_710" x1="-5.58833" y1="9.85934" x2="17.6306" y2="33.0783" gradientUnits="userSpaceOnUse">
<stop stop-color="#FEE97D"/>
<stop offset="1" stop-color="#FAC600"/>
</linearGradient>
<linearGradient id="paint15_linear_429_710" x1="9.45874" y1="9.95874" x2="14.3769" y2="14.8769" gradientUnits="userSpaceOnUse">
<stop stop-color="#FEE97D"/>
<stop offset="1" stop-color="#FAC600"/>
</linearGradient>
<linearGradient id="paint16_linear_429_710" x1="11.9996" y1="14.3033" x2="11.9996" y2="21.9285" gradientUnits="userSpaceOnUse">
<stop stop-color="#FEA613" stop-opacity="0"/>
<stop offset="0.26" stop-color="#F9911E" stop-opacity="0.26"/>
<stop offset="0.7954" stop-color="#EE5A39" stop-opacity="0.795"/>
<stop offset="1" stop-color="#E94444"/>
</linearGradient>
</defs>
</svg>
