<svg width="16" height="15" viewBox="0 0 16 15" fill="none" xmlns="http://www.w3.org/2000/svg">
<path d="M8 14.5312C11.8833 14.5312 15.0312 11.3833 15.0312 7.5C15.0312 3.61675 11.8833 0.46875 8 0.46875C4.11675 0.46875 0.96875 3.61675 0.96875 7.5C0.96875 11.3833 4.11675 14.5312 8 14.5312Z" fill="#84CC16"/>
<path d="M6.50574 10.6639L11.4726 7.79621C11.5247 7.76609 11.5679 7.7228 11.598 7.67069C11.628 7.61858 11.6439 7.55949 11.6439 7.49933C11.6439 7.43918 11.628 7.38008 11.598 7.32797C11.5679 7.27587 11.5247 7.23258 11.4726 7.20246L6.50574 4.33449C6.45357 4.30462 6.39449 4.28896 6.33438 4.28906C6.27427 4.28916 6.21523 4.30503 6.16317 4.33507C6.1111 4.36511 6.06782 4.40828 6.03765 4.46027C6.00748 4.51226 5.99146 4.57125 5.99121 4.63136V10.3668C5.99144 10.427 6.00743 10.486 6.03759 10.538C6.06775 10.59 6.11103 10.6332 6.1631 10.6632C6.21517 10.6933 6.27421 10.7092 6.33434 10.7093C6.39446 10.7094 6.45356 10.6937 6.50574 10.6639Z" fill="#FFFCEE"/>
</svg>
