<svg width="20" height="21" viewBox="0 0 20 21" fill="none" xmlns="http://www.w3.org/2000/svg">
<g clip-path="url(#clip0_229_4999)">
<path d="M8.15836 0.5C4.42549 0.5 1.39941 3.52608 1.39941 7.2589V15.7953C1.39941 18.3936 3.50581 20.5 6.10412 20.5C8.70247 20.5 10.8088 18.3936 10.8088 15.7953C10.8088 14.5385 11.3686 13.3391 12.3536 12.5584C13.9154 11.3204 14.9173 9.40671 14.9173 7.2589C14.9173 3.52608 11.8912 0.5 8.15836 0.5Z" fill="url(#paint0_linear_229_4999)"/>
<path d="M12.7852 7.12283C12.8275 8.59624 12.1824 9.9762 11.0305 10.8895C9.54561 12.0665 8.68941 13.8397 8.67863 15.7594C8.67063 17.1798 7.53898 18.3625 6.11855 18.3702C4.69263 18.3779 3.53027 17.2203 3.53027 15.7961V14.4862C3.53027 13.5961 4.25188 12.8744 5.14208 12.8744C5.58702 12.8744 5.98996 12.6943 6.28153 12.4021C6.59729 12.0869 6.78223 11.6417 6.75031 11.154C6.69451 10.302 5.96369 9.65083 5.10988 9.65083C4.23749 9.65083 3.53031 8.94362 3.53031 8.07126V7.2593C3.53031 4.73311 5.56439 2.67326 8.08082 2.6315C10.5996 2.58973 12.7127 4.60463 12.7852 7.12283Z" fill="url(#paint1_linear_229_4999)"/>
<path d="M1.39941 15.7734V15.7946C1.39941 18.393 3.50581 20.4993 6.10412 20.4993C8.70247 20.4993 10.8088 18.393 10.8088 15.7946C10.8088 15.7876 10.8091 15.7805 10.8091 15.7735H1.39941V15.7734Z" fill="url(#paint2_linear_229_4999)"/>
<path d="M11.0418 10.8808C11.6873 10.3658 11.7084 9.38824 11.0977 8.83255C10.0238 7.85545 8.59682 7.25977 7.03055 7.25977C5.73753 7.25977 4.53949 7.66588 3.55655 8.35718C3.69106 9.09314 4.3351 9.65114 5.10988 9.65114C5.96369 9.65114 6.69451 10.3023 6.75031 11.1543C6.78227 11.642 6.59733 12.0873 6.28153 12.4024C5.98745 12.6971 5.58004 12.8778 5.13051 12.8747C4.24482 12.8685 3.53027 13.6009 3.53027 14.4865V15.7964C3.53027 17.2206 4.69263 18.3782 6.11855 18.3705C7.53898 18.3628 8.67067 17.1801 8.67863 15.7597C8.68941 13.84 9.54565 12.0668 11.0305 10.8898C11.0342 10.8868 11.038 10.8838 11.0418 10.8808Z" fill="url(#paint3_linear_229_4999)"/>
<path d="M12.3535 12.5584C12.8584 12.1582 13.3043 11.6871 13.6772 11.1606L11.5938 9.07727C11.2215 8.68421 10.6402 8.7066 10.2471 9.07899C9.85402 9.45131 9.83719 10.0326 10.2096 10.4257C10.4099 10.6372 10.5202 10.9143 10.5202 11.206C10.5202 11.4977 10.4099 11.7749 10.2096 11.9863C10.03 12.1759 9.94092 12.4183 9.94092 12.6603C9.94092 12.9201 10.0044 13.1794 10.2079 13.3722L11.0981 14.2624C11.3573 13.6011 11.7842 13.0097 12.3535 12.5584Z" fill="url(#paint4_linear_229_4999)"/>
<path d="M13.7163 6.93164C14.6015 8.06329 14.733 8.61113 14.7525 8.74521C14.8013 8.52803 14.8398 8.30701 14.8672 8.0825L13.7163 6.93164Z" fill="url(#paint5_linear_229_4999)"/>
<path d="M15.9352 4.70795C15.555 4.32246 14.9343 4.31819 14.5488 4.69842C14.1633 5.07866 14.1591 5.6994 14.5393 6.08485C15.8937 7.45803 16.6396 9.27666 16.6396 11.2058C16.6396 13.1349 15.8937 14.9536 14.5392 16.3267C14.3508 16.5178 14.2568 16.7665 14.2568 17.0152C14.2568 17.2683 14.3543 17.5214 14.5488 17.7132C14.9342 18.0934 15.555 18.0892 15.9352 17.7037C17.6539 15.9612 18.6004 13.6536 18.6004 11.2058C18.6004 8.75803 17.6539 6.45034 15.9352 4.70795Z" fill="url(#paint6_linear_229_4999)"/>
<path d="M13.7164 6.93148C13.3377 6.54446 12.717 6.53767 12.33 6.91634C12.1336 7.10838 12.0352 7.36265 12.0352 7.61716C12.0352 7.86446 12.1282 8.11199 12.3148 8.30273C13.0778 9.08254 13.4979 10.1132 13.4979 11.2049C13.4979 12.2967 13.0777 13.3273 12.3147 14.1072C11.9361 14.4942 11.9429 15.1149 12.3299 15.4936C12.7169 15.8722 13.3376 15.8654 13.7163 15.4784C14.8399 14.33 15.4587 12.8123 15.4587 11.2049C15.4587 9.5976 14.8399 8.07991 13.7164 6.93148Z" fill="url(#paint7_linear_229_4999)"/>
<path d="M11.594 9.07764C11.2217 8.68458 10.6012 8.66775 10.2081 9.04014C9.81495 9.41246 9.79813 10.033 10.1705 10.4261C10.3708 10.6376 10.4811 10.9147 10.4811 11.2064C10.4811 11.4981 10.3708 11.7752 10.1705 11.9867C9.99091 12.1762 9.90186 12.4187 9.90186 12.6607C9.90186 12.9205 10.0045 13.1798 10.2081 13.3726C10.6011 13.7449 11.2217 13.7281 11.594 13.335C12.1408 12.7579 12.4419 12.0019 12.4419 11.2063C12.4419 10.4108 12.1408 9.65481 11.594 9.07764Z" fill="url(#paint8_linear_229_4999)"/>
</g>
<defs>
<linearGradient id="paint0_linear_229_4999" x1="5.26059" y1="9.49545" x2="15.3947" y2="14.3343" gradientUnits="userSpaceOnUse">
<stop stop-color="#FFDECF"/>
<stop offset="1" stop-color="#FAA68E"/>
</linearGradient>
<linearGradient id="paint1_linear_229_4999" x1="8.69059" y1="11.248" x2="-3.55667" y2="4.13675" gradientUnits="userSpaceOnUse">
<stop stop-color="#FF9356" stop-opacity="0"/>
<stop offset="1" stop-color="#FF4181"/>
</linearGradient>
<linearGradient id="paint2_linear_229_4999" x1="6.25639" y1="17.127" x2="6.96228" y2="22.6564" gradientUnits="userSpaceOnUse">
<stop stop-color="#FF9356" stop-opacity="0"/>
<stop offset="1" stop-color="#FF4181"/>
</linearGradient>
<linearGradient id="paint3_linear_229_4999" x1="7.87176" y1="13.3003" x2="-2.86149" y2="7.06808" gradientUnits="userSpaceOnUse">
<stop stop-color="#FF9356" stop-opacity="0"/>
<stop offset="1" stop-color="#FF4181"/>
</linearGradient>
<linearGradient id="paint4_linear_229_4999" x1="13.153" y1="12.5358" x2="9.76088" y2="10.8495" gradientUnits="userSpaceOnUse">
<stop stop-color="#FF9356" stop-opacity="0"/>
<stop offset="1" stop-color="#FF4181"/>
</linearGradient>
<linearGradient id="paint5_linear_229_4999" x1="15.6565" y1="8.57517" x2="13.4866" y2="7.45097" gradientUnits="userSpaceOnUse">
<stop stop-color="#FF9356" stop-opacity="0"/>
<stop offset="1" stop-color="#FF4181"/>
</linearGradient>
<linearGradient id="paint6_linear_229_4999" x1="15.9247" y1="11.2058" x2="18.4592" y2="11.2058" gradientUnits="userSpaceOnUse">
<stop stop-color="#FF755C"/>
<stop offset="1" stop-color="#FF4181"/>
</linearGradient>
<linearGradient id="paint7_linear_229_4999" x1="13.2972" y1="11.2049" x2="15.3067" y2="11.2049" gradientUnits="userSpaceOnUse">
<stop stop-color="#FFCE47"/>
<stop offset="1" stop-color="#FF9356"/>
</linearGradient>
<linearGradient id="paint8_linear_229_4999" x1="9.80703" y1="11.2063" x2="12.1652" y2="11.2063" gradientUnits="userSpaceOnUse">
<stop stop-color="#E4E08E"/>
<stop offset="1" stop-color="#6FA953"/>
</linearGradient>
<clipPath id="clip0_229_4999">
<rect width="20" height="20" fill="white" transform="translate(0 0.5)"/>
</clipPath>
</defs>
</svg>
