<svg width="20" height="21" viewBox="0 0 20 21" fill="none" xmlns="http://www.w3.org/2000/svg">
<g clip-path="url(#clip0_229_4958)">
<path d="M20 10.5C20 16.0229 15.5229 20.5 10 20.5C4.47708 20.5 0 16.0229 0 10.5C0 4.97708 4.47708 0.5 10 0.5C15.5229 0.5 20 4.97708 20 10.5Z" fill="url(#paint0_radial_229_4958)"/>
<path d="M1.06766 4.14981C1.0675 4.14279 1.06705 4.13577 1.06705 4.12875C1.06705 2.7103 2.21695 1.56055 3.63541 1.56055C4.83948 1.56055 5.84976 2.3894 6.12762 3.50757C6.27533 3.46362 6.43158 3.43967 6.59363 3.43967C7.49313 3.43967 8.22235 4.16888 8.22235 5.06839C8.22235 5.9679 7.49313 6.69711 6.59363 6.69711C6.0733 6.69711 1.69281 6.69711 1.32568 6.69711C0.615082 6.69711 0.0390625 6.12109 0.0390625 5.41049C0.0390625 4.78824 0.480652 4.26929 1.06766 4.14981Z" fill="url(#paint1_radial_229_4958)"/>
<path d="M18.9656 10.4339C18.9656 15.3797 14.9561 19.3893 10.0101 19.3893C5.06424 19.3893 1.05469 15.3797 1.05469 10.4339C1.05469 5.48792 5.06424 1.47852 10.0101 1.47852C14.9561 1.47852 18.9656 5.48792 18.9656 10.4339Z" fill="url(#paint2_radial_229_4958)"/>
<path d="M17.3686 10.4347C17.3686 14.4987 14.0739 17.7933 10.0099 17.7933C5.94589 17.7933 2.65137 14.4987 2.65137 10.4347C2.65137 6.3707 5.94589 3.07617 10.0099 3.07617C14.0739 3.07617 17.3686 6.3707 17.3686 10.4347Z" fill="url(#paint3_radial_229_4958)"/>
<path d="M16.6695 10.4349C16.6695 14.1128 13.688 17.0943 10.01 17.0943C6.33215 17.0943 3.35059 14.1128 3.35059 10.4349C3.35059 6.75696 6.33215 3.77539 10.01 3.77539C13.688 3.77539 16.6695 6.75696 16.6695 10.4349Z" fill="url(#paint4_linear_229_4958)"/>
<path d="M7.40121 8.25317C7.40121 9.21371 6.62241 9.99252 5.66187 9.99252C4.70117 9.99252 3.92236 9.21371 3.92236 8.25317C3.92236 7.29248 4.70117 6.51367 5.66187 6.51367C6.62241 6.51367 7.40121 7.29248 7.40121 8.25317Z" fill="url(#paint5_radial_229_4958)"/>
<path d="M8.82687 5.51517C8.82687 6.11362 8.3418 6.59885 7.74335 6.59885C7.1449 6.59885 6.65967 6.11362 6.65967 5.51517C6.65967 4.91687 7.1449 4.43164 7.74335 4.43164C8.3418 4.43164 8.82687 4.91687 8.82687 5.51517Z" fill="url(#paint6_radial_229_4958)"/>
<path d="M9.05511 7.62619C9.05511 8.03574 8.72324 8.36761 8.31369 8.36761C7.9043 8.36761 7.57227 8.03574 7.57227 7.62619C7.57227 7.2168 7.9043 6.88477 8.31369 6.88477C8.72324 6.88477 9.05511 7.2168 9.05511 7.62619Z" fill="url(#paint7_radial_229_4958)"/>
<path d="M12.407 15.0202C12.407 15.0139 12.4065 15.0078 12.4065 15.0017C12.4065 13.7537 13.4182 12.7422 14.666 12.7422C15.7254 12.7422 16.6141 13.4714 16.8586 14.4551C16.9886 14.4164 17.126 14.3953 17.2686 14.3953C18.06 14.3953 18.7015 15.0368 18.7015 15.8283C18.7015 16.6196 18.06 17.2612 17.2686 17.2612C16.8108 17.2612 12.957 17.2612 12.6339 17.2612C12.0089 17.2612 11.502 16.7545 11.502 16.1293C11.5021 15.5818 11.8906 15.1253 12.407 15.0202Z" fill="url(#paint8_radial_229_4958)"/>
<path d="M11.5024 16.131C11.5024 16.7561 12.0092 17.2628 12.6343 17.2628H16.213L15.6507 16.7007C15.3536 16.3846 14.932 16.187 14.464 16.187C14.4585 16.187 14.4533 16.1874 14.4478 16.1874C14.4434 16.1831 14.439 16.1787 14.4344 16.1744L13.3568 15.0967C13.1077 14.8375 12.8042 14.631 12.4651 14.4941C12.4274 14.6579 12.4068 14.8282 12.4068 15.0033C12.4068 15.0096 12.4073 15.0157 12.4073 15.0219C11.8909 15.1271 11.5024 15.5836 11.5024 16.131Z" fill="url(#paint9_linear_229_4958)"/>
<path d="M8.93777 16.8959C8.93762 16.8889 8.93716 16.8819 8.93716 16.8748C8.93716 15.4565 10.0871 14.3066 11.5055 14.3066C12.7096 14.3066 13.7199 15.1355 13.9977 16.2537C14.1454 16.2097 14.3017 16.1858 14.4637 16.1858C15.3633 16.1858 16.0925 16.915 16.0925 17.8145C16.0925 18.714 15.3633 19.4432 14.4637 19.4432C13.9434 19.4432 9.56293 19.4432 9.1958 19.4432C8.4852 19.4432 7.90918 18.8672 7.90918 18.1566C7.90918 17.5343 8.35077 17.0154 8.93777 16.8959Z" fill="url(#paint10_radial_229_4958)"/>
</g>
<defs>
<radialGradient id="paint0_radial_229_4958" cx="0" cy="0" r="1" gradientUnits="userSpaceOnUse" gradientTransform="translate(8.43138 7.75491) scale(13.152)">
<stop stop-color="#3B395F"/>
<stop offset="0.3952" stop-color="#39375D"/>
<stop offset="0.6279" stop-color="#323154"/>
<stop offset="0.8179" stop-color="#262846"/>
<stop offset="0.9849" stop-color="#151A32"/>
<stop offset="1" stop-color="#131830"/>
</radialGradient>
<radialGradient id="paint1_radial_229_4958" cx="0" cy="0" r="1" gradientUnits="userSpaceOnUse" gradientTransform="translate(2.45755 1.31109) scale(6.98182)">
<stop stop-color="#CFCED3"/>
<stop offset="0.8111" stop-color="#A5ABBD"/>
<stop offset="1" stop-color="#9AA2B7"/>
</radialGradient>
<radialGradient id="paint2_radial_229_4958" cx="0" cy="0" r="1" gradientUnits="userSpaceOnUse" gradientTransform="translate(9.92995 10.3537) scale(8.93498)">
<stop stop-color="#FFD459"/>
<stop offset="0.2367" stop-color="#FFD55C" stop-opacity="0.764706"/>
<stop offset="0.3932" stop-color="#FFD765" stop-opacity="0.607843"/>
<stop offset="0.5265" stop-color="#FFDB74" stop-opacity="0.47451"/>
<stop offset="0.6468" stop-color="#FFE089" stop-opacity="0.352941"/>
<stop offset="0.7583" stop-color="#FFE8A4" stop-opacity="0.243137"/>
<stop offset="0.8635" stop-color="#FFF0C6" stop-opacity="0.137255"/>
<stop offset="0.9617" stop-color="#FFFAED" stop-opacity="0.039216"/>
<stop offset="1" stop-color="white" stop-opacity="0"/>
</radialGradient>
<radialGradient id="paint3_radial_229_4958" cx="0" cy="0" r="1" gradientUnits="userSpaceOnUse" gradientTransform="translate(8.05177 7.51398) scale(9.92552)">
<stop stop-color="#FFEBC9"/>
<stop offset="0.2771" stop-color="#FFE9C5"/>
<stop offset="0.5263" stop-color="#FEE2BB"/>
<stop offset="0.7641" stop-color="#FDD7A8"/>
<stop offset="0.9948" stop-color="#FBC78F"/>
<stop offset="1" stop-color="#FBC78E"/>
</radialGradient>
<linearGradient id="paint4_linear_229_4958" x1="3.51698" y1="2.50655" x2="10.968" y2="11.6046" gradientUnits="userSpaceOnUse">
<stop stop-color="white"/>
<stop offset="0.4417" stop-color="#FFEBC9"/>
<stop offset="0.5964" stop-color="#FFE9C5"/>
<stop offset="0.7356" stop-color="#FEE2BB"/>
<stop offset="0.8683" stop-color="#FDD7A8"/>
<stop offset="0.9971" stop-color="#FBC78F"/>
<stop offset="1" stop-color="#FBC78E"/>
</linearGradient>
<radialGradient id="paint5_radial_229_4958" cx="0" cy="0" r="1" gradientUnits="userSpaceOnUse" gradientTransform="translate(6.33855 8.85799) rotate(180) scale(2.93272)">
<stop stop-color="#FFEBC9"/>
<stop offset="0.3433" stop-color="#FFE9C6"/>
<stop offset="0.567" stop-color="#FEE4BE"/>
<stop offset="0.7566" stop-color="#FDDBAF"/>
<stop offset="0.9261" stop-color="#FCCE9A"/>
<stop offset="1" stop-color="#FBC78E"/>
</radialGradient>
<radialGradient id="paint6_radial_229_4958" cx="0" cy="0" r="1" gradientUnits="userSpaceOnUse" gradientTransform="translate(8.23124 6.08791) rotate(180) scale(1.98003)">
<stop stop-color="#FFEBC9"/>
<stop offset="0.2771" stop-color="#FFE9C5"/>
<stop offset="0.5263" stop-color="#FEE2BB"/>
<stop offset="0.7641" stop-color="#FDD7A8"/>
<stop offset="0.9948" stop-color="#FBC78F"/>
<stop offset="1" stop-color="#FBC78E"/>
</radialGradient>
<radialGradient id="paint7_radial_229_4958" cx="0" cy="0" r="1" gradientUnits="userSpaceOnUse" gradientTransform="translate(8.511 7.92051) rotate(180) scale(1.24557)">
<stop stop-color="#FFEBC9"/>
<stop offset="0.2771" stop-color="#FFE9C5"/>
<stop offset="0.5263" stop-color="#FEE2BB"/>
<stop offset="0.7641" stop-color="#FDD7A8"/>
<stop offset="0.9948" stop-color="#FBC78F"/>
<stop offset="1" stop-color="#FBC78E"/>
</radialGradient>
<radialGradient id="paint8_radial_229_4958" cx="0" cy="0" r="1" gradientUnits="userSpaceOnUse" gradientTransform="translate(13.6298 12.5227) scale(6.14249)">
<stop stop-color="#CFCED3"/>
<stop offset="0.8111" stop-color="#A5ABBD"/>
<stop offset="1" stop-color="#9AA2B7"/>
</radialGradient>
<linearGradient id="paint9_linear_229_4958" x1="19.4537" y1="15.7987" x2="11.2306" y2="15.927" gradientUnits="userSpaceOnUse">
<stop offset="0.0018" stop-color="#9AA2B7" stop-opacity="0"/>
<stop offset="0.3682" stop-color="#848A9C" stop-opacity="0.368627"/>
<stop offset="1" stop-color="#606572"/>
</linearGradient>
<radialGradient id="paint10_radial_229_4958" cx="0" cy="0" r="1" gradientUnits="userSpaceOnUse" gradientTransform="translate(10.3277 14.0572) scale(6.98182)">
<stop stop-color="#CFCED3"/>
<stop offset="0.8111" stop-color="#A5ABBD"/>
<stop offset="1" stop-color="#9AA2B7"/>
</radialGradient>
<clipPath id="clip0_229_4958">
<rect width="20" height="20" fill="white" transform="translate(0 0.5)"/>
</clipPath>
</defs>
</svg>
