<svg width="20" height="21" viewBox="0 0 20 21" fill="none" xmlns="http://www.w3.org/2000/svg">
<g clip-path="url(#clip0_229_5335)">
<path d="M1.42578 6.99609H18.5703V19.1992H1.42578V6.99609Z" fill="url(#paint0_linear_229_5335)"/>
<path d="M1.42578 6.99609H18.5703V14.1016H1.42578V6.99609Z" fill="url(#paint1_linear_229_5335)"/>
<path d="M1.42578 14.1016H18.5703V19.1992H1.42578V14.1016Z" fill="url(#paint2_linear_229_5335)"/>
<path d="M11.0625 6.99609H18.5742V19.1992H11.0625V6.99609Z" fill="url(#paint3_linear_229_5335)"/>
<path d="M13.0391 15.0938H17.9453V18.1602H13.0391V15.0938Z" fill="url(#paint4_linear_229_5335)"/>
<path d="M13.0391 15.0938H17.9453V18.1602H13.0391V15.0938Z" fill="url(#paint5_linear_229_5335)"/>
<path d="M4.16016 11.5469H8.97656C9.27344 11.5469 9.51172 11.7891 9.51172 12.082V19.1992H3.62109V12.082C3.62109 11.7852 3.86328 11.5469 4.16016 11.5469Z" fill="url(#paint6_linear_229_5335)"/>
<path d="M4.16016 11.5469H8.97656C9.27344 11.5469 9.51172 11.7891 9.51172 12.082V19.1992H3.62109V12.082C3.62109 11.7852 3.86328 11.5469 4.16016 11.5469Z" fill="url(#paint7_linear_229_5335)"/>
<path d="M4.16016 11.5469H8.97656C9.27344 11.5469 9.51172 11.7891 9.51172 12.082V19.1992H3.62109V12.082C3.62109 11.7852 3.86328 11.5469 4.16016 11.5469Z" fill="url(#paint8_linear_229_5335)"/>
<path d="M8.97656 11.5469H6.57031V19.1992H9.51563V12.082C9.51172 11.7852 9.26953 11.5469 8.97656 11.5469Z" fill="url(#paint9_linear_229_5335)"/>
<path d="M9.51172 12.082C9.51172 11.7852 9.26953 11.5469 8.97656 11.5469H8.65625L3.62109 16.5781V19.1992H9.51172V12.082Z" fill="url(#paint10_linear_229_5335)"/>
<path d="M0.488281 18.293H19.5156C19.7852 18.293 20.0039 18.5117 20.0039 18.7812V20.0156C20.0039 20.2852 19.7852 20.5039 19.5156 20.5039H0.488281C0.21875 20.5 0 20.2812 0 20.0117V18.7773C0 18.5078 0.21875 18.293 0.488281 18.293Z" fill="url(#paint11_linear_229_5335)"/>
<path d="M20 20.0117V18.7773C20 18.5078 19.7812 18.2891 19.5117 18.2891H12.7813L12.4805 18.4961V19.5469L13.4297 20.4961H19.5117C19.7812 20.5 20 20.2813 20 20.0117Z" fill="url(#paint12_linear_229_5335)"/>
<path d="M20 20.0117V18.7773C20 18.5078 19.7812 18.2891 19.5117 18.2891H12.7813L12.4805 18.4961V19.5469L13.4297 20.4961H19.5117C19.7812 20.5 20 20.2813 20 20.0117Z" fill="url(#paint13_linear_229_5335)"/>
<path d="M19.5117 18.293H15.5742V20.5H19.5156C19.7852 20.5 20.0039 20.2812 20.0039 20.0117V18.7773C20 18.5078 19.7812 18.293 19.5117 18.293Z" fill="url(#paint14_linear_229_5335)"/>
<path d="M19.1328 20.5L17.9297 19.2969L17.4141 19.8125V20.5H19.1328Z" fill="url(#paint15_linear_229_5335)"/>
<path d="M5.61719 4.84766H6.75781V6.88281H5.61719V4.84766Z" fill="url(#paint16_linear_229_5335)"/>
<path d="M13.2422 4.84766H14.3828V6.88281H13.2422V4.84766Z" fill="url(#paint17_linear_229_5335)"/>
<path d="M0.488281 6.28906H19.5156C19.7852 6.28906 20.0039 6.50781 20.0039 6.77734V8.01172C20.0039 8.28125 19.7852 8.5 19.5156 8.5H0.488281C0.21875 8.5 0 8.28125 0 8.01172V6.77734C0 6.50781 0.21875 6.28906 0.488281 6.28906Z" fill="url(#paint18_linear_229_5335)"/>
<path d="M19.5117 6.28906H15.5742V8.49609H19.5156C19.7852 8.49609 20.0039 8.27734 20.0039 8.00781V6.77344C20 6.50781 19.7812 6.28906 19.5117 6.28906Z" fill="url(#paint19_linear_229_5335)"/>
<path d="M14.043 19.6523H17.4141V20.5H14.043V19.6523Z" fill="url(#paint20_linear_229_5335)"/>
<path d="M4.65234 0.5H15.3438C15.8359 0.5 16.2344 0.898437 16.2344 1.39062V4.58203C16.2344 5.07422 15.8359 5.47266 15.3438 5.47266H4.65234C4.16016 5.47266 3.76172 5.07422 3.76172 4.58203V1.39062C3.76172 0.898437 4.16016 0.5 4.65234 0.5Z" fill="url(#paint21_linear_229_5335)"/>
<path d="M3.76172 2.14844V4.58203C3.76172 5.07422 4.16016 5.47266 4.65234 5.47266H15.3438C15.8359 5.47266 16.2344 5.07422 16.2344 4.58203V2.14844H3.76172Z" fill="url(#paint22_linear_229_5335)"/>
<path d="M15.3477 0.5H10.0586V5.47266H15.3477C15.8398 5.47266 16.2383 5.07422 16.2383 4.58203V1.39062C16.2383 0.898437 15.8398 0.5 15.3477 0.5Z" fill="url(#paint23_linear_229_5335)"/>
<path d="M5.45703 3.92578C5.50391 3.92578 5.54688 3.92188 5.59375 3.91016C5.64062 3.90234 5.68359 3.88672 5.71875 3.86328C5.75781 3.84375 5.78516 3.8125 5.80859 3.78125C5.83203 3.74609 5.84375 3.70703 5.84375 3.66016C5.84375 3.57812 5.8125 3.51172 5.75 3.45703C5.6875 3.40234 5.60938 3.35156 5.51562 3.30469C5.42188 3.25781 5.32031 3.21094 5.20703 3.16016C5.09766 3.10937 4.99219 3.05078 4.89844 2.97656C4.80469 2.90234 4.72656 2.81641 4.66406 2.71094C4.60156 2.60547 4.57031 2.47656 4.57031 2.31641C4.57031 2.16797 4.60156 2.03906 4.66016 1.93359C4.71875 1.82812 4.79688 1.74219 4.89453 1.67578C4.99219 1.60937 5.10156 1.5625 5.22266 1.53125C5.34766 1.5 5.46875 1.48438 5.59766 1.48438C5.65234 1.48438 5.72266 1.48828 5.8125 1.49609C5.90234 1.50391 5.99219 1.51953 6.07813 1.54297C6.16406 1.56641 6.23828 1.60156 6.30469 1.64844C6.36719 1.69531 6.39844 1.75781 6.39844 1.83594C6.39844 1.86328 6.39453 1.89453 6.38281 1.93359C6.375 1.97266 6.35938 2.00781 6.33984 2.04297C6.32031 2.07812 6.29297 2.10547 6.26172 2.13281C6.23047 2.16016 6.19141 2.16797 6.14844 2.16797C6.10937 2.16797 6.07813 2.16016 6.04688 2.14453C6.01563 2.12891 5.98047 2.10937 5.94141 2.09375C5.90234 2.07422 5.85547 2.05859 5.80469 2.04297C5.75 2.02734 5.68359 2.01953 5.60156 2.01953C5.45703 2.01953 5.35547 2.04297 5.29297 2.09375C5.23047 2.14453 5.19922 2.19922 5.19922 2.26172C5.19922 2.32812 5.23047 2.38672 5.29297 2.42969C5.35547 2.47656 5.43359 2.51953 5.52734 2.5625C5.62109 2.60547 5.72266 2.65234 5.83594 2.69922C5.94531 2.75 6.05078 2.8125 6.14453 2.89062C6.23828 2.96875 6.31641 3.0625 6.37891 3.17578C6.44141 3.28906 6.47266 3.42969 6.47266 3.59766C6.47266 3.74219 6.44922 3.87109 6.39844 3.98047C6.34766 4.08984 6.27734 4.18359 6.19141 4.26172C6.10156 4.33594 5.99609 4.39453 5.87109 4.43359C5.74609 4.47266 5.61328 4.49219 5.46875 4.49219C5.33594 4.49219 5.21094 4.47656 5.09375 4.44922C4.97656 4.41797 4.87109 4.38281 4.78516 4.33203C4.69531 4.28516 4.62891 4.22656 4.57812 4.16406C4.52734 4.10156 4.5 4.03516 4.5 3.96875C4.5 3.93359 4.50781 3.89844 4.52344 3.85938C4.53906 3.82031 4.55859 3.78516 4.58203 3.75C4.60547 3.71484 4.63672 3.6875 4.66797 3.66406C4.70313 3.64062 4.73828 3.62891 4.77344 3.62891C4.82031 3.62891 4.86719 3.64453 4.90625 3.67578C4.94922 3.70703 4.99219 3.74219 5.04297 3.77734C5.09375 3.81641 5.14844 3.84766 5.21484 3.87891C5.28516 3.91016 5.36328 3.92578 5.45703 3.92578Z" fill="url(#paint24_linear_229_5335)"/>
<path d="M8.52344 1.51172C8.58984 1.51172 8.63672 1.54297 8.66797 1.60156C8.69922 1.66016 8.71094 1.72266 8.71094 1.78906C8.71094 1.86719 8.69531 1.93359 8.66406 1.98828C8.63281 2.04297 8.58594 2.07422 8.52344 2.07422H7.96875V4.25781C7.96875 4.32031 7.9375 4.37109 7.87109 4.40234C7.80469 4.43359 7.73438 4.44922 7.65625 4.44922C7.57812 4.44922 7.50781 4.43359 7.44141 4.40234C7.375 4.37109 7.34375 4.32031 7.34375 4.25781V2.07422H6.78906C6.72656 2.07422 6.67969 2.04687 6.64844 1.98828C6.61719 1.92969 6.60156 1.86328 6.60156 1.78906C6.60156 1.72266 6.61719 1.66016 6.64453 1.60156C6.67578 1.54297 6.72266 1.51172 6.78906 1.51172H8.52344Z" fill="url(#paint25_linear_229_5335)"/>
<path d="M9.87109 4.47266C9.73047 4.47266 9.60156 4.45703 9.48438 4.42188C9.36328 4.38672 9.26172 4.33203 9.17188 4.25781C9.08203 4.18359 9.01562 4.08203 8.96484 3.96484C8.91406 3.84375 8.88672 3.69922 8.88672 3.52344V2.45703C8.88672 2.28516 8.91406 2.14063 8.96484 2.01953C9.01562 1.89844 9.08594 1.80078 9.17188 1.72266C9.26172 1.64453 9.36328 1.58984 9.48438 1.55859C9.60547 1.52344 9.73437 1.50781 9.87109 1.50781C10.0117 1.50781 10.1406 1.52344 10.2617 1.55859C10.3828 1.59375 10.4883 1.64844 10.5742 1.72266C10.6641 1.80078 10.7305 1.89844 10.7852 2.01953C10.8359 2.14063 10.8633 2.28516 10.8633 2.45703V3.52344C10.8633 3.69922 10.8359 3.84375 10.7852 3.96484C10.7344 4.08594 10.6641 4.18359 10.5742 4.25781C10.4844 4.33594 10.3828 4.39063 10.2617 4.42188C10.1367 4.45313 10.0078 4.47266 9.87109 4.47266ZM10.2305 2.45703C10.2305 2.31641 10.1992 2.21484 10.1328 2.15234C10.0703 2.08984 9.98047 2.05469 9.86719 2.05469C9.75391 2.05469 9.66797 2.08594 9.60547 2.15234C9.54297 2.21484 9.51172 2.32031 9.51172 2.45703V3.52344C9.51172 3.66406 9.54297 3.76562 9.60547 3.82812C9.66797 3.89062 9.75781 3.92578 9.86719 3.92578C9.97656 3.92578 10.0664 3.89453 10.1328 3.82812C10.1953 3.76562 10.2305 3.66016 10.2305 3.52344V2.45703Z" fill="url(#paint26_linear_229_5335)"/>
<path d="M11.2617 1.69922C11.2617 1.64844 11.2773 1.60547 11.3125 1.56641C11.3477 1.52734 11.3945 1.51172 11.4531 1.51172H12.2852C12.4219 1.51172 12.5508 1.52734 12.6719 1.55469C12.793 1.58203 12.8984 1.62891 12.9883 1.69922C13.0781 1.76563 13.1484 1.85547 13.1992 1.96484C13.25 2.07422 13.2773 2.21094 13.2773 2.375C13.2773 2.60156 13.2305 2.77734 13.1406 2.91016C13.0469 3.04297 12.9336 3.13672 12.793 3.19141L13.2852 4.07812C13.2969 4.09766 13.3047 4.125 13.3047 4.15234C13.3047 4.19141 13.293 4.23047 13.2695 4.26953C13.2461 4.30859 13.2148 4.34375 13.1758 4.375C13.1367 4.40625 13.0977 4.42969 13.0508 4.44922C13.0039 4.46875 12.957 4.47656 12.9141 4.47656C12.875 4.47656 12.8359 4.46875 12.8008 4.44922C12.7656 4.42969 12.7344 4.40234 12.7148 4.35938L12.1641 3.28906H11.8984V4.25781C11.8984 4.32031 11.8672 4.37109 11.8008 4.40234C11.7344 4.43359 11.6641 4.44922 11.5859 4.44922C11.5078 4.44922 11.4375 4.43359 11.3711 4.40234C11.3047 4.37109 11.2734 4.32031 11.2734 4.25781L11.2617 1.69922ZM11.8867 2.05469V2.80469H12.2852C12.3984 2.80469 12.4844 2.77734 12.5508 2.72266C12.6133 2.66797 12.6484 2.57031 12.6484 2.42969C12.6484 2.28906 12.6172 2.19141 12.5508 2.13672C12.4883 2.08203 12.3984 2.05469 12.2852 2.05469H11.8867Z" fill="url(#paint27_linear_229_5335)"/>
<path d="M14.2344 2.73438H14.8359C14.8984 2.73438 14.9453 2.75781 14.9766 2.80859C15.0078 2.85937 15.0234 2.91406 15.0234 2.98047C15.0234 3.03516 15.0078 3.08594 14.9805 3.14062C14.9492 3.19141 14.9023 3.21875 14.8359 3.21875H14.2344V3.90234H15.3125C15.375 3.90234 15.4219 3.92969 15.4531 3.98437C15.4844 4.03906 15.5 4.10547 15.5 4.17969C15.5 4.24219 15.4844 4.30469 15.457 4.36328C15.4258 4.42188 15.3789 4.44922 15.3125 4.44922H13.8828C13.8125 4.44922 13.75 4.43359 13.6953 4.40234C13.6406 4.37109 13.6094 4.32031 13.6094 4.25781V1.70312C13.6094 1.64062 13.6367 1.58984 13.6953 1.55859C13.75 1.52734 13.8164 1.51172 13.8828 1.51172H15.3125C15.3789 1.51172 15.4258 1.53906 15.457 1.59766C15.4883 1.65625 15.5 1.71484 15.5 1.78125C15.5 1.85547 15.4844 1.92188 15.4531 1.97656C15.4219 2.03125 15.375 2.05859 15.3125 2.05859H14.2344C14.2344 2.05469 14.2344 2.73438 14.2344 2.73438Z" fill="url(#paint28_linear_229_5335)"/>
<path d="M12.7461 15.543L12.3633 13.9023C12.2617 13.4648 11.875 13.1602 11.4258 13.1602H11.1992V12.6562H11.4258C12.1094 12.6562 12.6953 13.1211 12.8516 13.7891L13.2344 15.4297L12.7461 15.543Z" fill="url(#paint29_linear_229_5335)"/>
<path d="M11.4258 12.6562H11.1992V13.1602H11.4258C11.6953 13.1602 11.9375 13.2695 12.1133 13.4492H12.7266C12.4805 12.9687 11.9844 12.6562 11.4258 12.6562Z" fill="url(#paint30_linear_229_5335)"/>
<path d="M17.426 19.7891H13.1096C12.6018 19.7891 12.1799 19.3906 12.1721 18.8828C12.1604 18.3633 12.5823 17.9414 13.0979 17.9414H17.3948V18.4453H13.1018C12.8752 18.4453 12.6799 18.6211 12.6682 18.8516C12.6604 19.0898 12.8518 19.2891 13.0901 19.2891H17.426C17.5627 19.2891 17.676 19.4023 17.676 19.5391C17.676 19.6758 17.5666 19.7891 17.426 19.7891Z" fill="url(#paint31_linear_229_5335)"/>
<path d="M13.1094 19.7891H17.4297C17.5664 19.7891 17.6797 19.6758 17.6797 19.5391C17.6797 19.4023 17.5664 19.2891 17.4297 19.2891H13.0938C12.8945 19.2891 12.7305 19.1523 12.6836 18.9688H12.1758C12.2266 19.4297 12.6289 19.7891 13.1094 19.7891Z" fill="url(#paint32_linear_229_5335)"/>
<path d="M14.4492 19.2852H15.7305V19.7891H14.4492V19.2852Z" fill="url(#paint33_linear_229_5335)"/>
<path d="M14.043 20.5C14.4356 20.5 14.7539 20.1817 14.7539 19.7891C14.7539 19.3964 14.4356 19.0781 14.043 19.0781C13.6503 19.0781 13.332 19.3964 13.332 19.7891C13.332 20.1817 13.6503 20.5 14.043 20.5Z" fill="url(#paint34_linear_229_5335)"/>
<path d="M13.332 19.7891C13.332 20.1836 13.6523 20.5 14.043 20.5C14.4375 20.5 14.7539 20.1797 14.7539 19.7891C14.7539 19.7109 14.7422 19.6367 14.7188 19.5664H13.3672C13.3438 19.6328 13.332 19.7109 13.332 19.7891Z" fill="url(#paint35_linear_229_5335)"/>
<path d="M14.043 19.0781C13.957 19.0781 13.875 19.0938 13.7969 19.1211V20.457C13.875 20.4844 13.957 20.5 14.043 20.5C14.4375 20.5 14.7539 20.1797 14.7539 19.7891C14.7539 19.3984 14.4375 19.0781 14.043 19.0781Z" fill="url(#paint36_linear_229_5335)"/>
<path d="M14.043 20.1953C14.2673 20.1953 14.4492 20.0134 14.4492 19.7891C14.4492 19.5647 14.2673 19.3828 14.043 19.3828C13.8186 19.3828 13.6367 19.5647 13.6367 19.7891C13.6367 20.0134 13.8186 20.1953 14.043 20.1953Z" fill="url(#paint37_linear_229_5335)"/>
<path d="M17.4141 20.5C17.8067 20.5 18.125 20.1817 18.125 19.7891C18.125 19.3964 17.8067 19.0781 17.4141 19.0781C17.0214 19.0781 16.7031 19.3964 16.7031 19.7891C16.7031 20.1817 17.0214 20.5 17.4141 20.5Z" fill="url(#paint38_linear_229_5335)"/>
<path d="M16.7031 19.7891C16.7031 20.1836 17.0234 20.5 17.4141 20.5C17.8047 20.5 18.125 20.1797 18.125 19.7891C18.125 19.7109 18.1133 19.6367 18.0898 19.5664H16.7383C16.7148 19.6328 16.7031 19.7109 16.7031 19.7891Z" fill="url(#paint39_linear_229_5335)"/>
<path d="M17.4141 19.0781C17.3281 19.0781 17.2461 19.0938 17.168 19.1211V20.457C17.2461 20.4844 17.3281 20.5 17.4141 20.5C17.8086 20.5 18.125 20.1797 18.125 19.7891C18.125 19.3984 17.8086 19.0781 17.4141 19.0781Z" fill="url(#paint40_linear_229_5335)"/>
<path d="M17.4141 20.1953C17.6384 20.1953 17.8203 20.0134 17.8203 19.7891C17.8203 19.5647 17.6384 19.3828 17.4141 19.3828C17.1897 19.3828 17.0078 19.5647 17.0078 19.7891C17.0078 20.0134 17.1897 20.1953 17.4141 20.1953Z" fill="url(#paint41_linear_229_5335)"/>
<path d="M11.3789 12.4648H10.6641C10.3984 12.4648 10.1836 12.6797 10.1836 12.9453C10.1836 13.0938 10.25 13.2227 10.3555 13.3125C10.3906 13.3438 10.4414 13.3438 10.4805 13.3203C10.5195 13.2969 10.5703 13.2813 10.6211 13.2813C10.6758 13.2813 10.7227 13.2969 10.7656 13.3242C10.8008 13.3477 10.8437 13.3477 10.8789 13.3242C10.9219 13.2969 10.9727 13.2813 11.0234 13.2813C11.0742 13.2813 11.125 13.2969 11.168 13.3242C11.2031 13.3477 11.2461 13.3477 11.2812 13.3242C11.3242 13.2969 11.375 13.2813 11.4258 13.2813C11.4766 13.2813 11.5234 13.2969 11.5664 13.3203C11.6055 13.3438 11.6562 13.3398 11.6914 13.3125C11.7969 13.2227 11.8633 13.0938 11.8633 12.9453C11.8594 12.6797 11.6445 12.4648 11.3789 12.4648Z" fill="url(#paint42_linear_229_5335)"/>
<path d="M11.7695 13.1367C11.7148 13.1055 11.6484 13.0859 11.5781 13.0859C11.5039 13.0859 11.4375 13.1055 11.3789 13.1406C11.332 13.168 11.2695 13.168 11.2227 13.1406C11.1641 13.1055 11.0977 13.0859 11.0234 13.0859C10.9492 13.0859 10.8828 13.1055 10.8242 13.1406C10.7773 13.168 10.7148 13.168 10.668 13.1406C10.6094 13.1055 10.543 13.0859 10.4688 13.0859C10.3984 13.0859 10.332 13.1055 10.2773 13.1367C10.2617 13.1445 10.25 13.1484 10.2344 13.1523C10.2656 13.2148 10.3047 13.2695 10.3594 13.3125C10.3945 13.3437 10.4453 13.3438 10.4844 13.3203C10.5234 13.2969 10.5742 13.2812 10.625 13.2812C10.6797 13.2812 10.7266 13.2969 10.7695 13.3242C10.8047 13.3477 10.8477 13.3477 10.8828 13.3242C10.9258 13.2969 10.9766 13.2812 11.0273 13.2812C11.0781 13.2812 11.1289 13.2969 11.1719 13.3242C11.207 13.3477 11.25 13.3477 11.2852 13.3242C11.3281 13.2969 11.3789 13.2812 11.4297 13.2812C11.4805 13.2812 11.5273 13.2969 11.5703 13.3203C11.6094 13.3438 11.6602 13.3398 11.6953 13.3125C11.7461 13.2695 11.7891 13.2148 11.8203 13.1523C11.7969 13.1484 11.7812 13.1445 11.7695 13.1367Z" fill="url(#paint43_linear_229_5335)"/>
<path d="M11.3789 12.4648H10.9648V13.293C10.9844 13.2891 11.0039 13.2852 11.0234 13.2852C11.0781 13.2852 11.125 13.3008 11.168 13.3281C11.2031 13.3516 11.2461 13.3516 11.2812 13.3281C11.3242 13.3008 11.375 13.2852 11.4258 13.2852C11.4766 13.2852 11.5234 13.3008 11.5664 13.3242C11.6055 13.3477 11.6562 13.3438 11.6914 13.3164C11.7969 13.2266 11.8633 13.0977 11.8633 12.9492C11.8594 12.6797 11.6445 12.4648 11.3789 12.4648Z" fill="url(#paint44_linear_229_5335)"/>
<path d="M14.5352 15.9883H15.2344C15.2773 15.9883 15.3164 15.9727 15.3477 15.9414C15.3789 15.9102 15.3945 15.8711 15.3906 15.8281L15.3867 15.6523C15.3828 15.4961 15.2578 15.375 15.1016 15.375H14.6563C14.5781 15.375 14.5078 15.4063 14.4531 15.4609C14.3984 15.5156 14.3711 15.5898 14.3711 15.668L14.375 15.8398C14.3789 15.9219 14.4492 15.9883 14.5352 15.9883ZM14.6016 15.6055C14.6172 15.5898 14.6367 15.582 14.6563 15.582H15.1016C15.1445 15.582 15.1797 15.6172 15.1797 15.6602L15.1836 15.7852H14.582L14.5781 15.6641C14.5781 15.6406 14.5859 15.6211 14.6016 15.6055Z" fill="url(#paint45_linear_229_5335)"/>
<path d="M14.1444 15.6367C14.1327 15.4883 14.0077 15.375 13.8592 15.375H13.4139C13.3358 15.375 13.2577 15.4063 13.2069 15.4648C13.1522 15.5234 13.1248 15.6016 13.1327 15.6797L13.2928 17.793C13.3045 17.9414 13.4295 18.0547 13.578 18.0547H14.0233C14.1014 18.0547 14.1795 18.0234 14.2303 17.9648C14.285 17.9063 14.3123 17.8281 14.3045 17.75L14.1444 15.6367ZM14.078 17.8281C14.0623 17.8438 14.0428 17.8516 14.0194 17.8516H13.5741C13.5311 17.8516 13.4998 17.8203 13.4959 17.7773L13.3358 15.6641C13.3358 15.6406 13.3397 15.6211 13.3553 15.6055C13.3709 15.5898 13.3905 15.582 13.4139 15.582H13.8592C13.9022 15.582 13.9334 15.6133 13.9373 15.6563L14.0975 17.7695C14.1014 17.7891 14.0936 17.8125 14.078 17.8281Z" fill="url(#paint46_linear_229_5335)"/>
<path d="M15.2809 17.4453H14.5816C14.5387 17.4453 14.4996 17.4609 14.4684 17.4922C14.4371 17.5234 14.4215 17.5625 14.4254 17.6055L14.4293 17.7813C14.4332 17.9375 14.5582 18.0586 14.7145 18.0586H15.1559C15.234 18.0586 15.3043 18.0273 15.359 17.9727C15.4137 17.918 15.441 17.8438 15.441 17.7656L15.4371 17.5938C15.4332 17.5117 15.3629 17.4453 15.2809 17.4453ZM15.2106 17.8281C15.1949 17.8438 15.1754 17.8516 15.1559 17.8516H14.7106C14.6676 17.8516 14.6324 17.8164 14.6324 17.7734L14.6285 17.6484H15.2301L15.234 17.7695C15.234 17.793 15.2262 17.8125 15.2106 17.8281Z" fill="url(#paint47_linear_229_5335)"/>
<path d="M16.4959 17.4453H15.7967C15.7108 17.4453 15.6405 17.5117 15.6405 17.5977L15.6366 17.7695C15.6327 17.8477 15.6639 17.9219 15.7186 17.9766C15.7733 18.0313 15.8436 18.0625 15.9217 18.0625H16.367C16.5233 18.0625 16.6483 17.9414 16.6522 17.7852L16.6561 17.6094C16.6561 17.5664 16.6405 17.5273 16.6131 17.4961C16.578 17.4609 16.5389 17.4453 16.4959 17.4453ZM16.4452 17.7773C16.4452 17.8203 16.41 17.8555 16.367 17.8555H15.9217C15.8983 17.8555 15.8787 17.8477 15.867 17.832C15.8514 17.8164 15.8436 17.7969 15.8436 17.7734L15.8475 17.6523H16.4491L16.4452 17.7773Z" fill="url(#paint48_linear_229_5335)"/>
<path d="M17.66 15.375H17.2147C17.0663 15.375 16.9413 15.4922 16.9295 15.6367L16.7694 17.75C16.7616 17.8281 16.7889 17.9063 16.8436 17.9648C16.8983 18.0234 16.9725 18.0547 17.0506 18.0547H17.4959C17.6444 18.0547 17.7694 17.9375 17.7811 17.793L17.9413 15.6797C17.9491 15.6016 17.9217 15.5234 17.867 15.4648C17.8163 15.4063 17.742 15.375 17.66 15.375ZM17.7381 15.6641L17.578 17.7773C17.5741 17.8164 17.5389 17.8516 17.4998 17.8516H17.0545C17.0311 17.8516 17.0116 17.8438 16.9959 17.8281C16.9803 17.8125 16.9725 17.7891 16.9764 17.7695L17.1366 15.6563C17.1405 15.6172 17.1756 15.582 17.2147 15.582H17.66C17.6834 15.582 17.703 15.5898 17.7186 15.6055C17.7342 15.6211 17.742 15.6445 17.7381 15.6641Z" fill="url(#paint49_linear_229_5335)"/>
<path d="M16.4219 15.375H15.9766C15.8203 15.375 15.6953 15.4961 15.6914 15.6523L15.6875 15.8281C15.6875 15.8711 15.7031 15.9102 15.7305 15.9414C15.7617 15.9727 15.8008 15.9883 15.8438 15.9883H16.543C16.6289 15.9883 16.6992 15.9219 16.6992 15.8359L16.7031 15.6641C16.707 15.5859 16.6758 15.5117 16.6211 15.457C16.5703 15.4063 16.4961 15.375 16.4219 15.375ZM16.4961 15.7852H15.8945L15.8984 15.6602C15.8984 15.6172 15.9336 15.582 15.9766 15.582H16.4219C16.4453 15.582 16.4648 15.5898 16.4766 15.6055C16.4922 15.6211 16.5 15.6406 16.5 15.6641L16.4961 15.7852Z" fill="url(#paint50_linear_229_5335)"/>
<path d="M12.5742 14.7227L12.9688 18.2109C12.9883 18.375 13.125 18.5 13.293 18.5H17.7891C17.9531 18.5 18.0938 18.375 18.1133 18.2109L18.5078 14.7227H12.5742ZM15.9766 15.4766H16.4219C16.5234 15.4766 16.6055 15.5625 16.6055 15.6641L16.6016 15.8359C16.6016 15.8672 16.5781 15.8906 16.5469 15.8906H15.8477C15.8164 15.8906 15.793 15.8672 15.793 15.8359L15.7969 15.6602C15.7969 15.5547 15.8789 15.4766 15.9766 15.4766ZM14.6563 15.4766H15.1016C15.1992 15.4766 15.2812 15.5547 15.2852 15.6523L15.2891 15.8281C15.2891 15.8594 15.2656 15.8828 15.2344 15.8828H14.5352C14.5039 15.8828 14.4805 15.8594 14.4805 15.8281L14.4766 15.6562C14.4727 15.5625 14.5547 15.4766 14.6563 15.4766ZM14.0195 17.957H13.5742C13.4805 17.957 13.3984 17.8828 13.3945 17.7891L13.2344 15.6758C13.2266 15.5703 13.3086 15.4805 13.4141 15.4805H13.8594C13.9531 15.4805 14.0352 15.5547 14.0391 15.6484L14.1992 17.7617C14.2109 17.8672 14.125 17.957 14.0195 17.957ZM15.1563 17.957H14.7109C14.6133 17.957 14.5312 17.8789 14.5273 17.7812L14.5234 17.6055C14.5234 17.5742 14.5469 17.5508 14.5781 17.5508H15.2773C15.3086 17.5508 15.332 17.5742 15.332 17.6055L15.3359 17.7773C15.3398 17.8711 15.2578 17.957 15.1563 17.957ZM16.3633 17.957H15.918C15.8164 17.957 15.7344 17.8711 15.7344 17.7695L15.7383 17.5977C15.7383 17.5664 15.7617 17.543 15.793 17.543H16.4922C16.5234 17.543 16.5469 17.5664 16.5469 17.5977L16.543 17.7734C16.543 17.8789 16.4648 17.957 16.3633 17.957ZM17.8438 15.6719L17.6836 17.7852C17.6758 17.8789 17.5977 17.9531 17.5039 17.9531H17.0586C16.9531 17.9531 16.8711 17.8633 16.8789 17.7578L17.0391 15.6445C17.0469 15.5508 17.125 15.4766 17.2188 15.4766H17.6641C17.7656 15.4766 17.8516 15.5664 17.8438 15.6719Z" fill="url(#paint51_linear_229_5335)"/>
<path d="M17.7578 16.7852L17.6836 17.7891C17.6758 17.8828 17.5977 17.957 17.5039 17.957H17.0586C16.9531 17.957 16.8711 17.8672 16.8789 17.7617L16.9531 16.7852H14.1328L14.207 17.7617C14.2148 17.8672 14.1328 17.957 14.0273 17.957H13.582C13.4883 17.957 13.4062 17.8828 13.4023 17.7891L13.3281 16.7852H12.8164L12.9766 18.2109C12.9961 18.375 13.1328 18.5 13.3008 18.5H17.7969C17.9609 18.5 18.1016 18.375 18.1211 18.2109L18.2812 16.7852H17.7578ZM15.1562 17.957H14.7109C14.6133 17.957 14.5312 17.8789 14.5273 17.7812L14.5234 17.6055C14.5234 17.5742 14.5469 17.5508 14.5781 17.5508H15.2773C15.3086 17.5508 15.332 17.5742 15.332 17.6055L15.3359 17.7773C15.3398 17.8711 15.2578 17.957 15.1562 17.957ZM16.5469 17.7773C16.543 17.875 16.4648 17.9531 16.3633 17.9531H15.918C15.8164 17.9531 15.7344 17.8672 15.7344 17.7656L15.7383 17.5938C15.7383 17.5625 15.7617 17.5391 15.793 17.5391H16.4922C16.5234 17.5391 16.5469 17.5625 16.5469 17.5938V17.7773Z" fill="url(#paint52_linear_229_5335)"/>
<path d="M15.7891 17.5469H15.7969H16.4961C16.5273 17.5469 16.5508 17.5703 16.5508 17.6016L16.5469 17.7773C16.543 17.875 16.4648 17.9531 16.3633 17.9531H15.918C15.8672 17.9531 15.8203 17.9297 15.7852 17.8984V18.5H17.7813C17.9453 18.5 18.0859 18.375 18.1055 18.2109L18.5 14.7227H15.7891V17.5469ZM16.875 17.7617L17.0352 15.6484C17.043 15.5547 17.1211 15.4805 17.2148 15.4805H17.6602C17.7656 15.4805 17.8477 15.5703 17.8398 15.6758L17.6797 17.7891C17.6719 17.8828 17.5937 17.957 17.5 17.957H17.0547C16.9531 17.957 16.8672 17.8672 16.875 17.7617ZM15.9766 15.4766H16.4219C16.5234 15.4766 16.6055 15.5625 16.6055 15.6641L16.6016 15.8359C16.6016 15.8672 16.5781 15.8906 16.5469 15.8906H15.8477C15.8164 15.8906 15.793 15.8672 15.793 15.8359L15.7969 15.6602C15.7969 15.5547 15.8789 15.4766 15.9766 15.4766Z" fill="url(#paint53_linear_229_5335)"/>
<path d="M12.7305 16.1055H13.2656L13.2344 15.6719C13.2266 15.5664 13.3086 15.4766 13.4141 15.4766H13.8594C13.9531 15.4766 14.0352 15.5508 14.0391 15.6445L14.0742 16.1055H16.9961L17.0312 15.6445C17.0391 15.5508 17.1172 15.4766 17.2109 15.4766H17.6562C17.7617 15.4766 17.8438 15.5664 17.8359 15.6719L17.8047 16.1055H18.3398L18.4961 14.7227H12.5742L12.7305 16.1055ZM15.7969 15.6562C15.8008 15.5586 15.8789 15.4805 15.9805 15.4805H16.4258C16.5273 15.4805 16.6094 15.5664 16.6094 15.668L16.6055 15.8398C16.6055 15.8711 16.582 15.8945 16.5508 15.8945H15.8516C15.8203 15.8945 15.7969 15.8711 15.7969 15.8398V15.6562ZM14.6563 15.4766H15.1016C15.1992 15.4766 15.2812 15.5547 15.2852 15.6523L15.2891 15.8281C15.2891 15.8594 15.2656 15.8828 15.2344 15.8828H14.5352C14.5039 15.8828 14.4805 15.8594 14.4805 15.8281L14.4766 15.6562C14.4727 15.5625 14.5547 15.4766 14.6563 15.4766Z" fill="url(#paint54_linear_229_5335)"/>
<path d="M14.5432 17.207L14.4963 16.2344C14.4924 16.1641 14.551 16.1055 14.6213 16.1055H16.4533C16.5236 16.1055 16.5822 16.1641 16.5783 16.2344L16.5314 17.207C16.5275 17.2734 16.4728 17.3242 16.4064 17.3242H14.6642C14.6017 17.3281 14.5471 17.2734 14.5432 17.207Z" fill="url(#paint55_linear_229_5335)"/>
<path d="M12.4336 14.2539H18.6406C18.7969 14.2539 18.9258 14.3828 18.9258 14.5391V14.8086C18.9258 14.9648 18.7969 15.0938 18.6406 15.0938H12.4336C12.2773 15.0938 12.1484 14.9648 12.1484 14.8086V14.5391C12.1523 14.3828 12.2773 14.2539 12.4336 14.2539Z" fill="url(#paint56_linear_229_5335)"/>
<path d="M18.6406 14.2539H17.3828V15.0938H18.6406C18.7969 15.0938 18.9258 14.9648 18.9258 14.8086V14.5391C18.9258 14.3828 18.8008 14.2539 18.6406 14.2539Z" fill="url(#paint57_linear_229_5335)"/>
</g>
<defs>
<linearGradient id="paint0_linear_229_5335" x1="8.3977" y1="6.95066" x2="11.6924" y2="19.5903" gradientUnits="userSpaceOnUse">
<stop stop-color="#FEF48B"/>
<stop offset="0.1646" stop-color="#FDF286"/>
<stop offset="0.3352" stop-color="#FDEE7A"/>
<stop offset="0.5086" stop-color="#FCE765"/>
<stop offset="0.6839" stop-color="#FCDE48"/>
<stop offset="0.8589" stop-color="#FBD123"/>
<stop offset="1" stop-color="#FAC600"/>
</linearGradient>
<linearGradient id="paint1_linear_229_5335" x1="10" y1="11.0607" x2="10" y2="8.52566" gradientUnits="userSpaceOnUse">
<stop stop-color="#FE9738" stop-opacity="0"/>
<stop offset="0.1207" stop-color="#FE9738" stop-opacity="0.016"/>
<stop offset="0.2459" stop-color="#FE9738" stop-opacity="0.065"/>
<stop offset="0.3731" stop-color="#FE9738" stop-opacity="0.147"/>
<stop offset="0.5018" stop-color="#FE9738" stop-opacity="0.262"/>
<stop offset="0.6317" stop-color="#FE9738" stop-opacity="0.41"/>
<stop offset="0.7625" stop-color="#FE9738" stop-opacity="0.59"/>
<stop offset="0.8916" stop-color="#FE9738" stop-opacity="0.8"/>
<stop offset="1" stop-color="#FE9738"/>
</linearGradient>
<linearGradient id="paint2_linear_229_5335" x1="10" y1="17.3545" x2="10" y2="18.7568" gradientUnits="userSpaceOnUse">
<stop stop-color="#FE9738" stop-opacity="0"/>
<stop offset="0.1207" stop-color="#FE9738" stop-opacity="0.016"/>
<stop offset="0.2459" stop-color="#FE9738" stop-opacity="0.065"/>
<stop offset="0.3731" stop-color="#FE9738" stop-opacity="0.147"/>
<stop offset="0.5018" stop-color="#FE9738" stop-opacity="0.262"/>
<stop offset="0.6317" stop-color="#FE9738" stop-opacity="0.41"/>
<stop offset="0.7625" stop-color="#FE9738" stop-opacity="0.59"/>
<stop offset="0.8916" stop-color="#FE9738" stop-opacity="0.8"/>
<stop offset="1" stop-color="#FE9738"/>
</linearGradient>
<linearGradient id="paint3_linear_229_5335" x1="16.7423" y1="13.0977" x2="18.9172" y2="13.0977" gradientUnits="userSpaceOnUse">
<stop stop-color="#FE9738" stop-opacity="0"/>
<stop offset="0.1207" stop-color="#FE9738" stop-opacity="0.016"/>
<stop offset="0.2459" stop-color="#FE9738" stop-opacity="0.065"/>
<stop offset="0.3731" stop-color="#FE9738" stop-opacity="0.147"/>
<stop offset="0.5018" stop-color="#FE9738" stop-opacity="0.262"/>
<stop offset="0.6317" stop-color="#FE9738" stop-opacity="0.41"/>
<stop offset="0.7625" stop-color="#FE9738" stop-opacity="0.59"/>
<stop offset="0.8916" stop-color="#FE9738" stop-opacity="0.8"/>
<stop offset="1" stop-color="#FE9738"/>
</linearGradient>
<linearGradient id="paint4_linear_229_5335" x1="14.1187" y1="16.8249" x2="13.4365" y2="16.9223" gradientUnits="userSpaceOnUse">
<stop stop-color="#FE9738" stop-opacity="0"/>
<stop offset="0.1207" stop-color="#FE9738" stop-opacity="0.016"/>
<stop offset="0.2459" stop-color="#FE9738" stop-opacity="0.065"/>
<stop offset="0.3731" stop-color="#FE9738" stop-opacity="0.147"/>
<stop offset="0.5018" stop-color="#FE9738" stop-opacity="0.262"/>
<stop offset="0.6317" stop-color="#FE9738" stop-opacity="0.41"/>
<stop offset="0.7625" stop-color="#FE9738" stop-opacity="0.59"/>
<stop offset="0.8916" stop-color="#FE9738" stop-opacity="0.8"/>
<stop offset="1" stop-color="#FE9738"/>
</linearGradient>
<linearGradient id="paint5_linear_229_5335" x1="15.4923" y1="16.4912" x2="15.4923" y2="15.5444" gradientUnits="userSpaceOnUse">
<stop stop-color="#FE9738" stop-opacity="0"/>
<stop offset="0.1207" stop-color="#FE9738" stop-opacity="0.016"/>
<stop offset="0.2459" stop-color="#FE9738" stop-opacity="0.065"/>
<stop offset="0.3731" stop-color="#FE9738" stop-opacity="0.147"/>
<stop offset="0.5018" stop-color="#FE9738" stop-opacity="0.262"/>
<stop offset="0.6317" stop-color="#FE9738" stop-opacity="0.41"/>
<stop offset="0.7625" stop-color="#FE9738" stop-opacity="0.59"/>
<stop offset="0.8916" stop-color="#FE9738" stop-opacity="0.8"/>
<stop offset="1" stop-color="#FE9738"/>
</linearGradient>
<linearGradient id="paint6_linear_229_5335" x1="3.12211" y1="12.3767" x2="9.40207" y2="18.1122" gradientUnits="userSpaceOnUse">
<stop stop-color="#62DBFB"/>
<stop offset="0.2058" stop-color="#5DD8FA"/>
<stop offset="0.4191" stop-color="#51D1F9"/>
<stop offset="0.6358" stop-color="#3CC6F6"/>
<stop offset="0.8535" stop-color="#1FB6F3"/>
<stop offset="1" stop-color="#08A9F1"/>
</linearGradient>
<linearGradient id="paint7_linear_229_5335" x1="4.82898" y1="15.3727" x2="3.13406" y2="15.3727" gradientUnits="userSpaceOnUse">
<stop stop-color="#017BAE" stop-opacity="0"/>
<stop offset="0.1466" stop-color="#017BAE" stop-opacity="0.024"/>
<stop offset="0.2986" stop-color="#017BAE" stop-opacity="0.095"/>
<stop offset="0.4531" stop-color="#017BAE" stop-opacity="0.215"/>
<stop offset="0.6093" stop-color="#017BAE" stop-opacity="0.382"/>
<stop offset="0.7669" stop-color="#017BAE" stop-opacity="0.597"/>
<stop offset="0.9233" stop-color="#017BAE" stop-opacity="0.856"/>
<stop offset="1" stop-color="#017BAE"/>
</linearGradient>
<linearGradient id="paint8_linear_229_5335" x1="6.56684" y1="13.4548" x2="6.56684" y2="10.5862" gradientUnits="userSpaceOnUse">
<stop stop-color="#017BAE" stop-opacity="0"/>
<stop offset="0.1466" stop-color="#017BAE" stop-opacity="0.024"/>
<stop offset="0.2986" stop-color="#017BAE" stop-opacity="0.095"/>
<stop offset="0.4531" stop-color="#017BAE" stop-opacity="0.215"/>
<stop offset="0.6093" stop-color="#017BAE" stop-opacity="0.382"/>
<stop offset="0.7669" stop-color="#017BAE" stop-opacity="0.597"/>
<stop offset="0.9233" stop-color="#017BAE" stop-opacity="0.856"/>
<stop offset="1" stop-color="#017BAE"/>
</linearGradient>
<linearGradient id="paint9_linear_229_5335" x1="7.59848" y1="15.3438" x2="5.42047" y2="15.0171" gradientUnits="userSpaceOnUse">
<stop stop-color="#017BAE" stop-opacity="0"/>
<stop offset="0.1466" stop-color="#017BAE" stop-opacity="0.024"/>
<stop offset="0.2986" stop-color="#017BAE" stop-opacity="0.095"/>
<stop offset="0.4531" stop-color="#017BAE" stop-opacity="0.215"/>
<stop offset="0.6093" stop-color="#017BAE" stop-opacity="0.382"/>
<stop offset="0.7669" stop-color="#017BAE" stop-opacity="0.597"/>
<stop offset="0.9233" stop-color="#017BAE" stop-opacity="0.856"/>
<stop offset="1" stop-color="#017BAE"/>
</linearGradient>
<linearGradient id="paint10_linear_229_5335" x1="7.35387" y1="15.898" x2="3.11879" y2="13.6473" gradientUnits="userSpaceOnUse">
<stop stop-color="white" stop-opacity="0"/>
<stop offset="0.1205" stop-color="white" stop-opacity="0.016"/>
<stop offset="0.2454" stop-color="white" stop-opacity="0.065"/>
<stop offset="0.3724" stop-color="white" stop-opacity="0.147"/>
<stop offset="0.5008" stop-color="white" stop-opacity="0.261"/>
<stop offset="0.6304" stop-color="white" stop-opacity="0.408"/>
<stop offset="0.761" stop-color="white" stop-opacity="0.588"/>
<stop offset="0.8898" stop-color="white" stop-opacity="0.797"/>
<stop offset="1" stop-color="white"/>
</linearGradient>
<linearGradient id="paint11_linear_229_5335" x1="10" y1="18.396" x2="10" y2="20.5745" gradientUnits="userSpaceOnUse">
<stop stop-color="#EA9B58"/>
<stop offset="0.2058" stop-color="#E59755"/>
<stop offset="0.4191" stop-color="#D98C4E"/>
<stop offset="0.6358" stop-color="#C47A42"/>
<stop offset="0.8535" stop-color="#A76131"/>
<stop offset="1" stop-color="#904D24"/>
</linearGradient>
<linearGradient id="paint12_linear_229_5335" x1="16.2577" y1="19.2978" x2="16.0906" y2="17.9473" gradientUnits="userSpaceOnUse">
<stop stop-color="#6D3326" stop-opacity="0"/>
<stop offset="0.1865" stop-color="#6D3326" stop-opacity="0.038"/>
<stop offset="0.3798" stop-color="#6D3326" stop-opacity="0.152"/>
<stop offset="0.5761" stop-color="#6D3326" stop-opacity="0.343"/>
<stop offset="0.7747" stop-color="#6D3326" stop-opacity="0.609"/>
<stop offset="0.9732" stop-color="#6D3326" stop-opacity="0.949"/>
<stop offset="1" stop-color="#6D3326"/>
</linearGradient>
<linearGradient id="paint13_linear_229_5335" x1="14.7517" y1="20.0436" x2="12.886" y2="20.8789" gradientUnits="userSpaceOnUse">
<stop stop-color="#6D3326" stop-opacity="0"/>
<stop offset="0.1865" stop-color="#6D3326" stop-opacity="0.038"/>
<stop offset="0.3798" stop-color="#6D3326" stop-opacity="0.152"/>
<stop offset="0.5761" stop-color="#6D3326" stop-opacity="0.343"/>
<stop offset="0.7747" stop-color="#6D3326" stop-opacity="0.609"/>
<stop offset="0.9732" stop-color="#6D3326" stop-opacity="0.949"/>
<stop offset="1" stop-color="#6D3326"/>
</linearGradient>
<linearGradient id="paint14_linear_229_5335" x1="18.6637" y1="19.3956" x2="20.1405" y2="19.3956" gradientUnits="userSpaceOnUse">
<stop stop-color="#6D3326" stop-opacity="0"/>
<stop offset="0.1865" stop-color="#6D3326" stop-opacity="0.038"/>
<stop offset="0.3798" stop-color="#6D3326" stop-opacity="0.152"/>
<stop offset="0.5761" stop-color="#6D3326" stop-opacity="0.343"/>
<stop offset="0.7747" stop-color="#6D3326" stop-opacity="0.609"/>
<stop offset="0.9732" stop-color="#6D3326" stop-opacity="0.949"/>
<stop offset="1" stop-color="#6D3326"/>
</linearGradient>
<linearGradient id="paint15_linear_229_5335" x1="18.606" y1="20.3466" x2="17.7497" y2="19.9358" gradientUnits="userSpaceOnUse">
<stop stop-color="#6D3326" stop-opacity="0"/>
<stop offset="0.1865" stop-color="#6D3326" stop-opacity="0.038"/>
<stop offset="0.3798" stop-color="#6D3326" stop-opacity="0.152"/>
<stop offset="0.5761" stop-color="#6D3326" stop-opacity="0.343"/>
<stop offset="0.7747" stop-color="#6D3326" stop-opacity="0.609"/>
<stop offset="0.9732" stop-color="#6D3326" stop-opacity="0.949"/>
<stop offset="1" stop-color="#6D3326"/>
</linearGradient>
<linearGradient id="paint16_linear_229_5335" x1="5.53453" y1="5.86625" x2="6.45512" y2="5.86625" gradientUnits="userSpaceOnUse">
<stop stop-color="#465A61"/>
<stop offset="0.3685" stop-color="#45565C"/>
<stop offset="0.7497" stop-color="#444D50"/>
<stop offset="1" stop-color="#444444"/>
</linearGradient>
<linearGradient id="paint17_linear_229_5335" x1="13.1567" y1="5.86625" x2="14.0773" y2="5.86625" gradientUnits="userSpaceOnUse">
<stop stop-color="#465A61"/>
<stop offset="0.3685" stop-color="#45565C"/>
<stop offset="0.7497" stop-color="#444D50"/>
<stop offset="1" stop-color="#444444"/>
</linearGradient>
<linearGradient id="paint18_linear_229_5335" x1="10" y1="6.39254" x2="10" y2="8.57098" gradientUnits="userSpaceOnUse">
<stop stop-color="#FE860A"/>
<stop offset="0.3561" stop-color="#FC8108"/>
<stop offset="0.7245" stop-color="#F87504"/>
<stop offset="1" stop-color="#F46700"/>
</linearGradient>
<linearGradient id="paint19_linear_229_5335" x1="18.6637" y1="7.39215" x2="20.1405" y2="7.39215" gradientUnits="userSpaceOnUse">
<stop stop-color="#F46700" stop-opacity="0"/>
<stop offset="0.1276" stop-color="#F36500" stop-opacity="0.018"/>
<stop offset="0.2599" stop-color="#F26103" stop-opacity="0.073"/>
<stop offset="0.3944" stop-color="#F15B07" stop-opacity="0.164"/>
<stop offset="0.5304" stop-color="#EF520D" stop-opacity="0.292"/>
<stop offset="0.6676" stop-color="#EC4614" stop-opacity="0.456"/>
<stop offset="0.8059" stop-color="#E9371D" stop-opacity="0.657"/>
<stop offset="0.9424" stop-color="#E52628" stop-opacity="0.891"/>
<stop offset="1" stop-color="#E41F2D"/>
</linearGradient>
<linearGradient id="paint20_linear_229_5335" x1="15.7291" y1="20.5847" x2="15.7291" y2="19.6926" gradientUnits="userSpaceOnUse">
<stop stop-color="#6D3326" stop-opacity="0"/>
<stop offset="0.1865" stop-color="#6D3326" stop-opacity="0.038"/>
<stop offset="0.3798" stop-color="#6D3326" stop-opacity="0.152"/>
<stop offset="0.5761" stop-color="#6D3326" stop-opacity="0.343"/>
<stop offset="0.7747" stop-color="#6D3326" stop-opacity="0.609"/>
<stop offset="0.9732" stop-color="#6D3326" stop-opacity="0.949"/>
<stop offset="1" stop-color="#6D3326"/>
</linearGradient>
<linearGradient id="paint21_linear_229_5335" x1="9.65547" y1="0.414492" x2="10.4909" y2="6.65211" gradientUnits="userSpaceOnUse">
<stop stop-color="#FE646F"/>
<stop offset="0.2159" stop-color="#F9606C"/>
<stop offset="0.4396" stop-color="#ED5763"/>
<stop offset="0.6669" stop-color="#D84755"/>
<stop offset="0.8953" stop-color="#BB3142"/>
<stop offset="1" stop-color="#AC2638"/>
</linearGradient>
<linearGradient id="paint22_linear_229_5335" x1="10" y1="4.54508" x2="10" y2="5.65895" gradientUnits="userSpaceOnUse">
<stop stop-color="#972437" stop-opacity="0"/>
<stop offset="0.1577" stop-color="#972437" stop-opacity="0.028"/>
<stop offset="0.3212" stop-color="#972437" stop-opacity="0.11"/>
<stop offset="0.4873" stop-color="#972437" stop-opacity="0.247"/>
<stop offset="0.6553" stop-color="#972437" stop-opacity="0.44"/>
<stop offset="0.8247" stop-color="#972437" stop-opacity="0.688"/>
<stop offset="0.9932" stop-color="#972437" stop-opacity="0.987"/>
<stop offset="1" stop-color="#972437"/>
</linearGradient>
<linearGradient id="paint23_linear_229_5335" x1="14.7374" y1="2.98691" x2="16.641" y2="2.98691" gradientUnits="userSpaceOnUse">
<stop stop-color="#972437" stop-opacity="0"/>
<stop offset="0.1577" stop-color="#972437" stop-opacity="0.028"/>
<stop offset="0.3212" stop-color="#972437" stop-opacity="0.11"/>
<stop offset="0.4873" stop-color="#972437" stop-opacity="0.247"/>
<stop offset="0.6553" stop-color="#972437" stop-opacity="0.44"/>
<stop offset="0.8247" stop-color="#972437" stop-opacity="0.688"/>
<stop offset="0.9932" stop-color="#972437" stop-opacity="0.987"/>
<stop offset="1" stop-color="#972437"/>
</linearGradient>
<linearGradient id="paint24_linear_229_5335" x1="5.48699" y1="0.686602" x2="5.48699" y2="4.60102" gradientUnits="userSpaceOnUse">
<stop stop-color="#FEF48B"/>
<stop offset="0.1646" stop-color="#FDF286"/>
<stop offset="0.3352" stop-color="#FDEE7A"/>
<stop offset="0.5086" stop-color="#FCE765"/>
<stop offset="0.6839" stop-color="#FCDE48"/>
<stop offset="0.8589" stop-color="#FBD123"/>
<stop offset="1" stop-color="#FAC600"/>
</linearGradient>
<linearGradient id="paint25_linear_229_5335" x1="7.65508" y1="0.686602" x2="7.65508" y2="4.60102" gradientUnits="userSpaceOnUse">
<stop stop-color="#FEF48B"/>
<stop offset="0.1646" stop-color="#FDF286"/>
<stop offset="0.3352" stop-color="#FDEE7A"/>
<stop offset="0.5086" stop-color="#FCE765"/>
<stop offset="0.6839" stop-color="#FCDE48"/>
<stop offset="0.8589" stop-color="#FBD123"/>
<stop offset="1" stop-color="#FAC600"/>
</linearGradient>
<linearGradient id="paint26_linear_229_5335" x1="9.87141" y1="0.686602" x2="9.87141" y2="4.60102" gradientUnits="userSpaceOnUse">
<stop stop-color="#FEF48B"/>
<stop offset="0.1646" stop-color="#FDF286"/>
<stop offset="0.3352" stop-color="#FDEE7A"/>
<stop offset="0.5086" stop-color="#FCE765"/>
<stop offset="0.6839" stop-color="#FCDE48"/>
<stop offset="0.8589" stop-color="#FBD123"/>
<stop offset="1" stop-color="#FAC600"/>
</linearGradient>
<linearGradient id="paint27_linear_229_5335" x1="12.2786" y1="0.686602" x2="12.2786" y2="4.60102" gradientUnits="userSpaceOnUse">
<stop stop-color="#FEF48B"/>
<stop offset="0.1646" stop-color="#FDF286"/>
<stop offset="0.3352" stop-color="#FDEE7A"/>
<stop offset="0.5086" stop-color="#FCE765"/>
<stop offset="0.6839" stop-color="#FCDE48"/>
<stop offset="0.8589" stop-color="#FBD123"/>
<stop offset="1" stop-color="#FAC600"/>
</linearGradient>
<linearGradient id="paint28_linear_229_5335" x1="14.5532" y1="0.686602" x2="14.5532" y2="4.60102" gradientUnits="userSpaceOnUse">
<stop stop-color="#FEF48B"/>
<stop offset="0.1646" stop-color="#FDF286"/>
<stop offset="0.3352" stop-color="#FDEE7A"/>
<stop offset="0.5086" stop-color="#FCE765"/>
<stop offset="0.6839" stop-color="#FCDE48"/>
<stop offset="0.8589" stop-color="#FBD123"/>
<stop offset="1" stop-color="#FAC600"/>
</linearGradient>
<linearGradient id="paint29_linear_229_5335" x1="12.9737" y1="13.4125" x2="12.2881" y2="13.9839" gradientUnits="userSpaceOnUse">
<stop stop-color="#E5E1E5"/>
<stop offset="0.198" stop-color="#E1DCE1"/>
<stop offset="0.4032" stop-color="#D5D0D5"/>
<stop offset="0.6118" stop-color="#C2BBC1"/>
<stop offset="0.8212" stop-color="#A79EA6"/>
<stop offset="1" stop-color="#8B8089"/>
</linearGradient>
<linearGradient id="paint30_linear_229_5335" x1="12.0718" y1="13.1039" x2="11.5993" y2="12.9893" gradientUnits="userSpaceOnUse">
<stop stop-color="#444444" stop-opacity="0"/>
<stop offset="0.2378" stop-color="#444444" stop-opacity="0.061"/>
<stop offset="0.4841" stop-color="#444444" stop-opacity="0.244"/>
<stop offset="0.7343" stop-color="#444444" stop-opacity="0.549"/>
<stop offset="0.9859" stop-color="#444444" stop-opacity="0.973"/>
<stop offset="1" stop-color="#444444"/>
</linearGradient>
<linearGradient id="paint31_linear_229_5335" x1="14.6388" y1="17.1387" x2="15.0476" y2="20.1368" gradientUnits="userSpaceOnUse">
<stop stop-color="#E5E1E5"/>
<stop offset="0.198" stop-color="#E1DCE1"/>
<stop offset="0.4032" stop-color="#D5D0D5"/>
<stop offset="0.6118" stop-color="#C2BBC1"/>
<stop offset="0.8212" stop-color="#A79EA6"/>
<stop offset="1" stop-color="#8B8089"/>
</linearGradient>
<linearGradient id="paint32_linear_229_5335" x1="14.9257" y1="19.3991" x2="14.9257" y2="19.8573" gradientUnits="userSpaceOnUse">
<stop stop-color="#444444" stop-opacity="0"/>
<stop offset="0.2378" stop-color="#444444" stop-opacity="0.061"/>
<stop offset="0.4841" stop-color="#444444" stop-opacity="0.244"/>
<stop offset="0.7343" stop-color="#444444" stop-opacity="0.549"/>
<stop offset="0.9859" stop-color="#444444" stop-opacity="0.973"/>
<stop offset="1" stop-color="#444444"/>
</linearGradient>
<linearGradient id="paint33_linear_229_5335" x1="15.1793" y1="19.4929" x2="14.6566" y2="19.7506" gradientUnits="userSpaceOnUse">
<stop stop-color="#444444" stop-opacity="0"/>
<stop offset="0.2378" stop-color="#444444" stop-opacity="0.061"/>
<stop offset="0.4841" stop-color="#444444" stop-opacity="0.244"/>
<stop offset="0.7343" stop-color="#444444" stop-opacity="0.549"/>
<stop offset="0.9859" stop-color="#444444" stop-opacity="0.973"/>
<stop offset="1" stop-color="#444444"/>
</linearGradient>
<linearGradient id="paint34_linear_229_5335" x1="13.5643" y1="19.3098" x2="14.3736" y2="20.1191" gradientUnits="userSpaceOnUse">
<stop stop-color="#465A61"/>
<stop offset="0.3685" stop-color="#45565C"/>
<stop offset="0.7497" stop-color="#444D50"/>
<stop offset="1" stop-color="#444444"/>
</linearGradient>
<linearGradient id="paint35_linear_229_5335" x1="14.0431" y1="19.836" x2="14.0431" y2="20.5735" gradientUnits="userSpaceOnUse">
<stop stop-color="#444444" stop-opacity="0"/>
<stop offset="0.3899" stop-color="#3D3D3D" stop-opacity="0.16"/>
<stop offset="0.7931" stop-color="#292929" stop-opacity="0.637"/>
<stop offset="1" stop-color="#1A1A1A"/>
</linearGradient>
<linearGradient id="paint36_linear_229_5335" x1="13.9545" y1="19.7886" x2="14.9413" y2="19.7886" gradientUnits="userSpaceOnUse">
<stop stop-color="#444444" stop-opacity="0"/>
<stop offset="0.3899" stop-color="#3D3D3D" stop-opacity="0.16"/>
<stop offset="0.7931" stop-color="#292929" stop-opacity="0.637"/>
<stop offset="1" stop-color="#1A1A1A"/>
</linearGradient>
<linearGradient id="paint37_linear_229_5335" x1="14.3125" y1="20.058" x2="13.7791" y2="19.5246" gradientUnits="userSpaceOnUse">
<stop stop-color="#465A61"/>
<stop offset="0.3685" stop-color="#45565C"/>
<stop offset="0.7497" stop-color="#444D50"/>
<stop offset="1" stop-color="#444444"/>
</linearGradient>
<linearGradient id="paint38_linear_229_5335" x1="16.9364" y1="19.3098" x2="17.7457" y2="20.1191" gradientUnits="userSpaceOnUse">
<stop stop-color="#465A61"/>
<stop offset="0.3685" stop-color="#45565C"/>
<stop offset="0.7497" stop-color="#444D50"/>
<stop offset="1" stop-color="#444444"/>
</linearGradient>
<linearGradient id="paint39_linear_229_5335" x1="17.4152" y1="19.836" x2="17.4152" y2="20.5735" gradientUnits="userSpaceOnUse">
<stop stop-color="#444444" stop-opacity="0"/>
<stop offset="0.3899" stop-color="#3D3D3D" stop-opacity="0.16"/>
<stop offset="0.7931" stop-color="#292929" stop-opacity="0.637"/>
<stop offset="1" stop-color="#1A1A1A"/>
</linearGradient>
<linearGradient id="paint40_linear_229_5335" x1="17.3266" y1="19.7886" x2="18.3133" y2="19.7886" gradientUnits="userSpaceOnUse">
<stop stop-color="#444444" stop-opacity="0"/>
<stop offset="0.3899" stop-color="#3D3D3D" stop-opacity="0.16"/>
<stop offset="0.7931" stop-color="#292929" stop-opacity="0.637"/>
<stop offset="1" stop-color="#1A1A1A"/>
</linearGradient>
<linearGradient id="paint41_linear_229_5335" x1="17.6846" y1="20.058" x2="17.1512" y2="19.5246" gradientUnits="userSpaceOnUse">
<stop stop-color="#465A61"/>
<stop offset="0.3685" stop-color="#45565C"/>
<stop offset="0.7497" stop-color="#444D50"/>
<stop offset="1" stop-color="#444444"/>
</linearGradient>
<linearGradient id="paint42_linear_229_5335" x1="11.019" y1="12.5071" x2="11.019" y2="13.3188" gradientUnits="userSpaceOnUse">
<stop stop-color="#465A61"/>
<stop offset="0.3685" stop-color="#45565C"/>
<stop offset="0.7497" stop-color="#444D50"/>
<stop offset="1" stop-color="#444444"/>
</linearGradient>
<linearGradient id="paint43_linear_229_5335" x1="11.019" y1="13.3758" x2="11.019" y2="13.1324" gradientUnits="userSpaceOnUse">
<stop stop-color="#465A61"/>
<stop offset="0.3685" stop-color="#45565C"/>
<stop offset="0.7497" stop-color="#444D50"/>
<stop offset="1" stop-color="#444444"/>
</linearGradient>
<linearGradient id="paint44_linear_229_5335" x1="11.2624" y1="12.9037" x2="11.9439" y2="12.9037" gradientUnits="userSpaceOnUse">
<stop stop-color="#444444" stop-opacity="0"/>
<stop offset="0.3899" stop-color="#3D3D3D" stop-opacity="0.16"/>
<stop offset="0.7931" stop-color="#292929" stop-opacity="0.637"/>
<stop offset="1" stop-color="#1A1A1A"/>
</linearGradient>
<linearGradient id="paint45_linear_229_5335" x1="15.152" y1="16.2651" x2="14.697" y2="15.3657" gradientUnits="userSpaceOnUse">
<stop stop-color="#9857BD"/>
<stop offset="0.192" stop-color="#9356BD"/>
<stop offset="0.391" stop-color="#8755BE"/>
<stop offset="0.5932" stop-color="#7253C1"/>
<stop offset="0.7966" stop-color="#5550C4"/>
<stop offset="1" stop-color="#314DC9"/>
</linearGradient>
<linearGradient id="paint46_linear_229_5335" x1="14.6091" y1="16.7884" x2="12.9829" y2="16.6577" gradientUnits="userSpaceOnUse">
<stop stop-color="#9857BD"/>
<stop offset="0.192" stop-color="#9356BD"/>
<stop offset="0.391" stop-color="#8755BE"/>
<stop offset="0.5932" stop-color="#7253C1"/>
<stop offset="0.7966" stop-color="#5550C4"/>
<stop offset="1" stop-color="#314DC9"/>
</linearGradient>
<linearGradient id="paint47_linear_229_5335" x1="15.2922" y1="18.4049" x2="14.7954" y2="17.4375" gradientUnits="userSpaceOnUse">
<stop stop-color="#9857BD"/>
<stop offset="0.192" stop-color="#9356BD"/>
<stop offset="0.391" stop-color="#8755BE"/>
<stop offset="0.5932" stop-color="#7253C1"/>
<stop offset="0.7966" stop-color="#5550C4"/>
<stop offset="1" stop-color="#314DC9"/>
</linearGradient>
<linearGradient id="paint48_linear_229_5335" x1="16.263" y1="18.1522" x2="16.0852" y2="17.462" gradientUnits="userSpaceOnUse">
<stop stop-color="#9857BD"/>
<stop offset="0.192" stop-color="#9356BD"/>
<stop offset="0.391" stop-color="#8755BE"/>
<stop offset="0.5932" stop-color="#7253C1"/>
<stop offset="0.7966" stop-color="#5550C4"/>
<stop offset="1" stop-color="#314DC9"/>
</linearGradient>
<linearGradient id="paint49_linear_229_5335" x1="17.942" y1="16.8477" x2="16.8021" y2="16.5915" gradientUnits="userSpaceOnUse">
<stop stop-color="#9857BD"/>
<stop offset="0.192" stop-color="#9356BD"/>
<stop offset="0.391" stop-color="#8755BE"/>
<stop offset="0.5932" stop-color="#7253C1"/>
<stop offset="0.7966" stop-color="#5550C4"/>
<stop offset="1" stop-color="#314DC9"/>
</linearGradient>
<linearGradient id="paint50_linear_229_5335" x1="16.4666" y1="16.3222" x2="16.0116" y2="15.3287" gradientUnits="userSpaceOnUse">
<stop stop-color="#9857BD"/>
<stop offset="0.192" stop-color="#9356BD"/>
<stop offset="0.391" stop-color="#8755BE"/>
<stop offset="0.5932" stop-color="#7253C1"/>
<stop offset="0.7966" stop-color="#5550C4"/>
<stop offset="1" stop-color="#314DC9"/>
</linearGradient>
<linearGradient id="paint51_linear_229_5335" x1="12.699" y1="10.9254" x2="18.9642" y2="22.4117" gradientUnits="userSpaceOnUse">
<stop stop-color="#9857BD"/>
<stop offset="0.192" stop-color="#9356BD"/>
<stop offset="0.391" stop-color="#8755BE"/>
<stop offset="0.5932" stop-color="#7253C1"/>
<stop offset="0.7966" stop-color="#5550C4"/>
<stop offset="1" stop-color="#314DC9"/>
</linearGradient>
<linearGradient id="paint52_linear_229_5335" x1="15.5389" y1="17.8515" x2="15.5389" y2="18.5229" gradientUnits="userSpaceOnUse">
<stop stop-color="#814AA0" stop-opacity="0"/>
<stop offset="0.1738" stop-color="#7D489E" stop-opacity="0.033"/>
<stop offset="0.354" stop-color="#73459B" stop-opacity="0.133"/>
<stop offset="0.537" stop-color="#614095" stop-opacity="0.299"/>
<stop offset="0.7221" stop-color="#49398D" stop-opacity="0.531"/>
<stop offset="0.907" stop-color="#2A2F83" stop-opacity="0.827"/>
<stop offset="1" stop-color="#192A7D"/>
</linearGradient>
<linearGradient id="paint53_linear_229_5335" x1="17.5996" y1="16.689" x2="18.2166" y2="16.7936" gradientUnits="userSpaceOnUse">
<stop stop-color="#814AA0" stop-opacity="0"/>
<stop offset="0.1738" stop-color="#7D489E" stop-opacity="0.033"/>
<stop offset="0.354" stop-color="#73459B" stop-opacity="0.133"/>
<stop offset="0.537" stop-color="#614095" stop-opacity="0.299"/>
<stop offset="0.7221" stop-color="#49398D" stop-opacity="0.531"/>
<stop offset="0.907" stop-color="#2A2F83" stop-opacity="0.827"/>
<stop offset="1" stop-color="#192A7D"/>
</linearGradient>
<linearGradient id="paint54_linear_229_5335" x1="15.5389" y1="15.5612" x2="15.5389" y2="15.0587" gradientUnits="userSpaceOnUse">
<stop stop-color="#814AA0" stop-opacity="0"/>
<stop offset="0.1738" stop-color="#7D489E" stop-opacity="0.033"/>
<stop offset="0.354" stop-color="#73459B" stop-opacity="0.133"/>
<stop offset="0.537" stop-color="#614095" stop-opacity="0.299"/>
<stop offset="0.7221" stop-color="#49398D" stop-opacity="0.531"/>
<stop offset="0.907" stop-color="#2A2F83" stop-opacity="0.827"/>
<stop offset="1" stop-color="#192A7D"/>
</linearGradient>
<linearGradient id="paint55_linear_229_5335" x1="16.1871" y1="18.0087" x2="14.9321" y2="15.415" gradientUnits="userSpaceOnUse">
<stop stop-color="#9857BD"/>
<stop offset="0.192" stop-color="#9356BD"/>
<stop offset="0.391" stop-color="#8755BE"/>
<stop offset="0.5932" stop-color="#7253C1"/>
<stop offset="0.7966" stop-color="#5550C4"/>
<stop offset="1" stop-color="#314DC9"/>
</linearGradient>
<linearGradient id="paint56_linear_229_5335" x1="15.5389" y1="14.1807" x2="15.5389" y2="15.216" gradientUnits="userSpaceOnUse">
<stop stop-color="#9857BD"/>
<stop offset="0.192" stop-color="#9356BD"/>
<stop offset="0.391" stop-color="#8755BE"/>
<stop offset="0.5932" stop-color="#7253C1"/>
<stop offset="0.7966" stop-color="#5550C4"/>
<stop offset="1" stop-color="#314DC9"/>
</linearGradient>
<linearGradient id="paint57_linear_229_5335" x1="18.4017" y1="14.6746" x2="18.9726" y2="14.6746" gradientUnits="userSpaceOnUse">
<stop stop-color="#814AA0" stop-opacity="0"/>
<stop offset="0.1738" stop-color="#7D489E" stop-opacity="0.033"/>
<stop offset="0.354" stop-color="#73459B" stop-opacity="0.133"/>
<stop offset="0.537" stop-color="#614095" stop-opacity="0.299"/>
<stop offset="0.7221" stop-color="#49398D" stop-opacity="0.531"/>
<stop offset="0.907" stop-color="#2A2F83" stop-opacity="0.827"/>
<stop offset="1" stop-color="#192A7D"/>
</linearGradient>
<clipPath id="clip0_229_5335">
<rect width="20" height="20" fill="white" transform="translate(0 0.5)"/>
</clipPath>
</defs>
</svg>
