<svg width="20" height="21" viewBox="0 0 20 21" fill="none" xmlns="http://www.w3.org/2000/svg">
<g clip-path="url(#clip0_229_4928)">
<path d="M9.99994 20.4993C11.5651 20.4993 12.8339 19.8047 12.8339 18.9479C12.8339 18.0911 11.5651 17.3965 9.99994 17.3965C8.43481 17.3965 7.16602 18.0911 7.16602 18.9479C7.16602 19.8047 8.43481 20.4993 9.99994 20.4993Z" fill="url(#paint0_linear_229_4928)"/>
<path d="M12.8342 18.9479C12.8342 18.0911 11.5654 17.3965 10.0003 17.3965C9.71238 17.3965 9.43462 17.4202 9.17285 17.4639V19.2168L10.437 20.481C11.7948 20.3659 12.8342 19.7234 12.8342 18.9479Z" fill="url(#paint1_linear_229_4928)"/>
<path d="M8.77782 18.8551L4.4197 12.2519C1.48586 7.80662 4.67382 1.88281 9.99998 1.88281H10C15.3261 1.88281 18.5141 7.80662 15.5803 12.2519L11.2222 18.8551C10.6434 19.732 9.35661 19.732 8.77782 18.8551Z" fill="url(#paint2_linear_229_4928)"/>
<path d="M4.41992 12.2518L8.77804 18.855C9.35686 19.732 10.6436 19.732 11.2224 18.855L15.5805 12.2518C16.5139 10.8376 16.8268 9.27397 16.6493 7.79883H3.35118C3.17361 9.27397 3.48655 10.8377 4.41992 12.2518Z" fill="url(#paint3_linear_229_4928)"/>
<path d="M9.99971 14.4603C13.2442 14.4603 15.8744 11.8302 15.8744 8.58564C15.8744 5.34113 13.2442 2.71094 9.99971 2.71094C6.75519 2.71094 4.125 5.34113 4.125 8.58564C4.125 11.8302 6.75519 14.4603 9.99971 14.4603Z" fill="url(#paint4_linear_229_4928)"/>
<path d="M9.4901 1.90039C9.13014 1.92647 8.78112 1.97984 8.44434 2.05823V3.96302H9.4901V1.90039Z" fill="url(#paint5_linear_229_4928)"/>
<path d="M6.91504 2.62345V4.02913H7.9608V2.19141C7.59516 2.30647 7.24594 2.45164 6.91504 2.62345Z" fill="url(#paint6_linear_229_4928)"/>
<path d="M15.5803 12.2518L12.4054 17.062L7.5293 12.186L8.27439 7.20556V4.44752H9.85596V1.88438C9.90381 1.8832 9.95165 1.88281 9.99989 1.88281C15.3262 1.88281 18.514 7.80634 15.5803 12.2518Z" fill="url(#paint7_linear_229_4928)"/>
<path d="M15.5805 12.2521C18.2682 8.17975 15.818 2.86669 11.293 2.00391L11.1113 12.2256L13.8142 14.9284L15.5805 12.2521Z" fill="url(#paint8_linear_229_4928)"/>
<path d="M9.9997 13.5502C12.7415 13.5502 14.9643 11.3275 14.9643 8.58564C14.9643 5.8438 12.7415 3.62109 9.9997 3.62109C7.25786 3.62109 5.03516 5.8438 5.03516 8.58564C5.03516 11.3275 7.25786 13.5502 9.9997 13.5502Z" fill="url(#paint9_linear_229_4928)"/>
<path d="M9.99989 3.62109C9.95173 3.62109 9.90381 3.62196 9.85596 3.62333V4.44839H8.27439V7.20639L7.5293 12.1868L8.72792 13.3854C9.13392 13.4927 9.56016 13.5502 9.99989 13.5502C12.7417 13.5502 14.9644 11.3274 14.9644 8.5856C14.9644 5.84376 12.7417 3.62109 9.99989 3.62109Z" fill="url(#paint10_linear_229_4928)"/>
<path d="M11.2614 3.7832L11.1113 12.2263L12.0111 13.126C13.751 12.3543 14.9648 10.6119 14.9648 8.58591C14.9647 6.27991 13.3924 4.34132 11.2614 3.7832Z" fill="url(#paint11_linear_229_4928)"/>
<path d="M9.77258 0.500078C9.51909 0.504706 9.32078 0.722196 9.32078 0.975686V3.29737C9.32078 3.46706 9.18999 3.61522 9.01988 3.62059C8.84399 3.62557 8.69995 3.48482 8.69995 3.3102V0.960392C8.69995 0.706157 8.49384 0.5 8.23952 0.5H8.22917C7.97489 0.5 7.76874 0.706157 7.76874 0.960431V3.29737C7.76874 3.46706 7.63756 3.61522 7.46784 3.62059C7.29195 3.62557 7.14791 3.48482 7.14791 3.3102V0.975686C7.14791 0.722157 6.94956 0.504706 6.69611 0.500078C6.43787 0.495373 6.22705 0.703294 6.22705 0.960431V4.96976C6.22705 5.51835 6.67176 5.96306 7.22035 5.96306C7.43537 5.96306 7.60364 6.14827 7.58305 6.36231L7.11736 11.2037C7.05387 11.8637 7.56101 12.4549 8.22407 12.4607C8.89258 12.4667 9.4176 11.8925 9.35372 11.2286L8.88564 6.36231C8.86505 6.14827 9.03333 5.96306 9.24835 5.96306C9.79693 5.96306 10.2416 5.51835 10.2416 4.96976V0.960431C10.2416 0.703294 10.0308 0.495373 9.77258 0.500078Z" fill="url(#paint12_linear_229_4928)"/>
<path d="M9.77258 0.500078C9.51909 0.504706 9.32078 0.722196 9.32078 0.975686V3.29737C9.32078 3.46706 9.18999 3.61522 9.01991 3.62059C8.84403 3.62557 8.69999 3.48486 8.69999 3.3102V0.960392C8.69995 0.706157 8.49384 0.5 8.23952 0.5H8.22917C7.97489 0.5 7.76874 0.706157 7.76874 0.960431V3.29737C7.76874 3.46706 7.63756 3.61522 7.46784 3.62059C7.29195 3.62557 7.14791 3.48486 7.14791 3.3102V0.975686C7.14791 0.722157 6.9496 0.504706 6.69611 0.500078C6.43787 0.495373 6.22705 0.703294 6.22705 0.960431V4.96977C6.22705 5.51835 6.67176 5.96306 7.22035 5.96306C7.43537 5.96306 7.60364 6.14828 7.58305 6.36231L7.50066 7.21894H8.96803L8.88564 6.36231C8.86505 6.14828 9.03333 5.96306 9.24835 5.96306C9.79693 5.96306 10.2416 5.51835 10.2416 4.96977V0.960431C10.2416 0.703294 10.0308 0.495373 9.77258 0.500078Z" fill="url(#paint13_linear_229_4928)"/>
<path d="M8.23406 11.6186C7.95214 11.6186 7.72363 11.39 7.72363 11.1081V10.6667C7.72363 10.3848 7.95218 10.1562 8.23406 10.1562C8.51599 10.1562 8.7445 10.3848 8.7445 10.6667V11.1081C8.7445 11.39 8.51595 11.6186 8.23406 11.6186Z" fill="url(#paint14_linear_229_4928)"/>
<path d="M11.766 0.5C10.6575 0.5 9.75879 1.39867 9.75879 2.50726V3.9558C9.75879 4.76388 10.2363 5.46027 10.9246 5.77851C11.0655 5.84369 11.1506 5.98988 11.1357 6.14443L10.6491 11.2037C10.5856 11.8637 11.0927 12.4549 11.7558 12.4607C12.4243 12.4667 12.9493 11.8925 12.8854 11.2286L12.3964 6.14447C12.3815 5.98992 12.4666 5.84369 12.6075 5.77855C13.2958 5.46031 13.7733 4.76392 13.7733 3.95584V2.50726C13.7733 1.39867 12.8746 0.5 11.766 0.5Z" fill="url(#paint15_linear_229_4928)"/>
<path d="M11.7661 5.08003C11.0159 5.08003 10.4077 4.47183 10.4077 3.7216V2.74124C10.4077 1.99101 11.0159 1.38281 11.7661 1.38281C12.5164 1.38281 13.1246 1.99101 13.1246 2.74124V3.72156C13.1246 4.47183 12.5164 5.08003 11.7661 5.08003Z" fill="url(#paint16_linear_229_4928)"/>
<path d="M11.7663 11.6186C11.4844 11.6186 11.2559 11.39 11.2559 11.1081V10.6667C11.2559 10.3848 11.4844 10.1562 11.7663 10.1562C12.0482 10.1562 12.2767 10.3848 12.2767 10.6667V11.1081C12.2767 11.39 12.0482 11.6186 11.7663 11.6186Z" fill="url(#paint17_linear_229_4928)"/>
</g>
<defs>
<linearGradient id="paint0_linear_229_4928" x1="9.14151" y1="18.0894" x2="11.9413" y2="20.8893" gradientUnits="userSpaceOnUse">
<stop stop-color="#BBEC6C"/>
<stop offset="1" stop-color="#81B823"/>
</linearGradient>
<linearGradient id="paint1_linear_229_4928" x1="12.2284" y1="20.3702" x2="9.9116" y2="17.6122" gradientUnits="userSpaceOnUse">
<stop stop-color="#78A91F" stop-opacity="0"/>
<stop offset="1" stop-color="#026841"/>
</linearGradient>
<linearGradient id="paint2_linear_229_4928" x1="5.76402" y1="5.37705" x2="13.9268" y2="13.5398" gradientUnits="userSpaceOnUse">
<stop stop-color="#FD4755"/>
<stop offset="1" stop-color="#A72B2B"/>
</linearGradient>
<linearGradient id="paint3_linear_229_4928" x1="10.0002" y1="15.1491" x2="10.0002" y2="19.3866" gradientUnits="userSpaceOnUse">
<stop stop-color="#A72B2B" stop-opacity="0"/>
<stop offset="1" stop-color="#42210B"/>
</linearGradient>
<linearGradient id="paint4_linear_229_4928" x1="15.3019" y1="13.8878" x2="3.01861" y2="1.60455" gradientUnits="userSpaceOnUse">
<stop stop-color="#FD4755"/>
<stop offset="1" stop-color="#A72B2B"/>
</linearGradient>
<linearGradient id="paint5_linear_229_4928" x1="9.47704" y1="2.93168" x2="8.57508" y2="2.93168" gradientUnits="userSpaceOnUse">
<stop stop-color="#A72B2B" stop-opacity="0"/>
<stop offset="1" stop-color="#42210B"/>
</linearGradient>
<linearGradient id="paint6_linear_229_4928" x1="7.88233" y1="3.11027" x2="7.08496" y2="3.11027" gradientUnits="userSpaceOnUse">
<stop stop-color="#A72B2B" stop-opacity="0"/>
<stop offset="1" stop-color="#42210B"/>
</linearGradient>
<linearGradient id="paint7_linear_229_4928" x1="13.9627" y1="10.3308" x2="9.20451" y2="8.37003" gradientUnits="userSpaceOnUse">
<stop stop-color="#A72B2B" stop-opacity="0"/>
<stop offset="1" stop-color="#42210B"/>
</linearGradient>
<linearGradient id="paint8_linear_229_4928" x1="14.725" y1="8.99928" x2="11.6662" y2="8.24108" gradientUnits="userSpaceOnUse">
<stop stop-color="#A72B2B" stop-opacity="0"/>
<stop offset="1" stop-color="#42210B"/>
</linearGradient>
<linearGradient id="paint9_linear_229_4928" x1="7.51747" y1="6.10341" x2="12.3992" y2="10.9852" gradientUnits="userSpaceOnUse">
<stop stop-color="#EAF9FA"/>
<stop offset="1" stop-color="#B3DAFE"/>
</linearGradient>
<linearGradient id="paint10_linear_229_4928" x1="10.5892" y1="8.78439" x2="8.21008" y2="7.94776" gradientUnits="userSpaceOnUse">
<stop stop-color="#7BACDF" stop-opacity="0"/>
<stop offset="1" stop-color="#7BACDF"/>
</linearGradient>
<linearGradient id="paint11_linear_229_4928" x1="14.1645" y1="9.21387" x2="11.4716" y2="8.4034" gradientUnits="userSpaceOnUse">
<stop stop-color="#7BACDF" stop-opacity="0"/>
<stop offset="1" stop-color="#7BACDF"/>
</linearGradient>
<linearGradient id="paint12_linear_229_4928" x1="6.57893" y1="5.88957" x2="11.6005" y2="7.13118" gradientUnits="userSpaceOnUse">
<stop stop-color="#B3DAFE"/>
<stop offset="1" stop-color="#0182FC"/>
</linearGradient>
<linearGradient id="paint13_linear_229_4928" x1="8.82686" y1="3.6451" x2="10.8857" y2="3.21373" gradientUnits="userSpaceOnUse">
<stop stop-color="#0182FC" stop-opacity="0"/>
<stop offset="1" stop-color="#024C67"/>
</linearGradient>
<linearGradient id="paint14_linear_229_4928" x1="8.93073" y1="10.8874" x2="7.41297" y2="10.8874" gradientUnits="userSpaceOnUse">
<stop stop-color="#B3DAFE"/>
<stop offset="1" stop-color="#0182FC"/>
</linearGradient>
<linearGradient id="paint15_linear_229_4928" x1="8.98079" y1="5.88027" x2="14.5818" y2="7.06671" gradientUnits="userSpaceOnUse">
<stop stop-color="#B3DAFE"/>
<stop offset="1" stop-color="#0182FC"/>
</linearGradient>
<linearGradient id="paint16_linear_229_4928" x1="12.6249" y1="4.09019" x2="9.83289" y2="1.29815" gradientUnits="userSpaceOnUse">
<stop stop-color="#B3DAFE"/>
<stop offset="1" stop-color="#0182FC"/>
</linearGradient>
<linearGradient id="paint17_linear_229_4928" x1="12.463" y1="10.8874" x2="10.9452" y2="10.8874" gradientUnits="userSpaceOnUse">
<stop stop-color="#B3DAFE"/>
<stop offset="1" stop-color="#0182FC"/>
</linearGradient>
<clipPath id="clip0_229_4928">
<rect width="20" height="20" fill="white" transform="translate(0 0.5)"/>
</clipPath>
</defs>
</svg>
