<svg width="20" height="21" viewBox="0 0 20 21" fill="none" xmlns="http://www.w3.org/2000/svg">
<g clip-path="url(#clip0_229_5299)">
<path d="M10.9144 20.5001H9.08601C8.6866 20.5001 8.36279 20.1762 8.36279 19.7768V17.5371H11.6377V19.7768C11.6376 20.1762 11.3138 20.5001 10.9144 20.5001Z" fill="url(#paint0_linear_229_5299)"/>
<path d="M10.9144 20.5001H9.08601C8.6866 20.5001 8.36279 20.1762 8.36279 19.7768V17.5371H11.6377V19.7768C11.6376 20.1762 11.3138 20.5001 10.9144 20.5001Z" fill="url(#paint1_linear_229_5299)"/>
<path d="M12.6475 17.7891H7.35239C6.88702 17.7891 6.50977 17.4119 6.50977 16.9465V16.6629C6.50977 16.1976 6.88702 15.8203 7.35239 15.8203H12.6475C13.1129 15.8203 13.4902 16.1976 13.4902 16.6629V16.9465C13.4902 17.4118 13.1129 17.7891 12.6475 17.7891Z" fill="url(#paint2_linear_229_5299)"/>
<path d="M9.99985 3.15106C10.7319 3.15106 11.3254 2.5576 11.3254 1.82553C11.3254 1.09346 10.7319 0.5 9.99985 0.5C9.26778 0.5 8.67432 1.09346 8.67432 1.82553C8.67432 2.5576 9.26778 3.15106 9.99985 3.15106Z" fill="url(#paint3_linear_229_5299)"/>
<path d="M10.6823 2.09766H9.31847C7.60737 2.09766 6.12917 3.29393 5.77247 4.96746L5.61133 5.72338H14.3894L14.2283 4.96746C13.8716 3.29397 12.3934 2.09766 10.6823 2.09766Z" fill="url(#paint4_linear_229_5299)"/>
<path d="M11.8605 6.15976C11.8401 6.16133 11.8197 6.1625 11.7997 6.1625C11.4475 6.1625 11.1479 5.89309 11.1169 5.53584L11.0506 4.77976C11.0117 4.33337 10.9392 3.94999 10.8508 3.63235C10.7288 3.19466 11.0583 2.76172 11.5126 2.76172C11.8203 2.76172 12.0918 2.96572 12.174 3.26219C12.2908 3.68313 12.3736 4.15376 12.4181 4.6605L12.4839 5.41619C12.5173 5.79388 12.2377 6.12682 11.8605 6.15976Z" fill="url(#paint5_linear_229_5299)"/>
<path d="M8.48676 2.76172C8.94112 2.76172 9.27049 3.19466 9.14861 3.63235C9.06014 3.94999 8.98771 4.33337 8.94873 4.77976L8.88245 5.53584C8.85147 5.89309 8.55147 6.1625 8.19971 6.1625C8.17971 6.1625 8.15931 6.16172 8.13892 6.15976C7.76167 6.12682 7.48206 5.79388 7.51539 5.41623L7.58127 4.66054C7.62582 4.1538 7.70857 3.68313 7.82531 3.26223C7.90755 2.96572 8.17908 2.76172 8.48676 2.76172Z" fill="url(#paint6_linear_229_5299)"/>
<path d="M14.3723 6.30859C11.4577 6.30859 8.54303 6.30859 5.62837 6.30859C5.21864 9.47208 5.81374 12.5543 6.77735 15.5484H13.2233C14.1869 12.5544 14.782 9.47224 14.3723 6.30859Z" fill="url(#paint7_linear_229_5299)"/>
<path d="M14.3723 6.30859C11.4577 6.30859 8.54303 6.30859 5.62837 6.30859C5.21864 9.47208 5.81374 12.5543 6.77735 15.5484H13.2233C14.1869 12.5544 14.782 9.47224 14.3723 6.30859Z" fill="url(#paint8_linear_229_5299)"/>
<path d="M5.7694 11.5192H14.2311C14.5166 9.8084 14.6005 8.07118 14.3722 6.30859H5.62827C5.39999 8.0711 5.48391 9.80832 5.7694 11.5192Z" fill="url(#paint9_linear_229_5299)"/>
<path d="M9.62314 12.5383L9.28522 12.8865C8.58977 13.6032 8.39718 14.6694 8.79796 15.584L8.84749 15.6971H11.1526L11.2021 15.584C11.6029 14.6694 11.4103 13.6032 10.7148 12.8865L10.3769 12.5383C10.1706 12.3258 9.82946 12.3258 9.62314 12.5383Z" fill="url(#paint10_linear_229_5299)"/>
<path d="M7.2038 6.30859C6.6025 6.30859 6.00117 6.30859 5.39988 6.30859C4.96874 9.47208 5.59494 12.5543 6.6089 15.5484H8.41282C7.39886 12.5543 6.77266 9.47208 7.2038 6.30859Z" fill="url(#paint11_linear_229_5299)"/>
<path d="M7.35193 11.5192H5.54801C5.24761 9.8082 5.15977 8.07095 5.39977 6.30859H7.20369C6.96369 8.07095 7.05154 9.8082 7.35193 11.5192Z" fill="url(#paint12_linear_229_5299)"/>
<path d="M12.7964 6.30859H14.6003C15.0315 9.47208 14.4053 12.5543 13.3913 15.5484C12.79 15.5484 12.1887 15.5484 11.5874 15.5484C12.6014 12.5543 13.2276 9.47208 12.7964 6.30859Z" fill="url(#paint13_linear_229_5299)"/>
<path d="M14.4524 11.5192H12.6484C12.9488 9.8082 13.0367 8.07095 12.7967 6.30859H14.6006C14.8406 8.07095 14.7528 9.8082 14.4524 11.5192Z" fill="url(#paint14_linear_229_5299)"/>
<path d="M13.2926 17.0689H6.7073C6.23361 17.0689 5.84961 16.6849 5.84961 16.2112C5.84961 15.7375 6.23361 15.3535 6.7073 15.3535H13.2926C13.7663 15.3535 14.1503 15.7375 14.1503 16.2112C14.1503 16.6849 13.7663 17.0689 13.2926 17.0689Z" fill="url(#paint15_linear_229_5299)"/>
<path d="M14.0981 6.11385H5.90152C5.45191 6.11385 5.0874 5.74938 5.0874 5.29973V5.21256C5.0874 4.76295 5.45187 4.39844 5.90152 4.39844H14.0982C14.5478 4.39844 14.9123 4.76291 14.9123 5.21256V5.29973C14.9123 5.74934 14.5478 6.11385 14.0981 6.11385Z" fill="url(#paint16_linear_229_5299)"/>
<path d="M14.5949 7.36186H5.40505C4.93136 7.36186 4.54736 6.97786 4.54736 6.50417C4.54736 6.03048 4.93136 5.64648 5.40505 5.64648H14.5949C15.0685 5.64648 15.4525 6.03048 15.4525 6.50417C15.4525 6.97786 15.0685 7.36186 14.5949 7.36186Z" fill="url(#paint17_linear_229_5299)"/>
<path d="M18.3125 11.4074C18.3125 11.245 18.1808 11.1133 18.0184 11.1133H16.6066C16.4442 11.1133 16.3125 11.245 16.3125 11.4074C16.3125 11.5698 16.4442 11.7015 16.6066 11.7015H18.0184C18.1808 11.7015 18.3125 11.5699 18.3125 11.4074Z" fill="url(#paint18_linear_229_5299)"/>
<path d="M17.6625 14.7316C17.7236 14.5812 17.6513 14.4096 17.5008 14.3484L16.193 13.8167C16.0426 13.7555 15.871 13.8279 15.8098 13.9783C15.7951 14.0146 15.7881 14.0521 15.7881 14.089C15.7881 14.2051 15.8573 14.3151 15.9715 14.3616L17.2793 14.8933C17.4298 14.9545 17.6013 14.8821 17.6625 14.7316Z" fill="url(#paint19_linear_229_5299)"/>
<path d="M17.4617 8.36403C17.6113 8.30089 17.6815 8.12846 17.6184 7.9787C17.5552 7.82905 17.3827 7.75889 17.233 7.82203L15.9323 8.37081C15.82 8.41819 15.7524 8.52721 15.7524 8.64195C15.7524 8.68007 15.7599 8.71881 15.7757 8.75615C15.8388 8.90579 16.0113 8.97595 16.161 8.91281L17.4617 8.36403Z" fill="url(#paint20_linear_229_5299)"/>
<path d="M1.68799 11.4074C1.68799 11.245 1.81967 11.1133 1.98211 11.1133H3.39387C3.5563 11.1133 3.68799 11.245 3.68799 11.4074C3.68799 11.5698 3.5563 11.7015 3.39387 11.7015H1.98211C1.81967 11.7015 1.68799 11.5699 1.68799 11.4074Z" fill="url(#paint21_linear_229_5299)"/>
<path d="M2.33762 14.7316C2.27652 14.5812 2.34883 14.4096 2.49931 14.3484L3.80711 13.8167C3.95758 13.7555 4.12915 13.8279 4.19033 13.9783C4.20507 14.0146 4.21205 14.0521 4.21205 14.089C4.21205 14.2051 4.14284 14.3151 4.02864 14.3616L2.72084 14.8933C2.57036 14.9545 2.3988 14.8821 2.33762 14.7316Z" fill="url(#paint22_linear_229_5299)"/>
<path d="M2.53826 8.36403C2.38865 8.30089 2.31846 8.12846 2.38159 7.9787C2.44473 7.82905 2.61724 7.75889 2.76693 7.82203L4.06767 8.37081C4.17999 8.41819 4.24752 8.52721 4.24752 8.64195C4.24752 8.68007 4.24006 8.71881 4.2243 8.75615C4.16116 8.90579 3.98865 8.97595 3.83897 8.91281L2.53826 8.36403Z" fill="url(#paint23_linear_229_5299)"/>
</g>
<defs>
<linearGradient id="paint0_linear_229_5299" x1="9.17668" y1="19.0186" x2="11.3991" y2="19.0186" gradientUnits="userSpaceOnUse">
<stop stop-color="#5A5A5A"/>
<stop offset="1" stop-color="#444444"/>
</linearGradient>
<linearGradient id="paint1_linear_229_5299" x1="10.0002" y1="19.0099" x2="10.0002" y2="17.6629" gradientUnits="userSpaceOnUse">
<stop stop-color="#444444" stop-opacity="0"/>
<stop offset="0.0602" stop-color="#414141" stop-opacity="0.06"/>
<stop offset="0.6562" stop-color="#252525" stop-opacity="0.656"/>
<stop offset="1" stop-color="#1A1A1A"/>
</linearGradient>
<linearGradient id="paint2_linear_229_5299" x1="9.99996" y1="17.05" x2="9.99996" y2="17.7036" gradientUnits="userSpaceOnUse">
<stop stop-color="#5A5A5A"/>
<stop offset="1" stop-color="#444444"/>
</linearGradient>
<linearGradient id="paint3_linear_229_5299" x1="9.23961" y1="1.06529" x2="10.242" y2="2.06765" gradientUnits="userSpaceOnUse">
<stop stop-color="#5A5A5A"/>
<stop offset="1" stop-color="#444444"/>
</linearGradient>
<linearGradient id="paint4_linear_229_5299" x1="8.4307" y1="3.10448" x2="10.1039" y2="5.30056" gradientUnits="userSpaceOnUse">
<stop stop-color="#5A5A5A"/>
<stop offset="1" stop-color="#444444"/>
</linearGradient>
<linearGradient id="paint5_linear_229_5299" x1="12.2872" y1="4.46211" x2="10.7303" y2="4.46211" gradientUnits="userSpaceOnUse">
<stop stop-color="#5A5A5A"/>
<stop offset="1" stop-color="#444444"/>
</linearGradient>
<linearGradient id="paint6_linear_229_5299" x1="9.09774" y1="4.46211" x2="7.76433" y2="4.46211" gradientUnits="userSpaceOnUse">
<stop stop-color="#5A5A5A"/>
<stop offset="1" stop-color="#444444"/>
</linearGradient>
<linearGradient id="paint7_linear_229_5299" x1="7.73629" y1="8.08993" x2="12.5661" y2="12.9198" gradientUnits="userSpaceOnUse">
<stop stop-color="#FEF0AE"/>
<stop offset="1" stop-color="#FAC600"/>
</linearGradient>
<linearGradient id="paint8_linear_229_5299" x1="8.41864" y1="10.9285" x2="6.77158" y2="10.9285" gradientUnits="userSpaceOnUse">
<stop stop-color="#FEA613" stop-opacity="0"/>
<stop offset="0.26" stop-color="#F9911E" stop-opacity="0.26"/>
<stop offset="0.7954" stop-color="#EE5A39" stop-opacity="0.795"/>
<stop offset="1" stop-color="#E94444"/>
</linearGradient>
<linearGradient id="paint9_linear_229_5299" x1="10.0002" y1="9.02244" x2="10.0002" y2="6.79961" gradientUnits="userSpaceOnUse">
<stop stop-color="#FEA613" stop-opacity="0"/>
<stop offset="0.26" stop-color="#F9911E" stop-opacity="0.26"/>
<stop offset="0.7954" stop-color="#EE5A39" stop-opacity="0.795"/>
<stop offset="1" stop-color="#E94444"/>
</linearGradient>
<linearGradient id="paint10_linear_229_5299" x1="7.67004" y1="12.1755" x2="11.5637" y2="16.0692" gradientUnits="userSpaceOnUse">
<stop stop-color="#FEA613" stop-opacity="0"/>
<stop offset="0.26" stop-color="#F9911E" stop-opacity="0.26"/>
<stop offset="0.7954" stop-color="#EE5A39" stop-opacity="0.795"/>
<stop offset="1" stop-color="#E94444"/>
</linearGradient>
<linearGradient id="paint11_linear_229_5299" x1="5.72576" y1="10.9285" x2="6.62858" y2="10.9285" gradientUnits="userSpaceOnUse">
<stop stop-color="#5A5A5A"/>
<stop offset="1" stop-color="#444444"/>
</linearGradient>
<linearGradient id="paint12_linear_229_5299" x1="6.30683" y1="9.85906" x2="6.30683" y2="6.78161" gradientUnits="userSpaceOnUse">
<stop stop-color="#444444" stop-opacity="0"/>
<stop offset="0.0602" stop-color="#414141" stop-opacity="0.06"/>
<stop offset="0.6562" stop-color="#252525" stop-opacity="0.656"/>
<stop offset="1" stop-color="#1A1A1A"/>
</linearGradient>
<linearGradient id="paint13_linear_229_5299" x1="12.5132" y1="10.8071" x2="14.2649" y2="11.1731" gradientUnits="userSpaceOnUse">
<stop stop-color="#5A5A5A"/>
<stop offset="1" stop-color="#444444"/>
</linearGradient>
<linearGradient id="paint14_linear_229_5299" x1="13.6935" y1="9.85906" x2="13.6935" y2="6.78161" gradientUnits="userSpaceOnUse">
<stop stop-color="#444444" stop-opacity="0"/>
<stop offset="0.0602" stop-color="#414141" stop-opacity="0.06"/>
<stop offset="0.6562" stop-color="#252525" stop-opacity="0.656"/>
<stop offset="1" stop-color="#1A1A1A"/>
</linearGradient>
<linearGradient id="paint15_linear_229_5299" x1="9.99996" y1="15.7043" x2="9.99996" y2="16.9129" gradientUnits="userSpaceOnUse">
<stop stop-color="#5A5A5A"/>
<stop offset="1" stop-color="#444444"/>
</linearGradient>
<linearGradient id="paint16_linear_229_5299" x1="9.99983" y1="4.74934" x2="9.99983" y2="5.76969" gradientUnits="userSpaceOnUse">
<stop stop-color="#5A5A5A"/>
<stop offset="1" stop-color="#444444"/>
</linearGradient>
<linearGradient id="paint17_linear_229_5299" x1="9.99995" y1="5.99731" x2="9.99995" y2="7.0177" gradientUnits="userSpaceOnUse">
<stop stop-color="#5A5A5A"/>
<stop offset="1" stop-color="#444444"/>
</linearGradient>
<linearGradient id="paint18_linear_229_5299" x1="20.9822" y1="9.25156" x2="3.1596" y2="19.7216" gradientUnits="userSpaceOnUse">
<stop stop-color="#FEE97D"/>
<stop offset="1" stop-color="#FAC600"/>
</linearGradient>
<linearGradient id="paint19_linear_229_5299" x1="22.1211" y1="11.1915" x2="4.29844" y2="21.6616" gradientUnits="userSpaceOnUse">
<stop stop-color="#FEE97D"/>
<stop offset="1" stop-color="#FAC600"/>
</linearGradient>
<linearGradient id="paint20_linear_229_5299" x1="19.496" y1="6.72309" x2="1.67338" y2="17.1932" gradientUnits="userSpaceOnUse">
<stop stop-color="#FEE97D"/>
<stop offset="1" stop-color="#FAC600"/>
</linearGradient>
<linearGradient id="paint21_linear_229_5299" x1="-0.981737" y1="9.25156" x2="16.8409" y2="19.7216" gradientUnits="userSpaceOnUse">
<stop stop-color="#FEE97D"/>
<stop offset="1" stop-color="#FAC600"/>
</linearGradient>
<linearGradient id="paint22_linear_229_5299" x1="-2.12093" y1="11.1915" x2="15.7017" y2="21.6616" gradientUnits="userSpaceOnUse">
<stop stop-color="#FEE97D"/>
<stop offset="1" stop-color="#FAC600"/>
</linearGradient>
<linearGradient id="paint23_linear_229_5299" x1="0.503947" y1="6.72309" x2="18.3266" y2="17.1932" gradientUnits="userSpaceOnUse">
<stop stop-color="#FEE97D"/>
<stop offset="1" stop-color="#FAC600"/>
</linearGradient>
<clipPath id="clip0_229_5299">
<rect width="20" height="20" fill="white" transform="translate(0 0.5)"/>
</clipPath>
</defs>
</svg>
