<svg width="20" height="21" viewBox="0 0 20 21" fill="none" xmlns="http://www.w3.org/2000/svg">
<g clip-path="url(#clip0_229_5268)">
<path d="M16.3682 20.4995H3.63137C2.71306 20.4995 2.04996 19.6207 2.30196 18.7376L4.56302 10.8145H15.4365L17.6976 18.7376C17.9496 19.6207 17.2865 20.4995 16.3682 20.4995Z" fill="url(#paint0_linear_229_5268)"/>
<path d="M17.6975 18.7376L15.4367 10.8145H4.56301L3.08301 16.0015L7.58105 20.4996H16.3681C17.2865 20.4996 17.9497 19.6207 17.6975 18.7376Z" fill="url(#paint1_linear_229_5268)"/>
<path d="M2.30196 18.7378C2.04996 19.6209 2.71306 20.4997 3.63133 20.4997H16.3682C17.2865 20.4997 17.9496 19.6209 17.6976 18.7378L17.2752 17.2578H2.72427L2.30196 18.7378Z" fill="url(#paint2_linear_229_5268)"/>
<path d="M5.57858 3.40345L2.90344 6.07859L1.12101 5.10024C-0.141144 4.40741 -0.385104 2.6971 0.632974 1.67902L1.17905 1.13294C2.19709 0.114903 3.90741 0.358864 4.60023 1.62102L5.57858 3.40345Z" fill="url(#paint3_linear_229_5268)"/>
<path d="M4.56309 3.49269L2.99168 5.0641L1.94466 4.48939C1.20321 4.08245 1.05992 3.07774 1.65796 2.47971L1.97874 2.15892C2.57678 1.56088 3.58145 1.70422 3.98843 2.44563L4.56309 3.49269Z" fill="url(#paint4_linear_229_5268)"/>
<path d="M14.4214 3.40343L17.0965 6.07857L18.879 5.10022C20.1411 4.40743 20.3851 2.69712 19.367 1.67904L18.8209 1.13296C17.8028 0.114884 16.0925 0.358884 15.3997 1.621L14.4214 3.40343Z" fill="url(#paint5_linear_229_5268)"/>
<path d="M14.4214 3.40343L17.0965 6.07857L18.879 5.10022C20.1411 4.40743 20.3851 2.69712 19.367 1.67904L18.8209 1.13296C17.8028 0.114884 16.0925 0.358884 15.3997 1.621L14.4214 3.40343Z" fill="url(#paint6_linear_229_5268)"/>
<path d="M15.4365 3.49269L17.0079 5.0641L18.055 4.48939C18.7964 4.08245 18.9397 3.07774 18.3417 2.47971L18.0209 2.15892C17.4228 1.56088 16.4182 1.70422 16.0112 2.44563L15.4365 3.49269Z" fill="url(#paint7_linear_229_5268)"/>
<path d="M15.4365 3.49269L17.0079 5.0641L18.055 4.48939C18.7964 4.08245 18.9397 3.07774 18.3417 2.47971L18.0209 2.15892C17.4228 1.56088 16.4182 1.70422 16.0112 2.44563L15.4365 3.49269Z" fill="url(#paint8_linear_229_5268)"/>
<path d="M16.606 16.1213L13.5503 17.263C11.2608 18.1184 8.73947 18.1184 6.44998 17.263L3.39421 16.1213C1.00857 15.2299 -0.358102 12.7195 0.188055 10.232L0.665389 8.0582C1.62802 3.67423 5.51166 0.550781 10.0001 0.550781C14.4885 0.550781 18.3722 3.67419 19.3348 8.0582L19.8121 10.232C20.3583 12.7195 18.9916 15.2299 16.606 16.1213Z" fill="url(#paint9_linear_229_5268)"/>
<path d="M19.3347 8.05819C18.3721 3.67423 14.4884 0.550781 10 0.550781V17.9045C11.2027 17.9045 12.4054 17.6907 13.5501 17.2629L16.6058 16.1212C18.9915 15.2299 20.3582 12.7195 19.812 10.232L19.3347 8.05819Z" fill="url(#paint10_linear_229_5268)"/>
<path d="M0.665401 8.05867L0.188068 10.2325C-0.358128 12.72 1.00858 15.2304 3.39422 16.1217L6.44995 17.2635C8.7394 18.1189 11.2607 18.1189 13.5502 17.2635L16.6059 16.1217C18.9916 15.2304 20.3583 12.72 19.8121 10.2325L19.3348 8.05867C19.2327 7.59381 19.0974 7.14326 18.9325 6.70898H1.06771C0.902735 7.1433 0.76748 7.59381 0.665401 8.05867Z" fill="url(#paint11_linear_229_5268)"/>
<path d="M6.48122 12.0369C5.90777 12.0369 5.44287 11.572 5.44287 10.9986V10.4661C5.44287 9.89264 5.90773 9.42773 6.48122 9.42773C7.05467 9.42773 7.51958 9.89264 7.51958 10.4661V10.9986C7.51958 11.572 7.05467 12.0369 6.48122 12.0369Z" fill="url(#paint12_linear_229_5268)"/>
<path d="M13.5188 12.0369C12.9453 12.0369 12.4805 11.572 12.4805 10.9986V10.4661C12.4805 9.89264 12.9453 9.42773 13.5188 9.42773C14.0923 9.42773 14.5572 9.89264 14.5572 10.4661V10.9986C14.5572 11.572 14.0923 12.0369 13.5188 12.0369Z" fill="url(#paint13_linear_229_5268)"/>
<path d="M10.9561 18.3241H9.04334C7.40111 18.3241 6.17311 16.816 6.50585 15.2078L6.82025 13.6886C7.13221 12.1809 8.46013 11.0996 9.99974 11.0996C11.5393 11.0996 12.8673 12.1809 13.1792 13.6886L13.4936 15.2078C13.8263 16.816 12.5983 18.3241 10.9561 18.3241Z" fill="url(#paint14_linear_229_5268)"/>
<path d="M6.50585 15.2069C6.17311 16.8151 7.40111 18.3232 9.04334 18.3232H10.9561C12.5983 18.3232 13.8263 16.815 13.4936 15.2069L13.3004 14.2734H6.69899L6.50585 15.2069Z" fill="url(#paint15_linear_229_5268)"/>
<path d="M13.179 13.6886C12.867 12.1809 11.5391 11.0996 9.99951 11.0996V18.3242H10.9559C12.5981 18.3242 13.8261 16.816 13.4934 15.2079L13.179 13.6886Z" fill="url(#paint16_linear_229_5268)"/>
<path d="M9.02171 13.1977L8.39335 12.641C7.78531 12.1023 8.16633 11.0977 8.97869 11.0977H11.0214C11.8338 11.0977 12.2148 12.1023 11.6068 12.641L10.9784 13.1977C10.42 13.6924 9.58014 13.6924 9.02171 13.1977Z" fill="url(#paint17_linear_229_5268)"/>
</g>
<defs>
<linearGradient id="paint0_linear_229_5268" x1="8.89314" y1="12.5713" x2="10.3048" y2="20.9239" gradientUnits="userSpaceOnUse">
<stop stop-color="#F89580"/>
<stop offset="1" stop-color="#C4573A"/>
</linearGradient>
<linearGradient id="paint1_linear_229_5268" x1="10.4172" y1="19.8013" x2="10.4172" y2="14.4267" gradientUnits="userSpaceOnUse">
<stop stop-color="#C4573A" stop-opacity="0"/>
<stop offset="0.2579" stop-color="#BA5338" stop-opacity="0.258"/>
<stop offset="0.6987" stop-color="#9E4832" stop-opacity="0.699"/>
<stop offset="1" stop-color="#883F2E"/>
</linearGradient>
<linearGradient id="paint2_linear_229_5268" x1="9.99976" y1="18.3559" x2="9.99976" y2="20.4033" gradientUnits="userSpaceOnUse">
<stop stop-color="#C4573A" stop-opacity="0"/>
<stop offset="0.2579" stop-color="#BA5338" stop-opacity="0.258"/>
<stop offset="0.6987" stop-color="#9E4832" stop-opacity="0.699"/>
<stop offset="1" stop-color="#883F2E"/>
</linearGradient>
<linearGradient id="paint3_linear_229_5268" x1="1.47199" y1="1.97471" x2="3.68296" y2="4.18568" gradientUnits="userSpaceOnUse">
<stop stop-color="#F89580"/>
<stop offset="1" stop-color="#C4573A"/>
</linearGradient>
<linearGradient id="paint4_linear_229_5268" x1="1.80909" y1="2.3101" x2="3.94643" y2="4.44743" gradientUnits="userSpaceOnUse">
<stop stop-color="#FEAEE1"/>
<stop offset="1" stop-color="#FE2AA8"/>
</linearGradient>
<linearGradient id="paint5_linear_229_5268" x1="15.8401" y1="0.935511" x2="19.1342" y2="5.83747" gradientUnits="userSpaceOnUse">
<stop stop-color="#F89580"/>
<stop offset="1" stop-color="#C4573A"/>
</linearGradient>
<linearGradient id="paint6_linear_229_5268" x1="18.2486" y1="1.51547" x2="16.7584" y2="4.45665" gradientUnits="userSpaceOnUse">
<stop stop-color="#C4573A" stop-opacity="0"/>
<stop offset="0.2579" stop-color="#BA5338" stop-opacity="0.258"/>
<stop offset="0.6987" stop-color="#9E4832" stop-opacity="0.699"/>
<stop offset="1" stop-color="#883F2E"/>
</linearGradient>
<linearGradient id="paint7_linear_229_5268" x1="16.0894" y1="2.18649" x2="18.7963" y2="4.89339" gradientUnits="userSpaceOnUse">
<stop stop-color="#FEAEE1"/>
<stop offset="1" stop-color="#FE2AA8"/>
</linearGradient>
<linearGradient id="paint8_linear_229_5268" x1="17.5941" y1="2.38488" x2="16.9404" y2="3.87508" gradientUnits="userSpaceOnUse">
<stop stop-color="#FE0364" stop-opacity="0"/>
<stop offset="0.399" stop-color="#F70360" stop-opacity="0.399"/>
<stop offset="0.9738" stop-color="#E40257" stop-opacity="0.974"/>
<stop offset="1" stop-color="#E30256"/>
</linearGradient>
<linearGradient id="paint9_linear_229_5268" x1="4.58159" y1="4.56745" x2="14.0542" y2="14.04" gradientUnits="userSpaceOnUse">
<stop stop-color="#F89580"/>
<stop offset="1" stop-color="#C4573A"/>
</linearGradient>
<linearGradient id="paint10_linear_229_5268" x1="13.8269" y1="9.22764" x2="19.8994" y2="9.22764" gradientUnits="userSpaceOnUse">
<stop stop-color="#C4573A" stop-opacity="0"/>
<stop offset="0.2579" stop-color="#BA5338" stop-opacity="0.258"/>
<stop offset="0.6987" stop-color="#9E4832" stop-opacity="0.699"/>
<stop offset="1" stop-color="#883F2E"/>
</linearGradient>
<linearGradient id="paint11_linear_229_5268" x1="10.0001" y1="12.7922" x2="10.0001" y2="17.4573" gradientUnits="userSpaceOnUse">
<stop stop-color="#C4573A" stop-opacity="0"/>
<stop offset="0.2579" stop-color="#BA5338" stop-opacity="0.258"/>
<stop offset="0.6987" stop-color="#9E4832" stop-opacity="0.699"/>
<stop offset="1" stop-color="#883F2E"/>
</linearGradient>
<linearGradient id="paint12_linear_229_5268" x1="5.80401" y1="10.2338" x2="7.24569" y2="11.2951" gradientUnits="userSpaceOnUse">
<stop stop-color="#5A5A5A"/>
<stop offset="1" stop-color="#444444"/>
</linearGradient>
<linearGradient id="paint13_linear_229_5268" x1="12.7713" y1="10.1717" x2="14.0528" y2="11.1328" gradientUnits="userSpaceOnUse">
<stop stop-color="#5A5A5A"/>
<stop offset="1" stop-color="#444444"/>
</linearGradient>
<linearGradient id="paint14_linear_229_5268" x1="8.36993" y1="13.4246" x2="11.8797" y2="16.9344" gradientUnits="userSpaceOnUse">
<stop stop-color="#FFDFCF"/>
<stop offset="1" stop-color="#FFA78F"/>
</linearGradient>
<linearGradient id="paint15_linear_229_5268" x1="9.9997" y1="15.9597" x2="9.9997" y2="18.399" gradientUnits="userSpaceOnUse">
<stop stop-color="#F89580" stop-opacity="0"/>
<stop offset="0.2599" stop-color="#F2917C" stop-opacity="0.261"/>
<stop offset="0.5954" stop-color="#E2856F" stop-opacity="0.597"/>
<stop offset="0.9709" stop-color="#C8725B" stop-opacity="0.974"/>
<stop offset="0.9972" stop-color="#C5715A"/>
</linearGradient>
<linearGradient id="paint16_linear_229_5268" x1="12.1976" y1="16.3406" x2="9.3479" y2="13.2034" gradientUnits="userSpaceOnUse">
<stop stop-color="#F89580" stop-opacity="0"/>
<stop offset="0.2599" stop-color="#F2917C" stop-opacity="0.261"/>
<stop offset="0.5954" stop-color="#E2856F" stop-opacity="0.597"/>
<stop offset="0.9709" stop-color="#C8725B" stop-opacity="0.974"/>
<stop offset="0.9972" stop-color="#C5715A"/>
</linearGradient>
<linearGradient id="paint17_linear_229_5268" x1="9.48735" y1="11.4662" x2="10.4052" y2="12.384" gradientUnits="userSpaceOnUse">
<stop stop-color="#5A5A5A"/>
<stop offset="1" stop-color="#444444"/>
</linearGradient>
<clipPath id="clip0_229_5268">
<rect width="20" height="20" fill="white" transform="translate(0 0.5)"/>
</clipPath>
</defs>
</svg>
